<svg version="1.1" xmlns="http://www.w3.org/2000/svg" xmlns:xlink="http://www.w3.org/1999/xlink" width="966" height="562"><defs><clipPath id="kZKcpAxdiqJw"><path fill="none" stroke="none" d=" M 0 0 L 966 0 L 966 562 L 0 562 L 0 0 Z"/></clipPath></defs><g transform="scale(1,1)" clip-path="url(#kZKcpAxdiqJw)"><g><rect fill="rgb(255,255,255)" stroke="none" x="0" y="0" width="966" height="562" fill-opacity="1"/><path fill="rgb(0,100,0)" stroke="none" paint-order="stroke fill markers" fill-rule="evenodd" d=" M 440.63316231778225 323.3450049488739 L 471.9648247417122 457.88684947516197 L 551.2155002845939 515.0210574246817 L 721.6966046500952 497.51218724660305 L 812.9270334727147 429.3197455004022 L 877.4333972866882 299.385498389398 L 877.4333972866882 -170.69093413016014 L 440.63316231778225 -162.29576262204262 Z" fill-opacity="0.09803921568627451"/><path fill="none" stroke="rgb(0,100,0)" paint-order="fill stroke markers" d=" M 440.63316231778225 323.3450049488739 L 471.9648247417122 457.88684947516197 L 551.2155002845939 515.0210574246817 L 721.6966046500952 497.51218724660305 L 812.9270334727147 429.3197455004022 L 877.4333972866882 299.385498389398" stroke-opacity="0.6980392156862745" stroke-linecap="round" stroke-linejoin="round" stroke-miterlimit="10" stroke-width="2.5"/><path fill="none" stroke="rgb(0,100,0)" paint-order="fill stroke markers" d=" M 440.63316231778225 323.3450049488739 L 471.9648247417122 457.88684947516197" stroke-opacity="0.6980392156862745" stroke-linecap="round" stroke-linejoin="round" stroke-miterlimit="10" stroke-width="2.5"/><path fill="none" stroke="rgb(0,100,0)" paint-order="fill stroke markers" d=" M 471.9648247417122 457.88684947516197 L 551.2155002845939 515.0210574246817" stroke-opacity="0.6980392156862745" stroke-linecap="round" stroke-linejoin="round" stroke-miterlimit="10" stroke-width="2.5"/><path fill="none" stroke="rgb(0,100,0)" paint-order="fill stroke markers" d=" M 551.2155002845939 515.0210574246817 L 721.6966046500952 497.51218724660305" stroke-opacity="0.6980392156862745" stroke-linecap="round" stroke-linejoin="round" stroke-miterlimit="10" stroke-width="2.5"/><path fill="none" stroke="rgb(0,100,0)" paint-order="fill stroke markers" d=" M 721.6966046500952 497.51218724660305 L 812.9270334727147 429.3197455004022" stroke-opacity="0.6980392156862745" stroke-linecap="round" stroke-linejoin="round" stroke-miterlimit="10" stroke-width="2.5"/><path fill="none" stroke="rgb(0,100,0)" paint-order="fill stroke markers" d=" M 812.9270334727147 429.3197455004022 L 877.4333972866882 299.385498389398" stroke-opacity="0.6980392156862745" stroke-linecap="round" stroke-linejoin="round" stroke-miterlimit="10" stroke-width="2.5"/><path fill="none" stroke="rgb(0,100,0)" paint-order="fill stroke markers" d=" M 877.4333972866882 299.385498389398 L 877.4333972866882 -5" stroke-opacity="0.6980392156862745" stroke-linecap="round" stroke-linejoin="round" stroke-miterlimit="10" stroke-width="2.5"/><path fill="none" stroke="rgb(0,100,0)" paint-order="fill stroke markers" d=" M 440.63316231778225 323.3450049488739 L 440.63316231778225 -5" stroke-opacity="0.6980392156862745" stroke-linecap="round" stroke-linejoin="round" stroke-miterlimit="10" stroke-width="2.5"/><path fill="rgb(77,77,255)" stroke="none" paint-order="stroke fill markers" d=" M 445.63316231778225 323.3450049488739 C 445.63316231778225 326.10642869802786 443.3945860669362 328.3450049488739 440.63316231778225 328.3450049488739 C 437.8717385686283 328.3450049488739 435.63316231778225 326.10642869802786 435.63316231778225 323.3450049488739 C 435.63316231778225 320.58358119971996 437.8717385686283 318.3450049488739 440.63316231778225 318.3450049488739 C 443.3945860669362 318.3450049488739 445.63316231778225 320.58358119971996 445.63316231778225 323.3450049488739 Z" fill-opacity="1"/><path fill="none" stroke="rgb(0,0,0)" paint-order="fill stroke markers" d=" M 445.63316231778225 323.3450049488739 C 445.63316231778225 326.10642869802786 443.3945860669362 328.3450049488739 440.63316231778225 328.3450049488739 C 437.8717385686283 328.3450049488739 435.63316231778225 326.10642869802786 435.63316231778225 323.3450049488739 C 435.63316231778225 320.58358119971996 437.8717385686283 318.3450049488739 440.63316231778225 318.3450049488739 C 443.3945860669362 318.3450049488739 445.63316231778225 320.58358119971996 445.63316231778225 323.3450049488739 Z" stroke-opacity="1" stroke-linecap="round" stroke-linejoin="round" stroke-miterlimit="10"/><path fill="rgb(77,77,255)" stroke="none" paint-order="stroke fill markers" d=" M 528.5699157928909 251.46648527044601 C 528.5699157928909 254.2279090196 526.3313395420449 256.466485270446 523.5699157928909 256.466485270446 C 520.8084920437369 256.466485270446 518.5699157928909 254.2279090196 518.5699157928909 251.46648527044601 C 518.5699157928909 248.70506152129204 520.8084920437369 246.46648527044601 523.5699157928909 246.46648527044601 C 526.3313395420449 246.46648527044601 528.5699157928909 248.70506152129204 528.5699157928909 251.46648527044601 Z" fill-opacity="1"/><path fill="none" stroke="rgb(0,0,0)" paint-order="fill stroke markers" d=" M 528.5699157928909 251.46648527044601 C 528.5699157928909 254.2279090196 526.3313395420449 256.466485270446 523.5699157928909 256.466485270446 C 520.8084920437369 256.466485270446 518.5699157928909 254.2279090196 518.5699157928909 251.46648527044601 C 518.5699157928909 248.70506152129204 520.8084920437369 246.46648527044601 523.5699157928909 246.46648527044601 C 526.3313395420449 246.46648527044601 528.5699157928909 248.70506152129204 528.5699157928909 251.46648527044601 Z" stroke-opacity="1" stroke-linecap="round" stroke-linejoin="round" stroke-miterlimit="10"/><path fill="rgb(77,77,255)" stroke="none" paint-order="stroke fill markers" d=" M 697.2079811922787 214.60570594817534 C 697.2079811922787 217.36712969732932 694.9694049414327 219.60570594817534 692.2079811922787 219.60570594817534 C 689.4465574431247 219.60570594817534 687.2079811922787 217.36712969732932 687.2079811922787 214.60570594817534 C 687.2079811922787 211.84428219902136 689.4465574431247 209.60570594817534 692.2079811922787 209.60570594817534 C 694.9694049414327 209.60570594817534 697.2079811922787 211.84428219902136 697.2079811922787 214.60570594817534 Z" fill-opacity="1"/><path fill="none" stroke="rgb(0,0,0)" paint-order="fill stroke markers" d=" M 697.2079811922787 214.60570594817534 C 697.2079811922787 217.36712969732932 694.9694049414327 219.60570594817534 692.2079811922787 219.60570594817534 C 689.4465574431247 219.60570594817534 687.2079811922787 217.36712969732932 687.2079811922787 214.60570594817534 C 687.2079811922787 211.84428219902136 689.4465574431247 209.60570594817534 692.2079811922787 209.60570594817534 C 694.9694049414327 209.60570594817534 697.2079811922787 211.84428219902136 697.2079811922787 214.60570594817534 Z" stroke-opacity="1" stroke-linecap="round" stroke-linejoin="round" stroke-miterlimit="10"/><path fill="rgb(77,77,255)" stroke="none" paint-order="stroke fill markers" d=" M 882.4333972866882 299.385498389398 C 882.4333972866882 302.14692213855193 880.1948210358422 304.385498389398 877.4333972866882 304.385498389398 C 874.6719735375342 304.385498389398 872.4333972866882 302.14692213855193 872.4333972866882 299.385498389398 C 872.4333972866882 296.62407464024403 874.6719735375342 294.385498389398 877.4333972866882 294.385498389398 C 880.1948210358422 294.385498389398 882.4333972866882 296.62407464024403 882.4333972866882 299.385498389398 Z" fill-opacity="1"/><path fill="none" stroke="rgb(0,0,0)" paint-order="fill stroke markers" d=" M 882.4333972866882 299.385498389398 C 882.4333972866882 302.14692213855193 880.1948210358422 304.385498389398 877.4333972866882 304.385498389398 C 874.6719735375342 304.385498389398 872.4333972866882 302.14692213855193 872.4333972866882 299.385498389398 C 872.4333972866882 296.62407464024403 874.6719735375342 294.385498389398 877.4333972866882 294.385498389398 C 880.1948210358422 294.385498389398 882.4333972866882 296.62407464024403 882.4333972866882 299.385498389398 Z" stroke-opacity="1" stroke-linecap="round" stroke-linejoin="round" stroke-miterlimit="10"/><path fill="rgb(77,77,255)" stroke="none" paint-order="stroke fill markers" d=" M 817.9270334727147 429.3197455004022 C 817.9270334727147 432.0811692495561 815.6884572218687 434.3197455004022 812.9270334727147 434.3197455004022 C 810.1656097235607 434.3197455004022 807.9270334727147 432.0811692495561 807.9270334727147 429.3197455004022 C 807.9270334727147 426.55832175124823 810.1656097235607 424.3197455004022 812.9270334727147 424.3197455004022 C 815.6884572218687 424.3197455004022 817.9270334727147 426.55832175124823 817.9270334727147 429.3197455004022 Z" fill-opacity="1"/><path fill="none" stroke="rgb(0,0,0)" paint-order="fill stroke markers" d=" M 817.9270334727147 429.3197455004022 C 817.9270334727147 432.0811692495561 815.6884572218687 434.3197455004022 812.9270334727147 434.3197455004022 C 810.1656097235607 434.3197455004022 807.9270334727147 432.0811692495561 807.9270334727147 429.3197455004022 C 807.9270334727147 426.55832175124823 810.1656097235607 424.3197455004022 812.9270334727147 424.3197455004022 C 815.6884572218687 424.3197455004022 817.9270334727147 426.55832175124823 817.9270334727147 429.3197455004022 Z" stroke-opacity="1" stroke-linecap="round" stroke-linejoin="round" stroke-miterlimit="10"/><path fill="rgb(77,77,255)" stroke="none" paint-order="stroke fill markers" d=" M 726.6966046500952 497.51218724660305 C 726.6966046500952 500.273610995757 724.4580283992492 502.51218724660305 721.6966046500952 502.51218724660305 C 718.9351809009412 502.51218724660305 716.6966046500952 500.273610995757 716.6966046500952 497.51218724660305 C 716.6966046500952 494.7507634974491 718.9351809009412 492.51218724660305 721.6966046500952 492.51218724660305 C 724.4580283992492 492.51218724660305 726.6966046500952 494.7507634974491 726.6966046500952 497.51218724660305 Z" fill-opacity="1"/><path fill="none" stroke="rgb(0,0,0)" paint-order="fill stroke markers" d=" M 726.6966046500952 497.51218724660305 C 726.6966046500952 500.273610995757 724.4580283992492 502.51218724660305 721.6966046500952 502.51218724660305 C 718.9351809009412 502.51218724660305 716.6966046500952 500.273610995757 716.6966046500952 497.51218724660305 C 716.6966046500952 494.7507634974491 718.9351809009412 492.51218724660305 721.6966046500952 492.51218724660305 C 724.4580283992492 492.51218724660305 726.6966046500952 494.7507634974491 726.6966046500952 497.51218724660305 Z" stroke-opacity="1" stroke-linecap="round" stroke-linejoin="round" stroke-miterlimit="10"/><path fill="rgb(77,77,255)" stroke="none" paint-order="stroke fill markers" d=" M 556.2155002845939 515.0210574246817 C 556.2155002845939 517.7824811738357 553.9769240337479 520.0210574246817 551.2155002845939 520.0210574246817 C 548.4540765354399 520.0210574246817 546.2155002845939 517.7824811738357 546.2155002845939 515.0210574246817 C 546.2155002845939 512.2596336755277 548.4540765354399 510.02105742468166 551.2155002845939 510.02105742468166 C 553.9769240337479 510.02105742468166 556.2155002845939 512.2596336755277 556.2155002845939 515.0210574246817 Z" fill-opacity="1"/><path fill="none" stroke="rgb(0,0,0)" paint-order="fill stroke markers" d=" M 556.2155002845939 515.0210574246817 C 556.2155002845939 517.7824811738357 553.9769240337479 520.0210574246817 551.2155002845939 520.0210574246817 C 548.4540765354399 520.0210574246817 546.2155002845939 517.7824811738357 546.2155002845939 515.0210574246817 C 546.2155002845939 512.2596336755277 548.4540765354399 510.02105742468166 551.2155002845939 510.02105742468166 C 553.9769240337479 510.02105742468166 556.2155002845939 512.2596336755277 556.2155002845939 515.0210574246817 Z" stroke-opacity="1" stroke-linecap="round" stroke-linejoin="round" stroke-miterlimit="10"/><path fill="rgb(77,77,255)" stroke="none" paint-order="stroke fill markers" d=" M 476.9648247417122 457.88684947516197 C 476.9648247417122 460.6482732243159 474.72624849086617 462.88684947516197 471.9648247417122 462.88684947516197 C 469.2034009925583 462.88684947516197 466.9648247417122 460.6482732243159 466.9648247417122 457.88684947516197 C 466.9648247417122 455.125425726008 469.2034009925583 452.88684947516197 471.9648247417122 452.88684947516197 C 474.72624849086617 452.88684947516197 476.9648247417122 455.125425726008 476.9648247417122 457.88684947516197 Z" fill-opacity="1"/><path fill="none" stroke="rgb(0,0,0)" paint-order="fill stroke markers" d=" M 476.9648247417122 457.88684947516197 C 476.9648247417122 460.6482732243159 474.72624849086617 462.88684947516197 471.9648247417122 462.88684947516197 C 469.2034009925583 462.88684947516197 466.9648247417122 460.6482732243159 466.9648247417122 457.88684947516197 C 466.9648247417122 455.125425726008 469.2034009925583 452.88684947516197 471.9648247417122 452.88684947516197 C 474.72624849086617 452.88684947516197 476.9648247417122 455.125425726008 476.9648247417122 457.88684947516197 Z" stroke-opacity="1" stroke-linecap="round" stroke-linejoin="round" stroke-miterlimit="10"/><path fill="rgb(0,0,255)" stroke="none" paint-order="stroke fill markers" d=" M 631.1443266502739 319.93671967732917 C 631.1443266502739 322.6981434264831 628.9057503994279 324.93671967732917 626.1443266502739 324.93671967732917 C 623.3829029011199 324.93671967732917 621.1443266502739 322.6981434264831 621.1443266502739 319.93671967732917 C 621.1443266502739 317.1752959281752 623.3829029011199 314.93671967732917 626.1443266502739 314.93671967732917 C 628.9057503994279 314.93671967732917 631.1443266502739 317.1752959281752 631.1443266502739 319.93671967732917 Z" fill-opacity="1"/><path fill="none" stroke="rgb(0,0,0)" paint-order="fill stroke markers" d=" M 631.1443266502739 319.93671967732917 C 631.1443266502739 322.6981434264831 628.9057503994279 324.93671967732917 626.1443266502739 324.93671967732917 C 623.3829029011199 324.93671967732917 621.1443266502739 322.6981434264831 621.1443266502739 319.93671967732917 C 621.1443266502739 317.1752959281752 623.3829029011199 314.93671967732917 626.1443266502739 314.93671967732917 C 628.9057503994279 314.93671967732917 631.1443266502739 317.1752959281752 631.1443266502739 319.93671967732917 Z" stroke-opacity="1" stroke-linecap="round" stroke-linejoin="round" stroke-miterlimit="10"/><path fill="rgb(0,0,255)" stroke="none" paint-order="stroke fill markers" d=" M 572.076384713086 396.981861334531 C 572.076384713086 399.74328508368495 569.83780846224 401.981861334531 567.076384713086 401.981861334531 C 564.314960963932 401.981861334531 562.076384713086 399.74328508368495 562.076384713086 396.981861334531 C 562.076384713086 394.22043758537706 564.314960963932 391.981861334531 567.076384713086 391.981861334531 C 569.83780846224 391.981861334531 572.076384713086 394.22043758537706 572.076384713086 396.981861334531 Z" fill-opacity="1"/><path fill="none" stroke="rgb(0,0,0)" paint-order="fill stroke markers" d=" M 572.076384713086 396.981861334531 C 572.076384713086 399.74328508368495 569.83780846224 401.981861334531 567.076384713086 401.981861334531 C 564.314960963932 401.981861334531 562.076384713086 399.74328508368495 562.076384713086 396.981861334531 C 562.076384713086 394.22043758537706 564.314960963932 391.981861334531 567.076384713086 391.981861334531 C 569.83780846224 391.981861334531 572.076384713086 394.22043758537706 572.076384713086 396.981861334531 Z" stroke-opacity="1" stroke-linecap="round" stroke-linejoin="round" stroke-miterlimit="10"/><path fill="rgb(0,0,255)" stroke="none" paint-order="stroke fill markers" d=" M 785.234609964677 335.3457480087697 C 785.234609964677 338.10717175792365 782.996033713831 340.3457480087697 780.234609964677 340.3457480087697 C 777.473186215523 340.3457480087697 775.234609964677 338.10717175792365 775.234609964677 335.3457480087697 C 775.234609964677 332.58432425961576 777.473186215523 330.3457480087697 780.234609964677 330.3457480087697 C 782.996033713831 330.3457480087697 785.234609964677 332.58432425961576 785.234609964677 335.3457480087697 Z" fill-opacity="1"/><path fill="none" stroke="rgb(0,0,0)" paint-order="fill stroke markers" d=" M 785.234609964677 335.3457480087697 C 785.234609964677 338.10717175792365 782.996033713831 340.3457480087697 780.234609964677 340.3457480087697 C 777.473186215523 340.3457480087697 775.234609964677 338.10717175792365 775.234609964677 335.3457480087697 C 775.234609964677 332.58432425961576 777.473186215523 330.3457480087697 780.234609964677 330.3457480087697 C 782.996033713831 330.3457480087697 785.234609964677 332.58432425961576 785.234609964677 335.3457480087697 Z" stroke-opacity="1" stroke-linecap="round" stroke-linejoin="round" stroke-miterlimit="10"/><g transform="scale(27,27)"><g transform="translate(23.40740740740741,1.7314821481481482)"><path fill="rgb(0,0,0)" stroke="none" paint-order="stroke fill markers" d=" M 0.40900000000000003 -0.23 L 0.40900000000000003 0.05 Q 0.40900000000000003 0.082 0.389 0.083 Q 0.369 0.083 0.369 0.05 L 0.369 -0.23 L 0.089 -0.23 Q 0.057 -0.23 0.056 -0.25 Q 0.056 -0.27 0.089 -0.27 L 0.369 -0.27 L 0.369 -0.55 Q 0.369 -0.582 0.389 -0.583 Q 0.40900000000000003 -0.583 0.40900000000000003 -0.55 L 0.40900000000000003 -0.27 L 0.6880000000000001 -0.27 Q 0.72 -0.27 0.721 -0.25 Q 0.721 -0.23 0.6880000000000001 -0.23 L 0.40900000000000003 -0.23 Z"/></g><g transform="translate(24.18518840740741,1.7314821481481482)"><path fill="rgb(0,0,0)" stroke="none" paint-order="stroke fill markers" d=" M 0.508 -0.272 Q 0.5670000000000001 -0.372 0.652 -0.41600000000000004 Q 0.7020000000000001 -0.442 0.754 -0.442 Q 0.85 -0.442 0.905 -0.353 Q 0.9430000000000001 -0.292 0.9430000000000001 -0.216 Q 0.9430000000000001 -0.112 0.879 -0.045 Q 0.8260000000000001 0.011 0.751 0.011 Q 0.663 0.011 0.581 -0.058 Q 0.559 -0.077 0.514 -0.131 L 0.491 -0.159 Q 0.432 -0.059000000000000004 0.34700000000000003 -0.015 Q 0.297 0.011 0.245 0.011 Q 0.149 0.011 0.094 -0.078 Q 0.056 -0.139 0.056 -0.215 Q 0.056 -0.319 0.12 -0.386 Q 0.17300000000000001 -0.442 0.248 -0.442 Q 0.336 -0.442 0.418 -0.373 Q 0.44 -0.354 0.485 -0.3 L 0.489 -0.295 Q 0.495 -0.28700000000000003 0.508 -0.272 M 0.534 -0.23700000000000002 L 0.63 -0.114 Q 0.631 -0.114 0.631 -0.113 L 0.635 -0.109 Q 0.7010000000000001 -0.037 0.767 -0.037 Q 0.839 -0.037 0.886 -0.10200000000000001 Q 0.921 -0.151 0.921 -0.216 Q 0.921 -0.304 0.868 -0.362 Q 0.8290000000000001 -0.405 0.773 -0.41000000000000003 L 0.761 -0.41000000000000003 Q 0.635 -0.41000000000000003 0.539 -0.246 Q 0.537 -0.242 0.534 -0.23700000000000002 M 0.465 -0.194 L 0.465 -0.194 L 0.369 -0.317 L 0.368 -0.318 L 0.364 -0.322 Q 0.298 -0.394 0.232 -0.394 Q 0.16 -0.394 0.113 -0.329 Q 0.078 -0.28 0.078 -0.215 Q 0.078 -0.127 0.131 -0.069 Q 0.17400000000000002 -0.021 0.23800000000000002 -0.021 Q 0.364 -0.021 0.46 -0.185 Q 0.462 -0.189 0.465 -0.194 Z"/></g></g></g></g></svg>