<?xml version="1.0" encoding="UTF-8" standalone="no"?>
<svg
   xmlns:dc="http://purl.org/dc/elements/1.1/"
   xmlns:cc="http://creativecommons.org/ns#"
   xmlns:rdf="http://www.w3.org/1999/02/22-rdf-syntax-ns#"
   xmlns:svg="http://www.w3.org/2000/svg"
   xmlns="http://www.w3.org/2000/svg"
   xmlns:sodipodi="http://sodipodi.sourceforge.net/DTD/sodipodi-0.dtd"
   xmlns:inkscape="http://www.inkscape.org/namespaces/inkscape"
   version="1.1"
   width="766"
   height="562"
   id="svg1385"
   sodipodi:docname="andrew_init_fixed.svg"
   inkscape:version="0.92.2 (unknown)">
  <metadata
     id="metadata1389">
    <rdf:RDF>
      <cc:Work
         rdf:about="">
        <dc:format>image/svg+xml</dc:format>
        <dc:type
           rdf:resource="http://purl.org/dc/dcmitype/StillImage" />
        <dc:title></dc:title>
      </cc:Work>
    </rdf:RDF>
  </metadata>
  <sodipodi:namedview
     pagecolor="#ffffff"
     bordercolor="#666666"
     borderopacity="1"
     objecttolerance="10"
     gridtolerance="10"
     guidetolerance="10"
     inkscape:pageopacity="0"
     inkscape:pageshadow="2"
     inkscape:window-width="1366"
     inkscape:window-height="706"
     id="namedview1387"
     showgrid="false"
     fit-margin-top="0"
     fit-margin-left="0"
     fit-margin-right="0"
     fit-margin-bottom="0"
     inkscape:zoom="0.33022774"
     inkscape:cx="307.22571"
     inkscape:cy="281"
     inkscape:window-x="0"
     inkscape:window-y="34"
     inkscape:window-maximized="1"
     inkscape:current-layer="svg1385" />
  <defs
     id="defs1333">
    <clipPath
       id="fnzcxhcNgVuT">
      <path
         d="M 0,0 H 966 V 562 H 0 Z"
         id="path1330"
         inkscape:connector-curvature="0"
         style="fill:none;stroke:none" />
    </clipPath>
    <clipPath
       clipPathUnits="userSpaceOnUse"
       id="clipPath1399">
      <rect
         id="rect1401"
         width="766"
         height="562"
         x="200"
         y="0" />
    </clipPath>
  </defs>
  <g
     clip-path="url(#clipPath1399)"
     id="g1383"
     transform="translate(-200)">
    <g
       id="g1381">
      <rect
         x="0"
         y="0"
         width="966"
         height="562"
         id="rect1335"
         style="fill:#ffffff;fill-opacity:1;stroke:none" />
      <path
         d="m 445.63316,323.345 c 0,2.76143 -2.23857,5 -5,5 -2.76142,0 -5,-2.23857 -5,-5 0,-2.76142 2.23858,-5 5,-5 2.76143,0 5,2.23858 5,5 z"
         id="path1337"
         inkscape:connector-curvature="0"
         style="fill:#4d4dff;fill-opacity:1;stroke:none;paint-order:stroke fill markers" />
      <path
         d="m 445.63316,323.345 c 0,2.76143 -2.23857,5 -5,5 -2.76142,0 -5,-2.23857 -5,-5 0,-2.76142 2.23858,-5 5,-5 2.76143,0 5,2.23858 5,5 z"
         stroke-miterlimit="10"
         id="path1339"
         inkscape:connector-curvature="0"
         style="fill:none;stroke:#000000;stroke-linecap:round;stroke-linejoin:round;stroke-miterlimit:10;stroke-opacity:1;paint-order:fill stroke markers" />
      <path
         d="m 528.56992,251.46649 c 0,2.76142 -2.23858,5 -5,5 -2.76143,0 -5,-2.23858 -5,-5 0,-2.76143 2.23857,-5 5,-5 2.76142,0 5,2.23857 5,5 z"
         id="path1341"
         inkscape:connector-curvature="0"
         style="fill:#4d4dff;fill-opacity:1;stroke:none;paint-order:stroke fill markers" />
      <path
         d="m 528.56992,251.46649 c 0,2.76142 -2.23858,5 -5,5 -2.76143,0 -5,-2.23858 -5,-5 0,-2.76143 2.23857,-5 5,-5 2.76142,0 5,2.23857 5,5 z"
         stroke-miterlimit="10"
         id="path1343"
         inkscape:connector-curvature="0"
         style="fill:none;stroke:#000000;stroke-linecap:round;stroke-linejoin:round;stroke-miterlimit:10;stroke-opacity:1;paint-order:fill stroke markers" />
      <path
         d="m 697.20798,214.60571 c 0,2.76142 -2.23858,5 -5,5 -2.76142,0 -5,-2.23858 -5,-5 0,-2.76143 2.23858,-5 5,-5 2.76142,0 5,2.23857 5,5 z"
         id="path1345"
         inkscape:connector-curvature="0"
         style="fill:#4d4dff;fill-opacity:1;stroke:none;paint-order:stroke fill markers" />
      <path
         d="m 697.20798,214.60571 c 0,2.76142 -2.23858,5 -5,5 -2.76142,0 -5,-2.23858 -5,-5 0,-2.76143 2.23858,-5 5,-5 2.76142,0 5,2.23857 5,5 z"
         stroke-miterlimit="10"
         id="path1347"
         inkscape:connector-curvature="0"
         style="fill:none;stroke:#000000;stroke-linecap:round;stroke-linejoin:round;stroke-miterlimit:10;stroke-opacity:1;paint-order:fill stroke markers" />
      <path
         d="m 882.4334,299.3855 c 0,2.76142 -2.23858,5 -5,5 -2.76143,0 -5,-2.23858 -5,-5 0,-2.76143 2.23857,-5 5,-5 2.76142,0 5,2.23857 5,5 z"
         id="path1349"
         inkscape:connector-curvature="0"
         style="fill:#4d4dff;fill-opacity:1;stroke:none;paint-order:stroke fill markers" />
      <path
         d="m 882.4334,299.3855 c 0,2.76142 -2.23858,5 -5,5 -2.76143,0 -5,-2.23858 -5,-5 0,-2.76143 2.23857,-5 5,-5 2.76142,0 5,2.23857 5,5 z"
         stroke-miterlimit="10"
         id="path1351"
         inkscape:connector-curvature="0"
         style="fill:none;stroke:#000000;stroke-linecap:round;stroke-linejoin:round;stroke-miterlimit:10;stroke-opacity:1;paint-order:fill stroke markers" />
      <path
         d="m 817.92703,429.31975 c 0,2.76142 -2.23857,5 -5,5 -2.76142,0 -5,-2.23858 -5,-5 0,-2.76143 2.23858,-5 5,-5 2.76143,0 5,2.23857 5,5 z"
         id="path1353"
         inkscape:connector-curvature="0"
         style="fill:#4d4dff;fill-opacity:1;stroke:none;paint-order:stroke fill markers" />
      <path
         d="m 817.92703,429.31975 c 0,2.76142 -2.23857,5 -5,5 -2.76142,0 -5,-2.23858 -5,-5 0,-2.76143 2.23858,-5 5,-5 2.76143,0 5,2.23857 5,5 z"
         stroke-miterlimit="10"
         id="path1355"
         inkscape:connector-curvature="0"
         style="fill:none;stroke:#000000;stroke-linecap:round;stroke-linejoin:round;stroke-miterlimit:10;stroke-opacity:1;paint-order:fill stroke markers" />
      <path
         d="m 726.6966,497.51219 c 0,2.76142 -2.23857,5 -5,5 -2.76142,0 -5,-2.23858 -5,-5 0,-2.76143 2.23858,-5 5,-5 2.76143,0 5,2.23857 5,5 z"
         id="path1357"
         inkscape:connector-curvature="0"
         style="fill:#4d4dff;fill-opacity:1;stroke:none;paint-order:stroke fill markers" />
      <path
         d="m 726.6966,497.51219 c 0,2.76142 -2.23857,5 -5,5 -2.76142,0 -5,-2.23858 -5,-5 0,-2.76143 2.23858,-5 5,-5 2.76143,0 5,2.23857 5,5 z"
         stroke-miterlimit="10"
         id="path1359"
         inkscape:connector-curvature="0"
         style="fill:none;stroke:#000000;stroke-linecap:round;stroke-linejoin:round;stroke-miterlimit:10;stroke-opacity:1;paint-order:fill stroke markers" />
      <path
         d="m 556.2155,515.02106 c 0,2.76142 -2.23858,5 -5,5 -2.76142,0 -5,-2.23858 -5,-5 0,-2.76143 2.23858,-5 5,-5 2.76142,0 5,2.23857 5,5 z"
         id="path1361"
         inkscape:connector-curvature="0"
         style="fill:#4d4dff;fill-opacity:1;stroke:none;paint-order:stroke fill markers" />
      <path
         d="m 556.2155,515.02106 c 0,2.76142 -2.23858,5 -5,5 -2.76142,0 -5,-2.23858 -5,-5 0,-2.76143 2.23858,-5 5,-5 2.76142,0 5,2.23857 5,5 z"
         stroke-miterlimit="10"
         id="path1363"
         inkscape:connector-curvature="0"
         style="fill:none;stroke:#000000;stroke-linecap:round;stroke-linejoin:round;stroke-miterlimit:10;stroke-opacity:1;paint-order:fill stroke markers" />
      <path
         d="m 476.96482,457.88685 c 0,2.76142 -2.23857,5 -5,5 -2.76142,0 -5,-2.23858 -5,-5 0,-2.76142 2.23858,-5 5,-5 2.76143,0 5,2.23858 5,5 z"
         id="path1365"
         inkscape:connector-curvature="0"
         style="fill:#4d4dff;fill-opacity:1;stroke:none;paint-order:stroke fill markers" />
      <path
         d="m 476.96482,457.88685 c 0,2.76142 -2.23857,5 -5,5 -2.76142,0 -5,-2.23858 -5,-5 0,-2.76142 2.23858,-5 5,-5 2.76143,0 5,2.23858 5,5 z"
         stroke-miterlimit="10"
         id="path1367"
         inkscape:connector-curvature="0"
         style="fill:none;stroke:#000000;stroke-linecap:round;stroke-linejoin:round;stroke-miterlimit:10;stroke-opacity:1;paint-order:fill stroke markers" />
      <path
         d="m 631.14433,319.93672 c 0,2.76142 -2.23858,5 -5,5 -2.76143,0 -5,-2.23858 -5,-5 0,-2.76142 2.23857,-5 5,-5 2.76142,0 5,2.23858 5,5 z"
         id="path1369"
         inkscape:connector-curvature="0"
         style="fill:#0000ff;fill-opacity:1;stroke:none;paint-order:stroke fill markers" />
      <path
         d="m 631.14433,319.93672 c 0,2.76142 -2.23858,5 -5,5 -2.76143,0 -5,-2.23858 -5,-5 0,-2.76142 2.23857,-5 5,-5 2.76142,0 5,2.23858 5,5 z"
         stroke-miterlimit="10"
         id="path1371"
         inkscape:connector-curvature="0"
         style="fill:none;stroke:#000000;stroke-linecap:round;stroke-linejoin:round;stroke-miterlimit:10;stroke-opacity:1;paint-order:fill stroke markers" />
      <path
         d="m 572.07638,396.98186 c 0,2.76143 -2.23857,5 -5,5 -2.76142,0 -5,-2.23857 -5,-5 0,-2.76142 2.23858,-5 5,-5 2.76143,0 5,2.23858 5,5 z"
         id="path1373"
         inkscape:connector-curvature="0"
         style="fill:#0000ff;fill-opacity:1;stroke:none;paint-order:stroke fill markers" />
      <path
         d="m 572.07638,396.98186 c 0,2.76143 -2.23857,5 -5,5 -2.76142,0 -5,-2.23857 -5,-5 0,-2.76142 2.23858,-5 5,-5 2.76143,0 5,2.23858 5,5 z"
         stroke-miterlimit="10"
         id="path1375"
         inkscape:connector-curvature="0"
         style="fill:none;stroke:#000000;stroke-linecap:round;stroke-linejoin:round;stroke-miterlimit:10;stroke-opacity:1;paint-order:fill stroke markers" />
      <path
         d="m 785.23461,335.34575 c 0,2.76142 -2.23858,5 -5,5 -2.76142,0 -5,-2.23858 -5,-5 0,-2.76143 2.23858,-5 5,-5 2.76142,0 5,2.23857 5,5 z"
         id="path1377"
         inkscape:connector-curvature="0"
         style="fill:#0000ff;fill-opacity:1;stroke:none;paint-order:stroke fill markers" />
      <path
         d="m 785.23461,335.34575 c 0,2.76142 -2.23858,5 -5,5 -2.76142,0 -5,-2.23858 -5,-5 0,-2.76143 2.23858,-5 5,-5 2.76142,0 5,2.23857 5,5 z"
         stroke-miterlimit="10"
         id="path1379"
         inkscape:connector-curvature="0"
         style="fill:none;stroke:#000000;stroke-linecap:round;stroke-linejoin:round;stroke-miterlimit:10;stroke-opacity:1;paint-order:fill stroke markers" />
    </g>
  </g>
</svg>
