<?xml version="1.0" encoding="UTF-8" standalone="no"?>
<svg
   xmlns:dc="http://purl.org/dc/elements/1.1/"
   xmlns:cc="http://creativecommons.org/ns#"
   xmlns:rdf="http://www.w3.org/1999/02/22-rdf-syntax-ns#"
   xmlns:svg="http://www.w3.org/2000/svg"
   xmlns="http://www.w3.org/2000/svg"
   xmlns:sodipodi="http://sodipodi.sourceforge.net/DTD/sodipodi-0.dtd"
   xmlns:inkscape="http://www.inkscape.org/namespaces/inkscape"
   version="1.1"
   width="766"
   height="562"
   id="svg1038"
   sodipodi:docname="andrew_lower_hull_fixed.svg"
   inkscape:version="0.92.2 (unknown)">
  <metadata
     id="metadata1042">
    <rdf:RDF>
      <cc:Work
         rdf:about="">
        <dc:format>image/svg+xml</dc:format>
        <dc:type
           rdf:resource="http://purl.org/dc/dcmitype/StillImage" />
        <dc:title></dc:title>
      </cc:Work>
    </rdf:RDF>
  </metadata>
  <sodipodi:namedview
     pagecolor="#ffffff"
     bordercolor="#666666"
     borderopacity="1"
     objecttolerance="10"
     gridtolerance="10"
     guidetolerance="10"
     inkscape:pageopacity="0"
     inkscape:pageshadow="2"
     inkscape:window-width="1366"
     inkscape:window-height="706"
     id="namedview1040"
     showgrid="false"
     fit-margin-top="0"
     fit-margin-left="0"
     fit-margin-right="0"
     fit-margin-bottom="0"
     inkscape:zoom="0.5"
     inkscape:cx="307.22571"
     inkscape:cy="281"
     inkscape:window-x="0"
     inkscape:window-y="34"
     inkscape:window-maximized="1"
     inkscape:current-layer="svg1038" />
  <defs
     id="defs958">
    <clipPath
       id="kZKcpAxdiqJw">
      <path
         d="M 0,0 H 966 V 562 H 0 Z"
         id="path955"
         inkscape:connector-curvature="0"
         style="fill:none;stroke:none" />
    </clipPath>
    <clipPath
       clipPathUnits="userSpaceOnUse"
       id="clipPath1049">
      <rect
         id="rect1051"
         width="766"
         height="562"
         x="200"
         y="0" />
    </clipPath>
  </defs>
  <g
     clip-path="url(#clipPath1049)"
     id="g1036"
     transform="translate(-200)">
    <g
       id="g1034">
      <rect
         x="0"
         y="0"
         width="966"
         height="562"
         id="rect960"
         style="fill:#ffffff;fill-opacity:1;stroke:none" />
      <path
         d="m 440.63316,323.345 31.33166,134.54185 79.25068,57.13421 170.4811,-17.50887 91.23043,-68.19244 64.50637,-129.93425 v -470.07643 l -436.80024,8.39517 z"
         id="path962"
         inkscape:connector-curvature="0"
         style="fill:#006400;fill-opacity:0.09803922;fill-rule:evenodd;stroke:none;paint-order:stroke fill markers" />
      <path
         d="m 440.63316,323.345 31.33166,134.54185 79.25068,57.13421 170.4811,-17.50887 91.23043,-68.19244 64.50637,-129.93425"
         stroke-miterlimit="10"
         id="path964"
         inkscape:connector-curvature="0"
         style="fill:none;stroke:#006400;stroke-width:2.5;stroke-linecap:round;stroke-linejoin:round;stroke-miterlimit:10;stroke-opacity:0.69803922;paint-order:fill stroke markers" />
      <path
         d="m 440.63316,323.345 31.33166,134.54185"
         stroke-miterlimit="10"
         id="path966"
         inkscape:connector-curvature="0"
         style="fill:none;stroke:#006400;stroke-width:2.5;stroke-linecap:round;stroke-linejoin:round;stroke-miterlimit:10;stroke-opacity:0.69803922;paint-order:fill stroke markers" />
      <path
         d="m 471.96482,457.88685 79.25068,57.13421"
         stroke-miterlimit="10"
         id="path968"
         inkscape:connector-curvature="0"
         style="fill:none;stroke:#006400;stroke-width:2.5;stroke-linecap:round;stroke-linejoin:round;stroke-miterlimit:10;stroke-opacity:0.69803922;paint-order:fill stroke markers" />
      <path
         d="M 551.2155,515.02106 721.6966,497.51219"
         stroke-miterlimit="10"
         id="path970"
         inkscape:connector-curvature="0"
         style="fill:none;stroke:#006400;stroke-width:2.5;stroke-linecap:round;stroke-linejoin:round;stroke-miterlimit:10;stroke-opacity:0.69803922;paint-order:fill stroke markers" />
      <path
         d="m 721.6966,497.51219 91.23043,-68.19244"
         stroke-miterlimit="10"
         id="path972"
         inkscape:connector-curvature="0"
         style="fill:none;stroke:#006400;stroke-width:2.5;stroke-linecap:round;stroke-linejoin:round;stroke-miterlimit:10;stroke-opacity:0.69803922;paint-order:fill stroke markers" />
      <path
         d="M 812.92703,429.31975 877.4334,299.3855"
         stroke-miterlimit="10"
         id="path974"
         inkscape:connector-curvature="0"
         style="fill:none;stroke:#006400;stroke-width:2.5;stroke-linecap:round;stroke-linejoin:round;stroke-miterlimit:10;stroke-opacity:0.69803922;paint-order:fill stroke markers" />
      <path
         d="M 877.4334,299.3855 V -5"
         stroke-miterlimit="10"
         id="path976"
         inkscape:connector-curvature="0"
         style="fill:none;stroke:#006400;stroke-width:2.5;stroke-linecap:round;stroke-linejoin:round;stroke-miterlimit:10;stroke-opacity:0.69803922;paint-order:fill stroke markers" />
      <path
         d="M 440.63316,323.345 V -5"
         stroke-miterlimit="10"
         id="path978"
         inkscape:connector-curvature="0"
         style="fill:none;stroke:#006400;stroke-width:2.5;stroke-linecap:round;stroke-linejoin:round;stroke-miterlimit:10;stroke-opacity:0.69803922;paint-order:fill stroke markers" />
      <path
         d="m 445.63316,323.345 c 0,2.76143 -2.23857,5 -5,5 -2.76142,0 -5,-2.23857 -5,-5 0,-2.76142 2.23858,-5 5,-5 2.76143,0 5,2.23858 5,5 z"
         id="path980"
         inkscape:connector-curvature="0"
         style="fill:#4d4dff;fill-opacity:1;stroke:none;paint-order:stroke fill markers" />
      <path
         d="m 445.63316,323.345 c 0,2.76143 -2.23857,5 -5,5 -2.76142,0 -5,-2.23857 -5,-5 0,-2.76142 2.23858,-5 5,-5 2.76143,0 5,2.23858 5,5 z"
         stroke-miterlimit="10"
         id="path982"
         inkscape:connector-curvature="0"
         style="fill:none;stroke:#000000;stroke-linecap:round;stroke-linejoin:round;stroke-miterlimit:10;stroke-opacity:1;paint-order:fill stroke markers" />
      <path
         d="m 528.56992,251.46649 c 0,2.76142 -2.23858,5 -5,5 -2.76143,0 -5,-2.23858 -5,-5 0,-2.76143 2.23857,-5 5,-5 2.76142,0 5,2.23857 5,5 z"
         id="path984"
         inkscape:connector-curvature="0"
         style="fill:#4d4dff;fill-opacity:1;stroke:none;paint-order:stroke fill markers" />
      <path
         d="m 528.56992,251.46649 c 0,2.76142 -2.23858,5 -5,5 -2.76143,0 -5,-2.23858 -5,-5 0,-2.76143 2.23857,-5 5,-5 2.76142,0 5,2.23857 5,5 z"
         stroke-miterlimit="10"
         id="path986"
         inkscape:connector-curvature="0"
         style="fill:none;stroke:#000000;stroke-linecap:round;stroke-linejoin:round;stroke-miterlimit:10;stroke-opacity:1;paint-order:fill stroke markers" />
      <path
         d="m 697.20798,214.60571 c 0,2.76142 -2.23858,5 -5,5 -2.76142,0 -5,-2.23858 -5,-5 0,-2.76143 2.23858,-5 5,-5 2.76142,0 5,2.23857 5,5 z"
         id="path988"
         inkscape:connector-curvature="0"
         style="fill:#4d4dff;fill-opacity:1;stroke:none;paint-order:stroke fill markers" />
      <path
         d="m 697.20798,214.60571 c 0,2.76142 -2.23858,5 -5,5 -2.76142,0 -5,-2.23858 -5,-5 0,-2.76143 2.23858,-5 5,-5 2.76142,0 5,2.23857 5,5 z"
         stroke-miterlimit="10"
         id="path990"
         inkscape:connector-curvature="0"
         style="fill:none;stroke:#000000;stroke-linecap:round;stroke-linejoin:round;stroke-miterlimit:10;stroke-opacity:1;paint-order:fill stroke markers" />
      <path
         d="m 882.4334,299.3855 c 0,2.76142 -2.23858,5 -5,5 -2.76143,0 -5,-2.23858 -5,-5 0,-2.76143 2.23857,-5 5,-5 2.76142,0 5,2.23857 5,5 z"
         id="path992"
         inkscape:connector-curvature="0"
         style="fill:#4d4dff;fill-opacity:1;stroke:none;paint-order:stroke fill markers" />
      <path
         d="m 882.4334,299.3855 c 0,2.76142 -2.23858,5 -5,5 -2.76143,0 -5,-2.23858 -5,-5 0,-2.76143 2.23857,-5 5,-5 2.76142,0 5,2.23857 5,5 z"
         stroke-miterlimit="10"
         id="path994"
         inkscape:connector-curvature="0"
         style="fill:none;stroke:#000000;stroke-linecap:round;stroke-linejoin:round;stroke-miterlimit:10;stroke-opacity:1;paint-order:fill stroke markers" />
      <path
         d="m 817.92703,429.31975 c 0,2.76142 -2.23857,5 -5,5 -2.76142,0 -5,-2.23858 -5,-5 0,-2.76143 2.23858,-5 5,-5 2.76143,0 5,2.23857 5,5 z"
         id="path996"
         inkscape:connector-curvature="0"
         style="fill:#4d4dff;fill-opacity:1;stroke:none;paint-order:stroke fill markers" />
      <path
         d="m 817.92703,429.31975 c 0,2.76142 -2.23857,5 -5,5 -2.76142,0 -5,-2.23858 -5,-5 0,-2.76143 2.23858,-5 5,-5 2.76143,0 5,2.23857 5,5 z"
         stroke-miterlimit="10"
         id="path998"
         inkscape:connector-curvature="0"
         style="fill:none;stroke:#000000;stroke-linecap:round;stroke-linejoin:round;stroke-miterlimit:10;stroke-opacity:1;paint-order:fill stroke markers" />
      <path
         d="m 726.6966,497.51219 c 0,2.76142 -2.23857,5 -5,5 -2.76142,0 -5,-2.23858 -5,-5 0,-2.76143 2.23858,-5 5,-5 2.76143,0 5,2.23857 5,5 z"
         id="path1000"
         inkscape:connector-curvature="0"
         style="fill:#4d4dff;fill-opacity:1;stroke:none;paint-order:stroke fill markers" />
      <path
         d="m 726.6966,497.51219 c 0,2.76142 -2.23857,5 -5,5 -2.76142,0 -5,-2.23858 -5,-5 0,-2.76143 2.23858,-5 5,-5 2.76143,0 5,2.23857 5,5 z"
         stroke-miterlimit="10"
         id="path1002"
         inkscape:connector-curvature="0"
         style="fill:none;stroke:#000000;stroke-linecap:round;stroke-linejoin:round;stroke-miterlimit:10;stroke-opacity:1;paint-order:fill stroke markers" />
      <path
         d="m 556.2155,515.02106 c 0,2.76142 -2.23858,5 -5,5 -2.76142,0 -5,-2.23858 -5,-5 0,-2.76143 2.23858,-5 5,-5 2.76142,0 5,2.23857 5,5 z"
         id="path1004"
         inkscape:connector-curvature="0"
         style="fill:#4d4dff;fill-opacity:1;stroke:none;paint-order:stroke fill markers" />
      <path
         d="m 556.2155,515.02106 c 0,2.76142 -2.23858,5 -5,5 -2.76142,0 -5,-2.23858 -5,-5 0,-2.76143 2.23858,-5 5,-5 2.76142,0 5,2.23857 5,5 z"
         stroke-miterlimit="10"
         id="path1006"
         inkscape:connector-curvature="0"
         style="fill:none;stroke:#000000;stroke-linecap:round;stroke-linejoin:round;stroke-miterlimit:10;stroke-opacity:1;paint-order:fill stroke markers" />
      <path
         d="m 476.96482,457.88685 c 0,2.76142 -2.23857,5 -5,5 -2.76142,0 -5,-2.23858 -5,-5 0,-2.76142 2.23858,-5 5,-5 2.76143,0 5,2.23858 5,5 z"
         id="path1008"
         inkscape:connector-curvature="0"
         style="fill:#4d4dff;fill-opacity:1;stroke:none;paint-order:stroke fill markers" />
      <path
         d="m 476.96482,457.88685 c 0,2.76142 -2.23857,5 -5,5 -2.76142,0 -5,-2.23858 -5,-5 0,-2.76142 2.23858,-5 5,-5 2.76143,0 5,2.23858 5,5 z"
         stroke-miterlimit="10"
         id="path1010"
         inkscape:connector-curvature="0"
         style="fill:none;stroke:#000000;stroke-linecap:round;stroke-linejoin:round;stroke-miterlimit:10;stroke-opacity:1;paint-order:fill stroke markers" />
      <path
         d="m 631.14433,319.93672 c 0,2.76142 -2.23858,5 -5,5 -2.76143,0 -5,-2.23858 -5,-5 0,-2.76142 2.23857,-5 5,-5 2.76142,0 5,2.23858 5,5 z"
         id="path1012"
         inkscape:connector-curvature="0"
         style="fill:#0000ff;fill-opacity:1;stroke:none;paint-order:stroke fill markers" />
      <path
         d="m 631.14433,319.93672 c 0,2.76142 -2.23858,5 -5,5 -2.76143,0 -5,-2.23858 -5,-5 0,-2.76142 2.23857,-5 5,-5 2.76142,0 5,2.23858 5,5 z"
         stroke-miterlimit="10"
         id="path1014"
         inkscape:connector-curvature="0"
         style="fill:none;stroke:#000000;stroke-linecap:round;stroke-linejoin:round;stroke-miterlimit:10;stroke-opacity:1;paint-order:fill stroke markers" />
      <path
         d="m 572.07638,396.98186 c 0,2.76143 -2.23857,5 -5,5 -2.76142,0 -5,-2.23857 -5,-5 0,-2.76142 2.23858,-5 5,-5 2.76143,0 5,2.23858 5,5 z"
         id="path1016"
         inkscape:connector-curvature="0"
         style="fill:#0000ff;fill-opacity:1;stroke:none;paint-order:stroke fill markers" />
      <path
         d="m 572.07638,396.98186 c 0,2.76143 -2.23857,5 -5,5 -2.76142,0 -5,-2.23857 -5,-5 0,-2.76142 2.23858,-5 5,-5 2.76143,0 5,2.23858 5,5 z"
         stroke-miterlimit="10"
         id="path1018"
         inkscape:connector-curvature="0"
         style="fill:none;stroke:#000000;stroke-linecap:round;stroke-linejoin:round;stroke-miterlimit:10;stroke-opacity:1;paint-order:fill stroke markers" />
      <path
         d="m 785.23461,335.34575 c 0,2.76142 -2.23858,5 -5,5 -2.76142,0 -5,-2.23858 -5,-5 0,-2.76143 2.23858,-5 5,-5 2.76142,0 5,2.23857 5,5 z"
         id="path1020"
         inkscape:connector-curvature="0"
         style="fill:#0000ff;fill-opacity:1;stroke:none;paint-order:stroke fill markers" />
      <path
         d="m 785.23461,335.34575 c 0,2.76142 -2.23858,5 -5,5 -2.76142,0 -5,-2.23858 -5,-5 0,-2.76143 2.23858,-5 5,-5 2.76142,0 5,2.23857 5,5 z"
         stroke-miterlimit="10"
         id="path1022"
         inkscape:connector-curvature="0"
         style="fill:none;stroke:#000000;stroke-linecap:round;stroke-linejoin:round;stroke-miterlimit:10;stroke-opacity:1;paint-order:fill stroke markers" />
      <g
         transform="scale(27)"
         id="g1032">
        <g
           transform="translate(23.407407,1.7314821)"
           id="g1026">
          <path
             d="m 0.409,-0.23 v 0.28 q 0,0.032 -0.02,0.033 -0.02,0 -0.02,-0.033 v -0.28 h -0.28 q -0.032,0 -0.033,-0.02 0,-0.02 0.033,-0.02 h 0.28 v -0.28 q 0,-0.032 0.02,-0.033 0.02,0 0.02,0.033 v 0.28 h 0.279 q 0.032,0 0.033,0.02 0,0.02 -0.033,0.02 z"
             id="path1024"
             inkscape:connector-curvature="0"
             style="fill:#000000;stroke:none;paint-order:stroke fill markers" />
        </g>
        <g
           transform="translate(24.185188,1.7314821)"
           id="g1030">
          <path
             d="m 0.508,-0.272 q 0.059,-0.1 0.144,-0.144 0.05,-0.026 0.102,-0.026 0.096,0 0.151,0.089 0.038,0.061 0.038,0.137 0,0.104 -0.064,0.171 -0.053,0.056 -0.128,0.056 -0.088,0 -0.17,-0.069 Q 0.559,-0.077 0.514,-0.131 L 0.491,-0.159 q -0.059,0.1 -0.144,0.144 -0.05,0.026 -0.102,0.026 -0.096,0 -0.151,-0.089 -0.038,-0.061 -0.038,-0.137 0,-0.104 0.064,-0.171 0.053,-0.056 0.128,-0.056 0.088,0 0.17,0.069 0.022,0.019 0.067,0.073 l 0.004,0.005 q 0.006,0.008 0.019,0.023 m 0.026,0.035 0.096,0.123 q 0.001,0 0.001,0.001 l 0.004,0.004 q 0.066,0.072 0.132,0.072 0.072,0 0.119,-0.065 0.035,-0.049 0.035,-0.114 0,-0.088 -0.053,-0.146 Q 0.829,-0.405 0.773,-0.41 H 0.761 q -0.126,0 -0.222,0.164 -0.002,0.004 -0.005,0.009 m -0.069,0.043 v 0 L 0.369,-0.317 0.368,-0.318 0.364,-0.322 q -0.066,-0.072 -0.132,-0.072 -0.072,0 -0.119,0.065 -0.035,0.049 -0.035,0.114 0,0.088 0.053,0.146 0.043,0.048 0.107,0.048 0.126,0 0.222,-0.164 0.002,-0.004 0.005,-0.009 z"
             id="path1028"
             inkscape:connector-curvature="0"
             style="fill:#000000;stroke:none;paint-order:stroke fill markers" />
        </g>
      </g>
    </g>
  </g>
</svg>
