<svg version="1.1" xmlns="http://www.w3.org/2000/svg" xmlns:xlink="http://www.w3.org/1999/xlink" width="926" height="562"><defs><clipPath id="UNUHAAxxrFIF"><path fill="none" stroke="none" d=" M 0 0 L 926 0 L 926 562 L 0 562 L 0 0 Z"/></clipPath></defs><g transform="scale(1,1)" clip-path="url(#UNUHAAxxrFIF)"><g><rect fill="rgb(255,255,255)" stroke="none" x="0" y="0" width="926" height="562" fill-opacity="1"/><path fill="none" stroke="rgb(0,100,0)" paint-order="fill stroke markers" d=" M 636.5999999999998 247.89999999999995 L 554 479" stroke-opacity="0.6980392156862745" stroke-linecap="round" stroke-linejoin="round" stroke-miterlimit="10" stroke-width="2.5"/><path fill="none" stroke="rgb(0,0,0)" paint-order="fill stroke markers" d=" M 554 479 L 230.55948553054668 0" stroke-opacity="0.6980392156862745" stroke-linejoin="round" stroke-miterlimit="10" stroke-width="2.5" stroke-dasharray="6.5,4"/><path fill="none" stroke="rgb(0,0,0)" paint-order="fill stroke markers" d=" M 554 479 L 321.38218390804604 0" stroke-opacity="0.6980392156862745" stroke-linejoin="round" stroke-miterlimit="10" stroke-width="2.5" stroke-dasharray="6.5,4"/><path fill="none" stroke="rgb(0,0,0)" paint-order="fill stroke markers" d=" M 554 479 L 532.9543057996484 0" stroke-opacity="0.6980392156862745" stroke-linejoin="round" stroke-miterlimit="10" stroke-width="2.5" stroke-dasharray="6.5,4"/><path fill="none" stroke="rgb(0,0,0)" paint-order="fill stroke markers" d=" M 554 479 L 0 192.64275798241545" stroke-opacity="0.6980392156862745" stroke-linejoin="round" stroke-miterlimit="10" stroke-width="2.5" stroke-dasharray="6.5,4"/><path fill="none" stroke="rgb(0,0,0)" paint-order="fill stroke markers" d=" M 554 479 L 0 294.6701406982803" stroke-opacity="0.6980392156862745" stroke-linejoin="round" stroke-miterlimit="10" stroke-width="2.5" stroke-dasharray="6.5,4"/><path fill="none" stroke="rgb(0,0,0)" paint-order="fill stroke markers" d=" M 554 479 L 0 -65.10990237099031" stroke-opacity="0.6980392156862745" stroke-linejoin="round" stroke-miterlimit="10" stroke-width="2.5" stroke-dasharray="6.5,4"/><path fill="none" stroke="rgb(0,0,0)" paint-order="fill stroke markers" d=" M 554 479 L 0 55.61788617886219" stroke-opacity="0.6980392156862745" stroke-linejoin="round" stroke-miterlimit="10" stroke-width="2.5" stroke-dasharray="6.5,4"/><path fill="none" stroke="rgb(0,0,0)" paint-order="fill stroke markers" d=" M 554 479 L 454.3096446700508 0" stroke-opacity="0.6980392156862745" stroke-linejoin="round" stroke-miterlimit="10" stroke-width="2.5" stroke-dasharray="6.5,4"/><path fill="none" stroke="rgb(0,0,0)" paint-order="fill stroke markers" d=" M 554 479 L 0 403.16730038022814" stroke-opacity="0.6980392156862745" stroke-linejoin="round" stroke-miterlimit="10" stroke-width="2.5" stroke-dasharray="6.5,4"/><path fill="rgb(77,77,255)" stroke="none" paint-order="stroke fill markers" d=" M 126.80000000000004 255.59999999999997 C 126.80000000000004 258.3614237491539 124.561423749154 260.59999999999997 121.80000000000004 260.59999999999997 C 119.03857625084608 260.59999999999997 116.80000000000004 258.3614237491539 116.80000000000004 255.59999999999997 C 116.80000000000004 252.838576250846 119.03857625084608 250.59999999999997 121.80000000000004 250.59999999999997 C 124.561423749154 250.59999999999997 126.80000000000004 252.838576250846 126.80000000000004 255.59999999999997 Z" fill-opacity="1"/><path fill="none" stroke="rgb(0,0,0)" paint-order="fill stroke markers" d=" M 126.80000000000004 255.59999999999997 C 126.80000000000004 258.3614237491539 124.561423749154 260.59999999999997 121.80000000000004 260.59999999999997 C 119.03857625084608 260.59999999999997 116.80000000000004 258.3614237491539 116.80000000000004 255.59999999999997 C 116.80000000000004 252.838576250846 119.03857625084608 250.59999999999997 121.80000000000004 250.59999999999997 C 124.561423749154 250.59999999999997 126.80000000000004 252.838576250846 126.80000000000004 255.59999999999997 Z" stroke-opacity="1" stroke-linecap="round" stroke-linejoin="round" stroke-miterlimit="10"/><g transform="scale(27,27)"><g transform="translate(3.6666666666666665,10.393517962962964)"><path fill="rgb(77,77,255)" stroke="none" paint-order="stroke fill markers" d=" M 0.045 0.122 L 0.045 0.122 L 0.157 -0.323 Q 0.164 -0.353 0.164 -0.374 Q 0.164 -0.42 0.133 -0.42 Q 0.092 -0.42 0.066 -0.325 Q 0.063 -0.314 0.06 -0.301 Q 0.049 -0.279 0.043000000000000003 -0.278 Q 0.031 -0.278 0.031 -0.28800000000000003 Q 0.031 -0.304 0.049 -0.355 Q 0.056 -0.373 0.062 -0.385 Q 0.08600000000000001 -0.434 0.122 -0.441 Q 0.129 -0.442 0.136 -0.442 Q 0.19 -0.442 0.215 -0.398 L 0.215 -0.397 Q 0.223 -0.384 0.226 -0.367 Q 0.289 -0.442 0.357 -0.442 Q 0.428 -0.442 0.466 -0.378 Q 0.488 -0.333 0.49 -0.28200000000000003 Q 0.49 -0.17400000000000002 0.41400000000000003 -0.082 Q 0.34500000000000003 0.002 0.263 0.01 Q 0.256 0.011 0.249 0.011 Q 0.186 0.011 0.157 -0.053 Q 0.12 0.079 0.109 0.14100000000000001 Q 0.108 0.146 0.108 0.147 Q 0.108 0.158 0.121 0.161 L 0.122 0.161 L 0.122 0.161 Q 0.134 0.163 0.158 0.163 Q 0.18 0.163 0.182 0.17400000000000002 Q 0.182 0.194 0.164 0.194 L 0.066 0.191 L 0.065 0.191 L -0.017 0.194 L -0.019 0.194 Q -0.032 0.194 -0.032 0.182 Q -0.026000000000000002 0.164 -0.009000000000000001 0.163 Q 0.028 0.163 0.036000000000000004 0.15 L 0.037 0.149 Q 0.039 0.145 0.041 0.138 Q 0.042 0.133 0.045 0.122 M 0.221 -0.312 L 0.221 -0.312 L 0.17200000000000001 -0.116 Q 0.169 -0.10400000000000001 0.169 -0.1 Q 0.169 -0.077 0.187 -0.048 Q 0.198 -0.029 0.215 -0.019 Q 0.23 -0.011 0.248 -0.011 Q 0.299 -0.011 0.34400000000000003 -0.075 Q 0.357 -0.093 0.367 -0.114 Q 0.394 -0.171 0.41200000000000003 -0.268 Q 0.418 -0.303 0.418 -0.326 Q 0.418 -0.405 0.37 -0.418 Q 0.362 -0.42 0.354 -0.42 Q 0.316 -0.42 0.273 -0.382 Q 0.23 -0.34600000000000003 0.221 -0.312 Z"/></g><g transform="translate(4.169792666666666,10.543517962962964) scale(0.7,0.7)"><path fill="rgb(77,77,255)" stroke="none" paint-order="stroke fill markers" d=" M 0.367 -0.318 Q 0.327 -0.218 0.242 -0.218 Q 0.149 -0.218 0.09 -0.294 L 0.09 -0.295 Q 0.042 -0.357 0.042 -0.441 Q 0.042 -0.525 0.091 -0.586 L 0.106 -0.603 Q 0.166 -0.666 0.253 -0.666 Q 0.353 -0.666 0.40800000000000003 -0.5690000000000001 Q 0.457 -0.482 0.457 -0.329 Q 0.457 -0.158 0.365 -0.055 Q 0.296 0.022 0.20600000000000002 0.022 Q 0.108 0.022 0.077 -0.039 Q 0.067 -0.06 0.067 -0.08600000000000001 Q 0.067 -0.126 0.10400000000000001 -0.133 Q 0.109 -0.134 0.113 -0.134 Q 0.145 -0.134 0.156 -0.106 Q 0.159 -0.098 0.159 -0.088 Q 0.159 -0.048 0.11900000000000001 -0.043000000000000003 Q 0.113 -0.042 0.107 -0.042 Q 0.136 -0.006 0.20500000000000002 -0.006 Q 0.276 -0.006 0.321 -0.077 Q 0.367 -0.15 0.367 -0.28600000000000003 L 0.367 -0.318 M 0.243 -0.241 Q 0.321 -0.241 0.352 -0.333 Q 0.365 -0.374 0.365 -0.421 Q 0.365 -0.519 0.34900000000000003 -0.562 Q 0.323 -0.632 0.266 -0.64 Q 0.259 -0.641 0.253 -0.641 Q 0.187 -0.641 0.153 -0.578 Q 0.132 -0.541 0.132 -0.452 L 0.132 -0.44 Q 0.132 -0.341 0.15 -0.304 Q 0.181 -0.241 0.243 -0.241 Z"/></g></g><path fill="rgb(77,77,255)" stroke="none" paint-order="stroke fill markers" d=" M 200.5 126.89999999999998 C 200.5 129.66142374915395 198.26142374915398 131.89999999999998 195.5 131.89999999999998 C 192.73857625084602 131.89999999999998 190.5 129.66142374915395 190.5 126.89999999999998 C 190.5 124.13857625084601 192.73857625084602 121.89999999999998 195.5 121.89999999999998 C 198.26142374915398 121.89999999999998 200.5 124.13857625084601 200.5 126.89999999999998 Z" fill-opacity="1"/><path fill="none" stroke="rgb(0,0,0)" paint-order="fill stroke markers" d=" M 200.5 126.89999999999998 C 200.5 129.66142374915395 198.26142374915398 131.89999999999998 195.5 131.89999999999998 C 192.73857625084602 131.89999999999998 190.5 129.66142374915395 190.5 126.89999999999998 C 190.5 124.13857625084601 192.73857625084602 121.89999999999998 195.5 121.89999999999998 C 198.26142374915398 121.89999999999998 200.5 124.13857625084601 200.5 126.89999999999998 Z" stroke-opacity="1" stroke-linecap="round" stroke-linejoin="round" stroke-miterlimit="10"/><g transform="scale(27,27)"><g transform="translate(6.592592592592593,6.134258703703703)"><path fill="rgb(77,77,255)" stroke="none" paint-order="stroke fill markers" d=" M 0.045 0.122 L 0.045 0.122 L 0.157 -0.323 Q 0.164 -0.353 0.164 -0.374 Q 0.164 -0.42 0.133 -0.42 Q 0.092 -0.42 0.066 -0.325 Q 0.063 -0.314 0.06 -0.301 Q 0.049 -0.279 0.043000000000000003 -0.278 Q 0.031 -0.278 0.031 -0.28800000000000003 Q 0.031 -0.304 0.049 -0.355 Q 0.056 -0.373 0.062 -0.385 Q 0.08600000000000001 -0.434 0.122 -0.441 Q 0.129 -0.442 0.136 -0.442 Q 0.19 -0.442 0.215 -0.398 L 0.215 -0.397 Q 0.223 -0.384 0.226 -0.367 Q 0.289 -0.442 0.357 -0.442 Q 0.428 -0.442 0.466 -0.378 Q 0.488 -0.333 0.49 -0.28200000000000003 Q 0.49 -0.17400000000000002 0.41400000000000003 -0.082 Q 0.34500000000000003 0.002 0.263 0.01 Q 0.256 0.011 0.249 0.011 Q 0.186 0.011 0.157 -0.053 Q 0.12 0.079 0.109 0.14100000000000001 Q 0.108 0.146 0.108 0.147 Q 0.108 0.158 0.121 0.161 L 0.122 0.161 L 0.122 0.161 Q 0.134 0.163 0.158 0.163 Q 0.18 0.163 0.182 0.17400000000000002 Q 0.182 0.194 0.164 0.194 L 0.066 0.191 L 0.065 0.191 L -0.017 0.194 L -0.019 0.194 Q -0.032 0.194 -0.032 0.182 Q -0.026000000000000002 0.164 -0.009000000000000001 0.163 Q 0.028 0.163 0.036000000000000004 0.15 L 0.037 0.149 Q 0.039 0.145 0.041 0.138 Q 0.042 0.133 0.045 0.122 M 0.221 -0.312 L 0.221 -0.312 L 0.17200000000000001 -0.116 Q 0.169 -0.10400000000000001 0.169 -0.1 Q 0.169 -0.077 0.187 -0.048 Q 0.198 -0.029 0.215 -0.019 Q 0.23 -0.011 0.248 -0.011 Q 0.299 -0.011 0.34400000000000003 -0.075 Q 0.357 -0.093 0.367 -0.114 Q 0.394 -0.171 0.41200000000000003 -0.268 Q 0.418 -0.303 0.418 -0.326 Q 0.418 -0.405 0.37 -0.418 Q 0.362 -0.42 0.354 -0.42 Q 0.316 -0.42 0.273 -0.382 Q 0.23 -0.34600000000000003 0.221 -0.312 Z"/></g><g transform="translate(7.0957185925925925,6.284258703703704) scale(0.7,0.7)"><path fill="rgb(77,77,255)" stroke="none" paint-order="stroke fill markers" d=" M 0.132 -0.328 L 0.132 -0.328 Q 0.17300000000000001 -0.427 0.257 -0.427 Q 0.34900000000000003 -0.427 0.40800000000000003 -0.35100000000000003 Q 0.441 -0.31 0.452 -0.255 Q 0.457 -0.23 0.457 -0.20400000000000001 Q 0.457 -0.093 0.38 -0.026000000000000002 Q 0.324 0.022 0.251 0.022 Q 0.149 0.022 0.092 -0.075 Q 0.042 -0.162 0.042 -0.316 Q 0.042 -0.489 0.14 -0.591 Q 0.213 -0.666 0.305 -0.666 Q 0.392 -0.666 0.422 -0.605 Q 0.432 -0.584 0.432 -0.558 Q 0.432 -0.518 0.395 -0.511 Q 0.39 -0.51 0.386 -0.51 Q 0.354 -0.51 0.343 -0.538 Q 0.34 -0.546 0.34 -0.556 Q 0.34 -0.601 0.395 -0.601 Q 0.369 -0.641 0.307 -0.641 Q 0.23700000000000002 -0.641 0.189 -0.578 Q 0.132 -0.503 0.132 -0.352 L 0.132 -0.328 M 0.251 -0.006 L 0.251 -0.006 Q 0.318 -0.006 0.35000000000000003 -0.07100000000000001 Q 0.367 -0.107 0.367 -0.20500000000000002 Q 0.367 -0.305 0.34900000000000003 -0.342 Q 0.318 -0.404 0.256 -0.404 Q 0.177 -0.404 0.147 -0.31 Q 0.134 -0.271 0.134 -0.226 Q 0.134 -0.128 0.152 -0.081 Q 0.171 -0.035 0.211 -0.015 Q 0.23 -0.006 0.251 -0.006 Z"/></g></g><path fill="rgb(77,77,255)" stroke="none" paint-order="stroke fill markers" d=" M 541.4999999999999 80.69999999999996 C 541.4999999999999 83.46142374915392 539.2614237491539 85.69999999999996 536.4999999999999 85.69999999999996 C 533.7385762508459 85.69999999999996 531.4999999999999 83.46142374915392 531.4999999999999 80.69999999999996 C 531.4999999999999 77.938576250846 533.7385762508459 75.69999999999996 536.4999999999999 75.69999999999996 C 539.2614237491539 75.69999999999996 541.4999999999999 77.938576250846 541.4999999999999 80.69999999999996 Z" fill-opacity="1"/><path fill="none" stroke="rgb(0,0,0)" paint-order="fill stroke markers" d=" M 541.4999999999999 80.69999999999996 C 541.4999999999999 83.46142374915392 539.2614237491539 85.69999999999996 536.4999999999999 85.69999999999996 C 533.7385762508459 85.69999999999996 531.4999999999999 83.46142374915392 531.4999999999999 80.69999999999996 C 531.4999999999999 77.938576250846 533.7385762508459 75.69999999999996 536.4999999999999 75.69999999999996 C 539.2614237491539 75.69999999999996 541.4999999999999 77.938576250846 541.4999999999999 80.69999999999996 Z" stroke-opacity="1" stroke-linecap="round" stroke-linejoin="round" stroke-miterlimit="10"/><g transform="scale(27,27)"><g transform="translate(18.555555555555557,4.208332777777778)"><path fill="rgb(77,77,255)" stroke="none" paint-order="stroke fill markers" d=" M 0.045 0.122 L 0.045 0.122 L 0.157 -0.323 Q 0.164 -0.353 0.164 -0.374 Q 0.164 -0.42 0.133 -0.42 Q 0.092 -0.42 0.066 -0.325 Q 0.063 -0.314 0.06 -0.301 Q 0.049 -0.279 0.043000000000000003 -0.278 Q 0.031 -0.278 0.031 -0.28800000000000003 Q 0.031 -0.304 0.049 -0.355 Q 0.056 -0.373 0.062 -0.385 Q 0.08600000000000001 -0.434 0.122 -0.441 Q 0.129 -0.442 0.136 -0.442 Q 0.19 -0.442 0.215 -0.398 L 0.215 -0.397 Q 0.223 -0.384 0.226 -0.367 Q 0.289 -0.442 0.357 -0.442 Q 0.428 -0.442 0.466 -0.378 Q 0.488 -0.333 0.49 -0.28200000000000003 Q 0.49 -0.17400000000000002 0.41400000000000003 -0.082 Q 0.34500000000000003 0.002 0.263 0.01 Q 0.256 0.011 0.249 0.011 Q 0.186 0.011 0.157 -0.053 Q 0.12 0.079 0.109 0.14100000000000001 Q 0.108 0.146 0.108 0.147 Q 0.108 0.158 0.121 0.161 L 0.122 0.161 L 0.122 0.161 Q 0.134 0.163 0.158 0.163 Q 0.18 0.163 0.182 0.17400000000000002 Q 0.182 0.194 0.164 0.194 L 0.066 0.191 L 0.065 0.191 L -0.017 0.194 L -0.019 0.194 Q -0.032 0.194 -0.032 0.182 Q -0.026000000000000002 0.164 -0.009000000000000001 0.163 Q 0.028 0.163 0.036000000000000004 0.15 L 0.037 0.149 Q 0.039 0.145 0.041 0.138 Q 0.042 0.133 0.045 0.122 M 0.221 -0.312 L 0.221 -0.312 L 0.17200000000000001 -0.116 Q 0.169 -0.10400000000000001 0.169 -0.1 Q 0.169 -0.077 0.187 -0.048 Q 0.198 -0.029 0.215 -0.019 Q 0.23 -0.011 0.248 -0.011 Q 0.299 -0.011 0.34400000000000003 -0.075 Q 0.357 -0.093 0.367 -0.114 Q 0.394 -0.171 0.41200000000000003 -0.268 Q 0.418 -0.303 0.418 -0.326 Q 0.418 -0.405 0.37 -0.418 Q 0.362 -0.42 0.354 -0.42 Q 0.316 -0.42 0.273 -0.382 Q 0.23 -0.34600000000000003 0.221 -0.312 Z"/></g><g transform="translate(19.05868155555556,4.358332777777778) scale(0.7,0.7)"><path fill="rgb(77,77,255)" stroke="none" paint-order="stroke fill markers" d=" M 0.449 -0.17400000000000002 L 0.449 -0.17400000000000002 L 0.421 0 L 0.05 0 Q 0.05 -0.025 0.056 -0.032 L 0.061 -0.037 L 0.253 -0.251 Q 0.358 -0.369 0.358 -0.47200000000000003 Q 0.358 -0.561 0.304 -0.607 L 0.303 -0.608 L 0.302 -0.608 Q 0.27 -0.635 0.224 -0.635 Q 0.152 -0.635 0.109 -0.5730000000000001 Q 0.097 -0.555 0.089 -0.533 Q 0.092 -0.534 0.10200000000000001 -0.534 Q 0.14200000000000002 -0.534 0.153 -0.498 L 0.153 -0.497 Q 0.155 -0.49 0.155 -0.482 Q 0.155 -0.442 0.117 -0.431 Q 0.109 -0.429 0.10300000000000001 -0.429 Q 0.066 -0.429 0.054 -0.46 Q 0.05 -0.47100000000000003 0.05 -0.485 Q 0.05 -0.562 0.109 -0.617 Q 0.162 -0.666 0.23700000000000002 -0.666 Q 0.34700000000000003 -0.666 0.40800000000000003 -0.592 Q 0.443 -0.549 0.448 -0.49 Q 0.449 -0.481 0.449 -0.47200000000000003 Q 0.449 -0.399 0.394 -0.333 Q 0.365 -0.299 0.304 -0.243 L 0.243 -0.189 L 0.233 -0.18 L 0.127 -0.077 L 0.307 -0.077 Q 0.395 -0.077 0.402 -0.085 Q 0.41200000000000003 -0.099 0.424 -0.17400000000000002 L 0.449 -0.17400000000000002 Z"/></g></g><path fill="rgb(77,77,255)" stroke="none" paint-order="stroke fill markers" d=" M 641.5999999999998 247.89999999999995 C 641.5999999999998 250.66142374915393 639.3614237491538 252.89999999999995 636.5999999999998 252.89999999999995 C 633.8385762508458 252.89999999999995 631.5999999999998 250.66142374915393 631.5999999999998 247.89999999999995 C 631.5999999999998 245.13857625084597 633.8385762508458 242.89999999999995 636.5999999999998 242.89999999999995 C 639.3614237491538 242.89999999999995 641.5999999999998 245.13857625084597 641.5999999999998 247.89999999999995 Z" fill-opacity="1"/><path fill="none" stroke="rgb(0,0,0)" paint-order="fill stroke markers" d=" M 641.5999999999998 247.89999999999995 C 641.5999999999998 250.66142374915393 639.3614237491538 252.89999999999995 636.5999999999998 252.89999999999995 C 633.8385762508458 252.89999999999995 631.5999999999998 250.66142374915393 631.5999999999998 247.89999999999995 C 631.5999999999998 245.13857625084597 633.8385762508458 242.89999999999995 636.5999999999998 242.89999999999995 C 639.3614237491538 242.89999999999995 641.5999999999998 245.13857625084597 641.5999999999998 247.89999999999995 Z" stroke-opacity="1" stroke-linecap="round" stroke-linejoin="round" stroke-miterlimit="10"/><g transform="scale(27,27)"><g transform="translate(22.37037037037037,9.504629074074074)"><path fill="rgb(77,77,255)" stroke="none" paint-order="stroke fill markers" d=" M 0.045 0.122 L 0.045 0.122 L 0.157 -0.323 Q 0.164 -0.353 0.164 -0.374 Q 0.164 -0.42 0.133 -0.42 Q 0.092 -0.42 0.066 -0.325 Q 0.063 -0.314 0.06 -0.301 Q 0.049 -0.279 0.043000000000000003 -0.278 Q 0.031 -0.278 0.031 -0.28800000000000003 Q 0.031 -0.304 0.049 -0.355 Q 0.056 -0.373 0.062 -0.385 Q 0.08600000000000001 -0.434 0.122 -0.441 Q 0.129 -0.442 0.136 -0.442 Q 0.19 -0.442 0.215 -0.398 L 0.215 -0.397 Q 0.223 -0.384 0.226 -0.367 Q 0.289 -0.442 0.357 -0.442 Q 0.428 -0.442 0.466 -0.378 Q 0.488 -0.333 0.49 -0.28200000000000003 Q 0.49 -0.17400000000000002 0.41400000000000003 -0.082 Q 0.34500000000000003 0.002 0.263 0.01 Q 0.256 0.011 0.249 0.011 Q 0.186 0.011 0.157 -0.053 Q 0.12 0.079 0.109 0.14100000000000001 Q 0.108 0.146 0.108 0.147 Q 0.108 0.158 0.121 0.161 L 0.122 0.161 L 0.122 0.161 Q 0.134 0.163 0.158 0.163 Q 0.18 0.163 0.182 0.17400000000000002 Q 0.182 0.194 0.164 0.194 L 0.066 0.191 L 0.065 0.191 L -0.017 0.194 L -0.019 0.194 Q -0.032 0.194 -0.032 0.182 Q -0.026000000000000002 0.164 -0.009000000000000001 0.163 Q 0.028 0.163 0.036000000000000004 0.15 L 0.037 0.149 Q 0.039 0.145 0.041 0.138 Q 0.042 0.133 0.045 0.122 M 0.221 -0.312 L 0.221 -0.312 L 0.17200000000000001 -0.116 Q 0.169 -0.10400000000000001 0.169 -0.1 Q 0.169 -0.077 0.187 -0.048 Q 0.198 -0.029 0.215 -0.019 Q 0.23 -0.011 0.248 -0.011 Q 0.299 -0.011 0.34400000000000003 -0.075 Q 0.357 -0.093 0.367 -0.114 Q 0.394 -0.171 0.41200000000000003 -0.268 Q 0.418 -0.303 0.418 -0.326 Q 0.418 -0.405 0.37 -0.418 Q 0.362 -0.42 0.354 -0.42 Q 0.316 -0.42 0.273 -0.382 Q 0.23 -0.34600000000000003 0.221 -0.312 Z"/></g><g transform="translate(22.87349637037037,9.654629074074075) scale(0.7,0.7)"><path fill="rgb(77,77,255)" stroke="none" paint-order="stroke fill markers" d=" M 0.294 -0.64 L 0.294 -0.079 Q 0.294 -0.049 0.306 -0.041 Q 0.323 -0.031 0.387 -0.031 L 0.419 -0.031 L 0.419 0 Q 0.384 -0.003 0.257 -0.003 Q 0.13 -0.003 0.095 0 L 0.095 -0.031 L 0.127 -0.031 Q 0.20400000000000001 -0.031 0.215 -0.049 L 0.216 -0.05 Q 0.22 -0.058 0.22 -0.079 L 0.22 -0.597 Q 0.168 -0.5710000000000001 0.089 -0.5710000000000001 L 0.089 -0.602 Q 0.209 -0.602 0.271 -0.666 Q 0.29 -0.666 0.293 -0.659 L 0.293 -0.659 L 0.293 -0.658 Q 0.294 -0.655 0.294 -0.64 Z"/></g></g><path fill="rgb(77,77,255)" stroke="none" paint-order="stroke fill markers" d=" M 559 479 C 559 481.76142374915395 556.761423749154 484 554 484 C 551.238576250846 484 549 481.76142374915395 549 479 C 549 476.23857625084605 551.238576250846 474 554 474 C 556.761423749154 474 559 476.23857625084605 559 479 Z" fill-opacity="1"/><path fill="none" stroke="rgb(0,0,0)" paint-order="fill stroke markers" d=" M 559 479 C 559 481.76142374915395 556.761423749154 484 554 484 C 551.238576250846 484 549 481.76142374915395 549 479 C 549 476.23857625084605 551.238576250846 474 554 474 C 556.761423749154 474 559 476.23857625084605 559 479 Z" stroke-opacity="1" stroke-linecap="round" stroke-linejoin="round" stroke-miterlimit="10"/><g transform="scale(27,27)"><g transform="translate(18.703703703703702,18.541666111111113)"><path fill="rgb(77,77,255)" stroke="none" paint-order="stroke fill markers" d=" M 0.045 0.122 L 0.045 0.122 L 0.157 -0.323 Q 0.164 -0.353 0.164 -0.374 Q 0.164 -0.42 0.133 -0.42 Q 0.092 -0.42 0.066 -0.325 Q 0.063 -0.314 0.06 -0.301 Q 0.049 -0.279 0.043000000000000003 -0.278 Q 0.031 -0.278 0.031 -0.28800000000000003 Q 0.031 -0.304 0.049 -0.355 Q 0.056 -0.373 0.062 -0.385 Q 0.08600000000000001 -0.434 0.122 -0.441 Q 0.129 -0.442 0.136 -0.442 Q 0.19 -0.442 0.215 -0.398 L 0.215 -0.397 Q 0.223 -0.384 0.226 -0.367 Q 0.289 -0.442 0.357 -0.442 Q 0.428 -0.442 0.466 -0.378 Q 0.488 -0.333 0.49 -0.28200000000000003 Q 0.49 -0.17400000000000002 0.41400000000000003 -0.082 Q 0.34500000000000003 0.002 0.263 0.01 Q 0.256 0.011 0.249 0.011 Q 0.186 0.011 0.157 -0.053 Q 0.12 0.079 0.109 0.14100000000000001 Q 0.108 0.146 0.108 0.147 Q 0.108 0.158 0.121 0.161 L 0.122 0.161 L 0.122 0.161 Q 0.134 0.163 0.158 0.163 Q 0.18 0.163 0.182 0.17400000000000002 Q 0.182 0.194 0.164 0.194 L 0.066 0.191 L 0.065 0.191 L -0.017 0.194 L -0.019 0.194 Q -0.032 0.194 -0.032 0.182 Q -0.026000000000000002 0.164 -0.009000000000000001 0.163 Q 0.028 0.163 0.036000000000000004 0.15 L 0.037 0.149 Q 0.039 0.145 0.041 0.138 Q 0.042 0.133 0.045 0.122 M 0.221 -0.312 L 0.221 -0.312 L 0.17200000000000001 -0.116 Q 0.169 -0.10400000000000001 0.169 -0.1 Q 0.169 -0.077 0.187 -0.048 Q 0.198 -0.029 0.215 -0.019 Q 0.23 -0.011 0.248 -0.011 Q 0.299 -0.011 0.34400000000000003 -0.075 Q 0.357 -0.093 0.367 -0.114 Q 0.394 -0.171 0.41200000000000003 -0.268 Q 0.418 -0.303 0.418 -0.326 Q 0.418 -0.405 0.37 -0.418 Q 0.362 -0.42 0.354 -0.42 Q 0.316 -0.42 0.273 -0.382 Q 0.23 -0.34600000000000003 0.221 -0.312 Z"/></g><g transform="translate(19.206829703703704,18.69166611111111) scale(0.7,0.7)"><path fill="rgb(77,77,255)" stroke="none" paint-order="stroke fill markers" d=" M 0.46 -0.32 Q 0.46 -0.17400000000000002 0.423 -0.094 Q 0.364 0.018000000000000002 0.249 0.022 Q 0.158 0.022 0.10300000000000001 -0.05 Q 0.092 -0.063 0.084 -0.079 Q 0.039 -0.162 0.039 -0.32 Q 0.039 -0.467 0.076 -0.547 Q 0.126 -0.659 0.23800000000000002 -0.666 L 0.25 -0.666 Q 0.339 -0.666 0.395 -0.595 L 0.395 -0.594 Q 0.40900000000000003 -0.5760000000000001 0.42 -0.554 Q 0.46 -0.46900000000000003 0.46 -0.32 M 0.249 0 L 0.249 0 Q 0.312 0 0.34600000000000003 -0.061 Q 0.36 -0.088 0.366 -0.125 Q 0.377 -0.189 0.377 -0.332 Q 0.377 -0.47100000000000003 0.367 -0.527 Q 0.34900000000000003 -0.622 0.275 -0.641 Q 0.262 -0.644 0.249 -0.644 Q 0.179 -0.644 0.147 -0.5740000000000001 Q 0.136 -0.55 0.13 -0.516 Q 0.122 -0.462 0.122 -0.332 Q 0.122 -0.181 0.133 -0.121 Q 0.151 -0.025 0.221 -0.004 Q 0.23500000000000001 0 0.249 0 Z"/></g></g><path fill="rgb(77,77,255)" stroke="none" paint-order="stroke fill markers" d=" M 296 443 C 296 445.76142374915395 293.76142374915395 448 291 448 C 288.23857625084605 448 286 445.76142374915395 286 443 C 286 440.23857625084605 288.23857625084605 438 291 438 C 293.76142374915395 438 296 440.23857625084605 296 443 Z" fill-opacity="1"/><path fill="none" stroke="rgb(0,0,0)" paint-order="fill stroke markers" d=" M 296 443 C 296 445.76142374915395 293.76142374915395 448 291 448 C 288.23857625084605 448 286 445.76142374915395 286 443 C 286 440.23857625084605 288.23857625084605 438 291 438 C 293.76142374915395 438 296 440.23857625084605 296 443 Z" stroke-opacity="1" stroke-linecap="round" stroke-linejoin="round" stroke-miterlimit="10"/><g transform="scale(27,27)"><g transform="translate(10.11111111111111,17.91203648148148)"><path fill="rgb(77,77,255)" stroke="none" paint-order="stroke fill markers" d=" M 0.045 0.122 L 0.045 0.122 L 0.157 -0.323 Q 0.164 -0.353 0.164 -0.374 Q 0.164 -0.42 0.133 -0.42 Q 0.092 -0.42 0.066 -0.325 Q 0.063 -0.314 0.06 -0.301 Q 0.049 -0.279 0.043000000000000003 -0.278 Q 0.031 -0.278 0.031 -0.28800000000000003 Q 0.031 -0.304 0.049 -0.355 Q 0.056 -0.373 0.062 -0.385 Q 0.08600000000000001 -0.434 0.122 -0.441 Q 0.129 -0.442 0.136 -0.442 Q 0.19 -0.442 0.215 -0.398 L 0.215 -0.397 Q 0.223 -0.384 0.226 -0.367 Q 0.289 -0.442 0.357 -0.442 Q 0.428 -0.442 0.466 -0.378 Q 0.488 -0.333 0.49 -0.28200000000000003 Q 0.49 -0.17400000000000002 0.41400000000000003 -0.082 Q 0.34500000000000003 0.002 0.263 0.01 Q 0.256 0.011 0.249 0.011 Q 0.186 0.011 0.157 -0.053 Q 0.12 0.079 0.109 0.14100000000000001 Q 0.108 0.146 0.108 0.147 Q 0.108 0.158 0.121 0.161 L 0.122 0.161 L 0.122 0.161 Q 0.134 0.163 0.158 0.163 Q 0.18 0.163 0.182 0.17400000000000002 Q 0.182 0.194 0.164 0.194 L 0.066 0.191 L 0.065 0.191 L -0.017 0.194 L -0.019 0.194 Q -0.032 0.194 -0.032 0.182 Q -0.026000000000000002 0.164 -0.009000000000000001 0.163 Q 0.028 0.163 0.036000000000000004 0.15 L 0.037 0.149 Q 0.039 0.145 0.041 0.138 Q 0.042 0.133 0.045 0.122 M 0.221 -0.312 L 0.221 -0.312 L 0.17200000000000001 -0.116 Q 0.169 -0.10400000000000001 0.169 -0.1 Q 0.169 -0.077 0.187 -0.048 Q 0.198 -0.029 0.215 -0.019 Q 0.23 -0.011 0.248 -0.011 Q 0.299 -0.011 0.34400000000000003 -0.075 Q 0.357 -0.093 0.367 -0.114 Q 0.394 -0.171 0.41200000000000003 -0.268 Q 0.418 -0.303 0.418 -0.326 Q 0.418 -0.405 0.37 -0.418 Q 0.362 -0.42 0.354 -0.42 Q 0.316 -0.42 0.273 -0.382 Q 0.23 -0.34600000000000003 0.221 -0.312 Z"/></g><g transform="translate(10.61423711111111,18.062036481481478) scale(0.7,0.7)"><path fill="rgb(77,77,255)" stroke="none" paint-order="stroke fill markers" d=" M 0.294 -0.64 L 0.294 -0.079 Q 0.294 -0.049 0.306 -0.041 Q 0.323 -0.031 0.387 -0.031 L 0.419 -0.031 L 0.419 0 Q 0.384 -0.003 0.257 -0.003 Q 0.13 -0.003 0.095 0 L 0.095 -0.031 L 0.127 -0.031 Q 0.20400000000000001 -0.031 0.215 -0.049 L 0.216 -0.05 Q 0.22 -0.058 0.22 -0.079 L 0.22 -0.597 Q 0.168 -0.5710000000000001 0.089 -0.5710000000000001 L 0.089 -0.602 Q 0.209 -0.602 0.271 -0.666 Q 0.29 -0.666 0.293 -0.659 L 0.293 -0.659 L 0.293 -0.658 Q 0.294 -0.655 0.294 -0.64 Z"/></g><g transform="translate(10.96423851111111,18.062036481481478) scale(0.7,0.7)"><path fill="rgb(77,77,255)" stroke="none" paint-order="stroke fill markers" d=" M 0.294 -0.64 L 0.294 -0.079 Q 0.294 -0.049 0.306 -0.041 Q 0.323 -0.031 0.387 -0.031 L 0.419 -0.031 L 0.419 0 Q 0.384 -0.003 0.257 -0.003 Q 0.13 -0.003 0.095 0 L 0.095 -0.031 L 0.127 -0.031 Q 0.20400000000000001 -0.031 0.215 -0.049 L 0.216 -0.05 Q 0.22 -0.058 0.22 -0.079 L 0.22 -0.597 Q 0.168 -0.5710000000000001 0.089 -0.5710000000000001 L 0.089 -0.602 Q 0.209 -0.602 0.271 -0.666 Q 0.29 -0.666 0.293 -0.659 L 0.293 -0.659 L 0.293 -0.658 Q 0.294 -0.655 0.294 -0.64 Z"/></g></g><path fill="rgb(77,77,255)" stroke="none" paint-order="stroke fill markers" d=" M 175.19999999999996 351.29999999999995 C 175.19999999999996 354.0614237491539 172.96142374915394 356.29999999999995 170.19999999999996 356.29999999999995 C 167.43857625084598 356.29999999999995 165.19999999999996 354.0614237491539 165.19999999999996 351.29999999999995 C 165.19999999999996 348.538576250846 167.43857625084598 346.29999999999995 170.19999999999996 346.29999999999995 C 172.96142374915394 346.29999999999995 175.19999999999996 348.538576250846 175.19999999999996 351.29999999999995 Z" fill-opacity="1"/><path fill="none" stroke="rgb(0,0,0)" paint-order="fill stroke markers" d=" M 175.19999999999996 351.29999999999995 C 175.19999999999996 354.0614237491539 172.96142374915394 356.29999999999995 170.19999999999996 356.29999999999995 C 167.43857625084598 356.29999999999995 165.19999999999996 354.0614237491539 165.19999999999996 351.29999999999995 C 165.19999999999996 348.538576250846 167.43857625084598 346.29999999999995 170.19999999999996 346.29999999999995 C 172.96142374915394 346.29999999999995 175.19999999999996 348.538576250846 175.19999999999996 351.29999999999995 Z" stroke-opacity="1" stroke-linecap="round" stroke-linejoin="round" stroke-miterlimit="10"/><g transform="scale(27,27)"><g transform="translate(5.111111111111111,13.80092537037037)"><path fill="rgb(77,77,255)" stroke="none" paint-order="stroke fill markers" d=" M 0.045 0.122 L 0.045 0.122 L 0.157 -0.323 Q 0.164 -0.353 0.164 -0.374 Q 0.164 -0.42 0.133 -0.42 Q 0.092 -0.42 0.066 -0.325 Q 0.063 -0.314 0.06 -0.301 Q 0.049 -0.279 0.043000000000000003 -0.278 Q 0.031 -0.278 0.031 -0.28800000000000003 Q 0.031 -0.304 0.049 -0.355 Q 0.056 -0.373 0.062 -0.385 Q 0.08600000000000001 -0.434 0.122 -0.441 Q 0.129 -0.442 0.136 -0.442 Q 0.19 -0.442 0.215 -0.398 L 0.215 -0.397 Q 0.223 -0.384 0.226 -0.367 Q 0.289 -0.442 0.357 -0.442 Q 0.428 -0.442 0.466 -0.378 Q 0.488 -0.333 0.49 -0.28200000000000003 Q 0.49 -0.17400000000000002 0.41400000000000003 -0.082 Q 0.34500000000000003 0.002 0.263 0.01 Q 0.256 0.011 0.249 0.011 Q 0.186 0.011 0.157 -0.053 Q 0.12 0.079 0.109 0.14100000000000001 Q 0.108 0.146 0.108 0.147 Q 0.108 0.158 0.121 0.161 L 0.122 0.161 L 0.122 0.161 Q 0.134 0.163 0.158 0.163 Q 0.18 0.163 0.182 0.17400000000000002 Q 0.182 0.194 0.164 0.194 L 0.066 0.191 L 0.065 0.191 L -0.017 0.194 L -0.019 0.194 Q -0.032 0.194 -0.032 0.182 Q -0.026000000000000002 0.164 -0.009000000000000001 0.163 Q 0.028 0.163 0.036000000000000004 0.15 L 0.037 0.149 Q 0.039 0.145 0.041 0.138 Q 0.042 0.133 0.045 0.122 M 0.221 -0.312 L 0.221 -0.312 L 0.17200000000000001 -0.116 Q 0.169 -0.10400000000000001 0.169 -0.1 Q 0.169 -0.077 0.187 -0.048 Q 0.198 -0.029 0.215 -0.019 Q 0.23 -0.011 0.248 -0.011 Q 0.299 -0.011 0.34400000000000003 -0.075 Q 0.357 -0.093 0.367 -0.114 Q 0.394 -0.171 0.41200000000000003 -0.268 Q 0.418 -0.303 0.418 -0.326 Q 0.418 -0.405 0.37 -0.418 Q 0.362 -0.42 0.354 -0.42 Q 0.316 -0.42 0.273 -0.382 Q 0.23 -0.34600000000000003 0.221 -0.312 Z"/></g><g transform="translate(5.614237111111111,13.95092537037037) scale(0.7,0.7)"><path fill="rgb(77,77,255)" stroke="none" paint-order="stroke fill markers" d=" M 0.294 -0.64 L 0.294 -0.079 Q 0.294 -0.049 0.306 -0.041 Q 0.323 -0.031 0.387 -0.031 L 0.419 -0.031 L 0.419 0 Q 0.384 -0.003 0.257 -0.003 Q 0.13 -0.003 0.095 0 L 0.095 -0.031 L 0.127 -0.031 Q 0.20400000000000001 -0.031 0.215 -0.049 L 0.216 -0.05 Q 0.22 -0.058 0.22 -0.079 L 0.22 -0.597 Q 0.168 -0.5710000000000001 0.089 -0.5710000000000001 L 0.089 -0.602 Q 0.209 -0.602 0.271 -0.666 Q 0.29 -0.666 0.293 -0.659 L 0.293 -0.659 L 0.293 -0.658 Q 0.294 -0.655 0.294 -0.64 Z"/></g><g transform="translate(5.964238511111111,13.95092537037037) scale(0.7,0.7)"><path fill="rgb(77,77,255)" stroke="none" paint-order="stroke fill markers" d=" M 0.46 -0.32 Q 0.46 -0.17400000000000002 0.423 -0.094 Q 0.364 0.018000000000000002 0.249 0.022 Q 0.158 0.022 0.10300000000000001 -0.05 Q 0.092 -0.063 0.084 -0.079 Q 0.039 -0.162 0.039 -0.32 Q 0.039 -0.467 0.076 -0.547 Q 0.126 -0.659 0.23800000000000002 -0.666 L 0.25 -0.666 Q 0.339 -0.666 0.395 -0.595 L 0.395 -0.594 Q 0.40900000000000003 -0.5760000000000001 0.42 -0.554 Q 0.46 -0.46900000000000003 0.46 -0.32 M 0.249 0 L 0.249 0 Q 0.312 0 0.34600000000000003 -0.061 Q 0.36 -0.088 0.366 -0.125 Q 0.377 -0.189 0.377 -0.332 Q 0.377 -0.47100000000000003 0.367 -0.527 Q 0.34900000000000003 -0.622 0.275 -0.641 Q 0.262 -0.644 0.249 -0.644 Q 0.179 -0.644 0.147 -0.5740000000000001 Q 0.136 -0.55 0.13 -0.516 Q 0.122 -0.462 0.122 -0.332 Q 0.122 -0.181 0.133 -0.121 Q 0.151 -0.025 0.221 -0.004 Q 0.23500000000000001 0 0.249 0 Z"/></g></g><path fill="rgb(77,77,255)" stroke="none" paint-order="stroke fill markers" d=" M 390 131 C 390 133.76142374915398 387.76142374915395 136 385 136 C 382.23857625084605 136 380 133.76142374915398 380 131 C 380 128.23857625084602 382.23857625084605 126 385 126 C 387.76142374915395 126 390 128.23857625084602 390 131 Z" fill-opacity="1"/><path fill="none" stroke="rgb(0,0,0)" paint-order="fill stroke markers" d=" M 390 131 C 390 133.76142374915398 387.76142374915395 136 385 136 C 382.23857625084605 136 380 133.76142374915398 380 131 C 380 128.23857625084602 382.23857625084605 126 385 126 C 387.76142374915395 126 390 128.23857625084602 390 131 Z" stroke-opacity="1" stroke-linecap="round" stroke-linejoin="round" stroke-miterlimit="10"/><g transform="scale(27,27)"><g transform="translate(13.444444444444445,6.06018462962963)"><path fill="rgb(77,77,255)" stroke="none" paint-order="stroke fill markers" d=" M 0.045 0.122 L 0.045 0.122 L 0.157 -0.323 Q 0.164 -0.353 0.164 -0.374 Q 0.164 -0.42 0.133 -0.42 Q 0.092 -0.42 0.066 -0.325 Q 0.063 -0.314 0.06 -0.301 Q 0.049 -0.279 0.043000000000000003 -0.278 Q 0.031 -0.278 0.031 -0.28800000000000003 Q 0.031 -0.304 0.049 -0.355 Q 0.056 -0.373 0.062 -0.385 Q 0.08600000000000001 -0.434 0.122 -0.441 Q 0.129 -0.442 0.136 -0.442 Q 0.19 -0.442 0.215 -0.398 L 0.215 -0.397 Q 0.223 -0.384 0.226 -0.367 Q 0.289 -0.442 0.357 -0.442 Q 0.428 -0.442 0.466 -0.378 Q 0.488 -0.333 0.49 -0.28200000000000003 Q 0.49 -0.17400000000000002 0.41400000000000003 -0.082 Q 0.34500000000000003 0.002 0.263 0.01 Q 0.256 0.011 0.249 0.011 Q 0.186 0.011 0.157 -0.053 Q 0.12 0.079 0.109 0.14100000000000001 Q 0.108 0.146 0.108 0.147 Q 0.108 0.158 0.121 0.161 L 0.122 0.161 L 0.122 0.161 Q 0.134 0.163 0.158 0.163 Q 0.18 0.163 0.182 0.17400000000000002 Q 0.182 0.194 0.164 0.194 L 0.066 0.191 L 0.065 0.191 L -0.017 0.194 L -0.019 0.194 Q -0.032 0.194 -0.032 0.182 Q -0.026000000000000002 0.164 -0.009000000000000001 0.163 Q 0.028 0.163 0.036000000000000004 0.15 L 0.037 0.149 Q 0.039 0.145 0.041 0.138 Q 0.042 0.133 0.045 0.122 M 0.221 -0.312 L 0.221 -0.312 L 0.17200000000000001 -0.116 Q 0.169 -0.10400000000000001 0.169 -0.1 Q 0.169 -0.077 0.187 -0.048 Q 0.198 -0.029 0.215 -0.019 Q 0.23 -0.011 0.248 -0.011 Q 0.299 -0.011 0.34400000000000003 -0.075 Q 0.357 -0.093 0.367 -0.114 Q 0.394 -0.171 0.41200000000000003 -0.268 Q 0.418 -0.303 0.418 -0.326 Q 0.418 -0.405 0.37 -0.418 Q 0.362 -0.42 0.354 -0.42 Q 0.316 -0.42 0.273 -0.382 Q 0.23 -0.34600000000000003 0.221 -0.312 Z"/></g><g transform="translate(13.947570444444445,6.21018462962963) scale(0.7,0.7)"><path fill="rgb(77,77,255)" stroke="none" paint-order="stroke fill markers" d=" M 0.028 -0.165 L 0.028 -0.196 L 0.335 -0.665 Q 0.343 -0.677 0.355 -0.677 Q 0.369 -0.677 0.371 -0.666 L 0.371 -0.651 L 0.371 -0.196 L 0.47100000000000003 -0.196 L 0.47100000000000003 -0.165 L 0.371 -0.165 L 0.371 -0.078 Q 0.371 -0.047 0.383 -0.04 Q 0.397 -0.031 0.447 -0.031 L 0.468 -0.031 L 0.468 0 Q 0.427 -0.003 0.332 -0.003 Q 0.23800000000000002 -0.003 0.197 0 L 0.197 -0.031 L 0.218 -0.031 Q 0.28 -0.031 0.29 -0.048 Q 0.294 -0.055 0.294 -0.078 L 0.294 -0.165 L 0.028 -0.165 M 0.3 -0.196 L 0.3 -0.5690000000000001 L 0.056 -0.196 L 0.3 -0.196 Z"/></g></g><path fill="rgb(77,77,255)" stroke="none" paint-order="stroke fill markers" d=" M 349 168 C 349 170.76142374915398 346.76142374915395 173 344 173 C 341.23857625084605 173 339 170.76142374915398 339 168 C 339 165.23857625084602 341.23857625084605 163 344 163 C 346.76142374915395 163 349 165.23857625084602 349 168 Z" fill-opacity="1"/><path fill="none" stroke="rgb(0,0,0)" paint-order="fill stroke markers" d=" M 349 168 C 349 170.76142374915398 346.76142374915395 173 344 173 C 341.23857625084605 173 339 170.76142374915398 339 168 C 339 165.23857625084602 341.23857625084605 163 344 163 C 346.76142374915395 163 349 165.23857625084602 349 168 Z" stroke-opacity="1" stroke-linecap="round" stroke-linejoin="round" stroke-miterlimit="10"/><g transform="scale(27,27)"><g transform="translate(11.851851851851851,7.023147592592593)"><path fill="rgb(77,77,255)" stroke="none" paint-order="stroke fill markers" d=" M 0.045 0.122 L 0.045 0.122 L 0.157 -0.323 Q 0.164 -0.353 0.164 -0.374 Q 0.164 -0.42 0.133 -0.42 Q 0.092 -0.42 0.066 -0.325 Q 0.063 -0.314 0.06 -0.301 Q 0.049 -0.279 0.043000000000000003 -0.278 Q 0.031 -0.278 0.031 -0.28800000000000003 Q 0.031 -0.304 0.049 -0.355 Q 0.056 -0.373 0.062 -0.385 Q 0.08600000000000001 -0.434 0.122 -0.441 Q 0.129 -0.442 0.136 -0.442 Q 0.19 -0.442 0.215 -0.398 L 0.215 -0.397 Q 0.223 -0.384 0.226 -0.367 Q 0.289 -0.442 0.357 -0.442 Q 0.428 -0.442 0.466 -0.378 Q 0.488 -0.333 0.49 -0.28200000000000003 Q 0.49 -0.17400000000000002 0.41400000000000003 -0.082 Q 0.34500000000000003 0.002 0.263 0.01 Q 0.256 0.011 0.249 0.011 Q 0.186 0.011 0.157 -0.053 Q 0.12 0.079 0.109 0.14100000000000001 Q 0.108 0.146 0.108 0.147 Q 0.108 0.158 0.121 0.161 L 0.122 0.161 L 0.122 0.161 Q 0.134 0.163 0.158 0.163 Q 0.18 0.163 0.182 0.17400000000000002 Q 0.182 0.194 0.164 0.194 L 0.066 0.191 L 0.065 0.191 L -0.017 0.194 L -0.019 0.194 Q -0.032 0.194 -0.032 0.182 Q -0.026000000000000002 0.164 -0.009000000000000001 0.163 Q 0.028 0.163 0.036000000000000004 0.15 L 0.037 0.149 Q 0.039 0.145 0.041 0.138 Q 0.042 0.133 0.045 0.122 M 0.221 -0.312 L 0.221 -0.312 L 0.17200000000000001 -0.116 Q 0.169 -0.10400000000000001 0.169 -0.1 Q 0.169 -0.077 0.187 -0.048 Q 0.198 -0.029 0.215 -0.019 Q 0.23 -0.011 0.248 -0.011 Q 0.299 -0.011 0.34400000000000003 -0.075 Q 0.357 -0.093 0.367 -0.114 Q 0.394 -0.171 0.41200000000000003 -0.268 Q 0.418 -0.303 0.418 -0.326 Q 0.418 -0.405 0.37 -0.418 Q 0.362 -0.42 0.354 -0.42 Q 0.316 -0.42 0.273 -0.382 Q 0.23 -0.34600000000000003 0.221 -0.312 Z"/></g><g transform="translate(12.354977851851851,7.173147592592593) scale(0.7,0.7)"><path fill="rgb(77,77,255)" stroke="none" paint-order="stroke fill markers" d=" M 0.449 -0.201 L 0.449 -0.201 Q 0.449 -0.098 0.372 -0.031 Q 0.31 0.022 0.231 0.022 Q 0.139 0.022 0.085 -0.055 Q 0.05 -0.10400000000000001 0.05 -0.161 Q 0.05 -0.20700000000000002 0.091 -0.213 Q 0.095 -0.214 0.099 -0.214 Q 0.136 -0.214 0.147 -0.181 Q 0.149 -0.17300000000000001 0.149 -0.165 Q 0.149 -0.133 0.121 -0.121 Q 0.111 -0.116 0.099 -0.116 Q 0.088 -0.116 0.082 -0.11800000000000001 Q 0.1 -0.055 0.159 -0.024 Q 0.192 -0.006 0.229 -0.006 Q 0.296 -0.006 0.336 -0.07100000000000001 Q 0.36 -0.113 0.36 -0.20800000000000002 Q 0.36 -0.292 0.342 -0.334 Q 0.314 -0.398 0.257 -0.398 Q 0.176 -0.398 0.128 -0.328 Q 0.122 -0.319 0.115 -0.319 Q 0.10200000000000001 -0.319 0.101 -0.333 L 0.101 -0.34500000000000003 L 0.101 -0.641 Q 0.101 -0.664 0.111 -0.665 Q 0.115 -0.665 0.123 -0.662 Q 0.186 -0.634 0.256 -0.634 Q 0.328 -0.634 0.392 -0.663 Q 0.397 -0.666 0.4 -0.666 Q 0.41000000000000003 -0.666 0.41000000000000003 -0.655 Q 0.41000000000000003 -0.642 0.378 -0.613 Q 0.31 -0.551 0.217 -0.551 Q 0.17500000000000002 -0.551 0.132 -0.5640000000000001 L 0.132 -0.369 Q 0.184 -0.42 0.259 -0.42 Q 0.34700000000000003 -0.42 0.404 -0.343 Q 0.449 -0.28200000000000003 0.449 -0.201 Z"/></g></g><path fill="rgb(102,153,255)" stroke="none" paint-order="stroke fill markers" d=" M 282.8620174360933 336.2669474669672 C 282.8620174360933 339.0283712161212 280.62344118524726 341.2669474669672 277.8620174360933 341.2669474669672 C 275.10059368693936 341.2669474669672 272.8620174360933 339.0283712161212 272.8620174360933 336.2669474669672 C 272.8620174360933 333.5055237178133 275.10059368693936 331.2669474669672 277.8620174360933 331.2669474669672 C 280.62344118524726 331.2669474669672 282.8620174360933 333.5055237178133 282.8620174360933 336.2669474669672 Z" fill-opacity="1"/><path fill="none" stroke="rgb(0,0,0)" paint-order="fill stroke markers" d=" M 282.8620174360933 336.2669474669672 C 282.8620174360933 339.0283712161212 280.62344118524726 341.2669474669672 277.8620174360933 341.2669474669672 C 275.10059368693936 341.2669474669672 272.8620174360933 339.0283712161212 272.8620174360933 336.2669474669672 C 272.8620174360933 333.5055237178133 275.10059368693936 331.2669474669672 277.8620174360933 331.2669474669672 C 280.62344118524726 331.2669474669672 282.8620174360933 333.5055237178133 282.8620174360933 336.2669474669672 Z" stroke-opacity="1" stroke-linecap="round" stroke-linejoin="round" stroke-miterlimit="10"/><g transform="scale(27,27)"><g transform="translate(9.666666666666666,13.393517962962964)"><path fill="rgb(102,153,255)" stroke="none" paint-order="stroke fill markers" d=" M 0.045 0.122 L 0.045 0.122 L 0.157 -0.323 Q 0.164 -0.353 0.164 -0.374 Q 0.164 -0.42 0.133 -0.42 Q 0.092 -0.42 0.066 -0.325 Q 0.063 -0.314 0.06 -0.301 Q 0.049 -0.279 0.043000000000000003 -0.278 Q 0.031 -0.278 0.031 -0.28800000000000003 Q 0.031 -0.304 0.049 -0.355 Q 0.056 -0.373 0.062 -0.385 Q 0.08600000000000001 -0.434 0.122 -0.441 Q 0.129 -0.442 0.136 -0.442 Q 0.19 -0.442 0.215 -0.398 L 0.215 -0.397 Q 0.223 -0.384 0.226 -0.367 Q 0.289 -0.442 0.357 -0.442 Q 0.428 -0.442 0.466 -0.378 Q 0.488 -0.333 0.49 -0.28200000000000003 Q 0.49 -0.17400000000000002 0.41400000000000003 -0.082 Q 0.34500000000000003 0.002 0.263 0.01 Q 0.256 0.011 0.249 0.011 Q 0.186 0.011 0.157 -0.053 Q 0.12 0.079 0.109 0.14100000000000001 Q 0.108 0.146 0.108 0.147 Q 0.108 0.158 0.121 0.161 L 0.122 0.161 L 0.122 0.161 Q 0.134 0.163 0.158 0.163 Q 0.18 0.163 0.182 0.17400000000000002 Q 0.182 0.194 0.164 0.194 L 0.066 0.191 L 0.065 0.191 L -0.017 0.194 L -0.019 0.194 Q -0.032 0.194 -0.032 0.182 Q -0.026000000000000002 0.164 -0.009000000000000001 0.163 Q 0.028 0.163 0.036000000000000004 0.15 L 0.037 0.149 Q 0.039 0.145 0.041 0.138 Q 0.042 0.133 0.045 0.122 M 0.221 -0.312 L 0.221 -0.312 L 0.17200000000000001 -0.116 Q 0.169 -0.10400000000000001 0.169 -0.1 Q 0.169 -0.077 0.187 -0.048 Q 0.198 -0.029 0.215 -0.019 Q 0.23 -0.011 0.248 -0.011 Q 0.299 -0.011 0.34400000000000003 -0.075 Q 0.357 -0.093 0.367 -0.114 Q 0.394 -0.171 0.41200000000000003 -0.268 Q 0.418 -0.303 0.418 -0.326 Q 0.418 -0.405 0.37 -0.418 Q 0.362 -0.42 0.354 -0.42 Q 0.316 -0.42 0.273 -0.382 Q 0.23 -0.34600000000000003 0.221 -0.312 Z"/></g><g transform="translate(10.169792666666666,13.543517962962964) scale(0.7,0.7)"><path fill="rgb(102,153,255)" stroke="none" paint-order="stroke fill markers" d=" M 0.163 -0.457 L 0.28700000000000003 -0.377 Q 0.386 -0.435 0.386 -0.517 Q 0.386 -0.583 0.326 -0.62 Q 0.291 -0.641 0.249 -0.641 Q 0.177 -0.641 0.136 -0.596 L 0.136 -0.596 L 0.135 -0.595 Q 0.113 -0.5690000000000001 0.113 -0.538 Q 0.113 -0.49 0.163 -0.457 M 0.309 -0.362 L 0.309 -0.362 Q 0.386 -0.314 0.403 -0.296 Q 0.406 -0.294 0.40800000000000003 -0.291 Q 0.457 -0.23700000000000002 0.457 -0.168 Q 0.457 -0.079 0.383 -0.023 Q 0.325 0.022 0.249 0.022 Q 0.154 0.022 0.092 -0.037 Q 0.042 -0.085 0.042 -0.151 Q 0.042 -0.263 0.186 -0.335 Q 0.124 -0.377 0.113 -0.389 Q 0.069 -0.438 0.069 -0.499 Q 0.069 -0.579 0.136 -0.629 Q 0.186 -0.666 0.25 -0.666 Q 0.337 -0.666 0.391 -0.611 Q 0.43 -0.5710000000000001 0.43 -0.517 Q 0.43 -0.424 0.309 -0.362 M 0.209 -0.32 L 0.209 -0.32 Q 0.097 -0.25 0.092 -0.151 Q 0.092 -0.078 0.155 -0.035 Q 0.197 -0.006 0.25 -0.006 Q 0.328 -0.006 0.375 -0.055 Q 0.40700000000000003 -0.089 0.40700000000000003 -0.132 Q 0.40700000000000003 -0.19 0.343 -0.23500000000000001 Q 0.341 -0.23600000000000002 0.332 -0.242 L 0.209 -0.32 Z"/></g></g><path fill="rgb(77,77,255)" stroke="none" paint-order="stroke fill markers" d=" M 518 281.99999999999994 C 518 284.7614237491539 515.761423749154 286.99999999999994 513 286.99999999999994 C 510.23857625084605 286.99999999999994 508 284.7614237491539 508 281.99999999999994 C 508 279.238576250846 510.23857625084605 276.99999999999994 513 276.99999999999994 C 515.761423749154 276.99999999999994 518 279.238576250846 518 281.99999999999994 Z" fill-opacity="1"/><path fill="none" stroke="rgb(0,0,0)" paint-order="fill stroke markers" d=" M 518 281.99999999999994 C 518 284.7614237491539 515.761423749154 286.99999999999994 513 286.99999999999994 C 510.23857625084605 286.99999999999994 508 284.7614237491539 508 281.99999999999994 C 508 279.238576250846 510.23857625084605 276.99999999999994 513 276.99999999999994 C 515.761423749154 276.99999999999994 518 279.238576250846 518 281.99999999999994 Z" stroke-opacity="1" stroke-linecap="round" stroke-linejoin="round" stroke-miterlimit="10"/><g transform="scale(27,27)"><g transform="translate(17.703703703703702,10.282406851851851)"><path fill="rgb(77,77,255)" stroke="none" paint-order="stroke fill markers" d=" M 0.045 0.122 L 0.045 0.122 L 0.157 -0.323 Q 0.164 -0.353 0.164 -0.374 Q 0.164 -0.42 0.133 -0.42 Q 0.092 -0.42 0.066 -0.325 Q 0.063 -0.314 0.06 -0.301 Q 0.049 -0.279 0.043000000000000003 -0.278 Q 0.031 -0.278 0.031 -0.28800000000000003 Q 0.031 -0.304 0.049 -0.355 Q 0.056 -0.373 0.062 -0.385 Q 0.08600000000000001 -0.434 0.122 -0.441 Q 0.129 -0.442 0.136 -0.442 Q 0.19 -0.442 0.215 -0.398 L 0.215 -0.397 Q 0.223 -0.384 0.226 -0.367 Q 0.289 -0.442 0.357 -0.442 Q 0.428 -0.442 0.466 -0.378 Q 0.488 -0.333 0.49 -0.28200000000000003 Q 0.49 -0.17400000000000002 0.41400000000000003 -0.082 Q 0.34500000000000003 0.002 0.263 0.01 Q 0.256 0.011 0.249 0.011 Q 0.186 0.011 0.157 -0.053 Q 0.12 0.079 0.109 0.14100000000000001 Q 0.108 0.146 0.108 0.147 Q 0.108 0.158 0.121 0.161 L 0.122 0.161 L 0.122 0.161 Q 0.134 0.163 0.158 0.163 Q 0.18 0.163 0.182 0.17400000000000002 Q 0.182 0.194 0.164 0.194 L 0.066 0.191 L 0.065 0.191 L -0.017 0.194 L -0.019 0.194 Q -0.032 0.194 -0.032 0.182 Q -0.026000000000000002 0.164 -0.009000000000000001 0.163 Q 0.028 0.163 0.036000000000000004 0.15 L 0.037 0.149 Q 0.039 0.145 0.041 0.138 Q 0.042 0.133 0.045 0.122 M 0.221 -0.312 L 0.221 -0.312 L 0.17200000000000001 -0.116 Q 0.169 -0.10400000000000001 0.169 -0.1 Q 0.169 -0.077 0.187 -0.048 Q 0.198 -0.029 0.215 -0.019 Q 0.23 -0.011 0.248 -0.011 Q 0.299 -0.011 0.34400000000000003 -0.075 Q 0.357 -0.093 0.367 -0.114 Q 0.394 -0.171 0.41200000000000003 -0.268 Q 0.418 -0.303 0.418 -0.326 Q 0.418 -0.405 0.37 -0.418 Q 0.362 -0.42 0.354 -0.42 Q 0.316 -0.42 0.273 -0.382 Q 0.23 -0.34600000000000003 0.221 -0.312 Z"/></g><g transform="translate(18.206829703703704,10.432406851851852) scale(0.7,0.7)"><path fill="rgb(77,77,255)" stroke="none" paint-order="stroke fill markers" d=" M 0.29 -0.352 L 0.29 -0.352 Q 0.39 -0.332 0.434 -0.254 Q 0.457 -0.215 0.457 -0.171 Q 0.457 -0.08600000000000001 0.387 -0.028 Q 0.326 0.022 0.244 0.022 Q 0.145 0.022 0.085 -0.037 Q 0.042 -0.079 0.042 -0.135 Q 0.042 -0.182 0.084 -0.191 Q 0.091 -0.193 0.098 -0.193 Q 0.136 -0.193 0.149 -0.161 Q 0.153 -0.148 0.154 -0.137 Q 0.154 -0.097 0.11800000000000001 -0.085 Q 0.10400000000000001 -0.08 0.088 -0.082 Q 0.125 -0.02 0.216 -0.008 Q 0.229 -0.006 0.241 -0.006 Q 0.305 -0.006 0.335 -0.069 Q 0.354 -0.109 0.354 -0.171 Q 0.354 -0.304 0.274 -0.331 Q 0.256 -0.337 0.23500000000000001 -0.337 L 0.191 -0.337 Q 0.169 -0.337 0.167 -0.34800000000000003 Q 0.167 -0.358 0.182 -0.36 Q 0.197 -0.36 0.221 -0.363 Q 0.272 -0.365 0.301 -0.402 L 0.301 -0.403 L 0.302 -0.404 L 0.303 -0.405 L 0.304 -0.405 L 0.31 -0.41500000000000004 Q 0.338 -0.462 0.338 -0.529 Q 0.338 -0.622 0.266 -0.638 Q 0.254 -0.641 0.242 -0.641 Q 0.17200000000000001 -0.641 0.128 -0.601 Q 0.117 -0.591 0.109 -0.579 Q 0.171 -0.579 0.171 -0.529 Q 0.171 -0.493 0.14 -0.481 Q 0.131 -0.47800000000000004 0.12 -0.47800000000000004 Q 0.081 -0.47800000000000004 0.07100000000000001 -0.513 L 0.07100000000000001 -0.513 L 0.07100000000000001 -0.514 Q 0.069 -0.522 0.069 -0.53 Q 0.069 -0.597 0.135 -0.637 Q 0.183 -0.666 0.246 -0.666 Q 0.337 -0.666 0.393 -0.612 L 0.395 -0.61 Q 0.43 -0.5740000000000001 0.43 -0.528 Q 0.43 -0.445 0.359 -0.389 Q 0.328 -0.365 0.29 -0.352 Z"/></g></g><path fill="rgb(77,77,255)" stroke="none" paint-order="stroke fill markers" d=" M 435.9999999999999 385 C 435.9999999999999 387.76142374915395 433.76142374915383 390 430.9999999999999 390 C 428.23857625084594 390 425.9999999999999 387.76142374915395 425.9999999999999 385 C 425.9999999999999 382.23857625084605 428.23857625084594 380 430.9999999999999 380 C 433.76142374915383 380 435.9999999999999 382.23857625084605 435.9999999999999 385 Z" fill-opacity="1"/><path fill="none" stroke="rgb(0,0,0)" paint-order="fill stroke markers" d=" M 435.9999999999999 385 C 435.9999999999999 387.76142374915395 433.76142374915383 390 430.9999999999999 390 C 428.23857625084594 390 425.9999999999999 387.76142374915395 425.9999999999999 385 C 425.9999999999999 382.23857625084605 428.23857625084594 380 430.9999999999999 380 C 433.76142374915383 380 435.9999999999999 382.23857625084605 435.9999999999999 385 Z" stroke-opacity="1" stroke-linecap="round" stroke-linejoin="round" stroke-miterlimit="10"/><g transform="scale(27,27)"><g transform="translate(14.666666666666666,14.430555)"><path fill="rgb(77,77,255)" stroke="none" paint-order="stroke fill markers" d=" M 0.045 0.122 L 0.045 0.122 L 0.157 -0.323 Q 0.164 -0.353 0.164 -0.374 Q 0.164 -0.42 0.133 -0.42 Q 0.092 -0.42 0.066 -0.325 Q 0.063 -0.314 0.06 -0.301 Q 0.049 -0.279 0.043000000000000003 -0.278 Q 0.031 -0.278 0.031 -0.28800000000000003 Q 0.031 -0.304 0.049 -0.355 Q 0.056 -0.373 0.062 -0.385 Q 0.08600000000000001 -0.434 0.122 -0.441 Q 0.129 -0.442 0.136 -0.442 Q 0.19 -0.442 0.215 -0.398 L 0.215 -0.397 Q 0.223 -0.384 0.226 -0.367 Q 0.289 -0.442 0.357 -0.442 Q 0.428 -0.442 0.466 -0.378 Q 0.488 -0.333 0.49 -0.28200000000000003 Q 0.49 -0.17400000000000002 0.41400000000000003 -0.082 Q 0.34500000000000003 0.002 0.263 0.01 Q 0.256 0.011 0.249 0.011 Q 0.186 0.011 0.157 -0.053 Q 0.12 0.079 0.109 0.14100000000000001 Q 0.108 0.146 0.108 0.147 Q 0.108 0.158 0.121 0.161 L 0.122 0.161 L 0.122 0.161 Q 0.134 0.163 0.158 0.163 Q 0.18 0.163 0.182 0.17400000000000002 Q 0.182 0.194 0.164 0.194 L 0.066 0.191 L 0.065 0.191 L -0.017 0.194 L -0.019 0.194 Q -0.032 0.194 -0.032 0.182 Q -0.026000000000000002 0.164 -0.009000000000000001 0.163 Q 0.028 0.163 0.036000000000000004 0.15 L 0.037 0.149 Q 0.039 0.145 0.041 0.138 Q 0.042 0.133 0.045 0.122 M 0.221 -0.312 L 0.221 -0.312 L 0.17200000000000001 -0.116 Q 0.169 -0.10400000000000001 0.169 -0.1 Q 0.169 -0.077 0.187 -0.048 Q 0.198 -0.029 0.215 -0.019 Q 0.23 -0.011 0.248 -0.011 Q 0.299 -0.011 0.34400000000000003 -0.075 Q 0.357 -0.093 0.367 -0.114 Q 0.394 -0.171 0.41200000000000003 -0.268 Q 0.418 -0.303 0.418 -0.326 Q 0.418 -0.405 0.37 -0.418 Q 0.362 -0.42 0.354 -0.42 Q 0.316 -0.42 0.273 -0.382 Q 0.23 -0.34600000000000003 0.221 -0.312 Z"/></g><g transform="translate(15.169792666666666,14.580555) scale(0.7,0.7)"><path fill="rgb(77,77,255)" stroke="none" paint-order="stroke fill markers" d=" M 0.47600000000000003 -0.609 L 0.341 -0.419 Q 0.298 -0.359 0.279 -0.248 Q 0.268 -0.17400000000000002 0.268 -0.084 L 0.268 -0.033 Q 0.268 0.022 0.222 0.022 Q 0.176 0.022 0.176 -0.033 Q 0.176 -0.2 0.273 -0.368 L 0.299 -0.40900000000000003 L 0.41100000000000003 -0.5670000000000001 L 0.20400000000000001 -0.5670000000000001 Q 0.113 -0.5670000000000001 0.106 -0.561 Q 0.096 -0.552 0.081 -0.47000000000000003 L 0.056 -0.47000000000000003 L 0.089 -0.676 L 0.114 -0.676 Q 0.11800000000000001 -0.659 0.132 -0.653 L 0.133 -0.653 L 0.133 -0.653 Q 0.159 -0.644 0.242 -0.644 L 0.485 -0.644 Q 0.485 -0.621 0.47600000000000003 -0.609 Z"/></g></g></g></g></svg>