<svg version="1.1" xmlns="http://www.w3.org/2000/svg" xmlns:xlink="http://www.w3.org/1999/xlink" width="926" height="562"><defs><clipPath id="zCxGHSSVoQdJ"><path fill="none" stroke="none" d=" M 0 0 L 926 0 L 926 562 L 0 562 L 0 0 Z"/></clipPath></defs><g transform="scale(1,1)" clip-path="url(#zCxGHSSVoQdJ)"><g><rect fill="rgb(255,255,255)" stroke="none" x="0" y="0" width="926" height="562" fill-opacity="1"/><path fill="rgb(77,77,255)" stroke="none" paint-order="stroke fill markers" d=" M 126.80000000000004 255.59999999999997 C 126.80000000000004 258.3614237491539 124.561423749154 260.59999999999997 121.80000000000004 260.59999999999997 C 119.03857625084608 260.59999999999997 116.80000000000004 258.3614237491539 116.80000000000004 255.59999999999997 C 116.80000000000004 252.838576250846 119.03857625084608 250.59999999999997 121.80000000000004 250.59999999999997 C 124.561423749154 250.59999999999997 126.80000000000004 252.838576250846 126.80000000000004 255.59999999999997 Z" fill-opacity="1"/><path fill="none" stroke="rgb(0,0,0)" paint-order="fill stroke markers" d=" M 126.80000000000004 255.59999999999997 C 126.80000000000004 258.3614237491539 124.561423749154 260.59999999999997 121.80000000000004 260.59999999999997 C 119.03857625084608 260.59999999999997 116.80000000000004 258.3614237491539 116.80000000000004 255.59999999999997 C 116.80000000000004 252.838576250846 119.03857625084608 250.59999999999997 121.80000000000004 250.59999999999997 C 124.561423749154 250.59999999999997 126.80000000000004 252.838576250846 126.80000000000004 255.59999999999997 Z" stroke-opacity="1" stroke-linecap="round" stroke-linejoin="round" stroke-miterlimit="10"/><path fill="rgb(77,77,255)" stroke="none" paint-order="stroke fill markers" d=" M 200.5 126.89999999999998 C 200.5 129.66142374915395 198.26142374915398 131.89999999999998 195.5 131.89999999999998 C 192.73857625084602 131.89999999999998 190.5 129.66142374915395 190.5 126.89999999999998 C 190.5 124.13857625084601 192.73857625084602 121.89999999999998 195.5 121.89999999999998 C 198.26142374915398 121.89999999999998 200.5 124.13857625084601 200.5 126.89999999999998 Z" fill-opacity="1"/><path fill="none" stroke="rgb(0,0,0)" paint-order="fill stroke markers" d=" M 200.5 126.89999999999998 C 200.5 129.66142374915395 198.26142374915398 131.89999999999998 195.5 131.89999999999998 C 192.73857625084602 131.89999999999998 190.5 129.66142374915395 190.5 126.89999999999998 C 190.5 124.13857625084601 192.73857625084602 121.89999999999998 195.5 121.89999999999998 C 198.26142374915398 121.89999999999998 200.5 124.13857625084601 200.5 126.89999999999998 Z" stroke-opacity="1" stroke-linecap="round" stroke-linejoin="round" stroke-miterlimit="10"/><path fill="rgb(77,77,255)" stroke="none" paint-order="stroke fill markers" d=" M 541.4999999999999 80.69999999999996 C 541.4999999999999 83.46142374915392 539.2614237491539 85.69999999999996 536.4999999999999 85.69999999999996 C 533.7385762508459 85.69999999999996 531.4999999999999 83.46142374915392 531.4999999999999 80.69999999999996 C 531.4999999999999 77.938576250846 533.7385762508459 75.69999999999996 536.4999999999999 75.69999999999996 C 539.2614237491539 75.69999999999996 541.4999999999999 77.938576250846 541.4999999999999 80.69999999999996 Z" fill-opacity="1"/><path fill="none" stroke="rgb(0,0,0)" paint-order="fill stroke markers" d=" M 541.4999999999999 80.69999999999996 C 541.4999999999999 83.46142374915392 539.2614237491539 85.69999999999996 536.4999999999999 85.69999999999996 C 533.7385762508459 85.69999999999996 531.4999999999999 83.46142374915392 531.4999999999999 80.69999999999996 C 531.4999999999999 77.938576250846 533.7385762508459 75.69999999999996 536.4999999999999 75.69999999999996 C 539.2614237491539 75.69999999999996 541.4999999999999 77.938576250846 541.4999999999999 80.69999999999996 Z" stroke-opacity="1" stroke-linecap="round" stroke-linejoin="round" stroke-miterlimit="10"/><path fill="rgb(77,77,255)" stroke="none" paint-order="stroke fill markers" d=" M 641.5999999999998 247.89999999999995 C 641.5999999999998 250.66142374915393 639.3614237491538 252.89999999999995 636.5999999999998 252.89999999999995 C 633.8385762508458 252.89999999999995 631.5999999999998 250.66142374915393 631.5999999999998 247.89999999999995 C 631.5999999999998 245.13857625084597 633.8385762508458 242.89999999999995 636.5999999999998 242.89999999999995 C 639.3614237491538 242.89999999999995 641.5999999999998 245.13857625084597 641.5999999999998 247.89999999999995 Z" fill-opacity="1"/><path fill="none" stroke="rgb(0,0,0)" paint-order="fill stroke markers" d=" M 641.5999999999998 247.89999999999995 C 641.5999999999998 250.66142374915393 639.3614237491538 252.89999999999995 636.5999999999998 252.89999999999995 C 633.8385762508458 252.89999999999995 631.5999999999998 250.66142374915393 631.5999999999998 247.89999999999995 C 631.5999999999998 245.13857625084597 633.8385762508458 242.89999999999995 636.5999999999998 242.89999999999995 C 639.3614237491538 242.89999999999995 641.5999999999998 245.13857625084597 641.5999999999998 247.89999999999995 Z" stroke-opacity="1" stroke-linecap="round" stroke-linejoin="round" stroke-miterlimit="10"/><path fill="rgb(77,77,255)" stroke="none" paint-order="stroke fill markers" d=" M 559 479 C 559 481.76142374915395 556.761423749154 484 554 484 C 551.238576250846 484 549 481.76142374915395 549 479 C 549 476.23857625084605 551.238576250846 474 554 474 C 556.761423749154 474 559 476.23857625084605 559 479 Z" fill-opacity="1"/><path fill="none" stroke="rgb(0,0,0)" paint-order="fill stroke markers" d=" M 559 479 C 559 481.76142374915395 556.761423749154 484 554 484 C 551.238576250846 484 549 481.76142374915395 549 479 C 549 476.23857625084605 551.238576250846 474 554 474 C 556.761423749154 474 559 476.23857625084605 559 479 Z" stroke-opacity="1" stroke-linecap="round" stroke-linejoin="round" stroke-miterlimit="10"/><g transform="scale(27,27)"><g transform="translate(18.703703703703702,18.541666111111113)"><path fill="rgb(77,77,255)" stroke="none" paint-order="stroke fill markers" d=" M 0.045 0.122 L 0.045 0.122 L 0.157 -0.323 Q 0.164 -0.353 0.164 -0.374 Q 0.164 -0.42 0.133 -0.42 Q 0.092 -0.42 0.066 -0.325 Q 0.063 -0.314 0.06 -0.301 Q 0.049 -0.279 0.043000000000000003 -0.278 Q 0.031 -0.278 0.031 -0.28800000000000003 Q 0.031 -0.304 0.049 -0.355 Q 0.056 -0.373 0.062 -0.385 Q 0.08600000000000001 -0.434 0.122 -0.441 Q 0.129 -0.442 0.136 -0.442 Q 0.19 -0.442 0.215 -0.398 L 0.215 -0.397 Q 0.223 -0.384 0.226 -0.367 Q 0.289 -0.442 0.357 -0.442 Q 0.428 -0.442 0.466 -0.378 Q 0.488 -0.333 0.49 -0.28200000000000003 Q 0.49 -0.17400000000000002 0.41400000000000003 -0.082 Q 0.34500000000000003 0.002 0.263 0.01 Q 0.256 0.011 0.249 0.011 Q 0.186 0.011 0.157 -0.053 Q 0.12 0.079 0.109 0.14100000000000001 Q 0.108 0.146 0.108 0.147 Q 0.108 0.158 0.121 0.161 L 0.122 0.161 L 0.122 0.161 Q 0.134 0.163 0.158 0.163 Q 0.18 0.163 0.182 0.17400000000000002 Q 0.182 0.194 0.164 0.194 L 0.066 0.191 L 0.065 0.191 L -0.017 0.194 L -0.019 0.194 Q -0.032 0.194 -0.032 0.182 Q -0.026000000000000002 0.164 -0.009000000000000001 0.163 Q 0.028 0.163 0.036000000000000004 0.15 L 0.037 0.149 Q 0.039 0.145 0.041 0.138 Q 0.042 0.133 0.045 0.122 M 0.221 -0.312 L 0.221 -0.312 L 0.17200000000000001 -0.116 Q 0.169 -0.10400000000000001 0.169 -0.1 Q 0.169 -0.077 0.187 -0.048 Q 0.198 -0.029 0.215 -0.019 Q 0.23 -0.011 0.248 -0.011 Q 0.299 -0.011 0.34400000000000003 -0.075 Q 0.357 -0.093 0.367 -0.114 Q 0.394 -0.171 0.41200000000000003 -0.268 Q 0.418 -0.303 0.418 -0.326 Q 0.418 -0.405 0.37 -0.418 Q 0.362 -0.42 0.354 -0.42 Q 0.316 -0.42 0.273 -0.382 Q 0.23 -0.34600000000000003 0.221 -0.312 Z"/></g><g transform="translate(19.206829703703704,18.69166611111111) scale(0.7,0.7)"><path fill="rgb(77,77,255)" stroke="none" paint-order="stroke fill markers" d=" M 0.46 -0.32 Q 0.46 -0.17400000000000002 0.423 -0.094 Q 0.364 0.018000000000000002 0.249 0.022 Q 0.158 0.022 0.10300000000000001 -0.05 Q 0.092 -0.063 0.084 -0.079 Q 0.039 -0.162 0.039 -0.32 Q 0.039 -0.467 0.076 -0.547 Q 0.126 -0.659 0.23800000000000002 -0.666 L 0.25 -0.666 Q 0.339 -0.666 0.395 -0.595 L 0.395 -0.594 Q 0.40900000000000003 -0.5760000000000001 0.42 -0.554 Q 0.46 -0.46900000000000003 0.46 -0.32 M 0.249 0 L 0.249 0 Q 0.312 0 0.34600000000000003 -0.061 Q 0.36 -0.088 0.366 -0.125 Q 0.377 -0.189 0.377 -0.332 Q 0.377 -0.47100000000000003 0.367 -0.527 Q 0.34900000000000003 -0.622 0.275 -0.641 Q 0.262 -0.644 0.249 -0.644 Q 0.179 -0.644 0.147 -0.5740000000000001 Q 0.136 -0.55 0.13 -0.516 Q 0.122 -0.462 0.122 -0.332 Q 0.122 -0.181 0.133 -0.121 Q 0.151 -0.025 0.221 -0.004 Q 0.23500000000000001 0 0.249 0 Z"/></g></g><path fill="rgb(77,77,255)" stroke="none" paint-order="stroke fill markers" d=" M 296 443 C 296 445.76142374915395 293.76142374915395 448 291 448 C 288.23857625084605 448 286 445.76142374915395 286 443 C 286 440.23857625084605 288.23857625084605 438 291 438 C 293.76142374915395 438 296 440.23857625084605 296 443 Z" fill-opacity="1"/><path fill="none" stroke="rgb(0,0,0)" paint-order="fill stroke markers" d=" M 296 443 C 296 445.76142374915395 293.76142374915395 448 291 448 C 288.23857625084605 448 286 445.76142374915395 286 443 C 286 440.23857625084605 288.23857625084605 438 291 438 C 293.76142374915395 438 296 440.23857625084605 296 443 Z" stroke-opacity="1" stroke-linecap="round" stroke-linejoin="round" stroke-miterlimit="10"/><path fill="rgb(77,77,255)" stroke="none" paint-order="stroke fill markers" d=" M 175.19999999999996 351.29999999999995 C 175.19999999999996 354.0614237491539 172.96142374915394 356.29999999999995 170.19999999999996 356.29999999999995 C 167.43857625084598 356.29999999999995 165.19999999999996 354.0614237491539 165.19999999999996 351.29999999999995 C 165.19999999999996 348.538576250846 167.43857625084598 346.29999999999995 170.19999999999996 346.29999999999995 C 172.96142374915394 346.29999999999995 175.19999999999996 348.538576250846 175.19999999999996 351.29999999999995 Z" fill-opacity="1"/><path fill="none" stroke="rgb(0,0,0)" paint-order="fill stroke markers" d=" M 175.19999999999996 351.29999999999995 C 175.19999999999996 354.0614237491539 172.96142374915394 356.29999999999995 170.19999999999996 356.29999999999995 C 167.43857625084598 356.29999999999995 165.19999999999996 354.0614237491539 165.19999999999996 351.29999999999995 C 165.19999999999996 348.538576250846 167.43857625084598 346.29999999999995 170.19999999999996 346.29999999999995 C 172.96142374915394 346.29999999999995 175.19999999999996 348.538576250846 175.19999999999996 351.29999999999995 Z" stroke-opacity="1" stroke-linecap="round" stroke-linejoin="round" stroke-miterlimit="10"/><path fill="rgb(77,77,255)" stroke="none" paint-order="stroke fill markers" d=" M 390 131 C 390 133.76142374915398 387.76142374915395 136 385 136 C 382.23857625084605 136 380 133.76142374915398 380 131 C 380 128.23857625084602 382.23857625084605 126 385 126 C 387.76142374915395 126 390 128.23857625084602 390 131 Z" fill-opacity="1"/><path fill="none" stroke="rgb(0,0,0)" paint-order="fill stroke markers" d=" M 390 131 C 390 133.76142374915398 387.76142374915395 136 385 136 C 382.23857625084605 136 380 133.76142374915398 380 131 C 380 128.23857625084602 382.23857625084605 126 385 126 C 387.76142374915395 126 390 128.23857625084602 390 131 Z" stroke-opacity="1" stroke-linecap="round" stroke-linejoin="round" stroke-miterlimit="10"/><path fill="rgb(77,77,255)" stroke="none" paint-order="stroke fill markers" d=" M 349 168 C 349 170.76142374915398 346.76142374915395 173 344 173 C 341.23857625084605 173 339 170.76142374915398 339 168 C 339 165.23857625084602 341.23857625084605 163 344 163 C 346.76142374915395 163 349 165.23857625084602 349 168 Z" fill-opacity="1"/><path fill="none" stroke="rgb(0,0,0)" paint-order="fill stroke markers" d=" M 349 168 C 349 170.76142374915398 346.76142374915395 173 344 173 C 341.23857625084605 173 339 170.76142374915398 339 168 C 339 165.23857625084602 341.23857625084605 163 344 163 C 346.76142374915395 163 349 165.23857625084602 349 168 Z" stroke-opacity="1" stroke-linecap="round" stroke-linejoin="round" stroke-miterlimit="10"/><path fill="rgb(102,153,255)" stroke="none" paint-order="stroke fill markers" d=" M 282.8620174360933 336.2669474669672 C 282.8620174360933 339.0283712161212 280.62344118524726 341.2669474669672 277.8620174360933 341.2669474669672 C 275.10059368693936 341.2669474669672 272.8620174360933 339.0283712161212 272.8620174360933 336.2669474669672 C 272.8620174360933 333.5055237178133 275.10059368693936 331.2669474669672 277.8620174360933 331.2669474669672 C 280.62344118524726 331.2669474669672 282.8620174360933 333.5055237178133 282.8620174360933 336.2669474669672 Z" fill-opacity="1"/><path fill="none" stroke="rgb(0,0,0)" paint-order="fill stroke markers" d=" M 282.8620174360933 336.2669474669672 C 282.8620174360933 339.0283712161212 280.62344118524726 341.2669474669672 277.8620174360933 341.2669474669672 C 275.10059368693936 341.2669474669672 272.8620174360933 339.0283712161212 272.8620174360933 336.2669474669672 C 272.8620174360933 333.5055237178133 275.10059368693936 331.2669474669672 277.8620174360933 331.2669474669672 C 280.62344118524726 331.2669474669672 282.8620174360933 333.5055237178133 282.8620174360933 336.2669474669672 Z" stroke-opacity="1" stroke-linecap="round" stroke-linejoin="round" stroke-miterlimit="10"/><path fill="rgb(77,77,255)" stroke="none" paint-order="stroke fill markers" d=" M 518 281.99999999999994 C 518 284.7614237491539 515.761423749154 286.99999999999994 513 286.99999999999994 C 510.23857625084605 286.99999999999994 508 284.7614237491539 508 281.99999999999994 C 508 279.238576250846 510.23857625084605 276.99999999999994 513 276.99999999999994 C 515.761423749154 276.99999999999994 518 279.238576250846 518 281.99999999999994 Z" fill-opacity="1"/><path fill="none" stroke="rgb(0,0,0)" paint-order="fill stroke markers" d=" M 518 281.99999999999994 C 518 284.7614237491539 515.761423749154 286.99999999999994 513 286.99999999999994 C 510.23857625084605 286.99999999999994 508 284.7614237491539 508 281.99999999999994 C 508 279.238576250846 510.23857625084605 276.99999999999994 513 276.99999999999994 C 515.761423749154 276.99999999999994 518 279.238576250846 518 281.99999999999994 Z" stroke-opacity="1" stroke-linecap="round" stroke-linejoin="round" stroke-miterlimit="10"/><path fill="rgb(77,77,255)" stroke="none" paint-order="stroke fill markers" d=" M 435.9999999999999 385 C 435.9999999999999 387.76142374915395 433.76142374915383 390 430.9999999999999 390 C 428.23857625084594 390 425.9999999999999 387.76142374915395 425.9999999999999 385 C 425.9999999999999 382.23857625084605 428.23857625084594 380 430.9999999999999 380 C 433.76142374915383 380 435.9999999999999 382.23857625084605 435.9999999999999 385 Z" fill-opacity="1"/><path fill="none" stroke="rgb(0,0,0)" paint-order="fill stroke markers" d=" M 435.9999999999999 385 C 435.9999999999999 387.76142374915395 433.76142374915383 390 430.9999999999999 390 C 428.23857625084594 390 425.9999999999999 387.76142374915395 425.9999999999999 385 C 425.9999999999999 382.23857625084605 428.23857625084594 380 430.9999999999999 380 C 433.76142374915383 380 435.9999999999999 382.23857625084605 435.9999999999999 385 Z" stroke-opacity="1" stroke-linecap="round" stroke-linejoin="round" stroke-miterlimit="10"/></g></g></svg>