<svg version="1.1" xmlns="http://www.w3.org/2000/svg" xmlns:xlink="http://www.w3.org/1999/xlink" width="1366" height="562"><defs><clipPath id="VNTyvoSURHrV"><path fill="none" stroke="none" d=" M 0 0 L 1366 0 L 1366 562 L 0 562 L 0 0 Z"/></clipPath></defs><g transform="scale(1,1)" clip-path="url(#VNTyvoSURHrV)"><g><rect fill="rgb(255,255,255)" stroke="none" x="0" y="0" width="1366" height="562" fill-opacity="1"/><path fill="none" stroke="rgb(153,51,221)" paint-order="fill stroke markers" d=" M 361.0000000000001 38.99999999999997 L 796 370" stroke-opacity="0.6980392156862745" stroke-linecap="round" stroke-linejoin="round" stroke-miterlimit="10" stroke-width="2.5"/><path fill="none" stroke="rgb(153,51,221)" paint-order="fill stroke markers" d=" M 796 370 L 672 94" stroke-opacity="0.6980392156862745" stroke-linecap="round" stroke-linejoin="round" stroke-miterlimit="10" stroke-width="2.5"/><path fill="none" stroke="rgb(153,51,221)" paint-order="fill stroke markers" d=" M 672 94 L 361.0000000000001 38.99999999999997" stroke-opacity="0.6980392156862745" stroke-linecap="round" stroke-linejoin="round" stroke-miterlimit="10" stroke-width="2.5"/><path fill="none" stroke="rgb(0,100,0)" paint-order="fill stroke markers" d=" M 600 34 L 783 11" stroke-opacity="0.6980392156862745" stroke-linecap="round" stroke-linejoin="round" stroke-miterlimit="10" stroke-width="2.5"/><path fill="none" stroke="rgb(0,100,0)" paint-order="fill stroke markers" d=" M 783 11 L 755 137" stroke-opacity="0.6980392156862745" stroke-linecap="round" stroke-linejoin="round" stroke-miterlimit="10" stroke-width="2.5"/><path fill="none" stroke="rgb(0,100,0)" paint-order="fill stroke markers" d=" M 755 137 L 629 116" stroke-opacity="0.6980392156862745" stroke-linecap="round" stroke-linejoin="round" stroke-miterlimit="10" stroke-width="2.5"/><path fill="none" stroke="rgb(0,100,0)" paint-order="fill stroke markers" d=" M 629 116 L 600 34" stroke-opacity="0.6980392156862745" stroke-linecap="round" stroke-linejoin="round" stroke-miterlimit="10" stroke-width="2.5"/><path fill="none" stroke="rgb(255,85,0)" paint-order="fill stroke markers" d=" M 420.0000000000001 214 L 355.0000000000001 438" stroke-opacity="0.6980392156862745" stroke-linecap="round" stroke-linejoin="round" stroke-miterlimit="10" stroke-width="2.5"/><path fill="none" stroke="rgb(255,85,0)" paint-order="fill stroke markers" d=" M 355.0000000000001 438 L 457.00000000000006 510" stroke-opacity="0.6980392156862745" stroke-linecap="round" stroke-linejoin="round" stroke-miterlimit="10" stroke-width="2.5"/><path fill="none" stroke="rgb(255,85,0)" paint-order="fill stroke markers" d=" M 457.00000000000006 510 L 572 422" stroke-opacity="0.6980392156862745" stroke-linecap="round" stroke-linejoin="round" stroke-miterlimit="10" stroke-width="2.5"/><path fill="none" stroke="rgb(255,85,0)" paint-order="fill stroke markers" d=" M 572 422 L 758 181" stroke-opacity="0.6980392156862745" stroke-linecap="round" stroke-linejoin="round" stroke-miterlimit="10" stroke-width="2.5"/><path fill="none" stroke="rgb(255,85,0)" paint-order="fill stroke markers" d=" M 758 181 L 420.0000000000001 214" stroke-opacity="0.6980392156862745" stroke-linecap="round" stroke-linejoin="round" stroke-miterlimit="10" stroke-width="2.5"/><path fill="none" stroke="rgb(153,51,0)" paint-order="fill stroke markers" d=" M 355.0000000000001 438 L 361.0000000000001 38.99999999999997" stroke-opacity="0.6980392156862745" stroke-linecap="round" stroke-linejoin="round" stroke-miterlimit="10" stroke-width="2.5"/><path fill="none" stroke="rgb(153,51,0)" paint-order="fill stroke markers" d=" M 361.0000000000001 38.99999999999997 L 783 11" stroke-opacity="0.6980392156862745" stroke-linecap="round" stroke-linejoin="round" stroke-miterlimit="10" stroke-width="2.5"/><path fill="none" stroke="rgb(153,51,0)" paint-order="fill stroke markers" d=" M 783 11 L 796 370" stroke-opacity="0.6980392156862745" stroke-linecap="round" stroke-linejoin="round" stroke-miterlimit="10" stroke-width="2.5"/><path fill="none" stroke="rgb(153,51,0)" paint-order="fill stroke markers" d=" M 796 370 L 457.00000000000006 510" stroke-opacity="0.6980392156862745" stroke-linecap="round" stroke-linejoin="round" stroke-miterlimit="10" stroke-width="2.5"/><path fill="none" stroke="rgb(153,51,0)" paint-order="fill stroke markers" d=" M 457.00000000000006 510 L 355.0000000000001 438" stroke-opacity="0.6980392156862745" stroke-linecap="round" stroke-linejoin="round" stroke-miterlimit="10" stroke-width="2.5"/><path fill="rgb(153,51,255)" stroke="none" paint-order="stroke fill markers" d=" M 366.0000000000001 38.99999999999997 C 366.0000000000001 41.761423749153934 363.76142374915406 43.99999999999997 361.0000000000001 43.99999999999997 C 358.23857625084617 43.99999999999997 356.0000000000001 41.761423749153934 356.0000000000001 38.99999999999997 C 356.0000000000001 36.238576250846 358.23857625084617 33.99999999999997 361.0000000000001 33.99999999999997 C 363.76142374915406 33.99999999999997 366.0000000000001 36.238576250846 366.0000000000001 38.99999999999997 Z" fill-opacity="1"/><path fill="rgb(153,51,255)" stroke="none" paint-order="stroke fill markers" d=" M 801 370 C 801 372.76142374915395 798.761423749154 375 796 375 C 793.238576250846 375 791 372.76142374915395 791 370 C 791 367.23857625084605 793.238576250846 365 796 365 C 798.761423749154 365 801 367.23857625084605 801 370 Z" fill-opacity="1"/><path fill="rgb(153,51,255)" stroke="none" paint-order="stroke fill markers" d=" M 677 94 C 677 96.76142374915396 674.761423749154 99 672 99 C 669.238576250846 99 667 96.76142374915396 667 94 C 667 91.23857625084604 669.238576250846 89 672 89 C 674.761423749154 89 677 91.23857625084604 677 94 Z" fill-opacity="1"/><path fill="rgb(0,100,0)" stroke="none" paint-order="stroke fill markers" d=" M 605 34 C 605 36.76142374915396 602.761423749154 39 600 39 C 597.238576250846 39 595 36.76142374915396 595 34 C 595 31.238576250846034 597.238576250846 29 600 29 C 602.761423749154 29 605 31.238576250846034 605 34 Z" fill-opacity="1"/><path fill="rgb(0,100,0)" stroke="none" paint-order="stroke fill markers" d=" M 788 11 C 788 13.761423749153966 785.761423749154 16 783 16 C 780.238576250846 16 778 13.761423749153966 778 11 C 778 8.238576250846034 780.238576250846 6 783 6 C 785.761423749154 6 788 8.238576250846034 788 11 Z" fill-opacity="1"/><path fill="rgb(0,100,0)" stroke="none" paint-order="stroke fill markers" d=" M 760 137 C 760 139.76142374915398 757.761423749154 142 755 142 C 752.238576250846 142 750 139.76142374915398 750 137 C 750 134.23857625084602 752.238576250846 132 755 132 C 757.761423749154 132 760 134.23857625084602 760 137 Z" fill-opacity="1"/><path fill="rgb(0,100,0)" stroke="none" paint-order="stroke fill markers" d=" M 634 116 C 634 118.76142374915396 631.761423749154 121 629 121 C 626.238576250846 121 624 118.76142374915396 624 116 C 624 113.23857625084604 626.238576250846 111 629 111 C 631.761423749154 111 634 113.23857625084604 634 116 Z" fill-opacity="1"/><path fill="rgb(255,85,0)" stroke="none" paint-order="stroke fill markers" d=" M 425.0000000000001 214 C 425.0000000000001 216.76142374915398 422.76142374915406 219 420.0000000000001 219 C 417.23857625084617 219 415.0000000000001 216.76142374915398 415.0000000000001 214 C 415.0000000000001 211.23857625084602 417.23857625084617 209 420.0000000000001 209 C 422.76142374915406 209 425.0000000000001 211.23857625084602 425.0000000000001 214 Z" fill-opacity="1"/><path fill="rgb(255,85,0)" stroke="none" paint-order="stroke fill markers" d=" M 360.0000000000001 438 C 360.0000000000001 440.76142374915395 357.76142374915406 443 355.0000000000001 443 C 352.23857625084617 443 350.0000000000001 440.76142374915395 350.0000000000001 438 C 350.0000000000001 435.23857625084605 352.23857625084617 433 355.0000000000001 433 C 357.76142374915406 433 360.0000000000001 435.23857625084605 360.0000000000001 438 Z" fill-opacity="1"/><path fill="rgb(255,85,0)" stroke="none" paint-order="stroke fill markers" d=" M 462.00000000000006 510 C 462.00000000000006 512.761423749154 459.761423749154 515 457.00000000000006 515 C 454.2385762508461 515 452.00000000000006 512.761423749154 452.00000000000006 510 C 452.00000000000006 507.23857625084605 454.2385762508461 505 457.00000000000006 505 C 459.761423749154 505 462.00000000000006 507.23857625084605 462.00000000000006 510 Z" fill-opacity="1"/><path fill="rgb(255,85,0)" stroke="none" paint-order="stroke fill markers" d=" M 577 422 C 577 424.76142374915395 574.761423749154 427 572 427 C 569.238576250846 427 567 424.76142374915395 567 422 C 567 419.23857625084605 569.238576250846 417 572 417 C 574.761423749154 417 577 419.23857625084605 577 422 Z" fill-opacity="1"/><path fill="rgb(255,85,0)" stroke="none" paint-order="stroke fill markers" d=" M 763 181 C 763 183.76142374915398 760.761423749154 186 758 186 C 755.238576250846 186 753 183.76142374915398 753 181 C 753 178.23857625084602 755.238576250846 176 758 176 C 760.761423749154 176 763 178.23857625084602 763 181 Z" fill-opacity="1"/><path fill="rgb(0,100,0)" stroke="none" paint-order="stroke fill markers" d=" M 709 56.00000000000003 C 709 58.76142374915399 706.761423749154 61.00000000000003 704 61.00000000000003 C 701.238576250846 61.00000000000003 699 58.76142374915399 699 56.00000000000003 C 699 53.23857625084606 701.238576250846 51.00000000000003 704 51.00000000000003 C 706.761423749154 51.00000000000003 709 53.23857625084606 709 56.00000000000003 Z" fill-opacity="1"/><path fill="rgb(153,51,255)" stroke="none" paint-order="stroke fill markers" d=" M 668 216 C 668 218.76142374915398 665.761423749154 221 663 221 C 660.238576250846 221 658 218.76142374915398 658 216 C 658 213.23857625084602 660.238576250846 211 663 211 C 665.761423749154 211 668 213.23857625084602 668 216 Z" fill-opacity="1"/><path fill="rgb(153,51,255)" stroke="none" paint-order="stroke fill markers" d=" M 494.0000000000001 94 C 494.0000000000001 96.76142374915396 491.76142374915406 99 489.0000000000001 99 C 486.23857625084617 99 484.0000000000001 96.76142374915396 484.0000000000001 94 C 484.0000000000001 91.23857625084604 486.23857625084617 89 489.0000000000001 89 C 491.76142374915406 89 494.0000000000001 91.23857625084604 494.0000000000001 94 Z" fill-opacity="1"/></g></g></svg>