<svg version="1.1" xmlns="http://www.w3.org/2000/svg" xmlns:xlink="http://www.w3.org/1999/xlink" width="934" height="562"><defs><clipPath id="ZmTUAosKqqCD"><path fill="none" stroke="none" d=" M 0 0 L 934 0 L 934 562 L 0 562 L 0 0 Z"/></clipPath></defs><g transform="scale(1,1)" clip-path="url(#ZmTUAosKqqCD)"><g><rect fill="rgb(255,255,255)" stroke="none" x="0" y="0" width="934" height="562" fill-opacity="1"/><path fill="none" stroke="rgb(255,85,0)" paint-order="fill stroke markers" d=" M 253.49999999999997 420 L 526.4999999999999 262" stroke-opacity="0.6980392156862745" stroke-linecap="round" stroke-linejoin="round" stroke-miterlimit="10" stroke-width="2.5"/><path fill="none" stroke="rgb(0,0,255)" paint-order="fill stroke markers" d=" M 526.4999999999999 262 L 512.9999999999999 74.00000000000003" stroke-opacity="0.6980392156862745" stroke-linecap="round" stroke-linejoin="round" stroke-miterlimit="10" stroke-width="2.5"/><path fill="none" stroke="rgb(0,0,255)" paint-order="fill stroke markers" d=" M 512.9999999999999 74.00000000000003 L 310.49999999999994 46" stroke-opacity="0.6980392156862745" stroke-linecap="round" stroke-linejoin="round" stroke-miterlimit="10" stroke-width="2.5"/><path fill="none" stroke="rgb(0,0,255)" paint-order="fill stroke markers" d=" M 310.49999999999994 46 L 134.5 83" stroke-opacity="0.6980392156862745" stroke-linecap="round" stroke-linejoin="round" stroke-miterlimit="10" stroke-width="2.5"/><path fill="none" stroke="rgb(0,0,255)" paint-order="fill stroke markers" d=" M 134.5 83 L 117.50000000000006 285" stroke-opacity="0.6980392156862745" stroke-linecap="round" stroke-linejoin="round" stroke-miterlimit="10" stroke-width="2.5"/><path fill="none" stroke="rgb(0,0,255)" paint-order="fill stroke markers" d=" M 117.50000000000006 285 L 253.49999999999997 420" stroke-opacity="0.6980392156862745" stroke-linecap="round" stroke-linejoin="round" stroke-miterlimit="10" stroke-width="2.5"/><path fill="rgb(77,77,255)" stroke="none" paint-order="stroke fill markers" d=" M 258.5 420 C 258.5 422.76142374915395 256.26142374915395 425 253.49999999999997 425 C 250.738576250846 425 248.49999999999997 422.76142374915395 248.49999999999997 420 C 248.49999999999997 417.23857625084605 250.738576250846 415 253.49999999999997 415 C 256.26142374915395 415 258.5 417.23857625084605 258.5 420 Z" fill-opacity="1"/><path fill="none" stroke="rgb(0,0,0)" paint-order="fill stroke markers" d=" M 258.5 420 C 258.5 422.76142374915395 256.26142374915395 425 253.49999999999997 425 C 250.738576250846 425 248.49999999999997 422.76142374915395 248.49999999999997 420 C 248.49999999999997 417.23857625084605 250.738576250846 415 253.49999999999997 415 C 256.26142374915395 415 258.5 417.23857625084605 258.5 420 Z" stroke-opacity="1" stroke-linecap="round" stroke-linejoin="round" stroke-miterlimit="10"/><g transform="scale(27,27)"><g transform="translate(9.74074074074074,14.54166611111111)"><path fill="rgb(77,77,255)" stroke="none" paint-order="stroke fill markers" d=" M 0.373 -0.378 Q 0.378 -0.41200000000000003 0.404 -0.42 Q 0.40900000000000003 -0.422 0.41500000000000004 -0.422 Q 0.441 -0.422 0.444 -0.395 Q 0.444 -0.389 0.437 -0.361 L 0.401 -0.221 Q 0.386 -0.158 0.379 -0.131 Q 0.366 -0.079 0.366 -0.057 Q 0.366 -0.011 0.396 -0.011 Q 0.434 -0.011 0.46 -0.091 Q 0.465 -0.108 0.47200000000000003 -0.135 Q 0.48 -0.152 0.486 -0.153 Q 0.498 -0.153 0.498 -0.14300000000000002 Q 0.498 -0.128 0.48 -0.073 Q 0.47400000000000003 -0.056 0.468 -0.044 Q 0.44 0.011 0.394 0.011 Q 0.338 0.011 0.313 -0.037 Q 0.306 -0.049 0.303 -0.064 Q 0.24 0.011 0.17300000000000001 0.011 Q 0.098 0.011 0.062 -0.057 Q 0.04 -0.097 0.04 -0.149 Q 0.04 -0.257 0.115 -0.34900000000000003 Q 0.185 -0.433 0.267 -0.441 Q 0.274 -0.442 0.281 -0.442 Q 0.342 -0.442 0.373 -0.378 M 0.308 -0.11900000000000001 L 0.308 -0.11900000000000001 L 0.358 -0.315 Q 0.361 -0.33 0.361 -0.332 Q 0.361 -0.353 0.343 -0.383 Q 0.321 -0.42 0.28200000000000003 -0.42 Q 0.23 -0.42 0.183 -0.352 Q 0.17400000000000002 -0.339 0.166 -0.324 Q 0.137 -0.266 0.117 -0.159 Q 0.111 -0.125 0.111 -0.105 Q 0.111 -0.037 0.149 -0.017 Q 0.16 -0.011 0.17500000000000002 -0.011 Q 0.231 -0.011 0.28800000000000003 -0.082 Q 0.302 -0.098 0.307 -0.115 L 0.307 -0.116 Q 0.308 -0.11800000000000001 0.308 -0.11900000000000001 Z"/></g></g><path fill="rgb(77,77,255)" stroke="none" paint-order="stroke fill markers" d=" M 531.4999999999999 262 C 531.4999999999999 264.76142374915395 529.2614237491539 267 526.4999999999999 267 C 523.7385762508459 267 521.4999999999999 264.76142374915395 521.4999999999999 262 C 521.4999999999999 259.23857625084605 523.7385762508459 257 526.4999999999999 257 C 529.2614237491539 257 531.4999999999999 259.23857625084605 531.4999999999999 262 Z" fill-opacity="1"/><path fill="none" stroke="rgb(0,0,0)" paint-order="fill stroke markers" d=" M 531.4999999999999 262 C 531.4999999999999 264.76142374915395 529.2614237491539 267 526.4999999999999 267 C 523.7385762508459 267 521.4999999999999 264.76142374915395 521.4999999999999 262 C 521.4999999999999 259.23857625084605 523.7385762508459 257 526.4999999999999 257 C 529.2614237491539 257 531.4999999999999 259.23857625084605 531.4999999999999 262 Z" stroke-opacity="1" stroke-linecap="round" stroke-linejoin="round" stroke-miterlimit="10"/><g transform="scale(27,27)"><g transform="translate(18.25925925925926,9.546296851851851)"><path fill="rgb(77,77,255)" stroke="none" paint-order="stroke fill markers" d=" M 0.23900000000000002 -0.683 L 0.165 -0.382 Q 0.223 -0.442 0.28200000000000003 -0.442 Q 0.357 -0.442 0.394 -0.373 Q 0.41500000000000004 -0.333 0.41500000000000004 -0.28200000000000003 Q 0.41500000000000004 -0.176 0.341 -0.084 Q 0.272 0.001 0.189 0.01 Q 0.181 0.011 0.17400000000000002 0.011 Q 0.10200000000000001 0.011 0.067 -0.056 Q 0.047 -0.094 0.047 -0.146 Q 0.047 -0.18 0.063 -0.247 L 0.145 -0.5730000000000001 Q 0.159 -0.632 0.159 -0.635 Q 0.159 -0.646 0.145 -0.649 L 0.145 -0.649 Q 0.133 -0.652 0.109 -0.652 Q 0.08700000000000001 -0.652 0.085 -0.664 Q 0.085 -0.681 0.10400000000000001 -0.684 L 0.226 -0.6940000000000001 Q 0.23900000000000002 -0.6940000000000001 0.23900000000000002 -0.683 M 0.145 -0.305 L 0.123 -0.213 Q 0.107 -0.15 0.107 -0.112 Q 0.107 -0.026000000000000002 0.159 -0.013000000000000001 Q 0.166 -0.011 0.17400000000000002 -0.011 Q 0.227 -0.011 0.273 -0.081 Q 0.28300000000000003 -0.096 0.292 -0.114 Q 0.319 -0.171 0.337 -0.268 Q 0.343 -0.303 0.343 -0.326 Q 0.343 -0.406 0.294 -0.418 L 0.293 -0.419 Q 0.28700000000000003 -0.42 0.28 -0.42 Q 0.22 -0.42 0.16 -0.34 Q 0.152 -0.33 0.145 -0.305 Z"/></g></g><path fill="rgb(77,77,255)" stroke="none" paint-order="stroke fill markers" d=" M 517.9999999999999 74.00000000000003 C 517.9999999999999 76.76142374915399 515.7614237491539 79.00000000000003 512.9999999999999 79.00000000000003 C 510.23857625084594 79.00000000000003 507.9999999999999 76.76142374915399 507.9999999999999 74.00000000000003 C 507.9999999999999 71.23857625084607 510.23857625084594 69.00000000000003 512.9999999999999 69.00000000000003 C 515.7614237491539 69.00000000000003 517.9999999999999 71.23857625084607 517.9999999999999 74.00000000000003 Z" fill-opacity="1"/><path fill="none" stroke="rgb(0,0,0)" paint-order="fill stroke markers" d=" M 517.9999999999999 74.00000000000003 C 517.9999999999999 76.76142374915399 515.7614237491539 79.00000000000003 512.9999999999999 79.00000000000003 C 510.23857625084594 79.00000000000003 507.9999999999999 76.76142374915399 507.9999999999999 74.00000000000003 C 507.9999999999999 71.23857625084607 510.23857625084594 69.00000000000003 512.9999999999999 69.00000000000003 C 515.7614237491539 69.00000000000003 517.9999999999999 71.23857625084607 517.9999999999999 74.00000000000003 Z" stroke-opacity="1" stroke-linecap="round" stroke-linejoin="round" stroke-miterlimit="10"/><path fill="rgb(77,77,255)" stroke="none" paint-order="stroke fill markers" d=" M 315.49999999999994 46 C 315.49999999999994 48.76142374915396 313.2614237491539 51 310.49999999999994 51 C 307.738576250846 51 305.49999999999994 48.76142374915396 305.49999999999994 46 C 305.49999999999994 43.23857625084603 307.738576250846 41 310.49999999999994 41 C 313.2614237491539 41 315.49999999999994 43.23857625084603 315.49999999999994 46 Z" fill-opacity="1"/><path fill="none" stroke="rgb(0,0,0)" paint-order="fill stroke markers" d=" M 315.49999999999994 46 C 315.49999999999994 48.76142374915396 313.2614237491539 51 310.49999999999994 51 C 307.738576250846 51 305.49999999999994 48.76142374915396 305.49999999999994 46 C 305.49999999999994 43.23857625084603 307.738576250846 41 310.49999999999994 41 C 313.2614237491539 41 315.49999999999994 43.23857625084603 315.49999999999994 46 Z" stroke-opacity="1" stroke-linecap="round" stroke-linejoin="round" stroke-miterlimit="10"/><path fill="rgb(77,77,255)" stroke="none" paint-order="stroke fill markers" d=" M 139.5 83 C 139.5 85.76142374915396 137.26142374915398 88 134.5 88 C 131.73857625084602 88 129.5 85.76142374915396 129.5 83 C 129.5 80.23857625084604 131.73857625084602 78 134.5 78 C 137.26142374915398 78 139.5 80.23857625084604 139.5 83 Z" fill-opacity="1"/><path fill="none" stroke="rgb(0,0,0)" paint-order="fill stroke markers" d=" M 139.5 83 C 139.5 85.76142374915396 137.26142374915398 88 134.5 88 C 131.73857625084602 88 129.5 85.76142374915396 129.5 83 C 129.5 80.23857625084604 131.73857625084602 78 134.5 78 C 137.26142374915398 78 139.5 80.23857625084604 139.5 83 Z" stroke-opacity="1" stroke-linecap="round" stroke-linejoin="round" stroke-miterlimit="10"/><path fill="rgb(77,77,255)" stroke="none" paint-order="stroke fill markers" d=" M 122.50000000000006 285 C 122.50000000000006 287.76142374915395 120.26142374915402 290 117.50000000000006 290 C 114.7385762508461 290 112.50000000000006 287.76142374915395 112.50000000000006 285 C 112.50000000000006 282.23857625084605 114.7385762508461 280 117.50000000000006 280 C 120.26142374915402 280 122.50000000000006 282.23857625084605 122.50000000000006 285 Z" fill-opacity="1"/><path fill="none" stroke="rgb(0,0,0)" paint-order="fill stroke markers" d=" M 122.50000000000006 285 C 122.50000000000006 287.76142374915395 120.26142374915402 290 117.50000000000006 290 C 114.7385762508461 290 112.50000000000006 287.76142374915395 112.50000000000006 285 C 112.50000000000006 282.23857625084605 114.7385762508461 280 117.50000000000006 280 C 120.26142374915402 280 122.50000000000006 282.23857625084605 122.50000000000006 285 Z" stroke-opacity="1" stroke-linecap="round" stroke-linejoin="round" stroke-miterlimit="10"/><path fill="rgb(204,0,0)" stroke="none" paint-order="stroke fill markers" d=" M 512.9999999999999 424 C 512.9999999999999 426.76142374915395 510.76142374915383 429 507.9999999999999 429 C 505.23857625084594 429 502.9999999999999 426.76142374915395 502.9999999999999 424 C 502.9999999999999 421.23857625084605 505.23857625084594 419 507.9999999999999 419 C 510.76142374915383 419 512.9999999999999 421.23857625084605 512.9999999999999 424 Z" fill-opacity="1"/><g transform="scale(27,27)"><g transform="translate(19.14814814814815,14.94259125925926)"><path fill="rgb(204,0,0)" stroke="none" paint-order="stroke fill markers" d=" M 0.045 0.122 L 0.045 0.122 L 0.157 -0.323 Q 0.164 -0.353 0.164 -0.374 Q 0.164 -0.42 0.133 -0.42 Q 0.092 -0.42 0.066 -0.325 Q 0.063 -0.314 0.06 -0.301 Q 0.049 -0.279 0.043000000000000003 -0.278 Q 0.031 -0.278 0.031 -0.28800000000000003 Q 0.031 -0.304 0.049 -0.355 Q 0.056 -0.373 0.062 -0.385 Q 0.08600000000000001 -0.434 0.122 -0.441 Q 0.129 -0.442 0.136 -0.442 Q 0.19 -0.442 0.215 -0.398 L 0.215 -0.397 Q 0.223 -0.384 0.226 -0.367 Q 0.289 -0.442 0.357 -0.442 Q 0.428 -0.442 0.466 -0.378 Q 0.488 -0.333 0.49 -0.28200000000000003 Q 0.49 -0.17400000000000002 0.41400000000000003 -0.082 Q 0.34500000000000003 0.002 0.263 0.01 Q 0.256 0.011 0.249 0.011 Q 0.186 0.011 0.157 -0.053 Q 0.12 0.079 0.109 0.14100000000000001 Q 0.108 0.146 0.108 0.147 Q 0.108 0.158 0.121 0.161 L 0.122 0.161 L 0.122 0.161 Q 0.134 0.163 0.158 0.163 Q 0.18 0.163 0.182 0.17400000000000002 Q 0.182 0.194 0.164 0.194 L 0.066 0.191 L 0.065 0.191 L -0.017 0.194 L -0.019 0.194 Q -0.032 0.194 -0.032 0.182 Q -0.026000000000000002 0.164 -0.009000000000000001 0.163 Q 0.028 0.163 0.036000000000000004 0.15 L 0.037 0.149 Q 0.039 0.145 0.041 0.138 Q 0.042 0.133 0.045 0.122 M 0.221 -0.312 L 0.221 -0.312 L 0.17200000000000001 -0.116 Q 0.169 -0.10400000000000001 0.169 -0.1 Q 0.169 -0.077 0.187 -0.048 Q 0.198 -0.029 0.215 -0.019 Q 0.23 -0.011 0.248 -0.011 Q 0.299 -0.011 0.34400000000000003 -0.075 Q 0.357 -0.093 0.367 -0.114 Q 0.394 -0.171 0.41200000000000003 -0.268 Q 0.418 -0.303 0.418 -0.326 Q 0.418 -0.405 0.37 -0.418 Q 0.362 -0.42 0.354 -0.42 Q 0.316 -0.42 0.273 -0.382 Q 0.23 -0.34600000000000003 0.221 -0.312 Z"/></g><g transform="translate(19.929052759259257,14.94259125925926)"><path fill="rgb(204,0,0)" stroke="none" paint-order="stroke fill markers" d=" M 0.55 -0.23 L 0.55 -0.23 L 0.124 -0.23 Q 0.134 -0.11800000000000001 0.226 -0.052000000000000005 Q 0.297 0 0.391 0 L 0.55 0 Q 0.582 0 0.583 0.02 Q 0.583 0.04 0.55 0.04 L 0.388 0.04 Q 0.262 0.04 0.17300000000000001 -0.044 Q 0.083 -0.129 0.083 -0.25 Q 0.083 -0.377 0.179 -0.462 Q 0.268 -0.54 0.387 -0.54 L 0.55 -0.54 Q 0.582 -0.54 0.583 -0.52 Q 0.583 -0.5 0.55 -0.5 L 0.39 -0.5 Q 0.273 -0.5 0.195 -0.422 Q 0.132 -0.359 0.124 -0.27 L 0.55 -0.27 Q 0.582 -0.27 0.583 -0.25 Q 0.583 -0.23 0.55 -0.23 Z"/></g><g transform="translate(20.873500370370365,14.94259125925926)"><path fill="rgb(204,0,0)" stroke="none" paint-order="stroke fill markers" d=" M 0.303 -0.316 L 0.303 -0.316 L 0.241 -0.066 L 0.23800000000000002 -0.049 Q 0.23800000000000002 -0.032 0.28400000000000003 -0.031 L 0.28400000000000003 -0.031 L 0.28400000000000003 -0.031 L 0.303 -0.031 Q 0.329 -0.031 0.331 -0.02 Q 0.331 0 0.311 0 L 0.247 -0.002 L 0.246 -0.002 L 0.184 -0.003 L 0.182 -0.003 L 0.056 0 L 0.055 0 Q 0.04 0 0.04 -0.012 Q 0.04 -0.029 0.056 -0.031 L 0.068 -0.031 Q 0.133 -0.031 0.146 -0.045 Q 0.152 -0.052000000000000005 0.158 -0.073 Q 0.158 -0.074 0.159 -0.078 L 0.293 -0.615 Q 0.297 -0.631 0.297 -0.634 Q 0.297 -0.646 0.281 -0.649 L 0.28 -0.649 L 0.28 -0.649 Q 0.278 -0.65 0.275 -0.65 Q 0.251 -0.652 0.232 -0.652 Q 0.20600000000000002 -0.652 0.20400000000000001 -0.66 Q 0.203 -0.662 0.203 -0.664 Q 0.203 -0.681 0.22 -0.683 L 0.22 -0.683 L 0.233 -0.683 L 0.557 -0.683 Q 0.678 -0.683 0.73 -0.609 Q 0.754 -0.5740000000000001 0.754 -0.532 Q 0.754 -0.451 0.671 -0.385 Q 0.583 -0.316 0.47300000000000003 -0.316 L 0.303 -0.316 M 0.375 -0.614 L 0.307 -0.342 L 0.448 -0.342 Q 0.543 -0.342 0.602 -0.395 Q 0.643 -0.433 0.658 -0.522 L 0.658 -0.523 Q 0.661 -0.542 0.661 -0.556 Q 0.661 -0.652 0.525 -0.652 L 0.429 -0.652 Q 0.393 -0.652 0.385 -0.642 L 0.385 -0.642 L 0.385 -0.641 L 0.384 -0.641 L 0.384 -0.64 Q 0.38 -0.634 0.375 -0.614 Z"/></g></g><g transform="scale(27,27)"><g transform="translate(10.407407407407407,7.638888888888889)"><path fill="rgb(0,102,153)" stroke="none" paint-order="stroke fill markers" d=" M 0.76 -0.6950000000000001 L 0.6970000000000001 -0.44 Q 0.6920000000000001 -0.422 0.687 -0.421 L 0.686 -0.42 L 0.679 -0.42 Q 0.664 -0.42 0.664 -0.43 L 0.667 -0.47900000000000004 L 0.667 -0.481 Q 0.667 -0.605 0.589 -0.652 L 0.588 -0.653 Q 0.553 -0.674 0.506 -0.674 Q 0.4 -0.674 0.305 -0.595 Q 0.281 -0.5760000000000001 0.262 -0.553 Q 0.167 -0.442 0.145 -0.271 Q 0.14100000000000001 -0.24 0.14100000000000001 -0.217 Q 0.14100000000000001 -0.077 0.247 -0.028 Q 0.28800000000000003 -0.009000000000000001 0.337 -0.009000000000000001 Q 0.431 -0.009000000000000001 0.521 -0.082 Q 0.591 -0.14100000000000001 0.622 -0.24 Q 0.624 -0.25 0.635 -0.25 Q 0.647 -0.25 0.647 -0.24 Q 0.647 -0.222 0.624 -0.176 Q 0.593 -0.113 0.537 -0.064 Q 0.438 0.022 0.321 0.022 Q 0.193 0.022 0.116 -0.066 Q 0.05 -0.14100000000000001 0.05 -0.252 Q 0.05 -0.401 0.159 -0.531 Q 0.26 -0.652 0.398 -0.6910000000000001 Q 0.449 -0.705 0.498 -0.705 Q 0.607 -0.705 0.664 -0.616 L 0.734 -0.6930000000000001 Q 0.746 -0.705 0.749 -0.705 Q 0.76 -0.705 0.76 -0.6950000000000001 Z"/></g><g transform="translate(11.193656907407407,7.638888888888889)"><path fill="rgb(0,102,153)" stroke="none" paint-order="stroke fill markers" d=" M 0.763 -0.606 L 0.628 -0.066 L 0.625 -0.049 Q 0.625 -0.032 0.672 -0.031 L 0.673 -0.031 L 0.6900000000000001 -0.031 Q 0.716 -0.031 0.718 -0.02 Q 0.718 0 0.6980000000000001 0 L 0.634 -0.002 L 0.633 -0.002 L 0.5710000000000001 -0.003 L 0.5690000000000001 -0.003 L 0.443 0 L 0.442 0 Q 0.428 0 0.428 -0.011 Q 0.428 -0.029 0.442 -0.031 L 0.442 -0.031 L 0.442 -0.031 L 0.452 -0.031 Q 0.515 -0.031 0.529 -0.041 L 0.53 -0.042 Q 0.538 -0.049 0.543 -0.064 L 0.612 -0.34 L 0.307 -0.34 L 0.23900000000000002 -0.066 L 0.23600000000000002 -0.049 Q 0.23600000000000002 -0.032 0.28200000000000003 -0.031 L 0.28200000000000003 -0.031 L 0.28200000000000003 -0.031 L 0.301 -0.031 Q 0.327 -0.031 0.329 -0.02 Q 0.329 0 0.309 0 L 0.245 -0.002 L 0.244 -0.002 L 0.182 -0.003 L 0.18 -0.003 L 0.054 0 L 0.053 0 Q 0.039 0 0.039 -0.011 Q 0.039 -0.029 0.054 -0.031 L 0.066 -0.031 Q 0.131 -0.031 0.14400000000000002 -0.045 Q 0.15 -0.052000000000000005 0.156 -0.073 Q 0.156 -0.074 0.157 -0.078 L 0.291 -0.615 Q 0.295 -0.631 0.295 -0.634 Q 0.295 -0.646 0.279 -0.649 L 0.278 -0.649 L 0.277 -0.649 Q 0.274 -0.649 0.268 -0.65 Q 0.251 -0.652 0.23 -0.652 Q 0.20400000000000001 -0.652 0.202 -0.663 Q 0.202 -0.683 0.221 -0.683 L 0.34900000000000003 -0.68 L 0.35000000000000003 -0.68 L 0.47700000000000004 -0.683 L 0.47800000000000004 -0.683 Q 0.492 -0.683 0.492 -0.672 Q 0.492 -0.655 0.47800000000000004 -0.653 L 0.47700000000000004 -0.653 L 0.47700000000000004 -0.653 L 0.47700000000000004 -0.653 L 0.47600000000000003 -0.652 L 0.458 -0.652 Q 0.397 -0.652 0.385 -0.635 L 0.384 -0.635 L 0.384 -0.634 Q 0.379 -0.627 0.374 -0.606 L 0.315 -0.371 L 0.62 -0.371 L 0.68 -0.615 Q 0.684 -0.632 0.684 -0.634 Q 0.684 -0.646 0.668 -0.649 Q 0.665 -0.649 0.657 -0.65 Q 0.64 -0.652 0.619 -0.652 Q 0.593 -0.652 0.591 -0.663 Q 0.591 -0.683 0.61 -0.683 L 0.738 -0.68 L 0.739 -0.68 L 0.866 -0.683 L 0.867 -0.683 Q 0.881 -0.683 0.881 -0.672 Q 0.881 -0.655 0.867 -0.653 L 0.866 -0.653 Q 0.861 -0.652 0.847 -0.652 Q 0.786 -0.652 0.774 -0.636 Q 0.769 -0.629 0.763 -0.606 Z"/></g><g transform="translate(12.106155907407407,7.638888888888889)"><path fill="rgb(0,102,153)" stroke="none" paint-order="stroke fill markers" d=" M 0.331 0.24 L 0.331 0.24 Q 0.331 0.25 0.321 0.25 Q 0.309 0.25 0.268 0.209 Q 0.20600000000000002 0.147 0.165 0.062 Q 0.099 -0.074 0.099 -0.25 Q 0.099 -0.419 0.162 -0.555 Q 0.214 -0.666 0.294 -0.733 Q 0.315 -0.75 0.321 -0.75 Q 0.331 -0.75 0.331 -0.74 Q 0.331 -0.735 0.318 -0.723 Q 0.157 -0.559 0.157 -0.25 Q 0.157 0.058 0.314 0.218 Q 0.331 0.23500000000000001 0.331 0.24 Z"/></g><g transform="translate(12.495045907407407,7.638888888888889)"><path fill="rgb(0,102,153)" stroke="none" paint-order="stroke fill markers" d=" M 0.303 -0.316 L 0.303 -0.316 L 0.241 -0.066 L 0.23800000000000002 -0.049 Q 0.23800000000000002 -0.032 0.28400000000000003 -0.031 L 0.28400000000000003 -0.031 L 0.28400000000000003 -0.031 L 0.303 -0.031 Q 0.329 -0.031 0.331 -0.02 Q 0.331 0 0.311 0 L 0.247 -0.002 L 0.246 -0.002 L 0.184 -0.003 L 0.182 -0.003 L 0.056 0 L 0.055 0 Q 0.04 0 0.04 -0.012 Q 0.04 -0.029 0.056 -0.031 L 0.068 -0.031 Q 0.133 -0.031 0.146 -0.045 Q 0.152 -0.052000000000000005 0.158 -0.073 Q 0.158 -0.074 0.159 -0.078 L 0.293 -0.615 Q 0.297 -0.631 0.297 -0.634 Q 0.297 -0.646 0.281 -0.649 L 0.28 -0.649 L 0.28 -0.649 Q 0.278 -0.65 0.275 -0.65 Q 0.251 -0.652 0.232 -0.652 Q 0.20600000000000002 -0.652 0.20400000000000001 -0.66 Q 0.203 -0.662 0.203 -0.664 Q 0.203 -0.681 0.22 -0.683 L 0.22 -0.683 L 0.233 -0.683 L 0.557 -0.683 Q 0.678 -0.683 0.73 -0.609 Q 0.754 -0.5740000000000001 0.754 -0.532 Q 0.754 -0.451 0.671 -0.385 Q 0.583 -0.316 0.47300000000000003 -0.316 L 0.303 -0.316 M 0.375 -0.614 L 0.307 -0.342 L 0.448 -0.342 Q 0.543 -0.342 0.602 -0.395 Q 0.643 -0.433 0.658 -0.522 L 0.658 -0.523 Q 0.661 -0.542 0.661 -0.556 Q 0.661 -0.652 0.525 -0.652 L 0.429 -0.652 Q 0.393 -0.652 0.385 -0.642 L 0.385 -0.642 L 0.385 -0.641 L 0.384 -0.641 L 0.384 -0.64 Q 0.38 -0.634 0.375 -0.614 Z"/></g><g transform="translate(13.275949907407407,7.638888888888889)"><path fill="rgb(0,102,153)" stroke="none" paint-order="stroke fill markers" d=" M 0.289 -0.25 L 0.289 -0.25 Q 0.289 -0.081 0.226 0.055 Q 0.17400000000000002 0.166 0.094 0.233 Q 0.073 0.25 0.067 0.25 Q 0.057 0.25 0.057 0.24 Q 0.057 0.23500000000000001 0.07 0.223 Q 0.231 0.059000000000000004 0.231 -0.25 Q 0.231 -0.555 0.081 -0.712 L 0.076 -0.717 Q 0.057 -0.735 0.057 -0.74 Q 0.057 -0.75 0.067 -0.75 Q 0.079 -0.75 0.12 -0.709 Q 0.182 -0.647 0.223 -0.562 Q 0.289 -0.426 0.289 -0.25 Z"/></g></g></g></g></svg>