<svg version="1.1" xmlns="http://www.w3.org/2000/svg" xmlns:xlink="http://www.w3.org/1999/xlink" width="915" height="562"><defs><clipPath id="IOOxchDEwoeL"><path fill="none" stroke="none" d=" M 0 0 L 915 0 L 915 562 L 0 562 L 0 0 Z"/></clipPath></defs><g transform="scale(1,1)" clip-path="url(#IOOxchDEwoeL)"><g><rect fill="rgb(255,255,255)" stroke="none" x="0" y="0" width="915" height="562" fill-opacity="1"/><path fill="none" stroke="rgb(0,0,0)" paint-order="fill stroke markers" d=" M 163.50000000000017 166 L 180.5000000000001 224 L 227.50000000000014 255 L 284.5000000000001 209 L 285.5000000000001 137 L 347.5000000000001 191 L 402.50000000000006 186 L 418.50000000000006 148 L 460.50000000000006 211 L 596 195 L 585.5 273 L 537.5 325 L 588.5 341 L 538.5 383 L 687.5 461" stroke-opacity="0.6980392156862745" stroke-linecap="round" stroke-linejoin="round" stroke-miterlimit="10" stroke-width="2.5"/><path fill="none" stroke="rgb(0,0,0)" paint-order="fill stroke markers" d=" M 163.50000000000017 166 L 201.0000000000001 201 L 242.5000000000001 203 L 252.50000000000014 162 L 180.5000000000001 45" stroke-opacity="0.6980392156862745" stroke-linecap="round" stroke-linejoin="round" stroke-miterlimit="10" stroke-width="2.5"/><path fill="none" stroke="rgb(153,51,0)" paint-order="fill stroke markers" d=" M 100.50000000000017 455 L 687.5 461" stroke-opacity="0.6980392156862745" stroke-linecap="round" stroke-linejoin="round" stroke-miterlimit="10" stroke-width="2.5"/><path fill="none" stroke="rgb(153,51,0)" paint-order="fill stroke markers" d=" M 687.5 461 L 596 195" stroke-opacity="0.6980392156862745" stroke-linecap="round" stroke-linejoin="round" stroke-miterlimit="10" stroke-width="2.5"/><path fill="none" stroke="rgb(153,51,0)" paint-order="fill stroke markers" d=" M 596 195 L 418.50000000000006 148" stroke-opacity="0.6980392156862745" stroke-linecap="round" stroke-linejoin="round" stroke-miterlimit="10" stroke-width="2.5"/><path fill="none" stroke="rgb(153,51,0)" paint-order="fill stroke markers" d=" M 418.50000000000006 148 L 285.5000000000001 137" stroke-opacity="0.6980392156862745" stroke-linecap="round" stroke-linejoin="round" stroke-miterlimit="10" stroke-width="2.5"/><path fill="none" stroke="rgb(153,51,0)" paint-order="fill stroke markers" d=" M 285.5000000000001 137 L 163.50000000000017 166" stroke-opacity="0.6980392156862745" stroke-linecap="round" stroke-linejoin="round" stroke-miterlimit="10" stroke-width="2.5"/><path fill="none" stroke="rgb(153,51,0)" paint-order="fill stroke markers" d=" M 163.50000000000017 166 L 100.50000000000017 455" stroke-opacity="0.6980392156862745" stroke-linecap="round" stroke-linejoin="round" stroke-miterlimit="10" stroke-width="2.5"/><path fill="none" stroke="rgb(0,100,0)" paint-order="fill stroke markers" d=" M 180.5000000000001 45 L 596 195" stroke-opacity="0.6980392156862745" stroke-linecap="round" stroke-linejoin="round" stroke-miterlimit="10" stroke-width="2.5"/><path fill="rgb(77,77,255)" stroke="none" paint-order="stroke fill markers" d=" M 105.50000000000017 455 C 105.50000000000017 457.76142374915395 103.26142374915413 460 100.50000000000017 460 C 97.73857625084621 460 95.50000000000017 457.76142374915395 95.50000000000017 455 C 95.50000000000017 452.23857625084605 97.73857625084621 450 100.50000000000017 450 C 103.26142374915413 450 105.50000000000017 452.23857625084605 105.50000000000017 455 Z" fill-opacity="1"/><path fill="none" stroke="rgb(0,0,0)" paint-order="fill stroke markers" d=" M 105.50000000000017 455 C 105.50000000000017 457.76142374915395 103.26142374915413 460 100.50000000000017 460 C 97.73857625084621 460 95.50000000000017 457.76142374915395 95.50000000000017 455 C 95.50000000000017 452.23857625084605 97.73857625084621 450 100.50000000000017 450 C 103.26142374915413 450 105.50000000000017 452.23857625084605 105.50000000000017 455 Z" stroke-opacity="1" stroke-linecap="round" stroke-linejoin="round" stroke-miterlimit="10"/><g transform="scale(27,27)"><g transform="translate(2.6296296296296298,15.726851296296296)"><path fill="rgb(77,77,255)" stroke="none" paint-order="stroke fill markers" d=" M 0.452 -0.431 L 0.314 0.125 Q 0.31 0.14300000000000002 0.31 0.147 Q 0.31 0.158 0.323 0.161 L 0.323 0.161 Q 0.334 0.163 0.358 0.163 Q 0.382 0.163 0.384 0.17400000000000002 Q 0.384 0.194 0.366 0.194 L 0.264 0.191 L 0.263 0.191 L 0.164 0.194 L 0.163 0.194 Q 0.15 0.194 0.15 0.183 Q 0.158 0.164 0.17300000000000001 0.163 Q 0.225 0.162 0.23600000000000002 0.15 Q 0.241 0.14400000000000002 0.245 0.13 L 0.29 -0.049 Q 0.23 0.011 0.17200000000000001 0.011 Q 0.10200000000000001 0.011 0.065 -0.052000000000000005 Q 0.04 -0.093 0.04 -0.149 Q 0.04 -0.256 0.115 -0.34800000000000003 Q 0.184 -0.433 0.267 -0.441 Q 0.274 -0.442 0.281 -0.442 Q 0.34500000000000003 -0.442 0.374 -0.372 Q 0.395 -0.40800000000000003 0.428 -0.434 L 0.43 -0.435 Q 0.438 -0.441 0.442 -0.441 Q 0.452 -0.441 0.452 -0.431 M 0.17500000000000002 -0.011 Q 0.228 -0.011 0.28300000000000003 -0.076 Q 0.295 -0.091 0.302 -0.10300000000000001 Q 0.308 -0.111 0.356 -0.312 Q 0.36 -0.33 0.36 -0.332 Q 0.36 -0.354 0.342 -0.383 Q 0.32 -0.42 0.281 -0.42 Q 0.232 -0.42 0.188 -0.359 Q 0.17 -0.334 0.157 -0.304 Q 0.129 -0.234 0.115 -0.14300000000000002 Q 0.111 -0.12 0.111 -0.105 Q 0.111 -0.04 0.146 -0.019 L 0.147 -0.018000000000000002 Q 0.159 -0.011 0.17500000000000002 -0.011 Z"/></g><g transform="translate(3.0760436296296296,15.876851296296296) scale(0.7,0.7)"><path fill="rgb(77,77,255)" stroke="none" paint-order="stroke fill markers" d=" M 0.46 -0.32 Q 0.46 -0.17400000000000002 0.423 -0.094 Q 0.364 0.018000000000000002 0.249 0.022 Q 0.158 0.022 0.10300000000000001 -0.05 Q 0.092 -0.063 0.084 -0.079 Q 0.039 -0.162 0.039 -0.32 Q 0.039 -0.467 0.076 -0.547 Q 0.126 -0.659 0.23800000000000002 -0.666 L 0.25 -0.666 Q 0.339 -0.666 0.395 -0.595 L 0.395 -0.594 Q 0.40900000000000003 -0.5760000000000001 0.42 -0.554 Q 0.46 -0.46900000000000003 0.46 -0.32 M 0.249 0 L 0.249 0 Q 0.312 0 0.34600000000000003 -0.061 Q 0.36 -0.088 0.366 -0.125 Q 0.377 -0.189 0.377 -0.332 Q 0.377 -0.47100000000000003 0.367 -0.527 Q 0.34900000000000003 -0.622 0.275 -0.641 Q 0.262 -0.644 0.249 -0.644 Q 0.179 -0.644 0.147 -0.5740000000000001 Q 0.136 -0.55 0.13 -0.516 Q 0.122 -0.462 0.122 -0.332 Q 0.122 -0.181 0.133 -0.121 Q 0.151 -0.025 0.221 -0.004 Q 0.23500000000000001 0 0.249 0 Z"/></g></g><path fill="rgb(77,77,255)" stroke="none" paint-order="stroke fill markers" d=" M 692.5 461 C 692.5 463.76142374915395 690.261423749154 466 687.5 466 C 684.738576250846 466 682.5 463.76142374915395 682.5 461 C 682.5 458.23857625084605 684.738576250846 456 687.5 456 C 690.261423749154 456 692.5 458.23857625084605 692.5 461 Z" fill-opacity="1"/><path fill="none" stroke="rgb(0,0,0)" paint-order="fill stroke markers" d=" M 692.5 461 C 692.5 463.76142374915395 690.261423749154 466 687.5 466 C 684.738576250846 466 682.5 463.76142374915395 682.5 461 C 682.5 458.23857625084605 684.738576250846 456 687.5 456 C 690.261423749154 456 692.5 458.23857625084605 692.5 461 Z" stroke-opacity="1" stroke-linecap="round" stroke-linejoin="round" stroke-miterlimit="10"/><g transform="scale(27,27)"><g transform="translate(25.814814814814813,16.06018462962963)"><path fill="rgb(77,77,255)" stroke="none" paint-order="stroke fill markers" d=" M 0.452 -0.431 L 0.314 0.125 Q 0.31 0.14300000000000002 0.31 0.147 Q 0.31 0.158 0.323 0.161 L 0.323 0.161 Q 0.334 0.163 0.358 0.163 Q 0.382 0.163 0.384 0.17400000000000002 Q 0.384 0.194 0.366 0.194 L 0.264 0.191 L 0.263 0.191 L 0.164 0.194 L 0.163 0.194 Q 0.15 0.194 0.15 0.183 Q 0.158 0.164 0.17300000000000001 0.163 Q 0.225 0.162 0.23600000000000002 0.15 Q 0.241 0.14400000000000002 0.245 0.13 L 0.29 -0.049 Q 0.23 0.011 0.17200000000000001 0.011 Q 0.10200000000000001 0.011 0.065 -0.052000000000000005 Q 0.04 -0.093 0.04 -0.149 Q 0.04 -0.256 0.115 -0.34800000000000003 Q 0.184 -0.433 0.267 -0.441 Q 0.274 -0.442 0.281 -0.442 Q 0.34500000000000003 -0.442 0.374 -0.372 Q 0.395 -0.40800000000000003 0.428 -0.434 L 0.43 -0.435 Q 0.438 -0.441 0.442 -0.441 Q 0.452 -0.441 0.452 -0.431 M 0.17500000000000002 -0.011 Q 0.228 -0.011 0.28300000000000003 -0.076 Q 0.295 -0.091 0.302 -0.10300000000000001 Q 0.308 -0.111 0.356 -0.312 Q 0.36 -0.33 0.36 -0.332 Q 0.36 -0.354 0.342 -0.383 Q 0.32 -0.42 0.281 -0.42 Q 0.232 -0.42 0.188 -0.359 Q 0.17 -0.334 0.157 -0.304 Q 0.129 -0.234 0.115 -0.14300000000000002 Q 0.111 -0.12 0.111 -0.105 Q 0.111 -0.04 0.146 -0.019 L 0.147 -0.018000000000000002 Q 0.159 -0.011 0.17500000000000002 -0.011 Z"/></g><g transform="translate(26.261228814814814,16.21018462962963) scale(0.7,0.7)"><path fill="rgb(77,77,255)" stroke="none" paint-order="stroke fill markers" d=" M 0.294 -0.64 L 0.294 -0.079 Q 0.294 -0.049 0.306 -0.041 Q 0.323 -0.031 0.387 -0.031 L 0.419 -0.031 L 0.419 0 Q 0.384 -0.003 0.257 -0.003 Q 0.13 -0.003 0.095 0 L 0.095 -0.031 L 0.127 -0.031 Q 0.20400000000000001 -0.031 0.215 -0.049 L 0.216 -0.05 Q 0.22 -0.058 0.22 -0.079 L 0.22 -0.597 Q 0.168 -0.5710000000000001 0.089 -0.5710000000000001 L 0.089 -0.602 Q 0.209 -0.602 0.271 -0.666 Q 0.29 -0.666 0.293 -0.659 L 0.293 -0.659 L 0.293 -0.658 Q 0.294 -0.655 0.294 -0.64 Z"/></g></g><path fill="rgb(77,77,255)" stroke="none" paint-order="stroke fill markers" d=" M 601 195 C 601 197.76142374915398 598.761423749154 200 596 200 C 593.238576250846 200 591 197.76142374915398 591 195 C 591 192.23857625084602 593.238576250846 190 596 190 C 598.761423749154 190 601 192.23857625084602 601 195 Z" fill-opacity="1"/><path fill="none" stroke="rgb(0,0,0)" paint-order="fill stroke markers" d=" M 601 195 C 601 197.76142374915398 598.761423749154 200 596 200 C 593.238576250846 200 591 197.76142374915398 591 195 C 591 192.23857625084602 593.238576250846 190 596 190 C 598.761423749154 190 601 192.23857625084602 601 195 Z" stroke-opacity="1" stroke-linecap="round" stroke-linejoin="round" stroke-miterlimit="10"/><g transform="scale(27,27)"><g transform="translate(22.40740740740741,6.208332777777778)"><path fill="rgb(77,77,255)" stroke="none" paint-order="stroke fill markers" d=" M 0.452 -0.431 L 0.314 0.125 Q 0.31 0.14300000000000002 0.31 0.147 Q 0.31 0.158 0.323 0.161 L 0.323 0.161 Q 0.334 0.163 0.358 0.163 Q 0.382 0.163 0.384 0.17400000000000002 Q 0.384 0.194 0.366 0.194 L 0.264 0.191 L 0.263 0.191 L 0.164 0.194 L 0.163 0.194 Q 0.15 0.194 0.15 0.183 Q 0.158 0.164 0.17300000000000001 0.163 Q 0.225 0.162 0.23600000000000002 0.15 Q 0.241 0.14400000000000002 0.245 0.13 L 0.29 -0.049 Q 0.23 0.011 0.17200000000000001 0.011 Q 0.10200000000000001 0.011 0.065 -0.052000000000000005 Q 0.04 -0.093 0.04 -0.149 Q 0.04 -0.256 0.115 -0.34800000000000003 Q 0.184 -0.433 0.267 -0.441 Q 0.274 -0.442 0.281 -0.442 Q 0.34500000000000003 -0.442 0.374 -0.372 Q 0.395 -0.40800000000000003 0.428 -0.434 L 0.43 -0.435 Q 0.438 -0.441 0.442 -0.441 Q 0.452 -0.441 0.452 -0.431 M 0.17500000000000002 -0.011 Q 0.228 -0.011 0.28300000000000003 -0.076 Q 0.295 -0.091 0.302 -0.10300000000000001 Q 0.308 -0.111 0.356 -0.312 Q 0.36 -0.33 0.36 -0.332 Q 0.36 -0.354 0.342 -0.383 Q 0.32 -0.42 0.281 -0.42 Q 0.232 -0.42 0.188 -0.359 Q 0.17 -0.334 0.157 -0.304 Q 0.129 -0.234 0.115 -0.14300000000000002 Q 0.111 -0.12 0.111 -0.105 Q 0.111 -0.04 0.146 -0.019 L 0.147 -0.018000000000000002 Q 0.159 -0.011 0.17500000000000002 -0.011 Z"/></g><g transform="translate(22.85382140740741,6.358332777777778) scale(0.7,0.7)"><path fill="rgb(77,77,255)" stroke="none" paint-order="stroke fill markers" d=" M 0.28400000000000003 -0.625 Q 0.28400000000000003 -0.594 0.253 -0.578 Q 0.242 -0.5720000000000001 0.231 -0.5720000000000001 Q 0.201 -0.5720000000000001 0.194 -0.599 Q 0.193 -0.604 0.193 -0.608 Q 0.193 -0.636 0.221 -0.653 Q 0.234 -0.661 0.247 -0.661 Q 0.277 -0.661 0.28300000000000003 -0.634 L 0.28300000000000003 -0.633 Q 0.28400000000000003 -0.629 0.28400000000000003 -0.625 M 0.20800000000000002 -0.249 L 0.169 -0.14400000000000002 Q 0.14100000000000001 -0.063 0.14 -0.044 Q 0.14 -0.011 0.164 -0.011 Q 0.227 -0.011 0.262 -0.123 L 0.266 -0.135 Q 0.271 -0.151 0.276 -0.152 L 0.276 -0.153 L 0.281 -0.153 Q 0.293 -0.153 0.293 -0.14300000000000002 Q 0.293 -0.125 0.271 -0.079 Q 0.228 0.011 0.162 0.011 Q 0.109 0.011 0.088 -0.033 Q 0.08 -0.051000000000000004 0.08 -0.07100000000000001 Q 0.08 -0.091 0.10300000000000001 -0.151 Q 0.17300000000000001 -0.339 0.17200000000000001 -0.336 Q 0.183 -0.364 0.183 -0.388 Q 0.183 -0.42 0.158 -0.42 Q 0.10300000000000001 -0.42 0.068 -0.329 L 0.068 -0.328 Q 0.062 -0.313 0.057 -0.296 Q 0.046 -0.279 0.041 -0.278 Q 0.029 -0.278 0.029 -0.28800000000000003 Q 0.029 -0.306 0.051000000000000004 -0.35100000000000003 Q 0.094 -0.442 0.161 -0.442 Q 0.214 -0.442 0.23500000000000001 -0.397 Q 0.243 -0.38 0.243 -0.36 Q 0.243 -0.34 0.23 -0.307 Q 0.213 -0.261 0.20800000000000002 -0.249 Z"/></g></g><path fill="rgb(77,77,255)" stroke="none" paint-order="stroke fill markers" d=" M 423.50000000000006 148 C 423.50000000000006 150.76142374915398 421.261423749154 153 418.50000000000006 153 C 415.7385762508461 153 413.50000000000006 150.76142374915398 413.50000000000006 148 C 413.50000000000006 145.23857625084602 415.7385762508461 143 418.50000000000006 143 C 421.261423749154 143 423.50000000000006 145.23857625084602 423.50000000000006 148 Z" fill-opacity="1"/><path fill="none" stroke="rgb(0,0,0)" paint-order="fill stroke markers" d=" M 423.50000000000006 148 C 423.50000000000006 150.76142374915398 421.261423749154 153 418.50000000000006 153 C 415.7385762508461 153 413.50000000000006 150.76142374915398 413.50000000000006 148 C 413.50000000000006 145.23857625084602 415.7385762508461 143 418.50000000000006 143 C 421.261423749154 143 423.50000000000006 145.23857625084602 423.50000000000006 148 Z" stroke-opacity="1" stroke-linecap="round" stroke-linejoin="round" stroke-miterlimit="10"/><path fill="rgb(77,77,255)" stroke="none" paint-order="stroke fill markers" d=" M 290.5000000000001 137 C 290.5000000000001 139.76142374915398 288.26142374915406 142 285.5000000000001 142 C 282.73857625084617 142 280.5000000000001 139.76142374915398 280.5000000000001 137 C 280.5000000000001 134.23857625084602 282.73857625084617 132 285.5000000000001 132 C 288.26142374915406 132 290.5000000000001 134.23857625084602 290.5000000000001 137 Z" fill-opacity="1"/><path fill="none" stroke="rgb(0,0,0)" paint-order="fill stroke markers" d=" M 290.5000000000001 137 C 290.5000000000001 139.76142374915398 288.26142374915406 142 285.5000000000001 142 C 282.73857625084617 142 280.5000000000001 139.76142374915398 280.5000000000001 137 C 280.5000000000001 134.23857625084602 282.73857625084617 132 285.5000000000001 132 C 288.26142374915406 132 290.5000000000001 134.23857625084602 290.5000000000001 137 Z" stroke-opacity="1" stroke-linecap="round" stroke-linejoin="round" stroke-miterlimit="10"/><g transform="scale(27,27)"><g transform="translate(10.25925925925926,4.430555)"><path fill="rgb(77,77,255)" stroke="none" paint-order="stroke fill markers" d=" M 0.452 -0.431 L 0.314 0.125 Q 0.31 0.14300000000000002 0.31 0.147 Q 0.31 0.158 0.323 0.161 L 0.323 0.161 Q 0.334 0.163 0.358 0.163 Q 0.382 0.163 0.384 0.17400000000000002 Q 0.384 0.194 0.366 0.194 L 0.264 0.191 L 0.263 0.191 L 0.164 0.194 L 0.163 0.194 Q 0.15 0.194 0.15 0.183 Q 0.158 0.164 0.17300000000000001 0.163 Q 0.225 0.162 0.23600000000000002 0.15 Q 0.241 0.14400000000000002 0.245 0.13 L 0.29 -0.049 Q 0.23 0.011 0.17200000000000001 0.011 Q 0.10200000000000001 0.011 0.065 -0.052000000000000005 Q 0.04 -0.093 0.04 -0.149 Q 0.04 -0.256 0.115 -0.34800000000000003 Q 0.184 -0.433 0.267 -0.441 Q 0.274 -0.442 0.281 -0.442 Q 0.34500000000000003 -0.442 0.374 -0.372 Q 0.395 -0.40800000000000003 0.428 -0.434 L 0.43 -0.435 Q 0.438 -0.441 0.442 -0.441 Q 0.452 -0.441 0.452 -0.431 M 0.17500000000000002 -0.011 Q 0.228 -0.011 0.28300000000000003 -0.076 Q 0.295 -0.091 0.302 -0.10300000000000001 Q 0.308 -0.111 0.356 -0.312 Q 0.36 -0.33 0.36 -0.332 Q 0.36 -0.354 0.342 -0.383 Q 0.32 -0.42 0.281 -0.42 Q 0.232 -0.42 0.188 -0.359 Q 0.17 -0.334 0.157 -0.304 Q 0.129 -0.234 0.115 -0.14300000000000002 Q 0.111 -0.12 0.111 -0.105 Q 0.111 -0.04 0.146 -0.019 L 0.147 -0.018000000000000002 Q 0.159 -0.011 0.17500000000000002 -0.011 Z"/></g><g transform="translate(10.70567325925926,4.580555) scale(0.7,0.7)"><path fill="rgb(77,77,255)" stroke="none" paint-order="stroke fill markers" d=" M 0.20600000000000002 -0.4 L 0.132 -0.105 Q 0.126 -0.08 0.126 -0.057 Q 0.126 -0.011 0.157 -0.011 Q 0.223 -0.011 0.273 -0.108 L 0.28700000000000003 -0.139 Q 0.293 -0.152 0.302 -0.153 Q 0.314 -0.153 0.314 -0.14300000000000002 Q 0.314 -0.13 0.28800000000000003 -0.08600000000000001 Q 0.23 0.011 0.155 0.011 Q 0.097 0.011 0.073 -0.037 Q 0.063 -0.057 0.063 -0.081 Q 0.063 -0.1 0.124 -0.34 L 0.139 -0.4 L 0.051000000000000004 -0.4 Q 0.026000000000000002 -0.4 0.024 -0.40800000000000003 L 0.023 -0.40800000000000003 L 0.023 -0.41200000000000003 Q 0.023 -0.429 0.039 -0.431 L 0.053 -0.431 L 0.147 -0.431 L 0.186 -0.59 Q 0.195 -0.625 0.226 -0.626 Q 0.252 -0.626 0.255 -0.599 Q 0.255 -0.593 0.214 -0.431 L 0.302 -0.431 Q 0.328 -0.431 0.33 -0.42 Q 0.33 -0.402 0.314 -0.4 L 0.313 -0.4 L 0.3 -0.4 L 0.20600000000000002 -0.4 Z"/></g><g transform="translate(10.95845235925926,4.580555) scale(0.7,0.7)"><path fill="rgb(77,77,255)" stroke="none" paint-order="stroke fill markers" d=" M 0.661 -0.23 L 0.116 -0.23 Q 0.084 -0.23 0.083 -0.25 Q 0.083 -0.27 0.116 -0.27 L 0.661 -0.27 Q 0.6930000000000001 -0.27 0.6940000000000001 -0.25 Q 0.6940000000000001 -0.23 0.661 -0.23 Z"/></g><g transform="translate(11.50289905925926,4.580555) scale(0.7,0.7)"><path fill="rgb(77,77,255)" stroke="none" paint-order="stroke fill markers" d=" M 0.294 -0.64 L 0.294 -0.079 Q 0.294 -0.049 0.306 -0.041 Q 0.323 -0.031 0.387 -0.031 L 0.419 -0.031 L 0.419 0 Q 0.384 -0.003 0.257 -0.003 Q 0.13 -0.003 0.095 0 L 0.095 -0.031 L 0.127 -0.031 Q 0.20400000000000001 -0.031 0.215 -0.049 L 0.216 -0.05 Q 0.22 -0.058 0.22 -0.079 L 0.22 -0.597 Q 0.168 -0.5710000000000001 0.089 -0.5710000000000001 L 0.089 -0.602 Q 0.209 -0.602 0.271 -0.666 Q 0.29 -0.666 0.293 -0.659 L 0.293 -0.659 L 0.293 -0.658 Q 0.294 -0.655 0.294 -0.64 Z"/></g></g><path fill="rgb(77,77,255)" stroke="none" paint-order="stroke fill markers" d=" M 168.50000000000017 166 C 168.50000000000017 168.76142374915398 166.26142374915415 171 163.50000000000017 171 C 160.7385762508462 171 158.50000000000017 168.76142374915398 158.50000000000017 166 C 158.50000000000017 163.23857625084602 160.7385762508462 161 163.50000000000017 161 C 166.26142374915415 161 168.50000000000017 163.23857625084602 168.50000000000017 166 Z" fill-opacity="1"/><path fill="none" stroke="rgb(0,0,0)" paint-order="fill stroke markers" d=" M 168.50000000000017 166 C 168.50000000000017 168.76142374915398 166.26142374915415 171 163.50000000000017 171 C 160.7385762508462 171 158.50000000000017 168.76142374915398 158.50000000000017 166 C 158.50000000000017 163.23857625084602 160.7385762508462 161 163.50000000000017 161 C 166.26142374915415 161 168.50000000000017 163.23857625084602 168.50000000000017 166 Z" stroke-opacity="1" stroke-linecap="round" stroke-linejoin="round" stroke-miterlimit="10"/><g transform="scale(27,27)"><g transform="translate(5,6.134258703703703)"><path fill="rgb(77,77,255)" stroke="none" paint-order="stroke fill markers" d=" M 0.452 -0.431 L 0.314 0.125 Q 0.31 0.14300000000000002 0.31 0.147 Q 0.31 0.158 0.323 0.161 L 0.323 0.161 Q 0.334 0.163 0.358 0.163 Q 0.382 0.163 0.384 0.17400000000000002 Q 0.384 0.194 0.366 0.194 L 0.264 0.191 L 0.263 0.191 L 0.164 0.194 L 0.163 0.194 Q 0.15 0.194 0.15 0.183 Q 0.158 0.164 0.17300000000000001 0.163 Q 0.225 0.162 0.23600000000000002 0.15 Q 0.241 0.14400000000000002 0.245 0.13 L 0.29 -0.049 Q 0.23 0.011 0.17200000000000001 0.011 Q 0.10200000000000001 0.011 0.065 -0.052000000000000005 Q 0.04 -0.093 0.04 -0.149 Q 0.04 -0.256 0.115 -0.34800000000000003 Q 0.184 -0.433 0.267 -0.441 Q 0.274 -0.442 0.281 -0.442 Q 0.34500000000000003 -0.442 0.374 -0.372 Q 0.395 -0.40800000000000003 0.428 -0.434 L 0.43 -0.435 Q 0.438 -0.441 0.442 -0.441 Q 0.452 -0.441 0.452 -0.431 M 0.17500000000000002 -0.011 Q 0.228 -0.011 0.28300000000000003 -0.076 Q 0.295 -0.091 0.302 -0.10300000000000001 Q 0.308 -0.111 0.356 -0.312 Q 0.36 -0.33 0.36 -0.332 Q 0.36 -0.354 0.342 -0.383 Q 0.32 -0.42 0.281 -0.42 Q 0.232 -0.42 0.188 -0.359 Q 0.17 -0.334 0.157 -0.304 Q 0.129 -0.234 0.115 -0.14300000000000002 Q 0.111 -0.12 0.111 -0.105 Q 0.111 -0.04 0.146 -0.019 L 0.147 -0.018000000000000002 Q 0.159 -0.011 0.17500000000000002 -0.011 Z"/></g><g transform="translate(5.446414,6.284258703703704) scale(0.7,0.7)"><path fill="rgb(77,77,255)" stroke="none" paint-order="stroke fill markers" d=" M 0.20600000000000002 -0.4 L 0.132 -0.105 Q 0.126 -0.08 0.126 -0.057 Q 0.126 -0.011 0.157 -0.011 Q 0.223 -0.011 0.273 -0.108 L 0.28700000000000003 -0.139 Q 0.293 -0.152 0.302 -0.153 Q 0.314 -0.153 0.314 -0.14300000000000002 Q 0.314 -0.13 0.28800000000000003 -0.08600000000000001 Q 0.23 0.011 0.155 0.011 Q 0.097 0.011 0.073 -0.037 Q 0.063 -0.057 0.063 -0.081 Q 0.063 -0.1 0.124 -0.34 L 0.139 -0.4 L 0.051000000000000004 -0.4 Q 0.026000000000000002 -0.4 0.024 -0.40800000000000003 L 0.023 -0.40800000000000003 L 0.023 -0.41200000000000003 Q 0.023 -0.429 0.039 -0.431 L 0.053 -0.431 L 0.147 -0.431 L 0.186 -0.59 Q 0.195 -0.625 0.226 -0.626 Q 0.252 -0.626 0.255 -0.599 Q 0.255 -0.593 0.214 -0.431 L 0.302 -0.431 Q 0.328 -0.431 0.33 -0.42 Q 0.33 -0.402 0.314 -0.4 L 0.313 -0.4 L 0.3 -0.4 L 0.20600000000000002 -0.4 Z"/></g></g><path fill="rgb(77,77,255)" stroke="none" paint-order="stroke fill markers" d=" M 185.5000000000001 224 C 185.5000000000001 226.76142374915398 183.2614237491541 229 180.5000000000001 229 C 177.73857625084614 229 175.5000000000001 226.76142374915398 175.5000000000001 224 C 175.5000000000001 221.23857625084602 177.73857625084614 219 180.5000000000001 219 C 183.2614237491541 219 185.5000000000001 221.23857625084602 185.5000000000001 224 Z" fill-opacity="1"/><path fill="none" stroke="rgb(0,0,0)" paint-order="fill stroke markers" d=" M 185.5000000000001 224 C 185.5000000000001 226.76142374915398 183.2614237491541 229 180.5000000000001 229 C 177.73857625084614 229 175.5000000000001 226.76142374915398 175.5000000000001 224 C 175.5000000000001 221.23857625084602 177.73857625084614 219 180.5000000000001 219 C 183.2614237491541 219 185.5000000000001 221.23857625084602 185.5000000000001 224 Z" stroke-opacity="1" stroke-linecap="round" stroke-linejoin="round" stroke-miterlimit="10"/><path fill="rgb(77,77,255)" stroke="none" paint-order="stroke fill markers" d=" M 232.50000000000014 255 C 232.50000000000014 257.76142374915395 230.26142374915412 260 227.50000000000014 260 C 224.73857625084617 260 222.50000000000014 257.76142374915395 222.50000000000014 255 C 222.50000000000014 252.23857625084602 224.73857625084617 250 227.50000000000014 250 C 230.26142374915412 250 232.50000000000014 252.23857625084602 232.50000000000014 255 Z" fill-opacity="1"/><path fill="none" stroke="rgb(0,0,0)" paint-order="fill stroke markers" d=" M 232.50000000000014 255 C 232.50000000000014 257.76142374915395 230.26142374915412 260 227.50000000000014 260 C 224.73857625084617 260 222.50000000000014 257.76142374915395 222.50000000000014 255 C 222.50000000000014 252.23857625084602 224.73857625084617 250 227.50000000000014 250 C 230.26142374915412 250 232.50000000000014 252.23857625084602 232.50000000000014 255 Z" stroke-opacity="1" stroke-linecap="round" stroke-linejoin="round" stroke-miterlimit="10"/><path fill="rgb(77,77,255)" stroke="none" paint-order="stroke fill markers" d=" M 289.5000000000001 209 C 289.5000000000001 211.76142374915398 287.26142374915406 214 284.5000000000001 214 C 281.73857625084617 214 279.5000000000001 211.76142374915398 279.5000000000001 209 C 279.5000000000001 206.23857625084602 281.73857625084617 204 284.5000000000001 204 C 287.26142374915406 204 289.5000000000001 206.23857625084602 289.5000000000001 209 Z" fill-opacity="1"/><path fill="none" stroke="rgb(0,0,0)" paint-order="fill stroke markers" d=" M 289.5000000000001 209 C 289.5000000000001 211.76142374915398 287.26142374915406 214 284.5000000000001 214 C 281.73857625084617 214 279.5000000000001 211.76142374915398 279.5000000000001 209 C 279.5000000000001 206.23857625084602 281.73857625084617 204 284.5000000000001 204 C 287.26142374915406 204 289.5000000000001 206.23857625084602 289.5000000000001 209 Z" stroke-opacity="1" stroke-linecap="round" stroke-linejoin="round" stroke-miterlimit="10"/><path fill="rgb(77,77,255)" stroke="none" paint-order="stroke fill markers" d=" M 352.5000000000001 191 C 352.5000000000001 193.76142374915398 350.26142374915406 196 347.5000000000001 196 C 344.73857625084617 196 342.5000000000001 193.76142374915398 342.5000000000001 191 C 342.5000000000001 188.23857625084602 344.73857625084617 186 347.5000000000001 186 C 350.26142374915406 186 352.5000000000001 188.23857625084602 352.5000000000001 191 Z" fill-opacity="1"/><path fill="none" stroke="rgb(0,0,0)" paint-order="fill stroke markers" d=" M 352.5000000000001 191 C 352.5000000000001 193.76142374915398 350.26142374915406 196 347.5000000000001 196 C 344.73857625084617 196 342.5000000000001 193.76142374915398 342.5000000000001 191 C 342.5000000000001 188.23857625084602 344.73857625084617 186 347.5000000000001 186 C 350.26142374915406 186 352.5000000000001 188.23857625084602 352.5000000000001 191 Z" stroke-opacity="1" stroke-linecap="round" stroke-linejoin="round" stroke-miterlimit="10"/><path fill="rgb(77,77,255)" stroke="none" paint-order="stroke fill markers" d=" M 407.50000000000006 186 C 407.50000000000006 188.76142374915398 405.261423749154 191 402.50000000000006 191 C 399.7385762508461 191 397.50000000000006 188.76142374915398 397.50000000000006 186 C 397.50000000000006 183.23857625084602 399.7385762508461 181 402.50000000000006 181 C 405.261423749154 181 407.50000000000006 183.23857625084602 407.50000000000006 186 Z" fill-opacity="1"/><path fill="none" stroke="rgb(0,0,0)" paint-order="fill stroke markers" d=" M 407.50000000000006 186 C 407.50000000000006 188.76142374915398 405.261423749154 191 402.50000000000006 191 C 399.7385762508461 191 397.50000000000006 188.76142374915398 397.50000000000006 186 C 397.50000000000006 183.23857625084602 399.7385762508461 181 402.50000000000006 181 C 405.261423749154 181 407.50000000000006 183.23857625084602 407.50000000000006 186 Z" stroke-opacity="1" stroke-linecap="round" stroke-linejoin="round" stroke-miterlimit="10"/><path fill="rgb(77,77,255)" stroke="none" paint-order="stroke fill markers" d=" M 465.50000000000006 211 C 465.50000000000006 213.76142374915398 463.261423749154 216 460.50000000000006 216 C 457.7385762508461 216 455.50000000000006 213.76142374915398 455.50000000000006 211 C 455.50000000000006 208.23857625084602 457.7385762508461 206 460.50000000000006 206 C 463.261423749154 206 465.50000000000006 208.23857625084602 465.50000000000006 211 Z" fill-opacity="1"/><path fill="none" stroke="rgb(0,0,0)" paint-order="fill stroke markers" d=" M 465.50000000000006 211 C 465.50000000000006 213.76142374915398 463.261423749154 216 460.50000000000006 216 C 457.7385762508461 216 455.50000000000006 213.76142374915398 455.50000000000006 211 C 455.50000000000006 208.23857625084602 457.7385762508461 206 460.50000000000006 206 C 463.261423749154 206 465.50000000000006 208.23857625084602 465.50000000000006 211 Z" stroke-opacity="1" stroke-linecap="round" stroke-linejoin="round" stroke-miterlimit="10"/><path fill="rgb(77,77,255)" stroke="none" paint-order="stroke fill markers" d=" M 590.5 273 C 590.5 275.76142374915395 588.261423749154 278 585.5 278 C 582.738576250846 278 580.5 275.76142374915395 580.5 273 C 580.5 270.23857625084605 582.738576250846 268 585.5 268 C 588.261423749154 268 590.5 270.23857625084605 590.5 273 Z" fill-opacity="1"/><path fill="none" stroke="rgb(0,0,0)" paint-order="fill stroke markers" d=" M 590.5 273 C 590.5 275.76142374915395 588.261423749154 278 585.5 278 C 582.738576250846 278 580.5 275.76142374915395 580.5 273 C 580.5 270.23857625084605 582.738576250846 268 585.5 268 C 588.261423749154 268 590.5 270.23857625084605 590.5 273 Z" stroke-opacity="1" stroke-linecap="round" stroke-linejoin="round" stroke-miterlimit="10"/><path fill="rgb(77,77,255)" stroke="none" paint-order="stroke fill markers" d=" M 542.5 325 C 542.5 327.76142374915395 540.261423749154 330 537.5 330 C 534.738576250846 330 532.5 327.76142374915395 532.5 325 C 532.5 322.23857625084605 534.738576250846 320 537.5 320 C 540.261423749154 320 542.5 322.23857625084605 542.5 325 Z" fill-opacity="1"/><path fill="none" stroke="rgb(0,0,0)" paint-order="fill stroke markers" d=" M 542.5 325 C 542.5 327.76142374915395 540.261423749154 330 537.5 330 C 534.738576250846 330 532.5 327.76142374915395 532.5 325 C 532.5 322.23857625084605 534.738576250846 320 537.5 320 C 540.261423749154 320 542.5 322.23857625084605 542.5 325 Z" stroke-opacity="1" stroke-linecap="round" stroke-linejoin="round" stroke-miterlimit="10"/><path fill="rgb(77,77,255)" stroke="none" paint-order="stroke fill markers" d=" M 593.5 341 C 593.5 343.76142374915395 591.261423749154 346 588.5 346 C 585.738576250846 346 583.5 343.76142374915395 583.5 341 C 583.5 338.23857625084605 585.738576250846 336 588.5 336 C 591.261423749154 336 593.5 338.23857625084605 593.5 341 Z" fill-opacity="1"/><path fill="none" stroke="rgb(0,0,0)" paint-order="fill stroke markers" d=" M 593.5 341 C 593.5 343.76142374915395 591.261423749154 346 588.5 346 C 585.738576250846 346 583.5 343.76142374915395 583.5 341 C 583.5 338.23857625084605 585.738576250846 336 588.5 336 C 591.261423749154 336 593.5 338.23857625084605 593.5 341 Z" stroke-opacity="1" stroke-linecap="round" stroke-linejoin="round" stroke-miterlimit="10"/><path fill="rgb(77,77,255)" stroke="none" paint-order="stroke fill markers" d=" M 543.5 383 C 543.5 385.76142374915395 541.261423749154 388 538.5 388 C 535.738576250846 388 533.5 385.76142374915395 533.5 383 C 533.5 380.23857625084605 535.738576250846 378 538.5 378 C 541.261423749154 378 543.5 380.23857625084605 543.5 383 Z" fill-opacity="1"/><path fill="none" stroke="rgb(0,0,0)" paint-order="fill stroke markers" d=" M 543.5 383 C 543.5 385.76142374915395 541.261423749154 388 538.5 388 C 535.738576250846 388 533.5 385.76142374915395 533.5 383 C 533.5 380.23857625084605 535.738576250846 378 538.5 378 C 541.261423749154 378 543.5 380.23857625084605 543.5 383 Z" stroke-opacity="1" stroke-linecap="round" stroke-linejoin="round" stroke-miterlimit="10"/><path fill="rgb(77,77,255)" stroke="none" paint-order="stroke fill markers" d=" M 206.0000000000001 201 C 206.0000000000001 203.76142374915398 203.7614237491541 206 201.0000000000001 206 C 198.23857625084614 206 196.0000000000001 203.76142374915398 196.0000000000001 201 C 196.0000000000001 198.23857625084602 198.23857625084614 196 201.0000000000001 196 C 203.7614237491541 196 206.0000000000001 198.23857625084602 206.0000000000001 201 Z" fill-opacity="1"/><path fill="none" stroke="rgb(0,0,0)" paint-order="fill stroke markers" d=" M 206.0000000000001 201 C 206.0000000000001 203.76142374915398 203.7614237491541 206 201.0000000000001 206 C 198.23857625084614 206 196.0000000000001 203.76142374915398 196.0000000000001 201 C 196.0000000000001 198.23857625084602 198.23857625084614 196 201.0000000000001 196 C 203.7614237491541 196 206.0000000000001 198.23857625084602 206.0000000000001 201 Z" stroke-opacity="1" stroke-linecap="round" stroke-linejoin="round" stroke-miterlimit="10"/><g transform="scale(27,27)"><g transform="translate(7.518518518518518,8.245369814814815)"><path fill="rgb(77,77,255)" stroke="none" paint-order="stroke fill markers" d=" M 0.486 -0.381 L 0.39 0.001 Q 0.366 0.099 0.28300000000000003 0.16 Q 0.222 0.20500000000000002 0.156 0.20500000000000002 Q 0.089 0.20500000000000002 0.061 0.159 Q 0.05 0.14 0.05 0.11800000000000001 Q 0.05 0.067 0.091 0.055 Q 0.099 0.053 0.106 0.053 Q 0.138 0.053 0.14200000000000002 0.081 Q 0.14300000000000002 0.084 0.14300000000000002 0.088 Q 0.14300000000000002 0.111 0.123 0.129 Q 0.109 0.14100000000000001 0.08 0.14100000000000001 Q 0.098 0.183 0.156 0.183 Q 0.218 0.183 0.266 0.12 Q 0.305 0.068 0.328 -0.021 Q 0.329 -0.025 0.331 -0.034 Q 0.28600000000000003 0.011 0.23 0.011 Q 0.15 0.011 0.121 -0.048 Q 0.108 -0.074 0.108 -0.108 Q 0.108 -0.163 0.161 -0.305 Q 0.163 -0.311 0.166 -0.318 Q 0.183 -0.364 0.183 -0.388 Q 0.183 -0.42 0.158 -0.42 Q 0.10300000000000001 -0.42 0.068 -0.329 L 0.068 -0.328 Q 0.062 -0.313 0.057 -0.296 Q 0.046 -0.279 0.041 -0.278 Q 0.029 -0.278 0.029 -0.28800000000000003 Q 0.029 -0.306 0.05 -0.35100000000000003 Q 0.094 -0.442 0.161 -0.442 Q 0.214 -0.442 0.23500000000000001 -0.397 Q 0.243 -0.38 0.243 -0.36 Q 0.243 -0.339 0.223 -0.28800000000000003 Q 0.17200000000000001 -0.156 0.17200000000000001 -0.092 Q 0.17200000000000001 -0.011 0.234 -0.011 Q 0.292 -0.011 0.335 -0.073 Q 0.34500000000000003 -0.088 0.34700000000000003 -0.096 L 0.392 -0.276 Q 0.399 -0.309 0.41200000000000003 -0.356 Q 0.422 -0.399 0.426 -0.41000000000000003 Q 0.439 -0.431 0.461 -0.431 Q 0.486 -0.426 0.49 -0.404 Q 0.49 -0.395 0.486 -0.381 Z"/></g></g><path fill="rgb(77,77,255)" stroke="none" paint-order="stroke fill markers" d=" M 247.5000000000001 203 C 247.5000000000001 205.76142374915398 245.2614237491541 208 242.5000000000001 208 C 239.73857625084614 208 237.5000000000001 205.76142374915398 237.5000000000001 203 C 237.5000000000001 200.23857625084602 239.73857625084614 198 242.5000000000001 198 C 245.2614237491541 198 247.5000000000001 200.23857625084602 247.5000000000001 203 Z" fill-opacity="1"/><path fill="none" stroke="rgb(0,0,0)" paint-order="fill stroke markers" d=" M 247.5000000000001 203 C 247.5000000000001 205.76142374915398 245.2614237491541 208 242.5000000000001 208 C 239.73857625084614 208 237.5000000000001 205.76142374915398 237.5000000000001 203 C 237.5000000000001 200.23857625084602 239.73857625084614 198 242.5000000000001 198 C 245.2614237491541 198 247.5000000000001 200.23857625084602 247.5000000000001 203 Z" stroke-opacity="1" stroke-linecap="round" stroke-linejoin="round" stroke-miterlimit="10"/><path fill="rgb(77,77,255)" stroke="none" paint-order="stroke fill markers" d=" M 257.5000000000001 162 C 257.5000000000001 164.76142374915398 255.26142374915412 167 252.50000000000014 167 C 249.73857625084617 167 247.50000000000014 164.76142374915398 247.50000000000014 162 C 247.50000000000014 159.23857625084602 249.73857625084617 157 252.50000000000014 157 C 255.26142374915412 157 257.5000000000001 159.23857625084602 257.5000000000001 162 Z" fill-opacity="1"/><path fill="none" stroke="rgb(0,0,0)" paint-order="fill stroke markers" d=" M 257.5000000000001 162 C 257.5000000000001 164.76142374915398 255.26142374915412 167 252.50000000000014 167 C 249.73857625084617 167 247.50000000000014 164.76142374915398 247.50000000000014 162 C 247.50000000000014 159.23857625084602 249.73857625084617 157 252.50000000000014 157 C 255.26142374915412 157 257.5000000000001 159.23857625084602 257.5000000000001 162 Z" stroke-opacity="1" stroke-linecap="round" stroke-linejoin="round" stroke-miterlimit="10"/><path fill="rgb(77,77,255)" stroke="none" paint-order="stroke fill markers" d=" M 185.5000000000001 45 C 185.5000000000001 47.76142374915396 183.2614237491541 50 180.5000000000001 50 C 177.73857625084614 50 175.5000000000001 47.76142374915396 175.5000000000001 45 C 175.5000000000001 42.23857625084603 177.73857625084614 40 180.5000000000001 40 C 183.2614237491541 40 185.5000000000001 42.23857625084603 185.5000000000001 45 Z" fill-opacity="1"/><path fill="none" stroke="rgb(0,0,0)" paint-order="fill stroke markers" d=" M 185.5000000000001 45 C 185.5000000000001 47.76142374915396 183.2614237491541 50 180.5000000000001 50 C 177.73857625084614 50 175.5000000000001 47.76142374915396 175.5000000000001 45 C 175.5000000000001 42.23857625084603 177.73857625084614 40 180.5000000000001 40 C 183.2614237491541 40 185.5000000000001 42.23857625084603 185.5000000000001 45 Z" stroke-opacity="1" stroke-linecap="round" stroke-linejoin="round" stroke-miterlimit="10"/><g transform="scale(27,27)"><g transform="translate(6.333333333333333,0.9861105555555556)"><path fill="rgb(77,77,255)" stroke="none" paint-order="stroke fill markers" d=" M 0.334 -0.302 L 0.3 -0.165 Q 0.28300000000000003 -0.097 0.28300000000000003 -0.077 Q 0.28300000000000003 -0.025 0.32 -0.014 Q 0.328 -0.011 0.338 -0.011 Q 0.388 -0.011 0.429 -0.061 Q 0.456 -0.093 0.47100000000000003 -0.14200000000000002 Q 0.47400000000000003 -0.153 0.484 -0.153 Q 0.496 -0.153 0.496 -0.14300000000000002 Q 0.496 -0.11800000000000001 0.465 -0.07100000000000001 Q 0.41100000000000003 0.011 0.336 0.011 Q 0.268 0.011 0.23700000000000002 -0.046 Q 0.231 -0.055 0.228 -0.065 Q 0.20400000000000001 -0.017 0.162 0.002 Q 0.14300000000000002 0.011 0.123 0.011 Q 0.063 0.011 0.039 -0.024 Q 0.029 -0.037 0.029 -0.055 Q 0.029 -0.092 0.061 -0.107 Q 0.07200000000000001 -0.113 0.084 -0.113 Q 0.114 -0.113 0.12 -0.088 Q 0.121 -0.083 0.121 -0.078 Q 0.121 -0.044 0.08700000000000001 -0.028 Q 0.081 -0.025 0.074 -0.024 Q 0.095 -0.011 0.124 -0.011 Q 0.177 -0.011 0.20800000000000002 -0.082 Q 0.214 -0.097 0.219 -0.115 Q 0.273 -0.319 0.273 -0.353 Q 0.267 -0.41500000000000004 0.219 -0.42 Q 0.167 -0.42 0.124 -0.367 L 0.124 -0.366 Q 0.124 -0.365 0.123 -0.365 Q 0.108 -0.34500000000000003 0.096 -0.319 Q 0.091 -0.307 0.08700000000000001 -0.295 L 0.085 -0.289 Q 0.083 -0.278 0.07200000000000001 -0.278 Q 0.06 -0.278 0.06 -0.28800000000000003 Q 0.06 -0.313 0.092 -0.36 Q 0.146 -0.442 0.221 -0.442 Q 0.298 -0.442 0.329 -0.366 Q 0.361 -0.428 0.41400000000000003 -0.44 Q 0.424 -0.442 0.434 -0.442 Q 0.493 -0.442 0.517 -0.40900000000000003 Q 0.527 -0.395 0.527 -0.376 Q 0.527 -0.335 0.49 -0.321 Q 0.481 -0.318 0.47300000000000003 -0.318 Q 0.442 -0.318 0.436 -0.34500000000000003 Q 0.435 -0.34900000000000003 0.435 -0.353 Q 0.435 -0.383 0.464 -0.4 Q 0.47300000000000003 -0.405 0.483 -0.40700000000000003 Q 0.462 -0.42 0.433 -0.42 Q 0.365 -0.42 0.337 -0.314 Q 0.335 -0.308 0.334 -0.302 Z"/></g></g></g></g></svg>