<svg version="1.1" xmlns="http://www.w3.org/2000/svg" xmlns:xlink="http://www.w3.org/1999/xlink" width="1366" height="562"><defs><clipPath id="zOLUQzNAuCwO"><path fill="none" stroke="none" d=" M 0 0 L 1366 0 L 1366 562 L 0 562 L 0 0 Z"/></clipPath></defs><g transform="scale(1,1)" clip-path="url(#zOLUQzNAuCwO)"><g><rect fill="rgb(255,255,255)" stroke="none" x="0" y="0" width="1366" height="562" fill-opacity="1"/><path fill="none" stroke="rgb(0,0,0)" paint-order="fill stroke markers" d=" M 419.4500000000001 185.7 L 438.1500000000001 249.5 L 489.85000000000014 283.59999999999997 L 552.5500000000001 233 L 553.6500000000001 153.79999999999998 L 621.85 213.2 L 682.35 207.7 L 699.95 165.89999999999998 L 746.15 235.2 L 895.2 217.6 L 883.65 303.4 L 830.85 360.59999999999997 L 886.95 378.2 L 831.95 424.4 L 995.8499999999999 510.2" stroke-opacity="0.6980392156862745" stroke-linecap="round" stroke-linejoin="round" stroke-miterlimit="10" stroke-width="2.5"/><path fill="none" stroke="rgb(0,0,0)" paint-order="fill stroke markers" d=" M 419.4500000000001 185.7 L 460.7000000000001 224.2 L 506.3500000000001 226.39999999999998 L 517.3500000000001 181.29999999999998 L 438.1500000000001 52.60000000000002" stroke-opacity="0.6980392156862745" stroke-linecap="round" stroke-linejoin="round" stroke-miterlimit="10" stroke-width="2.5"/><path fill="none" stroke="rgb(153,51,0)" paint-order="fill stroke markers" d=" M 350.15000000000015 503.6 L 995.8499999999999 510.2" stroke-opacity="0.6980392156862745" stroke-linecap="round" stroke-linejoin="round" stroke-miterlimit="10" stroke-width="2.5"/><path fill="none" stroke="rgb(153,51,0)" paint-order="fill stroke markers" d=" M 995.8499999999999 510.2 L 895.2 217.6" stroke-opacity="0.6980392156862745" stroke-linecap="round" stroke-linejoin="round" stroke-miterlimit="10" stroke-width="2.5"/><path fill="none" stroke="rgb(153,51,0)" paint-order="fill stroke markers" d=" M 895.2 217.6 L 699.95 165.89999999999998" stroke-opacity="0.6980392156862745" stroke-linecap="round" stroke-linejoin="round" stroke-miterlimit="10" stroke-width="2.5"/><path fill="none" stroke="rgb(153,51,0)" paint-order="fill stroke markers" d=" M 699.95 165.89999999999998 L 553.6500000000001 153.79999999999998" stroke-opacity="0.6980392156862745" stroke-linecap="round" stroke-linejoin="round" stroke-miterlimit="10" stroke-width="2.5"/><path fill="none" stroke="rgb(153,51,0)" paint-order="fill stroke markers" d=" M 553.6500000000001 153.79999999999998 L 419.4500000000001 185.7" stroke-opacity="0.6980392156862745" stroke-linecap="round" stroke-linejoin="round" stroke-miterlimit="10" stroke-width="2.5"/><path fill="none" stroke="rgb(153,51,0)" paint-order="fill stroke markers" d=" M 419.4500000000001 185.7 L 350.15000000000015 503.6" stroke-opacity="0.6980392156862745" stroke-linecap="round" stroke-linejoin="round" stroke-miterlimit="10" stroke-width="2.5"/><path fill="none" stroke="rgb(0,100,0)" paint-order="fill stroke markers" d=" M 438.1500000000001 52.60000000000002 L 895.2 217.6" stroke-opacity="0.6980392156862745" stroke-linecap="round" stroke-linejoin="round" stroke-miterlimit="10" stroke-width="2.5"/><path fill="rgb(77,77,255)" stroke="none" paint-order="stroke fill markers" d=" M 355.15000000000015 503.6 C 355.15000000000015 506.36142374915397 352.9114237491541 508.6 350.15000000000015 508.6 C 347.3885762508462 508.6 345.15000000000015 506.36142374915397 345.15000000000015 503.6 C 345.15000000000015 500.8385762508461 347.3885762508462 498.6 350.15000000000015 498.6 C 352.9114237491541 498.6 355.15000000000015 500.8385762508461 355.15000000000015 503.6 Z" fill-opacity="1"/><path fill="none" stroke="rgb(0,0,0)" paint-order="fill stroke markers" d=" M 355.15000000000015 503.6 C 355.15000000000015 506.36142374915397 352.9114237491541 508.6 350.15000000000015 508.6 C 347.3885762508462 508.6 345.15000000000015 506.36142374915397 345.15000000000015 503.6 C 345.15000000000015 500.8385762508461 347.3885762508462 498.6 350.15000000000015 498.6 C 352.9114237491541 498.6 355.15000000000015 500.8385762508461 355.15000000000015 503.6 Z" stroke-opacity="1" stroke-linecap="round" stroke-linejoin="round" stroke-miterlimit="10"/><g transform="scale(27,27)"><g transform="translate(11.851851851851851,17.541666111111113)"><path fill="rgb(77,77,255)" stroke="none" paint-order="stroke fill markers" d=" M 0.452 -0.431 L 0.314 0.125 Q 0.31 0.14300000000000002 0.31 0.147 Q 0.31 0.158 0.323 0.161 L 0.323 0.161 Q 0.334 0.163 0.358 0.163 Q 0.382 0.163 0.384 0.17400000000000002 Q 0.384 0.194 0.366 0.194 L 0.264 0.191 L 0.263 0.191 L 0.164 0.194 L 0.163 0.194 Q 0.15 0.194 0.15 0.183 Q 0.158 0.164 0.17300000000000001 0.163 Q 0.225 0.162 0.23600000000000002 0.15 Q 0.241 0.14400000000000002 0.245 0.13 L 0.29 -0.049 Q 0.23 0.011 0.17200000000000001 0.011 Q 0.10200000000000001 0.011 0.065 -0.052000000000000005 Q 0.04 -0.093 0.04 -0.149 Q 0.04 -0.256 0.115 -0.34800000000000003 Q 0.184 -0.433 0.267 -0.441 Q 0.274 -0.442 0.281 -0.442 Q 0.34500000000000003 -0.442 0.374 -0.372 Q 0.395 -0.40800000000000003 0.428 -0.434 L 0.43 -0.435 Q 0.438 -0.441 0.442 -0.441 Q 0.452 -0.441 0.452 -0.431 M 0.17500000000000002 -0.011 Q 0.228 -0.011 0.28300000000000003 -0.076 Q 0.295 -0.091 0.302 -0.10300000000000001 Q 0.308 -0.111 0.356 -0.312 Q 0.36 -0.33 0.36 -0.332 Q 0.36 -0.354 0.342 -0.383 Q 0.32 -0.42 0.281 -0.42 Q 0.232 -0.42 0.188 -0.359 Q 0.17 -0.334 0.157 -0.304 Q 0.129 -0.234 0.115 -0.14300000000000002 Q 0.111 -0.12 0.111 -0.105 Q 0.111 -0.04 0.146 -0.019 L 0.147 -0.018000000000000002 Q 0.159 -0.011 0.17500000000000002 -0.011 Z"/></g><g transform="translate(12.298265851851852,17.69166611111111) scale(0.7,0.7)"><path fill="rgb(77,77,255)" stroke="none" paint-order="stroke fill markers" d=" M 0.46 -0.32 Q 0.46 -0.17400000000000002 0.423 -0.094 Q 0.364 0.018000000000000002 0.249 0.022 Q 0.158 0.022 0.10300000000000001 -0.05 Q 0.092 -0.063 0.084 -0.079 Q 0.039 -0.162 0.039 -0.32 Q 0.039 -0.467 0.076 -0.547 Q 0.126 -0.659 0.23800000000000002 -0.666 L 0.25 -0.666 Q 0.339 -0.666 0.395 -0.595 L 0.395 -0.594 Q 0.40900000000000003 -0.5760000000000001 0.42 -0.554 Q 0.46 -0.46900000000000003 0.46 -0.32 M 0.249 0 L 0.249 0 Q 0.312 0 0.34600000000000003 -0.061 Q 0.36 -0.088 0.366 -0.125 Q 0.377 -0.189 0.377 -0.332 Q 0.377 -0.47100000000000003 0.367 -0.527 Q 0.34900000000000003 -0.622 0.275 -0.641 Q 0.262 -0.644 0.249 -0.644 Q 0.179 -0.644 0.147 -0.5740000000000001 Q 0.136 -0.55 0.13 -0.516 Q 0.122 -0.462 0.122 -0.332 Q 0.122 -0.181 0.133 -0.121 Q 0.151 -0.025 0.221 -0.004 Q 0.23500000000000001 0 0.249 0 Z"/></g></g><path fill="rgb(77,77,255)" stroke="none" paint-order="stroke fill markers" d=" M 1000.8499999999999 510.2 C 1000.8499999999999 512.9614237491539 998.6114237491539 515.2 995.8499999999999 515.2 C 993.0885762508459 515.2 990.8499999999999 512.9614237491539 990.8499999999999 510.2 C 990.8499999999999 507.43857625084604 993.0885762508459 505.2 995.8499999999999 505.2 C 998.6114237491539 505.2 1000.8499999999999 507.43857625084604 1000.8499999999999 510.2 Z" fill-opacity="1"/><path fill="none" stroke="rgb(0,0,0)" paint-order="fill stroke markers" d=" M 1000.8499999999999 510.2 C 1000.8499999999999 512.9614237491539 998.6114237491539 515.2 995.8499999999999 515.2 C 993.0885762508459 515.2 990.8499999999999 512.9614237491539 990.8499999999999 510.2 C 990.8499999999999 507.43857625084604 993.0885762508459 505.2 995.8499999999999 505.2 C 998.6114237491539 505.2 1000.8499999999999 507.43857625084604 1000.8499999999999 510.2 Z" stroke-opacity="1" stroke-linecap="round" stroke-linejoin="round" stroke-miterlimit="10"/><g transform="scale(27,27)"><g transform="translate(37.22222222222222,17.87499944444444)"><path fill="rgb(77,77,255)" stroke="none" paint-order="stroke fill markers" d=" M 0.452 -0.431 L 0.314 0.125 Q 0.31 0.14300000000000002 0.31 0.147 Q 0.31 0.158 0.323 0.161 L 0.323 0.161 Q 0.334 0.163 0.358 0.163 Q 0.382 0.163 0.384 0.17400000000000002 Q 0.384 0.194 0.366 0.194 L 0.264 0.191 L 0.263 0.191 L 0.164 0.194 L 0.163 0.194 Q 0.15 0.194 0.15 0.183 Q 0.158 0.164 0.17300000000000001 0.163 Q 0.225 0.162 0.23600000000000002 0.15 Q 0.241 0.14400000000000002 0.245 0.13 L 0.29 -0.049 Q 0.23 0.011 0.17200000000000001 0.011 Q 0.10200000000000001 0.011 0.065 -0.052000000000000005 Q 0.04 -0.093 0.04 -0.149 Q 0.04 -0.256 0.115 -0.34800000000000003 Q 0.184 -0.433 0.267 -0.441 Q 0.274 -0.442 0.281 -0.442 Q 0.34500000000000003 -0.442 0.374 -0.372 Q 0.395 -0.40800000000000003 0.428 -0.434 L 0.43 -0.435 Q 0.438 -0.441 0.442 -0.441 Q 0.452 -0.441 0.452 -0.431 M 0.17500000000000002 -0.011 Q 0.228 -0.011 0.28300000000000003 -0.076 Q 0.295 -0.091 0.302 -0.10300000000000001 Q 0.308 -0.111 0.356 -0.312 Q 0.36 -0.33 0.36 -0.332 Q 0.36 -0.354 0.342 -0.383 Q 0.32 -0.42 0.281 -0.42 Q 0.232 -0.42 0.188 -0.359 Q 0.17 -0.334 0.157 -0.304 Q 0.129 -0.234 0.115 -0.14300000000000002 Q 0.111 -0.12 0.111 -0.105 Q 0.111 -0.04 0.146 -0.019 L 0.147 -0.018000000000000002 Q 0.159 -0.011 0.17500000000000002 -0.011 Z"/></g><g transform="translate(37.66863622222222,18.02499944444444) scale(0.7,0.7)"><path fill="rgb(77,77,255)" stroke="none" paint-order="stroke fill markers" d=" M 0.294 -0.64 L 0.294 -0.079 Q 0.294 -0.049 0.306 -0.041 Q 0.323 -0.031 0.387 -0.031 L 0.419 -0.031 L 0.419 0 Q 0.384 -0.003 0.257 -0.003 Q 0.13 -0.003 0.095 0 L 0.095 -0.031 L 0.127 -0.031 Q 0.20400000000000001 -0.031 0.215 -0.049 L 0.216 -0.05 Q 0.22 -0.058 0.22 -0.079 L 0.22 -0.597 Q 0.168 -0.5710000000000001 0.089 -0.5710000000000001 L 0.089 -0.602 Q 0.209 -0.602 0.271 -0.666 Q 0.29 -0.666 0.293 -0.659 L 0.293 -0.659 L 0.293 -0.658 Q 0.294 -0.655 0.294 -0.64 Z"/></g></g><path fill="rgb(77,77,255)" stroke="none" paint-order="stroke fill markers" d=" M 900.2 217.6 C 900.2 220.36142374915397 897.961423749154 222.6 895.2 222.6 C 892.438576250846 222.6 890.2 220.36142374915397 890.2 217.6 C 890.2 214.83857625084602 892.438576250846 212.6 895.2 212.6 C 897.961423749154 212.6 900.2 214.83857625084602 900.2 217.6 Z" fill-opacity="1"/><path fill="none" stroke="rgb(0,0,0)" paint-order="fill stroke markers" d=" M 900.2 217.6 C 900.2 220.36142374915397 897.961423749154 222.6 895.2 222.6 C 892.438576250846 222.6 890.2 220.36142374915397 890.2 217.6 C 890.2 214.83857625084602 892.438576250846 212.6 895.2 212.6 C 897.961423749154 212.6 900.2 214.83857625084602 900.2 217.6 Z" stroke-opacity="1" stroke-linecap="round" stroke-linejoin="round" stroke-miterlimit="10"/><g transform="scale(27,27)"><g transform="translate(33.48148148148148,7.06018462962963)"><path fill="rgb(77,77,255)" stroke="none" paint-order="stroke fill markers" d=" M 0.452 -0.431 L 0.314 0.125 Q 0.31 0.14300000000000002 0.31 0.147 Q 0.31 0.158 0.323 0.161 L 0.323 0.161 Q 0.334 0.163 0.358 0.163 Q 0.382 0.163 0.384 0.17400000000000002 Q 0.384 0.194 0.366 0.194 L 0.264 0.191 L 0.263 0.191 L 0.164 0.194 L 0.163 0.194 Q 0.15 0.194 0.15 0.183 Q 0.158 0.164 0.17300000000000001 0.163 Q 0.225 0.162 0.23600000000000002 0.15 Q 0.241 0.14400000000000002 0.245 0.13 L 0.29 -0.049 Q 0.23 0.011 0.17200000000000001 0.011 Q 0.10200000000000001 0.011 0.065 -0.052000000000000005 Q 0.04 -0.093 0.04 -0.149 Q 0.04 -0.256 0.115 -0.34800000000000003 Q 0.184 -0.433 0.267 -0.441 Q 0.274 -0.442 0.281 -0.442 Q 0.34500000000000003 -0.442 0.374 -0.372 Q 0.395 -0.40800000000000003 0.428 -0.434 L 0.43 -0.435 Q 0.438 -0.441 0.442 -0.441 Q 0.452 -0.441 0.452 -0.431 M 0.17500000000000002 -0.011 Q 0.228 -0.011 0.28300000000000003 -0.076 Q 0.295 -0.091 0.302 -0.10300000000000001 Q 0.308 -0.111 0.356 -0.312 Q 0.36 -0.33 0.36 -0.332 Q 0.36 -0.354 0.342 -0.383 Q 0.32 -0.42 0.281 -0.42 Q 0.232 -0.42 0.188 -0.359 Q 0.17 -0.334 0.157 -0.304 Q 0.129 -0.234 0.115 -0.14300000000000002 Q 0.111 -0.12 0.111 -0.105 Q 0.111 -0.04 0.146 -0.019 L 0.147 -0.018000000000000002 Q 0.159 -0.011 0.17500000000000002 -0.011 Z"/></g><g transform="translate(33.92789548148148,7.21018462962963) scale(0.7,0.7)"><path fill="rgb(77,77,255)" stroke="none" paint-order="stroke fill markers" d=" M 0.28400000000000003 -0.625 Q 0.28400000000000003 -0.594 0.253 -0.578 Q 0.242 -0.5720000000000001 0.231 -0.5720000000000001 Q 0.201 -0.5720000000000001 0.194 -0.599 Q 0.193 -0.604 0.193 -0.608 Q 0.193 -0.636 0.221 -0.653 Q 0.234 -0.661 0.247 -0.661 Q 0.277 -0.661 0.28300000000000003 -0.634 L 0.28300000000000003 -0.633 Q 0.28400000000000003 -0.629 0.28400000000000003 -0.625 M 0.20800000000000002 -0.249 L 0.169 -0.14400000000000002 Q 0.14100000000000001 -0.063 0.14 -0.044 Q 0.14 -0.011 0.164 -0.011 Q 0.227 -0.011 0.262 -0.123 L 0.266 -0.135 Q 0.271 -0.151 0.276 -0.152 L 0.276 -0.153 L 0.281 -0.153 Q 0.293 -0.153 0.293 -0.14300000000000002 Q 0.293 -0.125 0.271 -0.079 Q 0.228 0.011 0.162 0.011 Q 0.109 0.011 0.088 -0.033 Q 0.08 -0.051000000000000004 0.08 -0.07100000000000001 Q 0.08 -0.091 0.10300000000000001 -0.151 Q 0.17300000000000001 -0.339 0.17200000000000001 -0.336 Q 0.183 -0.364 0.183 -0.388 Q 0.183 -0.42 0.158 -0.42 Q 0.10300000000000001 -0.42 0.068 -0.329 L 0.068 -0.328 Q 0.062 -0.313 0.057 -0.296 Q 0.046 -0.279 0.041 -0.278 Q 0.029 -0.278 0.029 -0.28800000000000003 Q 0.029 -0.306 0.051000000000000004 -0.35100000000000003 Q 0.094 -0.442 0.161 -0.442 Q 0.214 -0.442 0.23500000000000001 -0.397 Q 0.243 -0.38 0.243 -0.36 Q 0.243 -0.34 0.23 -0.307 Q 0.213 -0.261 0.20800000000000002 -0.249 Z"/></g></g><path fill="rgb(77,77,255)" stroke="none" paint-order="stroke fill markers" d=" M 704.95 165.89999999999998 C 704.95 168.66142374915395 702.711423749154 170.89999999999998 699.95 170.89999999999998 C 697.188576250846 170.89999999999998 694.95 168.66142374915395 694.95 165.89999999999998 C 694.95 163.138576250846 697.188576250846 160.89999999999998 699.95 160.89999999999998 C 702.711423749154 160.89999999999998 704.95 163.138576250846 704.95 165.89999999999998 Z" fill-opacity="1"/><path fill="none" stroke="rgb(0,0,0)" paint-order="fill stroke markers" d=" M 704.95 165.89999999999998 C 704.95 168.66142374915395 702.711423749154 170.89999999999998 699.95 170.89999999999998 C 697.188576250846 170.89999999999998 694.95 168.66142374915395 694.95 165.89999999999998 C 694.95 163.138576250846 697.188576250846 160.89999999999998 699.95 160.89999999999998 C 702.711423749154 160.89999999999998 704.95 163.138576250846 704.95 165.89999999999998 Z" stroke-opacity="1" stroke-linecap="round" stroke-linejoin="round" stroke-miterlimit="10"/><path fill="rgb(77,77,255)" stroke="none" paint-order="stroke fill markers" d=" M 558.6500000000001 153.79999999999998 C 558.6500000000001 156.56142374915396 556.4114237491541 158.79999999999998 553.6500000000001 158.79999999999998 C 550.8885762508461 158.79999999999998 548.6500000000001 156.56142374915396 548.6500000000001 153.79999999999998 C 548.6500000000001 151.038576250846 550.8885762508461 148.79999999999998 553.6500000000001 148.79999999999998 C 556.4114237491541 148.79999999999998 558.6500000000001 151.038576250846 558.6500000000001 153.79999999999998 Z" fill-opacity="1"/><path fill="none" stroke="rgb(0,0,0)" paint-order="fill stroke markers" d=" M 558.6500000000001 153.79999999999998 C 558.6500000000001 156.56142374915396 556.4114237491541 158.79999999999998 553.6500000000001 158.79999999999998 C 550.8885762508461 158.79999999999998 548.6500000000001 156.56142374915396 548.6500000000001 153.79999999999998 C 548.6500000000001 151.038576250846 550.8885762508461 148.79999999999998 553.6500000000001 148.79999999999998 C 556.4114237491541 148.79999999999998 558.6500000000001 151.038576250846 558.6500000000001 153.79999999999998 Z" stroke-opacity="1" stroke-linecap="round" stroke-linejoin="round" stroke-miterlimit="10"/><g transform="scale(27,27)"><g transform="translate(20.185185185185187,5.06018462962963)"><path fill="rgb(77,77,255)" stroke="none" paint-order="stroke fill markers" d=" M 0.452 -0.431 L 0.314 0.125 Q 0.31 0.14300000000000002 0.31 0.147 Q 0.31 0.158 0.323 0.161 L 0.323 0.161 Q 0.334 0.163 0.358 0.163 Q 0.382 0.163 0.384 0.17400000000000002 Q 0.384 0.194 0.366 0.194 L 0.264 0.191 L 0.263 0.191 L 0.164 0.194 L 0.163 0.194 Q 0.15 0.194 0.15 0.183 Q 0.158 0.164 0.17300000000000001 0.163 Q 0.225 0.162 0.23600000000000002 0.15 Q 0.241 0.14400000000000002 0.245 0.13 L 0.29 -0.049 Q 0.23 0.011 0.17200000000000001 0.011 Q 0.10200000000000001 0.011 0.065 -0.052000000000000005 Q 0.04 -0.093 0.04 -0.149 Q 0.04 -0.256 0.115 -0.34800000000000003 Q 0.184 -0.433 0.267 -0.441 Q 0.274 -0.442 0.281 -0.442 Q 0.34500000000000003 -0.442 0.374 -0.372 Q 0.395 -0.40800000000000003 0.428 -0.434 L 0.43 -0.435 Q 0.438 -0.441 0.442 -0.441 Q 0.452 -0.441 0.452 -0.431 M 0.17500000000000002 -0.011 Q 0.228 -0.011 0.28300000000000003 -0.076 Q 0.295 -0.091 0.302 -0.10300000000000001 Q 0.308 -0.111 0.356 -0.312 Q 0.36 -0.33 0.36 -0.332 Q 0.36 -0.354 0.342 -0.383 Q 0.32 -0.42 0.281 -0.42 Q 0.232 -0.42 0.188 -0.359 Q 0.17 -0.334 0.157 -0.304 Q 0.129 -0.234 0.115 -0.14300000000000002 Q 0.111 -0.12 0.111 -0.105 Q 0.111 -0.04 0.146 -0.019 L 0.147 -0.018000000000000002 Q 0.159 -0.011 0.17500000000000002 -0.011 Z"/></g><g transform="translate(20.631599185185188,5.21018462962963) scale(0.7,0.7)"><path fill="rgb(77,77,255)" stroke="none" paint-order="stroke fill markers" d=" M 0.20600000000000002 -0.4 L 0.132 -0.105 Q 0.126 -0.08 0.126 -0.057 Q 0.126 -0.011 0.157 -0.011 Q 0.223 -0.011 0.273 -0.108 L 0.28700000000000003 -0.139 Q 0.293 -0.152 0.302 -0.153 Q 0.314 -0.153 0.314 -0.14300000000000002 Q 0.314 -0.13 0.28800000000000003 -0.08600000000000001 Q 0.23 0.011 0.155 0.011 Q 0.097 0.011 0.073 -0.037 Q 0.063 -0.057 0.063 -0.081 Q 0.063 -0.1 0.124 -0.34 L 0.139 -0.4 L 0.051000000000000004 -0.4 Q 0.026000000000000002 -0.4 0.024 -0.40800000000000003 L 0.023 -0.40800000000000003 L 0.023 -0.41200000000000003 Q 0.023 -0.429 0.039 -0.431 L 0.053 -0.431 L 0.147 -0.431 L 0.186 -0.59 Q 0.195 -0.625 0.226 -0.626 Q 0.252 -0.626 0.255 -0.599 Q 0.255 -0.593 0.214 -0.431 L 0.302 -0.431 Q 0.328 -0.431 0.33 -0.42 Q 0.33 -0.402 0.314 -0.4 L 0.313 -0.4 L 0.3 -0.4 L 0.20600000000000002 -0.4 Z"/></g><g transform="translate(20.88437828518519,5.21018462962963) scale(0.7,0.7)"><path fill="rgb(77,77,255)" stroke="none" paint-order="stroke fill markers" d=" M 0.661 -0.23 L 0.116 -0.23 Q 0.084 -0.23 0.083 -0.25 Q 0.083 -0.27 0.116 -0.27 L 0.661 -0.27 Q 0.6930000000000001 -0.27 0.6940000000000001 -0.25 Q 0.6940000000000001 -0.23 0.661 -0.23 Z"/></g><g transform="translate(21.428824985185187,5.21018462962963) scale(0.7,0.7)"><path fill="rgb(77,77,255)" stroke="none" paint-order="stroke fill markers" d=" M 0.294 -0.64 L 0.294 -0.079 Q 0.294 -0.049 0.306 -0.041 Q 0.323 -0.031 0.387 -0.031 L 0.419 -0.031 L 0.419 0 Q 0.384 -0.003 0.257 -0.003 Q 0.13 -0.003 0.095 0 L 0.095 -0.031 L 0.127 -0.031 Q 0.20400000000000001 -0.031 0.215 -0.049 L 0.216 -0.05 Q 0.22 -0.058 0.22 -0.079 L 0.22 -0.597 Q 0.168 -0.5710000000000001 0.089 -0.5710000000000001 L 0.089 -0.602 Q 0.209 -0.602 0.271 -0.666 Q 0.29 -0.666 0.293 -0.659 L 0.293 -0.659 L 0.293 -0.658 Q 0.294 -0.655 0.294 -0.64 Z"/></g></g><path fill="rgb(77,77,255)" stroke="none" paint-order="stroke fill markers" d=" M 424.4500000000001 185.7 C 424.4500000000001 188.46142374915397 422.21142374915405 190.7 419.4500000000001 190.7 C 416.68857625084615 190.7 414.4500000000001 188.46142374915397 414.4500000000001 185.7 C 414.4500000000001 182.938576250846 416.68857625084615 180.7 419.4500000000001 180.7 C 422.21142374915405 180.7 424.4500000000001 182.938576250846 424.4500000000001 185.7 Z" fill-opacity="1"/><path fill="none" stroke="rgb(0,0,0)" paint-order="fill stroke markers" d=" M 424.4500000000001 185.7 C 424.4500000000001 188.46142374915397 422.21142374915405 190.7 419.4500000000001 190.7 C 416.68857625084615 190.7 414.4500000000001 188.46142374915397 414.4500000000001 185.7 C 414.4500000000001 182.938576250846 416.68857625084615 180.7 419.4500000000001 180.7 C 422.21142374915405 180.7 424.4500000000001 182.938576250846 424.4500000000001 185.7 Z" stroke-opacity="1" stroke-linecap="round" stroke-linejoin="round" stroke-miterlimit="10"/><g transform="scale(27,27)"><g transform="translate(14.444444444444445,6.874999444444445)"><path fill="rgb(77,77,255)" stroke="none" paint-order="stroke fill markers" d=" M 0.452 -0.431 L 0.314 0.125 Q 0.31 0.14300000000000002 0.31 0.147 Q 0.31 0.158 0.323 0.161 L 0.323 0.161 Q 0.334 0.163 0.358 0.163 Q 0.382 0.163 0.384 0.17400000000000002 Q 0.384 0.194 0.366 0.194 L 0.264 0.191 L 0.263 0.191 L 0.164 0.194 L 0.163 0.194 Q 0.15 0.194 0.15 0.183 Q 0.158 0.164 0.17300000000000001 0.163 Q 0.225 0.162 0.23600000000000002 0.15 Q 0.241 0.14400000000000002 0.245 0.13 L 0.29 -0.049 Q 0.23 0.011 0.17200000000000001 0.011 Q 0.10200000000000001 0.011 0.065 -0.052000000000000005 Q 0.04 -0.093 0.04 -0.149 Q 0.04 -0.256 0.115 -0.34800000000000003 Q 0.184 -0.433 0.267 -0.441 Q 0.274 -0.442 0.281 -0.442 Q 0.34500000000000003 -0.442 0.374 -0.372 Q 0.395 -0.40800000000000003 0.428 -0.434 L 0.43 -0.435 Q 0.438 -0.441 0.442 -0.441 Q 0.452 -0.441 0.452 -0.431 M 0.17500000000000002 -0.011 Q 0.228 -0.011 0.28300000000000003 -0.076 Q 0.295 -0.091 0.302 -0.10300000000000001 Q 0.308 -0.111 0.356 -0.312 Q 0.36 -0.33 0.36 -0.332 Q 0.36 -0.354 0.342 -0.383 Q 0.32 -0.42 0.281 -0.42 Q 0.232 -0.42 0.188 -0.359 Q 0.17 -0.334 0.157 -0.304 Q 0.129 -0.234 0.115 -0.14300000000000002 Q 0.111 -0.12 0.111 -0.105 Q 0.111 -0.04 0.146 -0.019 L 0.147 -0.018000000000000002 Q 0.159 -0.011 0.17500000000000002 -0.011 Z"/></g><g transform="translate(14.890858444444445,7.024999444444445) scale(0.7,0.7)"><path fill="rgb(77,77,255)" stroke="none" paint-order="stroke fill markers" d=" M 0.20600000000000002 -0.4 L 0.132 -0.105 Q 0.126 -0.08 0.126 -0.057 Q 0.126 -0.011 0.157 -0.011 Q 0.223 -0.011 0.273 -0.108 L 0.28700000000000003 -0.139 Q 0.293 -0.152 0.302 -0.153 Q 0.314 -0.153 0.314 -0.14300000000000002 Q 0.314 -0.13 0.28800000000000003 -0.08600000000000001 Q 0.23 0.011 0.155 0.011 Q 0.097 0.011 0.073 -0.037 Q 0.063 -0.057 0.063 -0.081 Q 0.063 -0.1 0.124 -0.34 L 0.139 -0.4 L 0.051000000000000004 -0.4 Q 0.026000000000000002 -0.4 0.024 -0.40800000000000003 L 0.023 -0.40800000000000003 L 0.023 -0.41200000000000003 Q 0.023 -0.429 0.039 -0.431 L 0.053 -0.431 L 0.147 -0.431 L 0.186 -0.59 Q 0.195 -0.625 0.226 -0.626 Q 0.252 -0.626 0.255 -0.599 Q 0.255 -0.593 0.214 -0.431 L 0.302 -0.431 Q 0.328 -0.431 0.33 -0.42 Q 0.33 -0.402 0.314 -0.4 L 0.313 -0.4 L 0.3 -0.4 L 0.20600000000000002 -0.4 Z"/></g></g><path fill="rgb(77,77,255)" stroke="none" paint-order="stroke fill markers" d=" M 443.1500000000001 249.5 C 443.1500000000001 252.26142374915398 440.91142374915404 254.5 438.1500000000001 254.5 C 435.38857625084614 254.5 433.1500000000001 252.26142374915398 433.1500000000001 249.5 C 433.1500000000001 246.73857625084602 435.38857625084614 244.5 438.1500000000001 244.5 C 440.91142374915404 244.5 443.1500000000001 246.73857625084602 443.1500000000001 249.5 Z" fill-opacity="1"/><path fill="none" stroke="rgb(0,0,0)" paint-order="fill stroke markers" d=" M 443.1500000000001 249.5 C 443.1500000000001 252.26142374915398 440.91142374915404 254.5 438.1500000000001 254.5 C 435.38857625084614 254.5 433.1500000000001 252.26142374915398 433.1500000000001 249.5 C 433.1500000000001 246.73857625084602 435.38857625084614 244.5 438.1500000000001 244.5 C 440.91142374915404 244.5 443.1500000000001 246.73857625084602 443.1500000000001 249.5 Z" stroke-opacity="1" stroke-linecap="round" stroke-linejoin="round" stroke-miterlimit="10"/><path fill="rgb(77,77,255)" stroke="none" paint-order="stroke fill markers" d=" M 494.85000000000014 283.59999999999997 C 494.85000000000014 286.3614237491539 492.6114237491541 288.59999999999997 489.85000000000014 288.59999999999997 C 487.0885762508462 288.59999999999997 484.85000000000014 286.3614237491539 484.85000000000014 283.59999999999997 C 484.85000000000014 280.838576250846 487.0885762508462 278.59999999999997 489.85000000000014 278.59999999999997 C 492.6114237491541 278.59999999999997 494.85000000000014 280.838576250846 494.85000000000014 283.59999999999997 Z" fill-opacity="1"/><path fill="none" stroke="rgb(0,0,0)" paint-order="fill stroke markers" d=" M 494.85000000000014 283.59999999999997 C 494.85000000000014 286.3614237491539 492.6114237491541 288.59999999999997 489.85000000000014 288.59999999999997 C 487.0885762508462 288.59999999999997 484.85000000000014 286.3614237491539 484.85000000000014 283.59999999999997 C 484.85000000000014 280.838576250846 487.0885762508462 278.59999999999997 489.85000000000014 278.59999999999997 C 492.6114237491541 278.59999999999997 494.85000000000014 280.838576250846 494.85000000000014 283.59999999999997 Z" stroke-opacity="1" stroke-linecap="round" stroke-linejoin="round" stroke-miterlimit="10"/><path fill="rgb(77,77,255)" stroke="none" paint-order="stroke fill markers" d=" M 557.5500000000001 233 C 557.5500000000001 235.76142374915398 555.3114237491541 238 552.5500000000001 238 C 549.7885762508461 238 547.5500000000001 235.76142374915398 547.5500000000001 233 C 547.5500000000001 230.23857625084602 549.7885762508461 228 552.5500000000001 228 C 555.3114237491541 228 557.5500000000001 230.23857625084602 557.5500000000001 233 Z" fill-opacity="1"/><path fill="none" stroke="rgb(0,0,0)" paint-order="fill stroke markers" d=" M 557.5500000000001 233 C 557.5500000000001 235.76142374915398 555.3114237491541 238 552.5500000000001 238 C 549.7885762508461 238 547.5500000000001 235.76142374915398 547.5500000000001 233 C 547.5500000000001 230.23857625084602 549.7885762508461 228 552.5500000000001 228 C 555.3114237491541 228 557.5500000000001 230.23857625084602 557.5500000000001 233 Z" stroke-opacity="1" stroke-linecap="round" stroke-linejoin="round" stroke-miterlimit="10"/><path fill="rgb(77,77,255)" stroke="none" paint-order="stroke fill markers" d=" M 626.85 213.2 C 626.85 215.96142374915397 624.611423749154 218.2 621.85 218.2 C 619.088576250846 218.2 616.85 215.96142374915397 616.85 213.2 C 616.85 210.438576250846 619.088576250846 208.2 621.85 208.2 C 624.611423749154 208.2 626.85 210.438576250846 626.85 213.2 Z" fill-opacity="1"/><path fill="none" stroke="rgb(0,0,0)" paint-order="fill stroke markers" d=" M 626.85 213.2 C 626.85 215.96142374915397 624.611423749154 218.2 621.85 218.2 C 619.088576250846 218.2 616.85 215.96142374915397 616.85 213.2 C 616.85 210.438576250846 619.088576250846 208.2 621.85 208.2 C 624.611423749154 208.2 626.85 210.438576250846 626.85 213.2 Z" stroke-opacity="1" stroke-linecap="round" stroke-linejoin="round" stroke-miterlimit="10"/><path fill="rgb(77,77,255)" stroke="none" paint-order="stroke fill markers" d=" M 687.35 207.7 C 687.35 210.46142374915397 685.111423749154 212.7 682.35 212.7 C 679.588576250846 212.7 677.35 210.46142374915397 677.35 207.7 C 677.35 204.938576250846 679.588576250846 202.7 682.35 202.7 C 685.111423749154 202.7 687.35 204.938576250846 687.35 207.7 Z" fill-opacity="1"/><path fill="none" stroke="rgb(0,0,0)" paint-order="fill stroke markers" d=" M 687.35 207.7 C 687.35 210.46142374915397 685.111423749154 212.7 682.35 212.7 C 679.588576250846 212.7 677.35 210.46142374915397 677.35 207.7 C 677.35 204.938576250846 679.588576250846 202.7 682.35 202.7 C 685.111423749154 202.7 687.35 204.938576250846 687.35 207.7 Z" stroke-opacity="1" stroke-linecap="round" stroke-linejoin="round" stroke-miterlimit="10"/><path fill="rgb(77,77,255)" stroke="none" paint-order="stroke fill markers" d=" M 751.15 235.2 C 751.15 237.96142374915397 748.911423749154 240.2 746.15 240.2 C 743.388576250846 240.2 741.15 237.96142374915397 741.15 235.2 C 741.15 232.438576250846 743.388576250846 230.2 746.15 230.2 C 748.911423749154 230.2 751.15 232.438576250846 751.15 235.2 Z" fill-opacity="1"/><path fill="none" stroke="rgb(0,0,0)" paint-order="fill stroke markers" d=" M 751.15 235.2 C 751.15 237.96142374915397 748.911423749154 240.2 746.15 240.2 C 743.388576250846 240.2 741.15 237.96142374915397 741.15 235.2 C 741.15 232.438576250846 743.388576250846 230.2 746.15 230.2 C 748.911423749154 230.2 751.15 232.438576250846 751.15 235.2 Z" stroke-opacity="1" stroke-linecap="round" stroke-linejoin="round" stroke-miterlimit="10"/><path fill="rgb(77,77,255)" stroke="none" paint-order="stroke fill markers" d=" M 888.65 303.4 C 888.65 306.1614237491539 886.411423749154 308.4 883.65 308.4 C 880.888576250846 308.4 878.65 306.1614237491539 878.65 303.4 C 878.65 300.63857625084603 880.888576250846 298.4 883.65 298.4 C 886.411423749154 298.4 888.65 300.63857625084603 888.65 303.4 Z" fill-opacity="1"/><path fill="none" stroke="rgb(0,0,0)" paint-order="fill stroke markers" d=" M 888.65 303.4 C 888.65 306.1614237491539 886.411423749154 308.4 883.65 308.4 C 880.888576250846 308.4 878.65 306.1614237491539 878.65 303.4 C 878.65 300.63857625084603 880.888576250846 298.4 883.65 298.4 C 886.411423749154 298.4 888.65 300.63857625084603 888.65 303.4 Z" stroke-opacity="1" stroke-linecap="round" stroke-linejoin="round" stroke-miterlimit="10"/><path fill="rgb(77,77,255)" stroke="none" paint-order="stroke fill markers" d=" M 835.85 360.59999999999997 C 835.85 363.3614237491539 833.611423749154 365.59999999999997 830.85 365.59999999999997 C 828.088576250846 365.59999999999997 825.85 363.3614237491539 825.85 360.59999999999997 C 825.85 357.838576250846 828.088576250846 355.59999999999997 830.85 355.59999999999997 C 833.611423749154 355.59999999999997 835.85 357.838576250846 835.85 360.59999999999997 Z" fill-opacity="1"/><path fill="none" stroke="rgb(0,0,0)" paint-order="fill stroke markers" d=" M 835.85 360.59999999999997 C 835.85 363.3614237491539 833.611423749154 365.59999999999997 830.85 365.59999999999997 C 828.088576250846 365.59999999999997 825.85 363.3614237491539 825.85 360.59999999999997 C 825.85 357.838576250846 828.088576250846 355.59999999999997 830.85 355.59999999999997 C 833.611423749154 355.59999999999997 835.85 357.838576250846 835.85 360.59999999999997 Z" stroke-opacity="1" stroke-linecap="round" stroke-linejoin="round" stroke-miterlimit="10"/><path fill="rgb(77,77,255)" stroke="none" paint-order="stroke fill markers" d=" M 891.95 378.2 C 891.95 380.96142374915394 889.711423749154 383.2 886.95 383.2 C 884.188576250846 383.2 881.95 380.96142374915394 881.95 378.2 C 881.95 375.43857625084604 884.188576250846 373.2 886.95 373.2 C 889.711423749154 373.2 891.95 375.43857625084604 891.95 378.2 Z" fill-opacity="1"/><path fill="none" stroke="rgb(0,0,0)" paint-order="fill stroke markers" d=" M 891.95 378.2 C 891.95 380.96142374915394 889.711423749154 383.2 886.95 383.2 C 884.188576250846 383.2 881.95 380.96142374915394 881.95 378.2 C 881.95 375.43857625084604 884.188576250846 373.2 886.95 373.2 C 889.711423749154 373.2 891.95 375.43857625084604 891.95 378.2 Z" stroke-opacity="1" stroke-linecap="round" stroke-linejoin="round" stroke-miterlimit="10"/><path fill="rgb(77,77,255)" stroke="none" paint-order="stroke fill markers" d=" M 836.95 424.4 C 836.95 427.1614237491539 834.711423749154 429.4 831.95 429.4 C 829.188576250846 429.4 826.95 427.1614237491539 826.95 424.4 C 826.95 421.63857625084603 829.188576250846 419.4 831.95 419.4 C 834.711423749154 419.4 836.95 421.63857625084603 836.95 424.4 Z" fill-opacity="1"/><path fill="none" stroke="rgb(0,0,0)" paint-order="fill stroke markers" d=" M 836.95 424.4 C 836.95 427.1614237491539 834.711423749154 429.4 831.95 429.4 C 829.188576250846 429.4 826.95 427.1614237491539 826.95 424.4 C 826.95 421.63857625084603 829.188576250846 419.4 831.95 419.4 C 834.711423749154 419.4 836.95 421.63857625084603 836.95 424.4 Z" stroke-opacity="1" stroke-linecap="round" stroke-linejoin="round" stroke-miterlimit="10"/><path fill="rgb(77,77,255)" stroke="none" paint-order="stroke fill markers" d=" M 465.7000000000001 224.2 C 465.7000000000001 226.96142374915397 463.46142374915405 229.2 460.7000000000001 229.2 C 457.93857625084615 229.2 455.7000000000001 226.96142374915397 455.7000000000001 224.2 C 455.7000000000001 221.438576250846 457.93857625084615 219.2 460.7000000000001 219.2 C 463.46142374915405 219.2 465.7000000000001 221.438576250846 465.7000000000001 224.2 Z" fill-opacity="1"/><path fill="none" stroke="rgb(0,0,0)" paint-order="fill stroke markers" d=" M 465.7000000000001 224.2 C 465.7000000000001 226.96142374915397 463.46142374915405 229.2 460.7000000000001 229.2 C 457.93857625084615 229.2 455.7000000000001 226.96142374915397 455.7000000000001 224.2 C 455.7000000000001 221.438576250846 457.93857625084615 219.2 460.7000000000001 219.2 C 463.46142374915405 219.2 465.7000000000001 221.438576250846 465.7000000000001 224.2 Z" stroke-opacity="1" stroke-linecap="round" stroke-linejoin="round" stroke-miterlimit="10"/><g transform="scale(27,27)"><g transform="translate(17.14814814814815,9.097221666666666)"><path fill="rgb(77,77,255)" stroke="none" paint-order="stroke fill markers" d=" M 0.486 -0.381 L 0.39 0.001 Q 0.366 0.099 0.28300000000000003 0.16 Q 0.222 0.20500000000000002 0.156 0.20500000000000002 Q 0.089 0.20500000000000002 0.061 0.159 Q 0.05 0.14 0.05 0.11800000000000001 Q 0.05 0.067 0.091 0.055 Q 0.099 0.053 0.106 0.053 Q 0.138 0.053 0.14200000000000002 0.081 Q 0.14300000000000002 0.084 0.14300000000000002 0.088 Q 0.14300000000000002 0.111 0.123 0.129 Q 0.109 0.14100000000000001 0.08 0.14100000000000001 Q 0.098 0.183 0.156 0.183 Q 0.218 0.183 0.266 0.12 Q 0.305 0.068 0.328 -0.021 Q 0.329 -0.025 0.331 -0.034 Q 0.28600000000000003 0.011 0.23 0.011 Q 0.15 0.011 0.121 -0.048 Q 0.108 -0.074 0.108 -0.108 Q 0.108 -0.163 0.161 -0.305 Q 0.163 -0.311 0.166 -0.318 Q 0.183 -0.364 0.183 -0.388 Q 0.183 -0.42 0.158 -0.42 Q 0.10300000000000001 -0.42 0.068 -0.329 L 0.068 -0.328 Q 0.062 -0.313 0.057 -0.296 Q 0.046 -0.279 0.041 -0.278 Q 0.029 -0.278 0.029 -0.28800000000000003 Q 0.029 -0.306 0.05 -0.35100000000000003 Q 0.094 -0.442 0.161 -0.442 Q 0.214 -0.442 0.23500000000000001 -0.397 Q 0.243 -0.38 0.243 -0.36 Q 0.243 -0.339 0.223 -0.28800000000000003 Q 0.17200000000000001 -0.156 0.17200000000000001 -0.092 Q 0.17200000000000001 -0.011 0.234 -0.011 Q 0.292 -0.011 0.335 -0.073 Q 0.34500000000000003 -0.088 0.34700000000000003 -0.096 L 0.392 -0.276 Q 0.399 -0.309 0.41200000000000003 -0.356 Q 0.422 -0.399 0.426 -0.41000000000000003 Q 0.439 -0.431 0.461 -0.431 Q 0.486 -0.426 0.49 -0.404 Q 0.49 -0.395 0.486 -0.381 Z"/></g></g><path fill="rgb(77,77,255)" stroke="none" paint-order="stroke fill markers" d=" M 511.3500000000001 226.39999999999998 C 511.3500000000001 229.16142374915395 509.111423749154 231.39999999999998 506.3500000000001 231.39999999999998 C 503.58857625084613 231.39999999999998 501.3500000000001 229.16142374915395 501.3500000000001 226.39999999999998 C 501.3500000000001 223.638576250846 503.58857625084613 221.39999999999998 506.3500000000001 221.39999999999998 C 509.111423749154 221.39999999999998 511.3500000000001 223.638576250846 511.3500000000001 226.39999999999998 Z" fill-opacity="1"/><path fill="none" stroke="rgb(0,0,0)" paint-order="fill stroke markers" d=" M 511.3500000000001 226.39999999999998 C 511.3500000000001 229.16142374915395 509.111423749154 231.39999999999998 506.3500000000001 231.39999999999998 C 503.58857625084613 231.39999999999998 501.3500000000001 229.16142374915395 501.3500000000001 226.39999999999998 C 501.3500000000001 223.638576250846 503.58857625084613 221.39999999999998 506.3500000000001 221.39999999999998 C 509.111423749154 221.39999999999998 511.3500000000001 223.638576250846 511.3500000000001 226.39999999999998 Z" stroke-opacity="1" stroke-linecap="round" stroke-linejoin="round" stroke-miterlimit="10"/><path fill="rgb(77,77,255)" stroke="none" paint-order="stroke fill markers" d=" M 522.3500000000001 181.29999999999998 C 522.3500000000001 184.06142374915396 520.1114237491541 186.29999999999998 517.3500000000001 186.29999999999998 C 514.5885762508461 186.29999999999998 512.3500000000001 184.06142374915396 512.3500000000001 181.29999999999998 C 512.3500000000001 178.538576250846 514.5885762508461 176.29999999999998 517.3500000000001 176.29999999999998 C 520.1114237491541 176.29999999999998 522.3500000000001 178.538576250846 522.3500000000001 181.29999999999998 Z" fill-opacity="1"/><path fill="none" stroke="rgb(0,0,0)" paint-order="fill stroke markers" d=" M 522.3500000000001 181.29999999999998 C 522.3500000000001 184.06142374915396 520.1114237491541 186.29999999999998 517.3500000000001 186.29999999999998 C 514.5885762508461 186.29999999999998 512.3500000000001 184.06142374915396 512.3500000000001 181.29999999999998 C 512.3500000000001 178.538576250846 514.5885762508461 176.29999999999998 517.3500000000001 176.29999999999998 C 520.1114237491541 176.29999999999998 522.3500000000001 178.538576250846 522.3500000000001 181.29999999999998 Z" stroke-opacity="1" stroke-linecap="round" stroke-linejoin="round" stroke-miterlimit="10"/><g transform="scale(27,27)"><g transform="translate(17.962962962962962,7.1712957407407405)"><path fill="rgb(77,77,255)" stroke="none" paint-order="stroke fill markers" d=" M 0.35000000000000003 -0.056 L 0.35000000000000003 -0.056 Q 0.298 0.011 0.231 0.011 Q 0.15 0.011 0.121 -0.048 Q 0.108 -0.074 0.108 -0.109 Q 0.108 -0.163 0.161 -0.305 Q 0.163 -0.312 0.166 -0.319 Q 0.183 -0.362 0.183 -0.387 Q 0.183 -0.42 0.158 -0.42 Q 0.10200000000000001 -0.42 0.067 -0.325 Q 0.066 -0.325 0.066 -0.324 L 0.066 -0.323 Q 0.061 -0.31 0.057 -0.296 Q 0.046 -0.279 0.041 -0.278 Q 0.029 -0.278 0.029 -0.28800000000000003 Q 0.029 -0.306 0.05 -0.35100000000000003 Q 0.094 -0.442 0.161 -0.442 Q 0.214 -0.442 0.23500000000000001 -0.397 Q 0.243 -0.38 0.243 -0.36 Q 0.243 -0.34 0.226 -0.297 Q 0.17200000000000001 -0.154 0.17200000000000001 -0.093 Q 0.17200000000000001 -0.011 0.234 -0.011 Q 0.297 -0.011 0.34 -0.08 Q 0.34600000000000003 -0.089 0.34800000000000003 -0.095 Q 0.37 -0.194 0.423 -0.396 Q 0.431 -0.431 0.462 -0.431 Q 0.487 -0.426 0.491 -0.404 Q 0.491 -0.406 0.47600000000000003 -0.337 Q 0.462 -0.28600000000000003 0.459 -0.269 L 0.431 -0.161 Q 0.41100000000000003 -0.074 0.41100000000000003 -0.057 Q 0.41100000000000003 -0.011 0.442 -0.011 Q 0.484 -0.011 0.511 -0.111 Q 0.514 -0.121 0.517 -0.135 Q 0.525 -0.152 0.531 -0.153 Q 0.543 -0.153 0.543 -0.14300000000000002 Q 0.543 -0.128 0.525 -0.073 Q 0.519 -0.056 0.513 -0.044 Q 0.486 0.011 0.439 0.011 Q 0.382 0.011 0.358 -0.037 Q 0.353 -0.046 0.35000000000000003 -0.056 Z"/></g></g><path fill="rgb(77,77,255)" stroke="none" paint-order="stroke fill markers" d=" M 443.1500000000001 52.60000000000002 C 443.1500000000001 55.361423749153985 440.91142374915404 57.60000000000002 438.1500000000001 57.60000000000002 C 435.38857625084614 57.60000000000002 433.1500000000001 55.361423749153985 433.1500000000001 52.60000000000002 C 433.1500000000001 49.83857625084605 435.38857625084614 47.60000000000002 438.1500000000001 47.60000000000002 C 440.91142374915404 47.60000000000002 443.1500000000001 49.83857625084605 443.1500000000001 52.60000000000002 Z" fill-opacity="1"/><path fill="none" stroke="rgb(0,0,0)" paint-order="fill stroke markers" d=" M 443.1500000000001 52.60000000000002 C 443.1500000000001 55.361423749153985 440.91142374915404 57.60000000000002 438.1500000000001 57.60000000000002 C 435.38857625084614 57.60000000000002 433.1500000000001 55.361423749153985 433.1500000000001 52.60000000000002 C 433.1500000000001 49.83857625084605 435.38857625084614 47.60000000000002 438.1500000000001 47.60000000000002 C 440.91142374915404 47.60000000000002 443.1500000000001 49.83857625084605 443.1500000000001 52.60000000000002 Z" stroke-opacity="1" stroke-linecap="round" stroke-linejoin="round" stroke-miterlimit="10"/><g transform="scale(27,27)"><g transform="translate(15.851851851851851,1.2824068518518519)"><path fill="rgb(77,77,255)" stroke="none" paint-order="stroke fill markers" d=" M 0.334 -0.302 L 0.3 -0.165 Q 0.28300000000000003 -0.097 0.28300000000000003 -0.077 Q 0.28300000000000003 -0.025 0.32 -0.014 Q 0.328 -0.011 0.338 -0.011 Q 0.388 -0.011 0.429 -0.061 Q 0.456 -0.093 0.47100000000000003 -0.14200000000000002 Q 0.47400000000000003 -0.153 0.484 -0.153 Q 0.496 -0.153 0.496 -0.14300000000000002 Q 0.496 -0.11800000000000001 0.465 -0.07100000000000001 Q 0.41100000000000003 0.011 0.336 0.011 Q 0.268 0.011 0.23700000000000002 -0.046 Q 0.231 -0.055 0.228 -0.065 Q 0.20400000000000001 -0.017 0.162 0.002 Q 0.14300000000000002 0.011 0.123 0.011 Q 0.063 0.011 0.039 -0.024 Q 0.029 -0.037 0.029 -0.055 Q 0.029 -0.092 0.061 -0.107 Q 0.07200000000000001 -0.113 0.084 -0.113 Q 0.114 -0.113 0.12 -0.088 Q 0.121 -0.083 0.121 -0.078 Q 0.121 -0.044 0.08700000000000001 -0.028 Q 0.081 -0.025 0.074 -0.024 Q 0.095 -0.011 0.124 -0.011 Q 0.177 -0.011 0.20800000000000002 -0.082 Q 0.214 -0.097 0.219 -0.115 Q 0.273 -0.319 0.273 -0.353 Q 0.267 -0.41500000000000004 0.219 -0.42 Q 0.167 -0.42 0.124 -0.367 L 0.124 -0.366 Q 0.124 -0.365 0.123 -0.365 Q 0.108 -0.34500000000000003 0.096 -0.319 Q 0.091 -0.307 0.08700000000000001 -0.295 L 0.085 -0.289 Q 0.083 -0.278 0.07200000000000001 -0.278 Q 0.06 -0.278 0.06 -0.28800000000000003 Q 0.06 -0.313 0.092 -0.36 Q 0.146 -0.442 0.221 -0.442 Q 0.298 -0.442 0.329 -0.366 Q 0.361 -0.428 0.41400000000000003 -0.44 Q 0.424 -0.442 0.434 -0.442 Q 0.493 -0.442 0.517 -0.40900000000000003 Q 0.527 -0.395 0.527 -0.376 Q 0.527 -0.335 0.49 -0.321 Q 0.481 -0.318 0.47300000000000003 -0.318 Q 0.442 -0.318 0.436 -0.34500000000000003 Q 0.435 -0.34900000000000003 0.435 -0.353 Q 0.435 -0.383 0.464 -0.4 Q 0.47300000000000003 -0.405 0.483 -0.40700000000000003 Q 0.462 -0.42 0.433 -0.42 Q 0.365 -0.42 0.337 -0.314 Q 0.335 -0.308 0.334 -0.302 Z"/></g></g></g></g></svg>