<svg version="1.1" xmlns="http://www.w3.org/2000/svg" xmlns:xlink="http://www.w3.org/1999/xlink" width="1366" height="562"><defs><clipPath id="VZhEJbweBnML"><path fill="none" stroke="none" d=" M 0 0 L 1366 0 L 1366 562 L 0 562 L 0 0 Z"/></clipPath></defs><g transform="scale(1,1)" clip-path="url(#VZhEJbweBnML)"><g><rect fill="rgb(255,255,255)" stroke="none" x="0" y="0" width="1366" height="562" fill-opacity="1"/><path fill="none" stroke="rgb(0,0,0)" paint-order="fill stroke markers" d=" M 411.33074783239795 105.02250225036678 L 452.7230426918428 303.70551757570115 L 481.237734706127 277.95031188538 L 538.2671187346955 272.43133923745404 L 538.2671187346955 232.87870192731805 L 510.67225549506554 204.36400991303395 L 514.3515705936829 162.05188627893497 L 542.8662626079671 189.64674951856472 L 587.9378725660292 189.64674951856472 L 616.4525645803135 137.21650936326816 L 703.8362981724748 168.4906877015152 L 747.9880793558826 131.6975367153422 L 795.8191756379078 180.44846177202146 L 865.7261625116369 180.44846177202146 L 912.6374300190076 170.33034525082388 L 910.797772469699 282.5494557586516 L 954.0297248784525 319.34260674482465 L 1010.1392801323666 350.61678508307176 L 954.0297248784525 436.16086112592404 L 974.2659579208478 466.5152106895168" stroke-opacity="0.6980392156862745" stroke-linecap="round" stroke-linejoin="round" stroke-miterlimit="10" stroke-width="2.5"/><path fill="none" stroke="rgb(153,51,0)" paint-order="fill stroke markers" d=" M 326.7065005641996 445.3591488724673 L 974.2659579208478 466.5152106895168" stroke-opacity="0.6980392156862745" stroke-linecap="round" stroke-linejoin="round" stroke-miterlimit="10" stroke-width="2.5"/><path fill="none" stroke="rgb(153,51,0)" paint-order="fill stroke markers" d=" M 974.2659579208478 466.5152106895168 L 1010.1392801323666 350.61678508307176" stroke-opacity="0.6980392156862745" stroke-linecap="round" stroke-linejoin="round" stroke-miterlimit="10" stroke-width="2.5"/><path fill="none" stroke="rgb(153,51,0)" paint-order="fill stroke markers" d=" M 1010.1392801323666 350.61678508307176 L 912.6374300190076 170.33034525082388" stroke-opacity="0.6980392156862745" stroke-linecap="round" stroke-linejoin="round" stroke-miterlimit="10" stroke-width="2.5"/><path fill="none" stroke="rgb(153,51,0)" paint-order="fill stroke markers" d=" M 912.6374300190076 170.33034525082388 L 747.9880793558826 131.6975367153422" stroke-opacity="0.6980392156862745" stroke-linecap="round" stroke-linejoin="round" stroke-miterlimit="10" stroke-width="2.5"/><path fill="none" stroke="rgb(153,51,0)" paint-order="fill stroke markers" d=" M 747.9880793558826 131.6975367153422 L 616.4525645803135 137.21650936326816" stroke-opacity="0.6980392156862745" stroke-linecap="round" stroke-linejoin="round" stroke-miterlimit="10" stroke-width="2.5"/><path fill="none" stroke="rgb(153,51,0)" paint-order="fill stroke markers" d=" M 616.4525645803135 137.21650936326816 L 514.3515705936829 162.05188627893497" stroke-opacity="0.6980392156862745" stroke-linecap="round" stroke-linejoin="round" stroke-miterlimit="10" stroke-width="2.5"/><path fill="none" stroke="rgb(153,51,0)" paint-order="fill stroke markers" d=" M 514.3515705936829 162.05188627893497 L 326.7065005641996 445.3591488724673" stroke-opacity="0.6980392156862745" stroke-linecap="round" stroke-linejoin="round" stroke-miterlimit="10" stroke-width="2.5"/><path fill="none" stroke="rgb(153,51,0)" paint-order="fill stroke markers" d=" M 326.7065005641996 445.3591488724673 L 326.7065005641996 445.3591488724673" stroke-opacity="0.6980392156862745" stroke-linecap="round" stroke-linejoin="round" stroke-miterlimit="10" stroke-width="2.5"/><path fill="none" stroke="rgb(0,100,0)" paint-order="fill stroke markers" d=" M 411.33074783239795 105.02250225036678 L 747.9880793558826 131.6975367153422" stroke-opacity="0.6980392156862745" stroke-linecap="round" stroke-linejoin="round" stroke-miterlimit="10" stroke-width="2.5"/><path fill="rgb(77,77,255)" stroke="none" paint-order="stroke fill markers" d=" M 331.7065005641996 445.3591488724673 C 331.7065005641996 448.12057262162125 329.46792431335354 450.3591488724673 326.7065005641996 450.3591488724673 C 323.94507681504564 450.3591488724673 321.7065005641996 448.12057262162125 321.7065005641996 445.3591488724673 C 321.7065005641996 442.59772512331335 323.94507681504564 440.3591488724673 326.7065005641996 440.3591488724673 C 329.46792431335354 440.3591488724673 331.7065005641996 442.59772512331335 331.7065005641996 445.3591488724673 Z" fill-opacity="1"/><path fill="none" stroke="rgb(0,0,0)" paint-order="fill stroke markers" d=" M 331.7065005641996 445.3591488724673 C 331.7065005641996 448.12057262162125 329.46792431335354 450.3591488724673 326.7065005641996 450.3591488724673 C 323.94507681504564 450.3591488724673 321.7065005641996 448.12057262162125 321.7065005641996 445.3591488724673 C 321.7065005641996 442.59772512331335 323.94507681504564 440.3591488724673 326.7065005641996 440.3591488724673 C 329.46792431335354 440.3591488724673 331.7065005641996 442.59772512331335 331.7065005641996 445.3591488724673 Z" stroke-opacity="1" stroke-linecap="round" stroke-linejoin="round" stroke-miterlimit="10"/><g transform="scale(27,27)"><g transform="translate(11.222222222222221,15.504629074074074)"><path fill="rgb(77,77,255)" stroke="none" paint-order="stroke fill markers" d=" M 0.452 -0.431 L 0.314 0.125 Q 0.31 0.14300000000000002 0.31 0.147 Q 0.31 0.158 0.323 0.161 L 0.323 0.161 Q 0.334 0.163 0.358 0.163 Q 0.382 0.163 0.384 0.17400000000000002 Q 0.384 0.194 0.366 0.194 L 0.264 0.191 L 0.263 0.191 L 0.164 0.194 L 0.163 0.194 Q 0.15 0.194 0.15 0.183 Q 0.158 0.164 0.17300000000000001 0.163 Q 0.225 0.162 0.23600000000000002 0.15 Q 0.241 0.14400000000000002 0.245 0.13 L 0.29 -0.049 Q 0.23 0.011 0.17200000000000001 0.011 Q 0.10200000000000001 0.011 0.065 -0.052000000000000005 Q 0.04 -0.093 0.04 -0.149 Q 0.04 -0.256 0.115 -0.34800000000000003 Q 0.184 -0.433 0.267 -0.441 Q 0.274 -0.442 0.281 -0.442 Q 0.34500000000000003 -0.442 0.374 -0.372 Q 0.395 -0.40800000000000003 0.428 -0.434 L 0.43 -0.435 Q 0.438 -0.441 0.442 -0.441 Q 0.452 -0.441 0.452 -0.431 M 0.17500000000000002 -0.011 Q 0.228 -0.011 0.28300000000000003 -0.076 Q 0.295 -0.091 0.302 -0.10300000000000001 Q 0.308 -0.111 0.356 -0.312 Q 0.36 -0.33 0.36 -0.332 Q 0.36 -0.354 0.342 -0.383 Q 0.32 -0.42 0.281 -0.42 Q 0.232 -0.42 0.188 -0.359 Q 0.17 -0.334 0.157 -0.304 Q 0.129 -0.234 0.115 -0.14300000000000002 Q 0.111 -0.12 0.111 -0.105 Q 0.111 -0.04 0.146 -0.019 L 0.147 -0.018000000000000002 Q 0.159 -0.011 0.17500000000000002 -0.011 Z"/></g><g transform="translate(11.668636222222222,15.654629074074075) scale(0.7,0.7)"><path fill="rgb(77,77,255)" stroke="none" paint-order="stroke fill markers" d=" M 0.46 -0.32 Q 0.46 -0.17400000000000002 0.423 -0.094 Q 0.364 0.018000000000000002 0.249 0.022 Q 0.158 0.022 0.10300000000000001 -0.05 Q 0.092 -0.063 0.084 -0.079 Q 0.039 -0.162 0.039 -0.32 Q 0.039 -0.467 0.076 -0.547 Q 0.126 -0.659 0.23800000000000002 -0.666 L 0.25 -0.666 Q 0.339 -0.666 0.395 -0.595 L 0.395 -0.594 Q 0.40900000000000003 -0.5760000000000001 0.42 -0.554 Q 0.46 -0.46900000000000003 0.46 -0.32 M 0.249 0 L 0.249 0 Q 0.312 0 0.34600000000000003 -0.061 Q 0.36 -0.088 0.366 -0.125 Q 0.377 -0.189 0.377 -0.332 Q 0.377 -0.47100000000000003 0.367 -0.527 Q 0.34900000000000003 -0.622 0.275 -0.641 Q 0.262 -0.644 0.249 -0.644 Q 0.179 -0.644 0.147 -0.5740000000000001 Q 0.136 -0.55 0.13 -0.516 Q 0.122 -0.462 0.122 -0.332 Q 0.122 -0.181 0.133 -0.121 Q 0.151 -0.025 0.221 -0.004 Q 0.23500000000000001 0 0.249 0 Z"/></g></g><path fill="rgb(77,77,255)" stroke="none" paint-order="stroke fill markers" d=" M 979.2659579208478 466.5152106895168 C 979.2659579208478 469.2766344386707 977.0273816700018 471.5152106895168 974.2659579208478 471.5152106895168 C 971.5045341716938 471.5152106895168 969.2659579208478 469.2766344386707 969.2659579208478 466.5152106895168 C 969.2659579208478 463.75378694036283 971.5045341716938 461.5152106895168 974.2659579208478 461.5152106895168 C 977.0273816700018 461.5152106895168 979.2659579208478 463.75378694036283 979.2659579208478 466.5152106895168 Z" fill-opacity="1"/><path fill="none" stroke="rgb(0,0,0)" paint-order="fill stroke markers" d=" M 979.2659579208478 466.5152106895168 C 979.2659579208478 469.2766344386707 977.0273816700018 471.5152106895168 974.2659579208478 471.5152106895168 C 971.5045341716938 471.5152106895168 969.2659579208478 469.2766344386707 969.2659579208478 466.5152106895168 C 969.2659579208478 463.75378694036283 971.5045341716938 461.5152106895168 974.2659579208478 461.5152106895168 C 977.0273816700018 461.5152106895168 979.2659579208478 463.75378694036283 979.2659579208478 466.5152106895168 Z" stroke-opacity="1" stroke-linecap="round" stroke-linejoin="round" stroke-miterlimit="10"/><g transform="scale(27,27)"><g transform="translate(36.666666666666664,17.1342587037037)"><path fill="rgb(77,77,255)" stroke="none" paint-order="stroke fill markers" d=" M 0.452 -0.431 L 0.314 0.125 Q 0.31 0.14300000000000002 0.31 0.147 Q 0.31 0.158 0.323 0.161 L 0.323 0.161 Q 0.334 0.163 0.358 0.163 Q 0.382 0.163 0.384 0.17400000000000002 Q 0.384 0.194 0.366 0.194 L 0.264 0.191 L 0.263 0.191 L 0.164 0.194 L 0.163 0.194 Q 0.15 0.194 0.15 0.183 Q 0.158 0.164 0.17300000000000001 0.163 Q 0.225 0.162 0.23600000000000002 0.15 Q 0.241 0.14400000000000002 0.245 0.13 L 0.29 -0.049 Q 0.23 0.011 0.17200000000000001 0.011 Q 0.10200000000000001 0.011 0.065 -0.052000000000000005 Q 0.04 -0.093 0.04 -0.149 Q 0.04 -0.256 0.115 -0.34800000000000003 Q 0.184 -0.433 0.267 -0.441 Q 0.274 -0.442 0.281 -0.442 Q 0.34500000000000003 -0.442 0.374 -0.372 Q 0.395 -0.40800000000000003 0.428 -0.434 L 0.43 -0.435 Q 0.438 -0.441 0.442 -0.441 Q 0.452 -0.441 0.452 -0.431 M 0.17500000000000002 -0.011 Q 0.228 -0.011 0.28300000000000003 -0.076 Q 0.295 -0.091 0.302 -0.10300000000000001 Q 0.308 -0.111 0.356 -0.312 Q 0.36 -0.33 0.36 -0.332 Q 0.36 -0.354 0.342 -0.383 Q 0.32 -0.42 0.281 -0.42 Q 0.232 -0.42 0.188 -0.359 Q 0.17 -0.334 0.157 -0.304 Q 0.129 -0.234 0.115 -0.14300000000000002 Q 0.111 -0.12 0.111 -0.105 Q 0.111 -0.04 0.146 -0.019 L 0.147 -0.018000000000000002 Q 0.159 -0.011 0.17500000000000002 -0.011 Z"/></g><g transform="translate(37.11308066666666,17.2842587037037) scale(0.7,0.7)"><path fill="rgb(77,77,255)" stroke="none" paint-order="stroke fill markers" d=" M 0.294 -0.64 L 0.294 -0.079 Q 0.294 -0.049 0.306 -0.041 Q 0.323 -0.031 0.387 -0.031 L 0.419 -0.031 L 0.419 0 Q 0.384 -0.003 0.257 -0.003 Q 0.13 -0.003 0.095 0 L 0.095 -0.031 L 0.127 -0.031 Q 0.20400000000000001 -0.031 0.215 -0.049 L 0.216 -0.05 Q 0.22 -0.058 0.22 -0.079 L 0.22 -0.597 Q 0.168 -0.5710000000000001 0.089 -0.5710000000000001 L 0.089 -0.602 Q 0.209 -0.602 0.271 -0.666 Q 0.29 -0.666 0.293 -0.659 L 0.293 -0.659 L 0.293 -0.658 Q 0.294 -0.655 0.294 -0.64 Z"/></g></g><path fill="rgb(77,77,255)" stroke="none" paint-order="stroke fill markers" d=" M 1015.1392801323666 350.61678508307176 C 1015.1392801323666 353.3782088322257 1012.9007038815206 355.61678508307176 1010.1392801323666 355.61678508307176 C 1007.3778563832126 355.61678508307176 1005.1392801323666 353.3782088322257 1005.1392801323666 350.61678508307176 C 1005.1392801323666 347.8553613339178 1007.3778563832126 345.61678508307176 1010.1392801323666 345.61678508307176 C 1012.9007038815206 345.61678508307176 1015.1392801323666 347.8553613339178 1015.1392801323666 350.61678508307176 Z" fill-opacity="1"/><path fill="none" stroke="rgb(0,0,0)" paint-order="fill stroke markers" d=" M 1015.1392801323666 350.61678508307176 C 1015.1392801323666 353.3782088322257 1012.9007038815206 355.61678508307176 1010.1392801323666 355.61678508307176 C 1007.3778563832126 355.61678508307176 1005.1392801323666 353.3782088322257 1005.1392801323666 350.61678508307176 C 1005.1392801323666 347.8553613339178 1007.3778563832126 345.61678508307176 1010.1392801323666 345.61678508307176 C 1012.9007038815206 345.61678508307176 1015.1392801323666 347.8553613339178 1015.1392801323666 350.61678508307176 Z" stroke-opacity="1" stroke-linecap="round" stroke-linejoin="round" stroke-miterlimit="10"/><path fill="rgb(77,77,255)" stroke="none" paint-order="stroke fill markers" d=" M 917.6374300190076 170.33034525082388 C 917.6374300190076 173.09176899997786 915.3988537681616 175.33034525082388 912.6374300190076 175.33034525082388 C 909.8760062698536 175.33034525082388 907.6374300190076 173.09176899997786 907.6374300190076 170.33034525082388 C 907.6374300190076 167.5689215016699 909.8760062698536 165.33034525082388 912.6374300190076 165.33034525082388 C 915.3988537681616 165.33034525082388 917.6374300190076 167.5689215016699 917.6374300190076 170.33034525082388 Z" fill-opacity="1"/><path fill="none" stroke="rgb(0,0,0)" paint-order="fill stroke markers" d=" M 917.6374300190076 170.33034525082388 C 917.6374300190076 173.09176899997786 915.3988537681616 175.33034525082388 912.6374300190076 175.33034525082388 C 909.8760062698536 175.33034525082388 907.6374300190076 173.09176899997786 907.6374300190076 170.33034525082388 C 907.6374300190076 167.5689215016699 909.8760062698536 165.33034525082388 912.6374300190076 165.33034525082388 C 915.3988537681616 165.33034525082388 917.6374300190076 167.5689215016699 917.6374300190076 170.33034525082388 Z" stroke-opacity="1" stroke-linecap="round" stroke-linejoin="round" stroke-miterlimit="10"/><path fill="rgb(77,77,255)" stroke="none" paint-order="stroke fill markers" d=" M 752.9880793558826 131.6975367153422 C 752.9880793558826 134.4589604644962 750.7495031050366 136.6975367153422 747.9880793558826 136.6975367153422 C 745.2266556067286 136.6975367153422 742.9880793558826 134.4589604644962 742.9880793558826 131.6975367153422 C 742.9880793558826 128.93611296618823 745.2266556067286 126.69753671534221 747.9880793558826 126.69753671534221 C 750.7495031050366 126.69753671534221 752.9880793558826 128.93611296618823 752.9880793558826 131.6975367153422 Z" fill-opacity="1"/><path fill="none" stroke="rgb(0,0,0)" paint-order="fill stroke markers" d=" M 752.9880793558826 131.6975367153422 C 752.9880793558826 134.4589604644962 750.7495031050366 136.6975367153422 747.9880793558826 136.6975367153422 C 745.2266556067286 136.6975367153422 742.9880793558826 134.4589604644962 742.9880793558826 131.6975367153422 C 742.9880793558826 128.93611296618823 745.2266556067286 126.69753671534221 747.9880793558826 126.69753671534221 C 750.7495031050366 126.69753671534221 752.9880793558826 128.93611296618823 752.9880793558826 131.6975367153422 Z" stroke-opacity="1" stroke-linecap="round" stroke-linejoin="round" stroke-miterlimit="10"/><g transform="scale(27,27)"><g transform="translate(28.11111111111111,3.9490735185185186)"><path fill="rgb(77,77,255)" stroke="none" paint-order="stroke fill markers" d=" M 0.452 -0.431 L 0.314 0.125 Q 0.31 0.14300000000000002 0.31 0.147 Q 0.31 0.158 0.323 0.161 L 0.323 0.161 Q 0.334 0.163 0.358 0.163 Q 0.382 0.163 0.384 0.17400000000000002 Q 0.384 0.194 0.366 0.194 L 0.264 0.191 L 0.263 0.191 L 0.164 0.194 L 0.163 0.194 Q 0.15 0.194 0.15 0.183 Q 0.158 0.164 0.17300000000000001 0.163 Q 0.225 0.162 0.23600000000000002 0.15 Q 0.241 0.14400000000000002 0.245 0.13 L 0.29 -0.049 Q 0.23 0.011 0.17200000000000001 0.011 Q 0.10200000000000001 0.011 0.065 -0.052000000000000005 Q 0.04 -0.093 0.04 -0.149 Q 0.04 -0.256 0.115 -0.34800000000000003 Q 0.184 -0.433 0.267 -0.441 Q 0.274 -0.442 0.281 -0.442 Q 0.34500000000000003 -0.442 0.374 -0.372 Q 0.395 -0.40800000000000003 0.428 -0.434 L 0.43 -0.435 Q 0.438 -0.441 0.442 -0.441 Q 0.452 -0.441 0.452 -0.431 M 0.17500000000000002 -0.011 Q 0.228 -0.011 0.28300000000000003 -0.076 Q 0.295 -0.091 0.302 -0.10300000000000001 Q 0.308 -0.111 0.356 -0.312 Q 0.36 -0.33 0.36 -0.332 Q 0.36 -0.354 0.342 -0.383 Q 0.32 -0.42 0.281 -0.42 Q 0.232 -0.42 0.188 -0.359 Q 0.17 -0.334 0.157 -0.304 Q 0.129 -0.234 0.115 -0.14300000000000002 Q 0.111 -0.12 0.111 -0.105 Q 0.111 -0.04 0.146 -0.019 L 0.147 -0.018000000000000002 Q 0.159 -0.011 0.17500000000000002 -0.011 Z"/></g><g transform="translate(28.55752511111111,4.0990735185185185) scale(0.7,0.7)"><path fill="rgb(77,77,255)" stroke="none" paint-order="stroke fill markers" d=" M 0.28400000000000003 -0.625 Q 0.28400000000000003 -0.594 0.253 -0.578 Q 0.242 -0.5720000000000001 0.231 -0.5720000000000001 Q 0.201 -0.5720000000000001 0.194 -0.599 Q 0.193 -0.604 0.193 -0.608 Q 0.193 -0.636 0.221 -0.653 Q 0.234 -0.661 0.247 -0.661 Q 0.277 -0.661 0.28300000000000003 -0.634 L 0.28300000000000003 -0.633 Q 0.28400000000000003 -0.629 0.28400000000000003 -0.625 M 0.20800000000000002 -0.249 L 0.169 -0.14400000000000002 Q 0.14100000000000001 -0.063 0.14 -0.044 Q 0.14 -0.011 0.164 -0.011 Q 0.227 -0.011 0.262 -0.123 L 0.266 -0.135 Q 0.271 -0.151 0.276 -0.152 L 0.276 -0.153 L 0.281 -0.153 Q 0.293 -0.153 0.293 -0.14300000000000002 Q 0.293 -0.125 0.271 -0.079 Q 0.228 0.011 0.162 0.011 Q 0.109 0.011 0.088 -0.033 Q 0.08 -0.051000000000000004 0.08 -0.07100000000000001 Q 0.08 -0.091 0.10300000000000001 -0.151 Q 0.17300000000000001 -0.339 0.17200000000000001 -0.336 Q 0.183 -0.364 0.183 -0.388 Q 0.183 -0.42 0.158 -0.42 Q 0.10300000000000001 -0.42 0.068 -0.329 L 0.068 -0.328 Q 0.062 -0.313 0.057 -0.296 Q 0.046 -0.279 0.041 -0.278 Q 0.029 -0.278 0.029 -0.28800000000000003 Q 0.029 -0.306 0.051000000000000004 -0.35100000000000003 Q 0.094 -0.442 0.161 -0.442 Q 0.214 -0.442 0.23500000000000001 -0.397 Q 0.243 -0.38 0.243 -0.36 Q 0.243 -0.34 0.23 -0.307 Q 0.213 -0.261 0.20800000000000002 -0.249 Z"/></g></g><path fill="rgb(77,77,255)" stroke="none" paint-order="stroke fill markers" d=" M 621.4525645803135 137.21650936326816 C 621.4525645803135 139.97793311242214 619.2139883294675 142.21650936326816 616.4525645803135 142.21650936326816 C 613.6911408311595 142.21650936326816 611.4525645803135 139.97793311242214 611.4525645803135 137.21650936326816 C 611.4525645803135 134.45508561411418 613.6911408311595 132.21650936326816 616.4525645803135 132.21650936326816 C 619.2139883294675 132.21650936326816 621.4525645803135 134.45508561411418 621.4525645803135 137.21650936326816 Z" fill-opacity="1"/><path fill="none" stroke="rgb(0,0,0)" paint-order="fill stroke markers" d=" M 621.4525645803135 137.21650936326816 C 621.4525645803135 139.97793311242214 619.2139883294675 142.21650936326816 616.4525645803135 142.21650936326816 C 613.6911408311595 142.21650936326816 611.4525645803135 139.97793311242214 611.4525645803135 137.21650936326816 C 611.4525645803135 134.45508561411418 613.6911408311595 132.21650936326816 616.4525645803135 132.21650936326816 C 619.2139883294675 132.21650936326816 621.4525645803135 134.45508561411418 621.4525645803135 137.21650936326816 Z" stroke-opacity="1" stroke-linecap="round" stroke-linejoin="round" stroke-miterlimit="10"/><g transform="scale(27,27)"><g transform="translate(22.51851851851852,6.282406851851852)"><path fill="rgb(77,77,255)" stroke="none" paint-order="stroke fill markers" d=" M 0.452 -0.431 L 0.314 0.125 Q 0.31 0.14300000000000002 0.31 0.147 Q 0.31 0.158 0.323 0.161 L 0.323 0.161 Q 0.334 0.163 0.358 0.163 Q 0.382 0.163 0.384 0.17400000000000002 Q 0.384 0.194 0.366 0.194 L 0.264 0.191 L 0.263 0.191 L 0.164 0.194 L 0.163 0.194 Q 0.15 0.194 0.15 0.183 Q 0.158 0.164 0.17300000000000001 0.163 Q 0.225 0.162 0.23600000000000002 0.15 Q 0.241 0.14400000000000002 0.245 0.13 L 0.29 -0.049 Q 0.23 0.011 0.17200000000000001 0.011 Q 0.10200000000000001 0.011 0.065 -0.052000000000000005 Q 0.04 -0.093 0.04 -0.149 Q 0.04 -0.256 0.115 -0.34800000000000003 Q 0.184 -0.433 0.267 -0.441 Q 0.274 -0.442 0.281 -0.442 Q 0.34500000000000003 -0.442 0.374 -0.372 Q 0.395 -0.40800000000000003 0.428 -0.434 L 0.43 -0.435 Q 0.438 -0.441 0.442 -0.441 Q 0.452 -0.441 0.452 -0.431 M 0.17500000000000002 -0.011 Q 0.228 -0.011 0.28300000000000003 -0.076 Q 0.295 -0.091 0.302 -0.10300000000000001 Q 0.308 -0.111 0.356 -0.312 Q 0.36 -0.33 0.36 -0.332 Q 0.36 -0.354 0.342 -0.383 Q 0.32 -0.42 0.281 -0.42 Q 0.232 -0.42 0.188 -0.359 Q 0.17 -0.334 0.157 -0.304 Q 0.129 -0.234 0.115 -0.14300000000000002 Q 0.111 -0.12 0.111 -0.105 Q 0.111 -0.04 0.146 -0.019 L 0.147 -0.018000000000000002 Q 0.159 -0.011 0.17500000000000002 -0.011 Z"/></g><g transform="translate(22.96493251851852,6.4324068518518525) scale(0.7,0.7)"><path fill="rgb(77,77,255)" stroke="none" paint-order="stroke fill markers" d=" M 0.20600000000000002 -0.4 L 0.132 -0.105 Q 0.126 -0.08 0.126 -0.057 Q 0.126 -0.011 0.157 -0.011 Q 0.223 -0.011 0.273 -0.108 L 0.28700000000000003 -0.139 Q 0.293 -0.152 0.302 -0.153 Q 0.314 -0.153 0.314 -0.14300000000000002 Q 0.314 -0.13 0.28800000000000003 -0.08600000000000001 Q 0.23 0.011 0.155 0.011 Q 0.097 0.011 0.073 -0.037 Q 0.063 -0.057 0.063 -0.081 Q 0.063 -0.1 0.124 -0.34 L 0.139 -0.4 L 0.051000000000000004 -0.4 Q 0.026000000000000002 -0.4 0.024 -0.40800000000000003 L 0.023 -0.40800000000000003 L 0.023 -0.41200000000000003 Q 0.023 -0.429 0.039 -0.431 L 0.053 -0.431 L 0.147 -0.431 L 0.186 -0.59 Q 0.195 -0.625 0.226 -0.626 Q 0.252 -0.626 0.255 -0.599 Q 0.255 -0.593 0.214 -0.431 L 0.302 -0.431 Q 0.328 -0.431 0.33 -0.42 Q 0.33 -0.402 0.314 -0.4 L 0.313 -0.4 L 0.3 -0.4 L 0.20600000000000002 -0.4 Z"/></g><g transform="translate(23.21771161851852,6.4324068518518525) scale(0.7,0.7)"><path fill="rgb(77,77,255)" stroke="none" paint-order="stroke fill markers" d=" M 0.661 -0.23 L 0.116 -0.23 Q 0.084 -0.23 0.083 -0.25 Q 0.083 -0.27 0.116 -0.27 L 0.661 -0.27 Q 0.6930000000000001 -0.27 0.6940000000000001 -0.25 Q 0.6940000000000001 -0.23 0.661 -0.23 Z"/></g><g transform="translate(23.762158318518523,6.4324068518518525) scale(0.7,0.7)"><path fill="rgb(77,77,255)" stroke="none" paint-order="stroke fill markers" d=" M 0.294 -0.64 L 0.294 -0.079 Q 0.294 -0.049 0.306 -0.041 Q 0.323 -0.031 0.387 -0.031 L 0.419 -0.031 L 0.419 0 Q 0.384 -0.003 0.257 -0.003 Q 0.13 -0.003 0.095 0 L 0.095 -0.031 L 0.127 -0.031 Q 0.20400000000000001 -0.031 0.215 -0.049 L 0.216 -0.05 Q 0.22 -0.058 0.22 -0.079 L 0.22 -0.597 Q 0.168 -0.5710000000000001 0.089 -0.5710000000000001 L 0.089 -0.602 Q 0.209 -0.602 0.271 -0.666 Q 0.29 -0.666 0.293 -0.659 L 0.293 -0.659 L 0.293 -0.658 Q 0.294 -0.655 0.294 -0.64 Z"/></g></g><path fill="rgb(77,77,255)" stroke="none" paint-order="stroke fill markers" d=" M 519.3515705936829 162.05188627893497 C 519.3515705936829 164.81331002808895 517.1129943428369 167.05188627893497 514.3515705936829 167.05188627893497 C 511.590146844529 167.05188627893497 509.35157059368294 164.81331002808895 509.35157059368294 162.05188627893497 C 509.35157059368294 159.290462529781 511.590146844529 157.05188627893497 514.3515705936829 157.05188627893497 C 517.1129943428369 157.05188627893497 519.3515705936829 159.290462529781 519.3515705936829 162.05188627893497 Z" fill-opacity="1"/><path fill="none" stroke="rgb(0,0,0)" paint-order="fill stroke markers" d=" M 519.3515705936829 162.05188627893497 C 519.3515705936829 164.81331002808895 517.1129943428369 167.05188627893497 514.3515705936829 167.05188627893497 C 511.590146844529 167.05188627893497 509.35157059368294 164.81331002808895 509.35157059368294 162.05188627893497 C 509.35157059368294 159.290462529781 511.590146844529 157.05188627893497 514.3515705936829 157.05188627893497 C 517.1129943428369 157.05188627893497 519.3515705936829 159.290462529781 519.3515705936829 162.05188627893497 Z" stroke-opacity="1" stroke-linecap="round" stroke-linejoin="round" stroke-miterlimit="10"/><g transform="scale(27,27)"><g transform="translate(19.14814814814815,5.282406851851852)"><path fill="rgb(77,77,255)" stroke="none" paint-order="stroke fill markers" d=" M 0.452 -0.431 L 0.314 0.125 Q 0.31 0.14300000000000002 0.31 0.147 Q 0.31 0.158 0.323 0.161 L 0.323 0.161 Q 0.334 0.163 0.358 0.163 Q 0.382 0.163 0.384 0.17400000000000002 Q 0.384 0.194 0.366 0.194 L 0.264 0.191 L 0.263 0.191 L 0.164 0.194 L 0.163 0.194 Q 0.15 0.194 0.15 0.183 Q 0.158 0.164 0.17300000000000001 0.163 Q 0.225 0.162 0.23600000000000002 0.15 Q 0.241 0.14400000000000002 0.245 0.13 L 0.29 -0.049 Q 0.23 0.011 0.17200000000000001 0.011 Q 0.10200000000000001 0.011 0.065 -0.052000000000000005 Q 0.04 -0.093 0.04 -0.149 Q 0.04 -0.256 0.115 -0.34800000000000003 Q 0.184 -0.433 0.267 -0.441 Q 0.274 -0.442 0.281 -0.442 Q 0.34500000000000003 -0.442 0.374 -0.372 Q 0.395 -0.40800000000000003 0.428 -0.434 L 0.43 -0.435 Q 0.438 -0.441 0.442 -0.441 Q 0.452 -0.441 0.452 -0.431 M 0.17500000000000002 -0.011 Q 0.228 -0.011 0.28300000000000003 -0.076 Q 0.295 -0.091 0.302 -0.10300000000000001 Q 0.308 -0.111 0.356 -0.312 Q 0.36 -0.33 0.36 -0.332 Q 0.36 -0.354 0.342 -0.383 Q 0.32 -0.42 0.281 -0.42 Q 0.232 -0.42 0.188 -0.359 Q 0.17 -0.334 0.157 -0.304 Q 0.129 -0.234 0.115 -0.14300000000000002 Q 0.111 -0.12 0.111 -0.105 Q 0.111 -0.04 0.146 -0.019 L 0.147 -0.018000000000000002 Q 0.159 -0.011 0.17500000000000002 -0.011 Z"/></g><g transform="translate(19.59456214814815,5.4324068518518525) scale(0.7,0.7)"><path fill="rgb(77,77,255)" stroke="none" paint-order="stroke fill markers" d=" M 0.20600000000000002 -0.4 L 0.132 -0.105 Q 0.126 -0.08 0.126 -0.057 Q 0.126 -0.011 0.157 -0.011 Q 0.223 -0.011 0.273 -0.108 L 0.28700000000000003 -0.139 Q 0.293 -0.152 0.302 -0.153 Q 0.314 -0.153 0.314 -0.14300000000000002 Q 0.314 -0.13 0.28800000000000003 -0.08600000000000001 Q 0.23 0.011 0.155 0.011 Q 0.097 0.011 0.073 -0.037 Q 0.063 -0.057 0.063 -0.081 Q 0.063 -0.1 0.124 -0.34 L 0.139 -0.4 L 0.051000000000000004 -0.4 Q 0.026000000000000002 -0.4 0.024 -0.40800000000000003 L 0.023 -0.40800000000000003 L 0.023 -0.41200000000000003 Q 0.023 -0.429 0.039 -0.431 L 0.053 -0.431 L 0.147 -0.431 L 0.186 -0.59 Q 0.195 -0.625 0.226 -0.626 Q 0.252 -0.626 0.255 -0.599 Q 0.255 -0.593 0.214 -0.431 L 0.302 -0.431 Q 0.328 -0.431 0.33 -0.42 Q 0.33 -0.402 0.314 -0.4 L 0.313 -0.4 L 0.3 -0.4 L 0.20600000000000002 -0.4 Z"/></g></g><path fill="rgb(77,77,255)" stroke="none" paint-order="stroke fill markers" d=" M 331.7065005641996 445.3591488724673 C 331.7065005641996 448.12057262162125 329.46792431335354 450.3591488724673 326.7065005641996 450.3591488724673 C 323.94507681504564 450.3591488724673 321.7065005641996 448.12057262162125 321.7065005641996 445.3591488724673 C 321.7065005641996 442.59772512331335 323.94507681504564 440.3591488724673 326.7065005641996 440.3591488724673 C 329.46792431335354 440.3591488724673 331.7065005641996 442.59772512331335 331.7065005641996 445.3591488724673 Z" fill-opacity="1"/><path fill="none" stroke="rgb(0,0,0)" paint-order="fill stroke markers" d=" M 331.7065005641996 445.3591488724673 C 331.7065005641996 448.12057262162125 329.46792431335354 450.3591488724673 326.7065005641996 450.3591488724673 C 323.94507681504564 450.3591488724673 321.7065005641996 448.12057262162125 321.7065005641996 445.3591488724673 C 321.7065005641996 442.59772512331335 323.94507681504564 440.3591488724673 326.7065005641996 440.3591488724673 C 329.46792431335354 440.3591488724673 331.7065005641996 442.59772512331335 331.7065005641996 445.3591488724673 Z" stroke-opacity="1" stroke-linecap="round" stroke-linejoin="round" stroke-miterlimit="10"/><path fill="rgb(77,77,255)" stroke="none" paint-order="stroke fill markers" d=" M 416.33074783239795 105.02250225036678 C 416.33074783239795 107.78392599952075 414.0921715815519 110.02250225036678 411.33074783239795 110.02250225036678 C 408.569324083244 110.02250225036678 406.33074783239795 107.78392599952075 406.33074783239795 105.02250225036678 C 406.33074783239795 102.26107850121282 408.569324083244 100.02250225036678 411.33074783239795 100.02250225036678 C 414.0921715815519 100.02250225036678 416.33074783239795 102.26107850121282 416.33074783239795 105.02250225036678 Z" fill-opacity="1"/><path fill="none" stroke="rgb(0,0,0)" paint-order="fill stroke markers" d=" M 416.33074783239795 105.02250225036678 C 416.33074783239795 107.78392599952075 414.0921715815519 110.02250225036678 411.33074783239795 110.02250225036678 C 408.569324083244 110.02250225036678 406.33074783239795 107.78392599952075 406.33074783239795 105.02250225036678 C 406.33074783239795 102.26107850121282 408.569324083244 100.02250225036678 411.33074783239795 100.02250225036678 C 414.0921715815519 100.02250225036678 416.33074783239795 102.26107850121282 416.33074783239795 105.02250225036678 Z" stroke-opacity="1" stroke-linecap="round" stroke-linejoin="round" stroke-miterlimit="10"/><g transform="scale(27,27)"><g transform="translate(15.62962962962963,2.9490735185185186)"><path fill="rgb(77,77,255)" stroke="none" paint-order="stroke fill markers" d=" M 0.334 -0.302 L 0.3 -0.165 Q 0.28300000000000003 -0.097 0.28300000000000003 -0.077 Q 0.28300000000000003 -0.025 0.32 -0.014 Q 0.328 -0.011 0.338 -0.011 Q 0.388 -0.011 0.429 -0.061 Q 0.456 -0.093 0.47100000000000003 -0.14200000000000002 Q 0.47400000000000003 -0.153 0.484 -0.153 Q 0.496 -0.153 0.496 -0.14300000000000002 Q 0.496 -0.11800000000000001 0.465 -0.07100000000000001 Q 0.41100000000000003 0.011 0.336 0.011 Q 0.268 0.011 0.23700000000000002 -0.046 Q 0.231 -0.055 0.228 -0.065 Q 0.20400000000000001 -0.017 0.162 0.002 Q 0.14300000000000002 0.011 0.123 0.011 Q 0.063 0.011 0.039 -0.024 Q 0.029 -0.037 0.029 -0.055 Q 0.029 -0.092 0.061 -0.107 Q 0.07200000000000001 -0.113 0.084 -0.113 Q 0.114 -0.113 0.12 -0.088 Q 0.121 -0.083 0.121 -0.078 Q 0.121 -0.044 0.08700000000000001 -0.028 Q 0.081 -0.025 0.074 -0.024 Q 0.095 -0.011 0.124 -0.011 Q 0.177 -0.011 0.20800000000000002 -0.082 Q 0.214 -0.097 0.219 -0.115 Q 0.273 -0.319 0.273 -0.353 Q 0.267 -0.41500000000000004 0.219 -0.42 Q 0.167 -0.42 0.124 -0.367 L 0.124 -0.366 Q 0.124 -0.365 0.123 -0.365 Q 0.108 -0.34500000000000003 0.096 -0.319 Q 0.091 -0.307 0.08700000000000001 -0.295 L 0.085 -0.289 Q 0.083 -0.278 0.07200000000000001 -0.278 Q 0.06 -0.278 0.06 -0.28800000000000003 Q 0.06 -0.313 0.092 -0.36 Q 0.146 -0.442 0.221 -0.442 Q 0.298 -0.442 0.329 -0.366 Q 0.361 -0.428 0.41400000000000003 -0.44 Q 0.424 -0.442 0.434 -0.442 Q 0.493 -0.442 0.517 -0.40900000000000003 Q 0.527 -0.395 0.527 -0.376 Q 0.527 -0.335 0.49 -0.321 Q 0.481 -0.318 0.47300000000000003 -0.318 Q 0.442 -0.318 0.436 -0.34500000000000003 Q 0.435 -0.34900000000000003 0.435 -0.353 Q 0.435 -0.383 0.464 -0.4 Q 0.47300000000000003 -0.405 0.483 -0.40700000000000003 Q 0.462 -0.42 0.433 -0.42 Q 0.365 -0.42 0.337 -0.314 Q 0.335 -0.308 0.334 -0.302 Z"/></g></g><path fill="rgb(77,77,255)" stroke="none" paint-order="stroke fill markers" d=" M 457.7230426918428 303.70551757570115 C 457.7230426918428 306.4669413248551 455.48446644099675 308.70551757570115 452.7230426918428 308.70551757570115 C 449.96161894268886 308.70551757570115 447.7230426918428 306.4669413248551 447.7230426918428 303.70551757570115 C 447.7230426918428 300.9440938265472 449.96161894268886 298.70551757570115 452.7230426918428 298.70551757570115 C 455.48446644099675 298.70551757570115 457.7230426918428 300.9440938265472 457.7230426918428 303.70551757570115 Z" fill-opacity="1"/><path fill="none" stroke="rgb(0,0,0)" paint-order="fill stroke markers" d=" M 457.7230426918428 303.70551757570115 C 457.7230426918428 306.4669413248551 455.48446644099675 308.70551757570115 452.7230426918428 308.70551757570115 C 449.96161894268886 308.70551757570115 447.7230426918428 306.4669413248551 447.7230426918428 303.70551757570115 C 447.7230426918428 300.9440938265472 449.96161894268886 298.70551757570115 452.7230426918428 298.70551757570115 C 455.48446644099675 298.70551757570115 457.7230426918428 300.9440938265472 457.7230426918428 303.70551757570115 Z" stroke-opacity="1" stroke-linecap="round" stroke-linejoin="round" stroke-miterlimit="10"/><path fill="rgb(77,77,255)" stroke="none" paint-order="stroke fill markers" d=" M 486.237734706127 277.95031188538 C 486.237734706127 280.71173563453397 483.99915845528096 282.95031188538 481.237734706127 282.95031188538 C 478.47631095697307 282.95031188538 476.237734706127 280.71173563453397 476.237734706127 277.95031188538 C 476.237734706127 275.18888813622607 478.47631095697307 272.95031188538 481.237734706127 272.95031188538 C 483.99915845528096 272.95031188538 486.237734706127 275.18888813622607 486.237734706127 277.95031188538 Z" fill-opacity="1"/><path fill="none" stroke="rgb(0,0,0)" paint-order="fill stroke markers" d=" M 486.237734706127 277.95031188538 C 486.237734706127 280.71173563453397 483.99915845528096 282.95031188538 481.237734706127 282.95031188538 C 478.47631095697307 282.95031188538 476.237734706127 280.71173563453397 476.237734706127 277.95031188538 C 476.237734706127 275.18888813622607 478.47631095697307 272.95031188538 481.237734706127 272.95031188538 C 483.99915845528096 272.95031188538 486.237734706127 275.18888813622607 486.237734706127 277.95031188538 Z" stroke-opacity="1" stroke-linecap="round" stroke-linejoin="round" stroke-miterlimit="10"/><path fill="rgb(77,77,255)" stroke="none" paint-order="stroke fill markers" d=" M 543.2671187346955 272.43133923745404 C 543.2671187346955 275.192762986608 541.0285424838495 277.43133923745404 538.2671187346955 277.43133923745404 C 535.5056949855415 277.43133923745404 533.2671187346955 275.192762986608 533.2671187346955 272.43133923745404 C 533.2671187346955 269.6699154883001 535.5056949855415 267.43133923745404 538.2671187346955 267.43133923745404 C 541.0285424838495 267.43133923745404 543.2671187346955 269.6699154883001 543.2671187346955 272.43133923745404 Z" fill-opacity="1"/><path fill="none" stroke="rgb(0,0,0)" paint-order="fill stroke markers" d=" M 543.2671187346955 272.43133923745404 C 543.2671187346955 275.192762986608 541.0285424838495 277.43133923745404 538.2671187346955 277.43133923745404 C 535.5056949855415 277.43133923745404 533.2671187346955 275.192762986608 533.2671187346955 272.43133923745404 C 533.2671187346955 269.6699154883001 535.5056949855415 267.43133923745404 538.2671187346955 267.43133923745404 C 541.0285424838495 267.43133923745404 543.2671187346955 269.6699154883001 543.2671187346955 272.43133923745404 Z" stroke-opacity="1" stroke-linecap="round" stroke-linejoin="round" stroke-miterlimit="10"/><path fill="rgb(77,77,255)" stroke="none" paint-order="stroke fill markers" d=" M 543.2671187346955 232.87870192731805 C 543.2671187346955 235.64012567647202 541.0285424838495 237.87870192731805 538.2671187346955 237.87870192731805 C 535.5056949855415 237.87870192731805 533.2671187346955 235.64012567647202 533.2671187346955 232.87870192731805 C 533.2671187346955 230.11727817816407 535.5056949855415 227.87870192731805 538.2671187346955 227.87870192731805 C 541.0285424838495 227.87870192731805 543.2671187346955 230.11727817816407 543.2671187346955 232.87870192731805 Z" fill-opacity="1"/><path fill="none" stroke="rgb(0,0,0)" paint-order="fill stroke markers" d=" M 543.2671187346955 232.87870192731805 C 543.2671187346955 235.64012567647202 541.0285424838495 237.87870192731805 538.2671187346955 237.87870192731805 C 535.5056949855415 237.87870192731805 533.2671187346955 235.64012567647202 533.2671187346955 232.87870192731805 C 533.2671187346955 230.11727817816407 535.5056949855415 227.87870192731805 538.2671187346955 227.87870192731805 C 541.0285424838495 227.87870192731805 543.2671187346955 230.11727817816407 543.2671187346955 232.87870192731805 Z" stroke-opacity="1" stroke-linecap="round" stroke-linejoin="round" stroke-miterlimit="10"/><path fill="rgb(77,77,255)" stroke="none" paint-order="stroke fill markers" d=" M 515.6722554950655 204.36400991303395 C 515.6722554950655 207.12543366218793 513.4336792442195 209.36400991303395 510.67225549506554 209.36400991303395 C 507.9108317459116 209.36400991303395 505.67225549506554 207.12543366218793 505.67225549506554 204.36400991303395 C 505.67225549506554 201.60258616387998 507.9108317459116 199.36400991303395 510.67225549506554 199.36400991303395 C 513.4336792442195 199.36400991303395 515.6722554950655 201.60258616387998 515.6722554950655 204.36400991303395 Z" fill-opacity="1"/><path fill="none" stroke="rgb(0,0,0)" paint-order="fill stroke markers" d=" M 515.6722554950655 204.36400991303395 C 515.6722554950655 207.12543366218793 513.4336792442195 209.36400991303395 510.67225549506554 209.36400991303395 C 507.9108317459116 209.36400991303395 505.67225549506554 207.12543366218793 505.67225549506554 204.36400991303395 C 505.67225549506554 201.60258616387998 507.9108317459116 199.36400991303395 510.67225549506554 199.36400991303395 C 513.4336792442195 199.36400991303395 515.6722554950655 201.60258616387998 515.6722554950655 204.36400991303395 Z" stroke-opacity="1" stroke-linecap="round" stroke-linejoin="round" stroke-miterlimit="10"/><path fill="rgb(77,77,255)" stroke="none" paint-order="stroke fill markers" d=" M 547.8662626079671 189.64674951856472 C 547.8662626079671 192.4081732677187 545.6276863571211 194.64674951856472 542.8662626079671 194.64674951856472 C 540.1048388588131 194.64674951856472 537.8662626079671 192.4081732677187 537.8662626079671 189.64674951856472 C 537.8662626079671 186.88532576941074 540.1048388588131 184.64674951856472 542.8662626079671 184.64674951856472 C 545.6276863571211 184.64674951856472 547.8662626079671 186.88532576941074 547.8662626079671 189.64674951856472 Z" fill-opacity="1"/><path fill="none" stroke="rgb(0,0,0)" paint-order="fill stroke markers" d=" M 547.8662626079671 189.64674951856472 C 547.8662626079671 192.4081732677187 545.6276863571211 194.64674951856472 542.8662626079671 194.64674951856472 C 540.1048388588131 194.64674951856472 537.8662626079671 192.4081732677187 537.8662626079671 189.64674951856472 C 537.8662626079671 186.88532576941074 540.1048388588131 184.64674951856472 542.8662626079671 184.64674951856472 C 545.6276863571211 184.64674951856472 547.8662626079671 186.88532576941074 547.8662626079671 189.64674951856472 Z" stroke-opacity="1" stroke-linecap="round" stroke-linejoin="round" stroke-miterlimit="10"/><path fill="rgb(77,77,255)" stroke="none" paint-order="stroke fill markers" d=" M 592.9378725660292 189.64674951856472 C 592.9378725660292 192.4081732677187 590.6992963151832 194.64674951856472 587.9378725660292 194.64674951856472 C 585.1764488168752 194.64674951856472 582.9378725660292 192.4081732677187 582.9378725660292 189.64674951856472 C 582.9378725660292 186.88532576941074 585.1764488168752 184.64674951856472 587.9378725660292 184.64674951856472 C 590.6992963151832 184.64674951856472 592.9378725660292 186.88532576941074 592.9378725660292 189.64674951856472 Z" fill-opacity="1"/><path fill="none" stroke="rgb(0,0,0)" paint-order="fill stroke markers" d=" M 592.9378725660292 189.64674951856472 C 592.9378725660292 192.4081732677187 590.6992963151832 194.64674951856472 587.9378725660292 194.64674951856472 C 585.1764488168752 194.64674951856472 582.9378725660292 192.4081732677187 582.9378725660292 189.64674951856472 C 582.9378725660292 186.88532576941074 585.1764488168752 184.64674951856472 587.9378725660292 184.64674951856472 C 590.6992963151832 184.64674951856472 592.9378725660292 186.88532576941074 592.9378725660292 189.64674951856472 Z" stroke-opacity="1" stroke-linecap="round" stroke-linejoin="round" stroke-miterlimit="10"/><path fill="rgb(77,77,255)" stroke="none" paint-order="stroke fill markers" d=" M 708.8362981724748 168.4906877015152 C 708.8362981724748 171.2521114506692 706.5977219216288 173.4906877015152 703.8362981724748 173.4906877015152 C 701.0748744233208 173.4906877015152 698.8362981724748 171.2521114506692 698.8362981724748 168.4906877015152 C 698.8362981724748 165.72926395236124 701.0748744233208 163.4906877015152 703.8362981724748 163.4906877015152 C 706.5977219216288 163.4906877015152 708.8362981724748 165.72926395236124 708.8362981724748 168.4906877015152 Z" fill-opacity="1"/><path fill="none" stroke="rgb(0,0,0)" paint-order="fill stroke markers" d=" M 708.8362981724748 168.4906877015152 C 708.8362981724748 171.2521114506692 706.5977219216288 173.4906877015152 703.8362981724748 173.4906877015152 C 701.0748744233208 173.4906877015152 698.8362981724748 171.2521114506692 698.8362981724748 168.4906877015152 C 698.8362981724748 165.72926395236124 701.0748744233208 163.4906877015152 703.8362981724748 163.4906877015152 C 706.5977219216288 163.4906877015152 708.8362981724748 165.72926395236124 708.8362981724748 168.4906877015152 Z" stroke-opacity="1" stroke-linecap="round" stroke-linejoin="round" stroke-miterlimit="10"/><path fill="rgb(77,77,255)" stroke="none" paint-order="stroke fill markers" d=" M 800.8191756379078 180.44846177202146 C 800.8191756379078 183.20988552117544 798.5805993870619 185.44846177202146 795.8191756379078 185.44846177202146 C 793.0577518887538 185.44846177202146 790.8191756379078 183.20988552117544 790.8191756379078 180.44846177202146 C 790.8191756379078 177.68703802286748 793.0577518887538 175.44846177202146 795.8191756379078 175.44846177202146 C 798.5805993870619 175.44846177202146 800.8191756379078 177.68703802286748 800.8191756379078 180.44846177202146 Z" fill-opacity="1"/><path fill="none" stroke="rgb(0,0,0)" paint-order="fill stroke markers" d=" M 800.8191756379078 180.44846177202146 C 800.8191756379078 183.20988552117544 798.5805993870619 185.44846177202146 795.8191756379078 185.44846177202146 C 793.0577518887538 185.44846177202146 790.8191756379078 183.20988552117544 790.8191756379078 180.44846177202146 C 790.8191756379078 177.68703802286748 793.0577518887538 175.44846177202146 795.8191756379078 175.44846177202146 C 798.5805993870619 175.44846177202146 800.8191756379078 177.68703802286748 800.8191756379078 180.44846177202146 Z" stroke-opacity="1" stroke-linecap="round" stroke-linejoin="round" stroke-miterlimit="10"/><path fill="rgb(77,77,255)" stroke="none" paint-order="stroke fill markers" d=" M 870.7261625116369 180.44846177202146 C 870.7261625116369 183.20988552117544 868.4875862607909 185.44846177202146 865.7261625116369 185.44846177202146 C 862.9647387624829 185.44846177202146 860.7261625116369 183.20988552117544 860.7261625116369 180.44846177202146 C 860.7261625116369 177.68703802286748 862.9647387624829 175.44846177202146 865.7261625116369 175.44846177202146 C 868.4875862607909 175.44846177202146 870.7261625116369 177.68703802286748 870.7261625116369 180.44846177202146 Z" fill-opacity="1"/><path fill="none" stroke="rgb(0,0,0)" paint-order="fill stroke markers" d=" M 870.7261625116369 180.44846177202146 C 870.7261625116369 183.20988552117544 868.4875862607909 185.44846177202146 865.7261625116369 185.44846177202146 C 862.9647387624829 185.44846177202146 860.7261625116369 183.20988552117544 860.7261625116369 180.44846177202146 C 860.7261625116369 177.68703802286748 862.9647387624829 175.44846177202146 865.7261625116369 175.44846177202146 C 868.4875862607909 175.44846177202146 870.7261625116369 177.68703802286748 870.7261625116369 180.44846177202146 Z" stroke-opacity="1" stroke-linecap="round" stroke-linejoin="round" stroke-miterlimit="10"/><path fill="rgb(77,77,255)" stroke="none" paint-order="stroke fill markers" d=" M 915.797772469699 282.5494557586516 C 915.797772469699 285.31087950780557 913.559196218853 287.5494557586516 910.797772469699 287.5494557586516 C 908.036348720545 287.5494557586516 905.797772469699 285.31087950780557 905.797772469699 282.5494557586516 C 905.797772469699 279.78803200949767 908.036348720545 277.5494557586516 910.797772469699 277.5494557586516 C 913.559196218853 277.5494557586516 915.797772469699 279.78803200949767 915.797772469699 282.5494557586516 Z" fill-opacity="1"/><path fill="none" stroke="rgb(0,0,0)" paint-order="fill stroke markers" d=" M 915.797772469699 282.5494557586516 C 915.797772469699 285.31087950780557 913.559196218853 287.5494557586516 910.797772469699 287.5494557586516 C 908.036348720545 287.5494557586516 905.797772469699 285.31087950780557 905.797772469699 282.5494557586516 C 905.797772469699 279.78803200949767 908.036348720545 277.5494557586516 910.797772469699 277.5494557586516 C 913.559196218853 277.5494557586516 915.797772469699 279.78803200949767 915.797772469699 282.5494557586516 Z" stroke-opacity="1" stroke-linecap="round" stroke-linejoin="round" stroke-miterlimit="10"/><path fill="rgb(77,77,255)" stroke="none" paint-order="stroke fill markers" d=" M 959.0297248784525 319.34260674482465 C 959.0297248784525 322.1040304939786 956.7911486276065 324.34260674482465 954.0297248784525 324.34260674482465 C 951.2683011292985 324.34260674482465 949.0297248784525 322.1040304939786 949.0297248784525 319.34260674482465 C 949.0297248784525 316.5811829956707 951.2683011292985 314.34260674482465 954.0297248784525 314.34260674482465 C 956.7911486276065 314.34260674482465 959.0297248784525 316.5811829956707 959.0297248784525 319.34260674482465 Z" fill-opacity="1"/><path fill="none" stroke="rgb(0,0,0)" paint-order="fill stroke markers" d=" M 959.0297248784525 319.34260674482465 C 959.0297248784525 322.1040304939786 956.7911486276065 324.34260674482465 954.0297248784525 324.34260674482465 C 951.2683011292985 324.34260674482465 949.0297248784525 322.1040304939786 949.0297248784525 319.34260674482465 C 949.0297248784525 316.5811829956707 951.2683011292985 314.34260674482465 954.0297248784525 314.34260674482465 C 956.7911486276065 314.34260674482465 959.0297248784525 316.5811829956707 959.0297248784525 319.34260674482465 Z" stroke-opacity="1" stroke-linecap="round" stroke-linejoin="round" stroke-miterlimit="10"/><path fill="rgb(77,77,255)" stroke="none" paint-order="stroke fill markers" d=" M 959.0297248784525 436.16086112592404 C 959.0297248784525 438.922284875078 956.7911486276065 441.16086112592404 954.0297248784525 441.16086112592404 C 951.2683011292985 441.16086112592404 949.0297248784525 438.922284875078 949.0297248784525 436.16086112592404 C 949.0297248784525 433.3994373767701 951.2683011292985 431.16086112592404 954.0297248784525 431.16086112592404 C 956.7911486276065 431.16086112592404 959.0297248784525 433.3994373767701 959.0297248784525 436.16086112592404 Z" fill-opacity="1"/><path fill="none" stroke="rgb(0,0,0)" paint-order="fill stroke markers" d=" M 959.0297248784525 436.16086112592404 C 959.0297248784525 438.922284875078 956.7911486276065 441.16086112592404 954.0297248784525 441.16086112592404 C 951.2683011292985 441.16086112592404 949.0297248784525 438.922284875078 949.0297248784525 436.16086112592404 C 949.0297248784525 433.3994373767701 951.2683011292985 431.16086112592404 954.0297248784525 431.16086112592404 C 956.7911486276065 431.16086112592404 959.0297248784525 433.3994373767701 959.0297248784525 436.16086112592404 Z" stroke-opacity="1" stroke-linecap="round" stroke-linejoin="round" stroke-miterlimit="10"/></g></g></svg>