<svg version="1.1" xmlns="http://www.w3.org/2000/svg" xmlns:xlink="http://www.w3.org/1999/xlink" width="1366" height="562"><defs><clipPath id="lcTuAbSRdTsD"><path fill="none" stroke="none" d=" M 0 0 L 1366 0 L 1366 562 L 0 562 L 0 0 Z"/></clipPath></defs><g transform="scale(1,1)" clip-path="url(#lcTuAbSRdTsD)"><g><rect fill="rgb(255,255,255)" stroke="none" x="0" y="0" width="1366" height="562" fill-opacity="1"/><path fill="none" stroke="rgb(0,0,0)" paint-order="fill stroke markers" d=" M 378.00000000000017 51.00000000000003 L 406.0000000000001 234 L 454.0000000000001 239 L 516.0000000000001 233 L 516.0000000000001 190 L 486.0000000000001 159 L 490.0000000000001 113 L 521 143 L 570 143 L 601 86 L 696 120 L 744 80.00000000000003 L 796 133 L 871.9999999999999 133 L 922.9999999999999 122 L 920.9999999999999 244 L 967.9999999999999 284 L 1028.9999999999998 318 L 967.9999999999999 411 L 989.9999999999998 444" stroke-opacity="0.6980392156862745" stroke-linecap="round" stroke-linejoin="round" stroke-miterlimit="10" stroke-width="2.5"/><path fill="none" stroke="rgb(153,51,0)" paint-order="fill stroke markers" d=" M 286.00000000000017 421 L 989.9999999999998 444" stroke-opacity="0.6980392156862745" stroke-linecap="round" stroke-linejoin="round" stroke-miterlimit="10" stroke-width="2.5"/><path fill="none" stroke="rgb(153,51,0)" paint-order="fill stroke markers" d=" M 989.9999999999998 444 L 1028.9999999999998 318" stroke-opacity="0.6980392156862745" stroke-linecap="round" stroke-linejoin="round" stroke-miterlimit="10" stroke-width="2.5"/><path fill="none" stroke="rgb(153,51,0)" paint-order="fill stroke markers" d=" M 1028.9999999999998 318 L 922.9999999999999 122" stroke-opacity="0.6980392156862745" stroke-linecap="round" stroke-linejoin="round" stroke-miterlimit="10" stroke-width="2.5"/><path fill="none" stroke="rgb(153,51,0)" paint-order="fill stroke markers" d=" M 922.9999999999999 122 L 744 80.00000000000003" stroke-opacity="0.6980392156862745" stroke-linecap="round" stroke-linejoin="round" stroke-miterlimit="10" stroke-width="2.5"/><path fill="none" stroke="rgb(153,51,0)" paint-order="fill stroke markers" d=" M 744 80.00000000000003 L 601 86" stroke-opacity="0.6980392156862745" stroke-linecap="round" stroke-linejoin="round" stroke-miterlimit="10" stroke-width="2.5"/><path fill="none" stroke="rgb(153,51,0)" paint-order="fill stroke markers" d=" M 601 86 L 490.0000000000001 113" stroke-opacity="0.6980392156862745" stroke-linecap="round" stroke-linejoin="round" stroke-miterlimit="10" stroke-width="2.5"/><path fill="none" stroke="rgb(153,51,0)" paint-order="fill stroke markers" d=" M 490.0000000000001 113 L 360.0000000000001 233" stroke-opacity="0.6980392156862745" stroke-linecap="round" stroke-linejoin="round" stroke-miterlimit="10" stroke-width="2.5"/><path fill="none" stroke="rgb(153,51,0)" paint-order="fill stroke markers" d=" M 360.0000000000001 233 L 286.00000000000017 421" stroke-opacity="0.6980392156862745" stroke-linecap="round" stroke-linejoin="round" stroke-miterlimit="10" stroke-width="2.5"/><path fill="none" stroke="rgb(0,100,0)" paint-order="fill stroke markers" d=" M 378.00000000000017 51.00000000000003 L 744 80.00000000000003" stroke-opacity="0.6980392156862745" stroke-linecap="round" stroke-linejoin="round" stroke-miterlimit="10" stroke-width="2.5"/><path fill="rgb(77,77,255)" stroke="none" paint-order="stroke fill markers" d=" M 291.00000000000017 421 C 291.00000000000017 423.76142374915395 288.7614237491541 426 286.00000000000017 426 C 283.2385762508462 426 281.00000000000017 423.76142374915395 281.00000000000017 421 C 281.00000000000017 418.23857625084605 283.2385762508462 416 286.00000000000017 416 C 288.7614237491541 416 291.00000000000017 418.23857625084605 291.00000000000017 421 Z" fill-opacity="1"/><path fill="none" stroke="rgb(0,0,0)" paint-order="fill stroke markers" d=" M 291.00000000000017 421 C 291.00000000000017 423.76142374915395 288.7614237491541 426 286.00000000000017 426 C 283.2385762508462 426 281.00000000000017 423.76142374915395 281.00000000000017 421 C 281.00000000000017 418.23857625084605 283.2385762508462 416 286.00000000000017 416 C 288.7614237491541 416 291.00000000000017 418.23857625084605 291.00000000000017 421 Z" stroke-opacity="1" stroke-linecap="round" stroke-linejoin="round" stroke-miterlimit="10"/><g transform="scale(27,27)"><g transform="translate(9.62962962962963,14.54166611111111)"><path fill="rgb(77,77,255)" stroke="none" paint-order="stroke fill markers" d=" M 0.452 -0.431 L 0.314 0.125 Q 0.31 0.14300000000000002 0.31 0.147 Q 0.31 0.158 0.323 0.161 L 0.323 0.161 Q 0.334 0.163 0.358 0.163 Q 0.382 0.163 0.384 0.17400000000000002 Q 0.384 0.194 0.366 0.194 L 0.264 0.191 L 0.263 0.191 L 0.164 0.194 L 0.163 0.194 Q 0.15 0.194 0.15 0.183 Q 0.158 0.164 0.17300000000000001 0.163 Q 0.225 0.162 0.23600000000000002 0.15 Q 0.241 0.14400000000000002 0.245 0.13 L 0.29 -0.049 Q 0.23 0.011 0.17200000000000001 0.011 Q 0.10200000000000001 0.011 0.065 -0.052000000000000005 Q 0.04 -0.093 0.04 -0.149 Q 0.04 -0.256 0.115 -0.34800000000000003 Q 0.184 -0.433 0.267 -0.441 Q 0.274 -0.442 0.281 -0.442 Q 0.34500000000000003 -0.442 0.374 -0.372 Q 0.395 -0.40800000000000003 0.428 -0.434 L 0.43 -0.435 Q 0.438 -0.441 0.442 -0.441 Q 0.452 -0.441 0.452 -0.431 M 0.17500000000000002 -0.011 Q 0.228 -0.011 0.28300000000000003 -0.076 Q 0.295 -0.091 0.302 -0.10300000000000001 Q 0.308 -0.111 0.356 -0.312 Q 0.36 -0.33 0.36 -0.332 Q 0.36 -0.354 0.342 -0.383 Q 0.32 -0.42 0.281 -0.42 Q 0.232 -0.42 0.188 -0.359 Q 0.17 -0.334 0.157 -0.304 Q 0.129 -0.234 0.115 -0.14300000000000002 Q 0.111 -0.12 0.111 -0.105 Q 0.111 -0.04 0.146 -0.019 L 0.147 -0.018000000000000002 Q 0.159 -0.011 0.17500000000000002 -0.011 Z"/></g><g transform="translate(10.07604362962963,14.691666111111111) scale(0.7,0.7)"><path fill="rgb(77,77,255)" stroke="none" paint-order="stroke fill markers" d=" M 0.46 -0.32 Q 0.46 -0.17400000000000002 0.423 -0.094 Q 0.364 0.018000000000000002 0.249 0.022 Q 0.158 0.022 0.10300000000000001 -0.05 Q 0.092 -0.063 0.084 -0.079 Q 0.039 -0.162 0.039 -0.32 Q 0.039 -0.467 0.076 -0.547 Q 0.126 -0.659 0.23800000000000002 -0.666 L 0.25 -0.666 Q 0.339 -0.666 0.395 -0.595 L 0.395 -0.594 Q 0.40900000000000003 -0.5760000000000001 0.42 -0.554 Q 0.46 -0.46900000000000003 0.46 -0.32 M 0.249 0 L 0.249 0 Q 0.312 0 0.34600000000000003 -0.061 Q 0.36 -0.088 0.366 -0.125 Q 0.377 -0.189 0.377 -0.332 Q 0.377 -0.47100000000000003 0.367 -0.527 Q 0.34900000000000003 -0.622 0.275 -0.641 Q 0.262 -0.644 0.249 -0.644 Q 0.179 -0.644 0.147 -0.5740000000000001 Q 0.136 -0.55 0.13 -0.516 Q 0.122 -0.462 0.122 -0.332 Q 0.122 -0.181 0.133 -0.121 Q 0.151 -0.025 0.221 -0.004 Q 0.23500000000000001 0 0.249 0 Z"/></g></g><path fill="rgb(77,77,255)" stroke="none" paint-order="stroke fill markers" d=" M 994.9999999999998 444 C 994.9999999999998 446.76142374915395 992.7614237491538 449 989.9999999999998 449 C 987.2385762508458 449 984.9999999999998 446.76142374915395 984.9999999999998 444 C 984.9999999999998 441.23857625084605 987.2385762508458 439 989.9999999999998 439 C 992.7614237491538 439 994.9999999999998 441.23857625084605 994.9999999999998 444 Z" fill-opacity="1"/><path fill="none" stroke="rgb(0,0,0)" paint-order="fill stroke markers" d=" M 994.9999999999998 444 C 994.9999999999998 446.76142374915395 992.7614237491538 449 989.9999999999998 449 C 987.2385762508458 449 984.9999999999998 446.76142374915395 984.9999999999998 444 C 984.9999999999998 441.23857625084605 987.2385762508458 439 989.9999999999998 439 C 992.7614237491538 439 994.9999999999998 441.23857625084605 994.9999999999998 444 Z" stroke-opacity="1" stroke-linecap="round" stroke-linejoin="round" stroke-miterlimit="10"/><g transform="scale(27,27)"><g transform="translate(37.18518518518518,16.208332777777777)"><path fill="rgb(77,77,255)" stroke="none" paint-order="stroke fill markers" d=" M 0.452 -0.431 L 0.314 0.125 Q 0.31 0.14300000000000002 0.31 0.147 Q 0.31 0.158 0.323 0.161 L 0.323 0.161 Q 0.334 0.163 0.358 0.163 Q 0.382 0.163 0.384 0.17400000000000002 Q 0.384 0.194 0.366 0.194 L 0.264 0.191 L 0.263 0.191 L 0.164 0.194 L 0.163 0.194 Q 0.15 0.194 0.15 0.183 Q 0.158 0.164 0.17300000000000001 0.163 Q 0.225 0.162 0.23600000000000002 0.15 Q 0.241 0.14400000000000002 0.245 0.13 L 0.29 -0.049 Q 0.23 0.011 0.17200000000000001 0.011 Q 0.10200000000000001 0.011 0.065 -0.052000000000000005 Q 0.04 -0.093 0.04 -0.149 Q 0.04 -0.256 0.115 -0.34800000000000003 Q 0.184 -0.433 0.267 -0.441 Q 0.274 -0.442 0.281 -0.442 Q 0.34500000000000003 -0.442 0.374 -0.372 Q 0.395 -0.40800000000000003 0.428 -0.434 L 0.43 -0.435 Q 0.438 -0.441 0.442 -0.441 Q 0.452 -0.441 0.452 -0.431 M 0.17500000000000002 -0.011 Q 0.228 -0.011 0.28300000000000003 -0.076 Q 0.295 -0.091 0.302 -0.10300000000000001 Q 0.308 -0.111 0.356 -0.312 Q 0.36 -0.33 0.36 -0.332 Q 0.36 -0.354 0.342 -0.383 Q 0.32 -0.42 0.281 -0.42 Q 0.232 -0.42 0.188 -0.359 Q 0.17 -0.334 0.157 -0.304 Q 0.129 -0.234 0.115 -0.14300000000000002 Q 0.111 -0.12 0.111 -0.105 Q 0.111 -0.04 0.146 -0.019 L 0.147 -0.018000000000000002 Q 0.159 -0.011 0.17500000000000002 -0.011 Z"/></g><g transform="translate(37.63159918518518,16.358332777777775) scale(0.7,0.7)"><path fill="rgb(77,77,255)" stroke="none" paint-order="stroke fill markers" d=" M 0.294 -0.64 L 0.294 -0.079 Q 0.294 -0.049 0.306 -0.041 Q 0.323 -0.031 0.387 -0.031 L 0.419 -0.031 L 0.419 0 Q 0.384 -0.003 0.257 -0.003 Q 0.13 -0.003 0.095 0 L 0.095 -0.031 L 0.127 -0.031 Q 0.20400000000000001 -0.031 0.215 -0.049 L 0.216 -0.05 Q 0.22 -0.058 0.22 -0.079 L 0.22 -0.597 Q 0.168 -0.5710000000000001 0.089 -0.5710000000000001 L 0.089 -0.602 Q 0.209 -0.602 0.271 -0.666 Q 0.29 -0.666 0.293 -0.659 L 0.293 -0.659 L 0.293 -0.658 Q 0.294 -0.655 0.294 -0.64 Z"/></g></g><path fill="rgb(77,77,255)" stroke="none" paint-order="stroke fill markers" d=" M 1033.9999999999998 318 C 1033.9999999999998 320.76142374915395 1031.7614237491537 323 1028.9999999999998 323 C 1026.2385762508459 323 1023.9999999999998 320.76142374915395 1023.9999999999998 318 C 1023.9999999999998 315.23857625084605 1026.2385762508459 313 1028.9999999999998 313 C 1031.7614237491537 313 1033.9999999999998 315.23857625084605 1033.9999999999998 318 Z" fill-opacity="1"/><path fill="none" stroke="rgb(0,0,0)" paint-order="fill stroke markers" d=" M 1033.9999999999998 318 C 1033.9999999999998 320.76142374915395 1031.7614237491537 323 1028.9999999999998 323 C 1026.2385762508459 323 1023.9999999999998 320.76142374915395 1023.9999999999998 318 C 1023.9999999999998 315.23857625084605 1026.2385762508459 313 1028.9999999999998 313 C 1031.7614237491537 313 1033.9999999999998 315.23857625084605 1033.9999999999998 318 Z" stroke-opacity="1" stroke-linecap="round" stroke-linejoin="round" stroke-miterlimit="10"/><path fill="rgb(77,77,255)" stroke="none" paint-order="stroke fill markers" d=" M 927.9999999999999 122 C 927.9999999999999 124.76142374915396 925.7614237491539 127 922.9999999999999 127 C 920.2385762508459 127 917.9999999999999 124.76142374915396 917.9999999999999 122 C 917.9999999999999 119.23857625084604 920.2385762508459 117 922.9999999999999 117 C 925.7614237491539 117 927.9999999999999 119.23857625084604 927.9999999999999 122 Z" fill-opacity="1"/><path fill="none" stroke="rgb(0,0,0)" paint-order="fill stroke markers" d=" M 927.9999999999999 122 C 927.9999999999999 124.76142374915396 925.7614237491539 127 922.9999999999999 127 C 920.2385762508459 127 917.9999999999999 124.76142374915396 917.9999999999999 122 C 917.9999999999999 119.23857625084604 920.2385762508459 117 922.9999999999999 117 C 925.7614237491539 117 927.9999999999999 119.23857625084604 927.9999999999999 122 Z" stroke-opacity="1" stroke-linecap="round" stroke-linejoin="round" stroke-miterlimit="10"/><path fill="rgb(77,77,255)" stroke="none" paint-order="stroke fill markers" d=" M 749 80.00000000000003 C 749 82.76142374915399 746.761423749154 85.00000000000003 744 85.00000000000003 C 741.238576250846 85.00000000000003 739 82.76142374915399 739 80.00000000000003 C 739 77.23857625084607 741.238576250846 75.00000000000003 744 75.00000000000003 C 746.761423749154 75.00000000000003 749 77.23857625084607 749 80.00000000000003 Z" fill-opacity="1"/><path fill="none" stroke="rgb(0,0,0)" paint-order="fill stroke markers" d=" M 749 80.00000000000003 C 749 82.76142374915399 746.761423749154 85.00000000000003 744 85.00000000000003 C 741.238576250846 85.00000000000003 739 82.76142374915399 739 80.00000000000003 C 739 77.23857625084607 741.238576250846 75.00000000000003 744 75.00000000000003 C 746.761423749154 75.00000000000003 749 77.23857625084607 749 80.00000000000003 Z" stroke-opacity="1" stroke-linecap="round" stroke-linejoin="round" stroke-miterlimit="10"/><g transform="scale(27,27)"><g transform="translate(27.88888888888889,1.9490735185185186)"><path fill="rgb(77,77,255)" stroke="none" paint-order="stroke fill markers" d=" M 0.452 -0.431 L 0.314 0.125 Q 0.31 0.14300000000000002 0.31 0.147 Q 0.31 0.158 0.323 0.161 L 0.323 0.161 Q 0.334 0.163 0.358 0.163 Q 0.382 0.163 0.384 0.17400000000000002 Q 0.384 0.194 0.366 0.194 L 0.264 0.191 L 0.263 0.191 L 0.164 0.194 L 0.163 0.194 Q 0.15 0.194 0.15 0.183 Q 0.158 0.164 0.17300000000000001 0.163 Q 0.225 0.162 0.23600000000000002 0.15 Q 0.241 0.14400000000000002 0.245 0.13 L 0.29 -0.049 Q 0.23 0.011 0.17200000000000001 0.011 Q 0.10200000000000001 0.011 0.065 -0.052000000000000005 Q 0.04 -0.093 0.04 -0.149 Q 0.04 -0.256 0.115 -0.34800000000000003 Q 0.184 -0.433 0.267 -0.441 Q 0.274 -0.442 0.281 -0.442 Q 0.34500000000000003 -0.442 0.374 -0.372 Q 0.395 -0.40800000000000003 0.428 -0.434 L 0.43 -0.435 Q 0.438 -0.441 0.442 -0.441 Q 0.452 -0.441 0.452 -0.431 M 0.17500000000000002 -0.011 Q 0.228 -0.011 0.28300000000000003 -0.076 Q 0.295 -0.091 0.302 -0.10300000000000001 Q 0.308 -0.111 0.356 -0.312 Q 0.36 -0.33 0.36 -0.332 Q 0.36 -0.354 0.342 -0.383 Q 0.32 -0.42 0.281 -0.42 Q 0.232 -0.42 0.188 -0.359 Q 0.17 -0.334 0.157 -0.304 Q 0.129 -0.234 0.115 -0.14300000000000002 Q 0.111 -0.12 0.111 -0.105 Q 0.111 -0.04 0.146 -0.019 L 0.147 -0.018000000000000002 Q 0.159 -0.011 0.17500000000000002 -0.011 Z"/></g><g transform="translate(28.33530288888889,2.0990735185185185) scale(0.7,0.7)"><path fill="rgb(77,77,255)" stroke="none" paint-order="stroke fill markers" d=" M 0.28400000000000003 -0.625 Q 0.28400000000000003 -0.594 0.253 -0.578 Q 0.242 -0.5720000000000001 0.231 -0.5720000000000001 Q 0.201 -0.5720000000000001 0.194 -0.599 Q 0.193 -0.604 0.193 -0.608 Q 0.193 -0.636 0.221 -0.653 Q 0.234 -0.661 0.247 -0.661 Q 0.277 -0.661 0.28300000000000003 -0.634 L 0.28300000000000003 -0.633 Q 0.28400000000000003 -0.629 0.28400000000000003 -0.625 M 0.20800000000000002 -0.249 L 0.169 -0.14400000000000002 Q 0.14100000000000001 -0.063 0.14 -0.044 Q 0.14 -0.011 0.164 -0.011 Q 0.227 -0.011 0.262 -0.123 L 0.266 -0.135 Q 0.271 -0.151 0.276 -0.152 L 0.276 -0.153 L 0.281 -0.153 Q 0.293 -0.153 0.293 -0.14300000000000002 Q 0.293 -0.125 0.271 -0.079 Q 0.228 0.011 0.162 0.011 Q 0.109 0.011 0.088 -0.033 Q 0.08 -0.051000000000000004 0.08 -0.07100000000000001 Q 0.08 -0.091 0.10300000000000001 -0.151 Q 0.17300000000000001 -0.339 0.17200000000000001 -0.336 Q 0.183 -0.364 0.183 -0.388 Q 0.183 -0.42 0.158 -0.42 Q 0.10300000000000001 -0.42 0.068 -0.329 L 0.068 -0.328 Q 0.062 -0.313 0.057 -0.296 Q 0.046 -0.279 0.041 -0.278 Q 0.029 -0.278 0.029 -0.28800000000000003 Q 0.029 -0.306 0.051000000000000004 -0.35100000000000003 Q 0.094 -0.442 0.161 -0.442 Q 0.214 -0.442 0.23500000000000001 -0.397 Q 0.243 -0.38 0.243 -0.36 Q 0.243 -0.34 0.23 -0.307 Q 0.213 -0.261 0.20800000000000002 -0.249 Z"/></g></g><path fill="rgb(77,77,255)" stroke="none" paint-order="stroke fill markers" d=" M 606 86 C 606 88.76142374915396 603.761423749154 91 601 91 C 598.238576250846 91 596 88.76142374915396 596 86 C 596 83.23857625084604 598.238576250846 81 601 81 C 603.761423749154 81 606 83.23857625084604 606 86 Z" fill-opacity="1"/><path fill="none" stroke="rgb(0,0,0)" paint-order="fill stroke markers" d=" M 606 86 C 606 88.76142374915396 603.761423749154 91 601 91 C 598.238576250846 91 596 88.76142374915396 596 86 C 596 83.23857625084604 598.238576250846 81 601 81 C 603.761423749154 81 606 83.23857625084604 606 86 Z" stroke-opacity="1" stroke-linecap="round" stroke-linejoin="round" stroke-miterlimit="10"/><g transform="scale(27,27)"><g transform="translate(21.88888888888889,4.319443888888889)"><path fill="rgb(77,77,255)" stroke="none" paint-order="stroke fill markers" d=" M 0.452 -0.431 L 0.314 0.125 Q 0.31 0.14300000000000002 0.31 0.147 Q 0.31 0.158 0.323 0.161 L 0.323 0.161 Q 0.334 0.163 0.358 0.163 Q 0.382 0.163 0.384 0.17400000000000002 Q 0.384 0.194 0.366 0.194 L 0.264 0.191 L 0.263 0.191 L 0.164 0.194 L 0.163 0.194 Q 0.15 0.194 0.15 0.183 Q 0.158 0.164 0.17300000000000001 0.163 Q 0.225 0.162 0.23600000000000002 0.15 Q 0.241 0.14400000000000002 0.245 0.13 L 0.29 -0.049 Q 0.23 0.011 0.17200000000000001 0.011 Q 0.10200000000000001 0.011 0.065 -0.052000000000000005 Q 0.04 -0.093 0.04 -0.149 Q 0.04 -0.256 0.115 -0.34800000000000003 Q 0.184 -0.433 0.267 -0.441 Q 0.274 -0.442 0.281 -0.442 Q 0.34500000000000003 -0.442 0.374 -0.372 Q 0.395 -0.40800000000000003 0.428 -0.434 L 0.43 -0.435 Q 0.438 -0.441 0.442 -0.441 Q 0.452 -0.441 0.452 -0.431 M 0.17500000000000002 -0.011 Q 0.228 -0.011 0.28300000000000003 -0.076 Q 0.295 -0.091 0.302 -0.10300000000000001 Q 0.308 -0.111 0.356 -0.312 Q 0.36 -0.33 0.36 -0.332 Q 0.36 -0.354 0.342 -0.383 Q 0.32 -0.42 0.281 -0.42 Q 0.232 -0.42 0.188 -0.359 Q 0.17 -0.334 0.157 -0.304 Q 0.129 -0.234 0.115 -0.14300000000000002 Q 0.111 -0.12 0.111 -0.105 Q 0.111 -0.04 0.146 -0.019 L 0.147 -0.018000000000000002 Q 0.159 -0.011 0.17500000000000002 -0.011 Z"/></g><g transform="translate(22.33530288888889,4.46944388888889) scale(0.7,0.7)"><path fill="rgb(77,77,255)" stroke="none" paint-order="stroke fill markers" d=" M 0.20600000000000002 -0.4 L 0.132 -0.105 Q 0.126 -0.08 0.126 -0.057 Q 0.126 -0.011 0.157 -0.011 Q 0.223 -0.011 0.273 -0.108 L 0.28700000000000003 -0.139 Q 0.293 -0.152 0.302 -0.153 Q 0.314 -0.153 0.314 -0.14300000000000002 Q 0.314 -0.13 0.28800000000000003 -0.08600000000000001 Q 0.23 0.011 0.155 0.011 Q 0.097 0.011 0.073 -0.037 Q 0.063 -0.057 0.063 -0.081 Q 0.063 -0.1 0.124 -0.34 L 0.139 -0.4 L 0.051000000000000004 -0.4 Q 0.026000000000000002 -0.4 0.024 -0.40800000000000003 L 0.023 -0.40800000000000003 L 0.023 -0.41200000000000003 Q 0.023 -0.429 0.039 -0.431 L 0.053 -0.431 L 0.147 -0.431 L 0.186 -0.59 Q 0.195 -0.625 0.226 -0.626 Q 0.252 -0.626 0.255 -0.599 Q 0.255 -0.593 0.214 -0.431 L 0.302 -0.431 Q 0.328 -0.431 0.33 -0.42 Q 0.33 -0.402 0.314 -0.4 L 0.313 -0.4 L 0.3 -0.4 L 0.20600000000000002 -0.4 Z"/></g><g transform="translate(22.58808198888889,4.46944388888889) scale(0.7,0.7)"><path fill="rgb(77,77,255)" stroke="none" paint-order="stroke fill markers" d=" M 0.661 -0.23 L 0.116 -0.23 Q 0.084 -0.23 0.083 -0.25 Q 0.083 -0.27 0.116 -0.27 L 0.661 -0.27 Q 0.6930000000000001 -0.27 0.6940000000000001 -0.25 Q 0.6940000000000001 -0.23 0.661 -0.23 Z"/></g><g transform="translate(23.13252868888889,4.46944388888889) scale(0.7,0.7)"><path fill="rgb(77,77,255)" stroke="none" paint-order="stroke fill markers" d=" M 0.294 -0.64 L 0.294 -0.079 Q 0.294 -0.049 0.306 -0.041 Q 0.323 -0.031 0.387 -0.031 L 0.419 -0.031 L 0.419 0 Q 0.384 -0.003 0.257 -0.003 Q 0.13 -0.003 0.095 0 L 0.095 -0.031 L 0.127 -0.031 Q 0.20400000000000001 -0.031 0.215 -0.049 L 0.216 -0.05 Q 0.22 -0.058 0.22 -0.079 L 0.22 -0.597 Q 0.168 -0.5710000000000001 0.089 -0.5710000000000001 L 0.089 -0.602 Q 0.209 -0.602 0.271 -0.666 Q 0.29 -0.666 0.293 -0.659 L 0.293 -0.659 L 0.293 -0.658 Q 0.294 -0.655 0.294 -0.64 Z"/></g></g><path fill="rgb(77,77,255)" stroke="none" paint-order="stroke fill markers" d=" M 495.0000000000001 113 C 495.0000000000001 115.76142374915396 492.76142374915406 118 490.0000000000001 118 C 487.23857625084617 118 485.0000000000001 115.76142374915396 485.0000000000001 113 C 485.0000000000001 110.23857625084604 487.23857625084617 108 490.0000000000001 108 C 492.76142374915406 108 495.0000000000001 110.23857625084604 495.0000000000001 113 Z" fill-opacity="1"/><path fill="none" stroke="rgb(0,0,0)" paint-order="fill stroke markers" d=" M 495.0000000000001 113 C 495.0000000000001 115.76142374915396 492.76142374915406 118 490.0000000000001 118 C 487.23857625084617 118 485.0000000000001 115.76142374915396 485.0000000000001 113 C 485.0000000000001 110.23857625084604 487.23857625084617 108 490.0000000000001 108 C 492.76142374915406 108 495.0000000000001 110.23857625084604 495.0000000000001 113 Z" stroke-opacity="1" stroke-linecap="round" stroke-linejoin="round" stroke-miterlimit="10"/><g transform="scale(27,27)"><g transform="translate(18.185185185185187,3.393517962962963)"><path fill="rgb(77,77,255)" stroke="none" paint-order="stroke fill markers" d=" M 0.452 -0.431 L 0.314 0.125 Q 0.31 0.14300000000000002 0.31 0.147 Q 0.31 0.158 0.323 0.161 L 0.323 0.161 Q 0.334 0.163 0.358 0.163 Q 0.382 0.163 0.384 0.17400000000000002 Q 0.384 0.194 0.366 0.194 L 0.264 0.191 L 0.263 0.191 L 0.164 0.194 L 0.163 0.194 Q 0.15 0.194 0.15 0.183 Q 0.158 0.164 0.17300000000000001 0.163 Q 0.225 0.162 0.23600000000000002 0.15 Q 0.241 0.14400000000000002 0.245 0.13 L 0.29 -0.049 Q 0.23 0.011 0.17200000000000001 0.011 Q 0.10200000000000001 0.011 0.065 -0.052000000000000005 Q 0.04 -0.093 0.04 -0.149 Q 0.04 -0.256 0.115 -0.34800000000000003 Q 0.184 -0.433 0.267 -0.441 Q 0.274 -0.442 0.281 -0.442 Q 0.34500000000000003 -0.442 0.374 -0.372 Q 0.395 -0.40800000000000003 0.428 -0.434 L 0.43 -0.435 Q 0.438 -0.441 0.442 -0.441 Q 0.452 -0.441 0.452 -0.431 M 0.17500000000000002 -0.011 Q 0.228 -0.011 0.28300000000000003 -0.076 Q 0.295 -0.091 0.302 -0.10300000000000001 Q 0.308 -0.111 0.356 -0.312 Q 0.36 -0.33 0.36 -0.332 Q 0.36 -0.354 0.342 -0.383 Q 0.32 -0.42 0.281 -0.42 Q 0.232 -0.42 0.188 -0.359 Q 0.17 -0.334 0.157 -0.304 Q 0.129 -0.234 0.115 -0.14300000000000002 Q 0.111 -0.12 0.111 -0.105 Q 0.111 -0.04 0.146 -0.019 L 0.147 -0.018000000000000002 Q 0.159 -0.011 0.17500000000000002 -0.011 Z"/></g><g transform="translate(18.631599185185188,3.5435179629629627) scale(0.7,0.7)"><path fill="rgb(77,77,255)" stroke="none" paint-order="stroke fill markers" d=" M 0.20600000000000002 -0.4 L 0.132 -0.105 Q 0.126 -0.08 0.126 -0.057 Q 0.126 -0.011 0.157 -0.011 Q 0.223 -0.011 0.273 -0.108 L 0.28700000000000003 -0.139 Q 0.293 -0.152 0.302 -0.153 Q 0.314 -0.153 0.314 -0.14300000000000002 Q 0.314 -0.13 0.28800000000000003 -0.08600000000000001 Q 0.23 0.011 0.155 0.011 Q 0.097 0.011 0.073 -0.037 Q 0.063 -0.057 0.063 -0.081 Q 0.063 -0.1 0.124 -0.34 L 0.139 -0.4 L 0.051000000000000004 -0.4 Q 0.026000000000000002 -0.4 0.024 -0.40800000000000003 L 0.023 -0.40800000000000003 L 0.023 -0.41200000000000003 Q 0.023 -0.429 0.039 -0.431 L 0.053 -0.431 L 0.147 -0.431 L 0.186 -0.59 Q 0.195 -0.625 0.226 -0.626 Q 0.252 -0.626 0.255 -0.599 Q 0.255 -0.593 0.214 -0.431 L 0.302 -0.431 Q 0.328 -0.431 0.33 -0.42 Q 0.33 -0.402 0.314 -0.4 L 0.313 -0.4 L 0.3 -0.4 L 0.20600000000000002 -0.4 Z"/></g></g><path fill="rgb(77,77,255)" stroke="none" paint-order="stroke fill markers" d=" M 365.0000000000001 233 C 365.0000000000001 235.76142374915398 362.76142374915406 238 360.0000000000001 238 C 357.23857625084617 238 355.0000000000001 235.76142374915398 355.0000000000001 233 C 355.0000000000001 230.23857625084602 357.23857625084617 228 360.0000000000001 228 C 362.76142374915406 228 365.0000000000001 230.23857625084602 365.0000000000001 233 Z" fill-opacity="1"/><path fill="none" stroke="rgb(0,0,0)" paint-order="fill stroke markers" d=" M 365.0000000000001 233 C 365.0000000000001 235.76142374915398 362.76142374915406 238 360.0000000000001 238 C 357.23857625084617 238 355.0000000000001 235.76142374915398 355.0000000000001 233 C 355.0000000000001 230.23857625084602 357.23857625084617 228 360.0000000000001 228 C 362.76142374915406 228 365.0000000000001 230.23857625084602 365.0000000000001 233 Z" stroke-opacity="1" stroke-linecap="round" stroke-linejoin="round" stroke-miterlimit="10"/><path fill="rgb(77,77,255)" stroke="none" paint-order="stroke fill markers" d=" M 383.00000000000017 51.00000000000003 C 383.00000000000017 53.76142374915399 380.7614237491541 56.00000000000003 378.00000000000017 56.00000000000003 C 375.2385762508462 56.00000000000003 373.00000000000017 53.76142374915399 373.00000000000017 51.00000000000003 C 373.00000000000017 48.23857625084606 375.2385762508462 46.00000000000003 378.00000000000017 46.00000000000003 C 380.7614237491541 46.00000000000003 383.00000000000017 48.23857625084606 383.00000000000017 51.00000000000003 Z" fill-opacity="1"/><path fill="none" stroke="rgb(0,0,0)" paint-order="fill stroke markers" d=" M 383.00000000000017 51.00000000000003 C 383.00000000000017 53.76142374915399 380.7614237491541 56.00000000000003 378.00000000000017 56.00000000000003 C 375.2385762508462 56.00000000000003 373.00000000000017 53.76142374915399 373.00000000000017 51.00000000000003 C 373.00000000000017 48.23857625084606 375.2385762508462 46.00000000000003 378.00000000000017 46.00000000000003 C 380.7614237491541 46.00000000000003 383.00000000000017 48.23857625084606 383.00000000000017 51.00000000000003 Z" stroke-opacity="1" stroke-linecap="round" stroke-linejoin="round" stroke-miterlimit="10"/><g transform="scale(27,27)"><g transform="translate(14.333333333333334,0.8749994444444444)"><path fill="rgb(77,77,255)" stroke="none" paint-order="stroke fill markers" d=" M 0.334 -0.302 L 0.3 -0.165 Q 0.28300000000000003 -0.097 0.28300000000000003 -0.077 Q 0.28300000000000003 -0.025 0.32 -0.014 Q 0.328 -0.011 0.338 -0.011 Q 0.388 -0.011 0.429 -0.061 Q 0.456 -0.093 0.47100000000000003 -0.14200000000000002 Q 0.47400000000000003 -0.153 0.484 -0.153 Q 0.496 -0.153 0.496 -0.14300000000000002 Q 0.496 -0.11800000000000001 0.465 -0.07100000000000001 Q 0.41100000000000003 0.011 0.336 0.011 Q 0.268 0.011 0.23700000000000002 -0.046 Q 0.231 -0.055 0.228 -0.065 Q 0.20400000000000001 -0.017 0.162 0.002 Q 0.14300000000000002 0.011 0.123 0.011 Q 0.063 0.011 0.039 -0.024 Q 0.029 -0.037 0.029 -0.055 Q 0.029 -0.092 0.061 -0.107 Q 0.07200000000000001 -0.113 0.084 -0.113 Q 0.114 -0.113 0.12 -0.088 Q 0.121 -0.083 0.121 -0.078 Q 0.121 -0.044 0.08700000000000001 -0.028 Q 0.081 -0.025 0.074 -0.024 Q 0.095 -0.011 0.124 -0.011 Q 0.177 -0.011 0.20800000000000002 -0.082 Q 0.214 -0.097 0.219 -0.115 Q 0.273 -0.319 0.273 -0.353 Q 0.267 -0.41500000000000004 0.219 -0.42 Q 0.167 -0.42 0.124 -0.367 L 0.124 -0.366 Q 0.124 -0.365 0.123 -0.365 Q 0.108 -0.34500000000000003 0.096 -0.319 Q 0.091 -0.307 0.08700000000000001 -0.295 L 0.085 -0.289 Q 0.083 -0.278 0.07200000000000001 -0.278 Q 0.06 -0.278 0.06 -0.28800000000000003 Q 0.06 -0.313 0.092 -0.36 Q 0.146 -0.442 0.221 -0.442 Q 0.298 -0.442 0.329 -0.366 Q 0.361 -0.428 0.41400000000000003 -0.44 Q 0.424 -0.442 0.434 -0.442 Q 0.493 -0.442 0.517 -0.40900000000000003 Q 0.527 -0.395 0.527 -0.376 Q 0.527 -0.335 0.49 -0.321 Q 0.481 -0.318 0.47300000000000003 -0.318 Q 0.442 -0.318 0.436 -0.34500000000000003 Q 0.435 -0.34900000000000003 0.435 -0.353 Q 0.435 -0.383 0.464 -0.4 Q 0.47300000000000003 -0.405 0.483 -0.40700000000000003 Q 0.462 -0.42 0.433 -0.42 Q 0.365 -0.42 0.337 -0.314 Q 0.335 -0.308 0.334 -0.302 Z"/></g></g><path fill="rgb(77,77,255)" stroke="none" paint-order="stroke fill markers" d=" M 411.0000000000001 234 C 411.0000000000001 236.76142374915398 408.76142374915406 239 406.0000000000001 239 C 403.23857625084617 239 401.0000000000001 236.76142374915398 401.0000000000001 234 C 401.0000000000001 231.23857625084602 403.23857625084617 229 406.0000000000001 229 C 408.76142374915406 229 411.0000000000001 231.23857625084602 411.0000000000001 234 Z" fill-opacity="1"/><path fill="none" stroke="rgb(0,0,0)" paint-order="fill stroke markers" d=" M 411.0000000000001 234 C 411.0000000000001 236.76142374915398 408.76142374915406 239 406.0000000000001 239 C 403.23857625084617 239 401.0000000000001 236.76142374915398 401.0000000000001 234 C 401.0000000000001 231.23857625084602 403.23857625084617 229 406.0000000000001 229 C 408.76142374915406 229 411.0000000000001 231.23857625084602 411.0000000000001 234 Z" stroke-opacity="1" stroke-linecap="round" stroke-linejoin="round" stroke-miterlimit="10"/><path fill="rgb(77,77,255)" stroke="none" paint-order="stroke fill markers" d=" M 459.0000000000001 239 C 459.0000000000001 241.76142374915398 456.76142374915406 244 454.0000000000001 244 C 451.23857625084617 244 449.0000000000001 241.76142374915398 449.0000000000001 239 C 449.0000000000001 236.23857625084602 451.23857625084617 234 454.0000000000001 234 C 456.76142374915406 234 459.0000000000001 236.23857625084602 459.0000000000001 239 Z" fill-opacity="1"/><path fill="none" stroke="rgb(0,0,0)" paint-order="fill stroke markers" d=" M 459.0000000000001 239 C 459.0000000000001 241.76142374915398 456.76142374915406 244 454.0000000000001 244 C 451.23857625084617 244 449.0000000000001 241.76142374915398 449.0000000000001 239 C 449.0000000000001 236.23857625084602 451.23857625084617 234 454.0000000000001 234 C 456.76142374915406 234 459.0000000000001 236.23857625084602 459.0000000000001 239 Z" stroke-opacity="1" stroke-linecap="round" stroke-linejoin="round" stroke-miterlimit="10"/><path fill="rgb(77,77,255)" stroke="none" paint-order="stroke fill markers" d=" M 521.0000000000001 233 C 521.0000000000001 235.76142374915398 518.7614237491541 238 516.0000000000001 238 C 513.2385762508461 238 511.0000000000001 235.76142374915398 511.0000000000001 233 C 511.0000000000001 230.23857625084602 513.2385762508461 228 516.0000000000001 228 C 518.7614237491541 228 521.0000000000001 230.23857625084602 521.0000000000001 233 Z" fill-opacity="1"/><path fill="none" stroke="rgb(0,0,0)" paint-order="fill stroke markers" d=" M 521.0000000000001 233 C 521.0000000000001 235.76142374915398 518.7614237491541 238 516.0000000000001 238 C 513.2385762508461 238 511.0000000000001 235.76142374915398 511.0000000000001 233 C 511.0000000000001 230.23857625084602 513.2385762508461 228 516.0000000000001 228 C 518.7614237491541 228 521.0000000000001 230.23857625084602 521.0000000000001 233 Z" stroke-opacity="1" stroke-linecap="round" stroke-linejoin="round" stroke-miterlimit="10"/><path fill="rgb(77,77,255)" stroke="none" paint-order="stroke fill markers" d=" M 521.0000000000001 190 C 521.0000000000001 192.76142374915398 518.7614237491541 195 516.0000000000001 195 C 513.2385762508461 195 511.0000000000001 192.76142374915398 511.0000000000001 190 C 511.0000000000001 187.23857625084602 513.2385762508461 185 516.0000000000001 185 C 518.7614237491541 185 521.0000000000001 187.23857625084602 521.0000000000001 190 Z" fill-opacity="1"/><path fill="none" stroke="rgb(0,0,0)" paint-order="fill stroke markers" d=" M 521.0000000000001 190 C 521.0000000000001 192.76142374915398 518.7614237491541 195 516.0000000000001 195 C 513.2385762508461 195 511.0000000000001 192.76142374915398 511.0000000000001 190 C 511.0000000000001 187.23857625084602 513.2385762508461 185 516.0000000000001 185 C 518.7614237491541 185 521.0000000000001 187.23857625084602 521.0000000000001 190 Z" stroke-opacity="1" stroke-linecap="round" stroke-linejoin="round" stroke-miterlimit="10"/><path fill="rgb(77,77,255)" stroke="none" paint-order="stroke fill markers" d=" M 491.0000000000001 159 C 491.0000000000001 161.76142374915398 488.76142374915406 164 486.0000000000001 164 C 483.23857625084617 164 481.0000000000001 161.76142374915398 481.0000000000001 159 C 481.0000000000001 156.23857625084602 483.23857625084617 154 486.0000000000001 154 C 488.76142374915406 154 491.0000000000001 156.23857625084602 491.0000000000001 159 Z" fill-opacity="1"/><path fill="none" stroke="rgb(0,0,0)" paint-order="fill stroke markers" d=" M 491.0000000000001 159 C 491.0000000000001 161.76142374915398 488.76142374915406 164 486.0000000000001 164 C 483.23857625084617 164 481.0000000000001 161.76142374915398 481.0000000000001 159 C 481.0000000000001 156.23857625084602 483.23857625084617 154 486.0000000000001 154 C 488.76142374915406 154 491.0000000000001 156.23857625084602 491.0000000000001 159 Z" stroke-opacity="1" stroke-linecap="round" stroke-linejoin="round" stroke-miterlimit="10"/><path fill="rgb(77,77,255)" stroke="none" paint-order="stroke fill markers" d=" M 526 143 C 526 145.76142374915398 523.761423749154 148 521 148 C 518.238576250846 148 516 145.76142374915398 516 143 C 516 140.23857625084602 518.238576250846 138 521 138 C 523.761423749154 138 526 140.23857625084602 526 143 Z" fill-opacity="1"/><path fill="none" stroke="rgb(0,0,0)" paint-order="fill stroke markers" d=" M 526 143 C 526 145.76142374915398 523.761423749154 148 521 148 C 518.238576250846 148 516 145.76142374915398 516 143 C 516 140.23857625084602 518.238576250846 138 521 138 C 523.761423749154 138 526 140.23857625084602 526 143 Z" stroke-opacity="1" stroke-linecap="round" stroke-linejoin="round" stroke-miterlimit="10"/><path fill="rgb(77,77,255)" stroke="none" paint-order="stroke fill markers" d=" M 575 143 C 575 145.76142374915398 572.761423749154 148 570 148 C 567.238576250846 148 565 145.76142374915398 565 143 C 565 140.23857625084602 567.238576250846 138 570 138 C 572.761423749154 138 575 140.23857625084602 575 143 Z" fill-opacity="1"/><path fill="none" stroke="rgb(0,0,0)" paint-order="fill stroke markers" d=" M 575 143 C 575 145.76142374915398 572.761423749154 148 570 148 C 567.238576250846 148 565 145.76142374915398 565 143 C 565 140.23857625084602 567.238576250846 138 570 138 C 572.761423749154 138 575 140.23857625084602 575 143 Z" stroke-opacity="1" stroke-linecap="round" stroke-linejoin="round" stroke-miterlimit="10"/><path fill="rgb(77,77,255)" stroke="none" paint-order="stroke fill markers" d=" M 701 120 C 701 122.76142374915396 698.761423749154 125 696 125 C 693.238576250846 125 691 122.76142374915396 691 120 C 691 117.23857625084604 693.238576250846 115 696 115 C 698.761423749154 115 701 117.23857625084604 701 120 Z" fill-opacity="1"/><path fill="none" stroke="rgb(0,0,0)" paint-order="fill stroke markers" d=" M 701 120 C 701 122.76142374915396 698.761423749154 125 696 125 C 693.238576250846 125 691 122.76142374915396 691 120 C 691 117.23857625084604 693.238576250846 115 696 115 C 698.761423749154 115 701 117.23857625084604 701 120 Z" stroke-opacity="1" stroke-linecap="round" stroke-linejoin="round" stroke-miterlimit="10"/><path fill="rgb(77,77,255)" stroke="none" paint-order="stroke fill markers" d=" M 801 133 C 801 135.76142374915398 798.761423749154 138 796 138 C 793.238576250846 138 791 135.76142374915398 791 133 C 791 130.23857625084602 793.238576250846 128 796 128 C 798.761423749154 128 801 130.23857625084602 801 133 Z" fill-opacity="1"/><path fill="none" stroke="rgb(0,0,0)" paint-order="fill stroke markers" d=" M 801 133 C 801 135.76142374915398 798.761423749154 138 796 138 C 793.238576250846 138 791 135.76142374915398 791 133 C 791 130.23857625084602 793.238576250846 128 796 128 C 798.761423749154 128 801 130.23857625084602 801 133 Z" stroke-opacity="1" stroke-linecap="round" stroke-linejoin="round" stroke-miterlimit="10"/><path fill="rgb(77,77,255)" stroke="none" paint-order="stroke fill markers" d=" M 876.9999999999999 133 C 876.9999999999999 135.76142374915398 874.7614237491539 138 871.9999999999999 138 C 869.2385762508459 138 866.9999999999999 135.76142374915398 866.9999999999999 133 C 866.9999999999999 130.23857625084602 869.2385762508459 128 871.9999999999999 128 C 874.7614237491539 128 876.9999999999999 130.23857625084602 876.9999999999999 133 Z" fill-opacity="1"/><path fill="none" stroke="rgb(0,0,0)" paint-order="fill stroke markers" d=" M 876.9999999999999 133 C 876.9999999999999 135.76142374915398 874.7614237491539 138 871.9999999999999 138 C 869.2385762508459 138 866.9999999999999 135.76142374915398 866.9999999999999 133 C 866.9999999999999 130.23857625084602 869.2385762508459 128 871.9999999999999 128 C 874.7614237491539 128 876.9999999999999 130.23857625084602 876.9999999999999 133 Z" stroke-opacity="1" stroke-linecap="round" stroke-linejoin="round" stroke-miterlimit="10"/><path fill="rgb(77,77,255)" stroke="none" paint-order="stroke fill markers" d=" M 925.9999999999999 244 C 925.9999999999999 246.76142374915398 923.7614237491539 249 920.9999999999999 249 C 918.2385762508459 249 915.9999999999999 246.76142374915398 915.9999999999999 244 C 915.9999999999999 241.23857625084602 918.2385762508459 239 920.9999999999999 239 C 923.7614237491539 239 925.9999999999999 241.23857625084602 925.9999999999999 244 Z" fill-opacity="1"/><path fill="none" stroke="rgb(0,0,0)" paint-order="fill stroke markers" d=" M 925.9999999999999 244 C 925.9999999999999 246.76142374915398 923.7614237491539 249 920.9999999999999 249 C 918.2385762508459 249 915.9999999999999 246.76142374915398 915.9999999999999 244 C 915.9999999999999 241.23857625084602 918.2385762508459 239 920.9999999999999 239 C 923.7614237491539 239 925.9999999999999 241.23857625084602 925.9999999999999 244 Z" stroke-opacity="1" stroke-linecap="round" stroke-linejoin="round" stroke-miterlimit="10"/><path fill="rgb(77,77,255)" stroke="none" paint-order="stroke fill markers" d=" M 972.9999999999999 284 C 972.9999999999999 286.76142374915395 970.7614237491539 289 967.9999999999999 289 C 965.2385762508459 289 962.9999999999999 286.76142374915395 962.9999999999999 284 C 962.9999999999999 281.23857625084605 965.2385762508459 279 967.9999999999999 279 C 970.7614237491539 279 972.9999999999999 281.23857625084605 972.9999999999999 284 Z" fill-opacity="1"/><path fill="none" stroke="rgb(0,0,0)" paint-order="fill stroke markers" d=" M 972.9999999999999 284 C 972.9999999999999 286.76142374915395 970.7614237491539 289 967.9999999999999 289 C 965.2385762508459 289 962.9999999999999 286.76142374915395 962.9999999999999 284 C 962.9999999999999 281.23857625084605 965.2385762508459 279 967.9999999999999 279 C 970.7614237491539 279 972.9999999999999 281.23857625084605 972.9999999999999 284 Z" stroke-opacity="1" stroke-linecap="round" stroke-linejoin="round" stroke-miterlimit="10"/><path fill="rgb(77,77,255)" stroke="none" paint-order="stroke fill markers" d=" M 972.9999999999999 411 C 972.9999999999999 413.76142374915395 970.7614237491539 416 967.9999999999999 416 C 965.2385762508459 416 962.9999999999999 413.76142374915395 962.9999999999999 411 C 962.9999999999999 408.23857625084605 965.2385762508459 406 967.9999999999999 406 C 970.7614237491539 406 972.9999999999999 408.23857625084605 972.9999999999999 411 Z" fill-opacity="1"/><path fill="none" stroke="rgb(0,0,0)" paint-order="fill stroke markers" d=" M 972.9999999999999 411 C 972.9999999999999 413.76142374915395 970.7614237491539 416 967.9999999999999 416 C 965.2385762508459 416 962.9999999999999 413.76142374915395 962.9999999999999 411 C 962.9999999999999 408.23857625084605 965.2385762508459 406 967.9999999999999 406 C 970.7614237491539 406 972.9999999999999 408.23857625084605 972.9999999999999 411 Z" stroke-opacity="1" stroke-linecap="round" stroke-linejoin="round" stroke-miterlimit="10"/></g></g></svg>