<svg version="1.1" xmlns="http://www.w3.org/2000/svg" xmlns:xlink="http://www.w3.org/1999/xlink" width="726" height="562"><defs><clipPath id="uxERcGhwBnVs"><path fill="none" stroke="none" d=" M 0 0 L 726 0 L 726 562 L 0 562 L 0 0 Z"/></clipPath></defs><g transform="scale(1,1)" clip-path="url(#uxERcGhwBnVs)"><g><rect fill="rgb(255,255,255)" stroke="none" x="0" y="0" width="726" height="562" fill-opacity="1"/><path fill="none" stroke="rgb(0,0,0)" paint-order="fill stroke markers" d=" M 649.5651211277733 177.68145705469857 C 630.3044730678126 123.35655227019396 548.6234776809639 102.74132516890904 467.12551167516096 131.63605857096644 C 385.627545669358 160.53079197302384 335.17423081226616 227.9936381607968 354.43487887222693 282.3185429453014 C 373.6955269321876 336.643447729806 455.3765223190363 357.2586748310909 536.8744883248393 328.3639414290335 C 618.3724543306422 299.4692080269761 668.8257691877341 232.00636183920315 649.5651211277733 177.68145705469857 Z" stroke-opacity="0.6980392156862745" stroke-linecap="round" stroke-linejoin="round" stroke-miterlimit="10" stroke-width="2.5"/><g transform="scale(27,27)"><g transform="translate(16.37037037037037,6.349998666666667)"><path fill="rgb(0,0,0)" stroke="none" paint-order="stroke fill markers" d=" M 0.159 -0.078 L 0.159 -0.078 L 0.293 -0.615 Q 0.297 -0.631 0.297 -0.634 Q 0.297 -0.646 0.281 -0.649 L 0.28 -0.649 L 0.28 -0.649 Q 0.278 -0.65 0.275 -0.65 Q 0.251 -0.652 0.232 -0.652 Q 0.20600000000000002 -0.652 0.20400000000000001 -0.66 Q 0.203 -0.662 0.203 -0.664 Q 0.203 -0.681 0.22 -0.683 L 0.22 -0.683 L 0.233 -0.683 L 0.5690000000000001 -0.683 Q 0.6990000000000001 -0.683 0.763 -0.582 Q 0.804 -0.518 0.804 -0.43 Q 0.804 -0.28500000000000003 0.7030000000000001 -0.159 Q 0.607 -0.042 0.47700000000000004 -0.01 Q 0.438 0 0.399 0 L 0.068 0 Q 0.043000000000000003 0 0.041 -0.008 Q 0.04 -0.009000000000000001 0.04 -0.012 Q 0.04 -0.029 0.056 -0.031 L 0.068 -0.031 Q 0.133 -0.031 0.146 -0.045 Q 0.152 -0.052000000000000005 0.158 -0.073 Q 0.158 -0.074 0.159 -0.078 M 0.375 -0.614 L 0.23800000000000002 -0.065 Q 0.233 -0.047 0.233 -0.042 Q 0.233 -0.034 0.242 -0.032 L 0.242 -0.032 L 0.242 -0.032 L 0.246 -0.032 Q 0.252 -0.031 0.268 -0.031 L 0.381 -0.031 Q 0.505 -0.031 0.595 -0.124 Q 0.604 -0.134 0.612 -0.14400000000000002 Q 0.6920000000000001 -0.248 0.713 -0.41600000000000004 Q 0.717 -0.447 0.717 -0.467 Q 0.717 -0.601 0.612 -0.639 Q 0.578 -0.652 0.536 -0.652 L 0.429 -0.652 Q 0.393 -0.652 0.385 -0.642 L 0.385 -0.642 L 0.385 -0.641 L 0.384 -0.641 L 0.384 -0.64 Q 0.38 -0.634 0.375 -0.614 Z"/></g></g><path fill="none" stroke="rgb(0,0,0)" paint-order="fill stroke markers" d=" M 94.45165898729095 567 L 525.6920236963593 -5" stroke-opacity="0.6980392156862745" stroke-linecap="round" stroke-linejoin="round" stroke-miterlimit="10" stroke-width="2.5"/><path fill="none" stroke="rgb(0,0,0)" paint-order="fill stroke markers" d=" M -5 535.1638505449504 L 731 146.82924566161643" stroke-opacity="0.6980392156862745" stroke-linecap="round" stroke-linejoin="round" stroke-miterlimit="10" stroke-width="2.5"/><path fill="rgb(77,77,255)" stroke="none" paint-order="stroke fill markers" d=" M 570.9999999999999 274 C 570.9999999999999 276.76142374915395 568.7614237491539 279 565.9999999999999 279 C 563.2385762508459 279 560.9999999999999 276.76142374915395 560.9999999999999 274 C 560.9999999999999 271.23857625084605 563.2385762508459 269 565.9999999999999 269 C 568.7614237491539 269 570.9999999999999 271.23857625084605 570.9999999999999 274 Z" fill-opacity="1"/><path fill="none" stroke="rgb(0,0,0)" paint-order="fill stroke markers" d=" M 570.9999999999999 274 C 570.9999999999999 276.76142374915395 568.7614237491539 279 565.9999999999999 279 C 563.2385762508459 279 560.9999999999999 276.76142374915395 560.9999999999999 274 C 560.9999999999999 271.23857625084605 563.2385762508459 269 565.9999999999999 269 C 568.7614237491539 269 570.9999999999999 271.23857625084605 570.9999999999999 274 Z" stroke-opacity="1" stroke-linecap="round" stroke-linejoin="round" stroke-miterlimit="10"/><g transform="scale(27,27)"><g transform="translate(21.444444444444443,9.31944388888889)"><path fill="rgb(77,77,255)" stroke="none" paint-order="stroke fill markers" d=" M 0.045 0.122 L 0.045 0.122 L 0.157 -0.323 Q 0.164 -0.353 0.164 -0.374 Q 0.164 -0.42 0.133 -0.42 Q 0.092 -0.42 0.066 -0.325 Q 0.063 -0.314 0.06 -0.301 Q 0.049 -0.279 0.043000000000000003 -0.278 Q 0.031 -0.278 0.031 -0.28800000000000003 Q 0.031 -0.304 0.049 -0.355 Q 0.056 -0.373 0.062 -0.385 Q 0.08600000000000001 -0.434 0.122 -0.441 Q 0.129 -0.442 0.136 -0.442 Q 0.19 -0.442 0.215 -0.398 L 0.215 -0.397 Q 0.223 -0.384 0.226 -0.367 Q 0.289 -0.442 0.357 -0.442 Q 0.428 -0.442 0.466 -0.378 Q 0.488 -0.333 0.49 -0.28200000000000003 Q 0.49 -0.17400000000000002 0.41400000000000003 -0.082 Q 0.34500000000000003 0.002 0.263 0.01 Q 0.256 0.011 0.249 0.011 Q 0.186 0.011 0.157 -0.053 Q 0.12 0.079 0.109 0.14100000000000001 Q 0.108 0.146 0.108 0.147 Q 0.108 0.158 0.121 0.161 L 0.122 0.161 L 0.122 0.161 Q 0.134 0.163 0.158 0.163 Q 0.18 0.163 0.182 0.17400000000000002 Q 0.182 0.194 0.164 0.194 L 0.066 0.191 L 0.065 0.191 L -0.017 0.194 L -0.019 0.194 Q -0.032 0.194 -0.032 0.182 Q -0.026000000000000002 0.164 -0.009000000000000001 0.163 Q 0.028 0.163 0.036000000000000004 0.15 L 0.037 0.149 Q 0.039 0.145 0.041 0.138 Q 0.042 0.133 0.045 0.122 M 0.221 -0.312 L 0.221 -0.312 L 0.17200000000000001 -0.116 Q 0.169 -0.10400000000000001 0.169 -0.1 Q 0.169 -0.077 0.187 -0.048 Q 0.198 -0.029 0.215 -0.019 Q 0.23 -0.011 0.248 -0.011 Q 0.299 -0.011 0.34400000000000003 -0.075 Q 0.357 -0.093 0.367 -0.114 Q 0.394 -0.171 0.41200000000000003 -0.268 Q 0.418 -0.303 0.418 -0.326 Q 0.418 -0.405 0.37 -0.418 Q 0.362 -0.42 0.354 -0.42 Q 0.316 -0.42 0.273 -0.382 Q 0.23 -0.34600000000000003 0.221 -0.312 Z"/></g><g transform="translate(21.947570444444445,9.46944388888889) scale(0.7,0.7)"><path fill="rgb(77,77,255)" stroke="none" paint-order="stroke fill markers" d=" M 0.397 -0.625 Q 0.397 -0.597 0.369 -0.58 Q 0.356 -0.5720000000000001 0.343 -0.5720000000000001 Q 0.313 -0.5720000000000001 0.307 -0.599 L 0.307 -0.6 Q 0.306 -0.604 0.306 -0.608 Q 0.306 -0.639 0.337 -0.655 Q 0.34800000000000003 -0.661 0.359 -0.661 Q 0.389 -0.661 0.396 -0.634 Q 0.397 -0.629 0.397 -0.625 M 0.196 0.05 L 0.196 0.05 L 0.29 -0.323 Q 0.297 -0.353 0.297 -0.374 Q 0.297 -0.42 0.265 -0.42 Q 0.20400000000000001 -0.42 0.155 -0.332 Q 0.146 -0.316 0.139 -0.298 Q 0.127 -0.279 0.121 -0.278 Q 0.109 -0.278 0.109 -0.28800000000000003 Q 0.109 -0.301 0.135 -0.34500000000000003 Q 0.193 -0.442 0.268 -0.442 Q 0.324 -0.442 0.34900000000000003 -0.397 Q 0.36 -0.376 0.36 -0.35000000000000003 Q 0.36 -0.333 0.355 -0.313 L 0.263 0.053 Q 0.241 0.14 0.159 0.183 Q 0.117 0.20500000000000002 0.075 0.20500000000000002 Q 0.012 0.20500000000000002 -0.007 0.167 Q -0.013000000000000001 0.156 -0.013000000000000001 0.14300000000000002 Q -0.013000000000000001 0.105 0.021 0.09 Q 0.031 0.08600000000000001 0.041 0.08600000000000001 Q 0.07200000000000001 0.08600000000000001 0.078 0.113 Q 0.079 0.117 0.079 0.121 Q 0.079 0.151 0.051000000000000004 0.167 Q 0.043000000000000003 0.17200000000000001 0.034 0.17400000000000002 Q 0.052000000000000005 0.183 0.073 0.183 Q 0.132 0.183 0.17200000000000001 0.111 Q 0.188 0.083 0.196 0.05 Z"/></g></g><path fill="rgb(0,0,255)" stroke="none" paint-order="stroke fill markers" d=" M 203.99999999999997 426.99999999999994 C 203.99999999999997 429.2091389993231 202.20913899932316 430.99999999999994 199.99999999999997 430.99999999999994 C 197.79086100067678 430.99999999999994 195.99999999999997 429.2091389993231 195.99999999999997 426.99999999999994 C 195.99999999999997 424.7908610006768 197.79086100067678 422.99999999999994 199.99999999999997 422.99999999999994 C 202.20913899932316 422.99999999999994 203.99999999999997 424.7908610006768 203.99999999999997 426.99999999999994 Z" fill-opacity="1"/><path fill="none" stroke="rgb(0,0,0)" paint-order="fill stroke markers" d=" M 203.99999999999997 426.99999999999994 C 203.99999999999997 429.2091389993231 202.20913899932316 430.99999999999994 199.99999999999997 430.99999999999994 C 197.79086100067678 430.99999999999994 195.99999999999997 429.2091389993231 195.99999999999997 426.99999999999994 C 195.99999999999997 424.7908610006768 197.79086100067678 422.99999999999994 199.99999999999997 422.99999999999994 C 202.20913899932316 422.99999999999994 203.99999999999997 424.7908610006768 203.99999999999997 426.99999999999994 Z" stroke-opacity="1" stroke-linecap="round" stroke-linejoin="round" stroke-miterlimit="10"/><g transform="scale(27,27)"><g transform="translate(6.444444444444445,14.874999444444445)"><path fill="rgb(0,0,255)" stroke="none" paint-order="stroke fill markers" d=" M 0.045 0.122 L 0.045 0.122 L 0.157 -0.323 Q 0.164 -0.353 0.164 -0.374 Q 0.164 -0.42 0.133 -0.42 Q 0.092 -0.42 0.066 -0.325 Q 0.063 -0.314 0.06 -0.301 Q 0.049 -0.279 0.043000000000000003 -0.278 Q 0.031 -0.278 0.031 -0.28800000000000003 Q 0.031 -0.304 0.049 -0.355 Q 0.056 -0.373 0.062 -0.385 Q 0.08600000000000001 -0.434 0.122 -0.441 Q 0.129 -0.442 0.136 -0.442 Q 0.19 -0.442 0.215 -0.398 L 0.215 -0.397 Q 0.223 -0.384 0.226 -0.367 Q 0.289 -0.442 0.357 -0.442 Q 0.428 -0.442 0.466 -0.378 Q 0.488 -0.333 0.49 -0.28200000000000003 Q 0.49 -0.17400000000000002 0.41400000000000003 -0.082 Q 0.34500000000000003 0.002 0.263 0.01 Q 0.256 0.011 0.249 0.011 Q 0.186 0.011 0.157 -0.053 Q 0.12 0.079 0.109 0.14100000000000001 Q 0.108 0.146 0.108 0.147 Q 0.108 0.158 0.121 0.161 L 0.122 0.161 L 0.122 0.161 Q 0.134 0.163 0.158 0.163 Q 0.18 0.163 0.182 0.17400000000000002 Q 0.182 0.194 0.164 0.194 L 0.066 0.191 L 0.065 0.191 L -0.017 0.194 L -0.019 0.194 Q -0.032 0.194 -0.032 0.182 Q -0.026000000000000002 0.164 -0.009000000000000001 0.163 Q 0.028 0.163 0.036000000000000004 0.15 L 0.037 0.149 Q 0.039 0.145 0.041 0.138 Q 0.042 0.133 0.045 0.122 M 0.221 -0.312 L 0.221 -0.312 L 0.17200000000000001 -0.116 Q 0.169 -0.10400000000000001 0.169 -0.1 Q 0.169 -0.077 0.187 -0.048 Q 0.198 -0.029 0.215 -0.019 Q 0.23 -0.011 0.248 -0.011 Q 0.299 -0.011 0.34400000000000003 -0.075 Q 0.357 -0.093 0.367 -0.114 Q 0.394 -0.171 0.41200000000000003 -0.268 Q 0.418 -0.303 0.418 -0.326 Q 0.418 -0.405 0.37 -0.418 Q 0.362 -0.42 0.354 -0.42 Q 0.316 -0.42 0.273 -0.382 Q 0.23 -0.34600000000000003 0.221 -0.312 Z"/></g><g transform="translate(6.947570444444445,15.024999444444445) scale(0.7,0.7)"><path fill="rgb(0,0,255)" stroke="none" paint-order="stroke fill markers" d=" M 0.28400000000000003 -0.625 Q 0.28400000000000003 -0.594 0.253 -0.578 Q 0.242 -0.5720000000000001 0.231 -0.5720000000000001 Q 0.201 -0.5720000000000001 0.194 -0.599 Q 0.193 -0.604 0.193 -0.608 Q 0.193 -0.636 0.221 -0.653 Q 0.234 -0.661 0.247 -0.661 Q 0.277 -0.661 0.28300000000000003 -0.634 L 0.28300000000000003 -0.633 Q 0.28400000000000003 -0.629 0.28400000000000003 -0.625 M 0.20800000000000002 -0.249 L 0.169 -0.14400000000000002 Q 0.14100000000000001 -0.063 0.14 -0.044 Q 0.14 -0.011 0.164 -0.011 Q 0.227 -0.011 0.262 -0.123 L 0.266 -0.135 Q 0.271 -0.151 0.276 -0.152 L 0.276 -0.153 L 0.281 -0.153 Q 0.293 -0.153 0.293 -0.14300000000000002 Q 0.293 -0.125 0.271 -0.079 Q 0.228 0.011 0.162 0.011 Q 0.109 0.011 0.088 -0.033 Q 0.08 -0.051000000000000004 0.08 -0.07100000000000001 Q 0.08 -0.091 0.10300000000000001 -0.151 Q 0.17300000000000001 -0.339 0.17200000000000001 -0.336 Q 0.183 -0.364 0.183 -0.388 Q 0.183 -0.42 0.158 -0.42 Q 0.10300000000000001 -0.42 0.068 -0.329 L 0.068 -0.328 Q 0.062 -0.313 0.057 -0.296 Q 0.046 -0.279 0.041 -0.278 Q 0.029 -0.278 0.029 -0.28800000000000003 Q 0.029 -0.306 0.051000000000000004 -0.35100000000000003 Q 0.094 -0.442 0.161 -0.442 Q 0.214 -0.442 0.23500000000000001 -0.397 Q 0.243 -0.38 0.243 -0.36 Q 0.243 -0.34 0.23 -0.307 Q 0.213 -0.261 0.20800000000000002 -0.249 Z"/></g></g><path fill="rgb(68,68,68)" stroke="none" paint-order="stroke fill markers" d=" M 203.99999999999997 426.99999999999994 C 203.99999999999997 429.2091389993231 202.20913899932316 430.99999999999994 199.99999999999997 430.99999999999994 C 197.79086100067678 430.99999999999994 195.99999999999997 429.2091389993231 195.99999999999997 426.99999999999994 C 195.99999999999997 424.7908610006768 197.79086100067678 422.99999999999994 199.99999999999997 422.99999999999994 C 202.20913899932316 422.99999999999994 203.99999999999997 424.7908610006768 203.99999999999997 426.99999999999994 Z" fill-opacity="1"/><path fill="none" stroke="rgb(0,0,0)" paint-order="fill stroke markers" d=" M 203.99999999999997 426.99999999999994 C 203.99999999999997 429.2091389993231 202.20913899932316 430.99999999999994 199.99999999999997 430.99999999999994 C 197.79086100067678 430.99999999999994 195.99999999999997 429.2091389993231 195.99999999999997 426.99999999999994 C 195.99999999999997 424.7908610006768 197.79086100067678 422.99999999999994 199.99999999999997 422.99999999999994 C 202.20913899932316 422.99999999999994 203.99999999999997 424.7908610006768 203.99999999999997 426.99999999999994 Z" stroke-opacity="1" stroke-linecap="round" stroke-linejoin="round" stroke-miterlimit="10"/><path fill="rgb(68,68,68)" stroke="none" paint-order="stroke fill markers" d=" M 203.99999999999997 426.99999999999994 C 203.99999999999997 429.2091389993231 202.20913899932316 430.99999999999994 199.99999999999997 430.99999999999994 C 197.79086100067678 430.99999999999994 195.99999999999997 429.2091389993231 195.99999999999997 426.99999999999994 C 195.99999999999997 424.7908610006768 197.79086100067678 422.99999999999994 199.99999999999997 422.99999999999994 C 202.20913899932316 422.99999999999994 203.99999999999997 424.7908610006768 203.99999999999997 426.99999999999994 Z" fill-opacity="1"/><path fill="none" stroke="rgb(0,0,0)" paint-order="fill stroke markers" d=" M 203.99999999999997 426.99999999999994 C 203.99999999999997 429.2091389993231 202.20913899932316 430.99999999999994 199.99999999999997 430.99999999999994 C 197.79086100067678 430.99999999999994 195.99999999999997 429.2091389993231 195.99999999999997 426.99999999999994 C 195.99999999999997 424.7908610006768 197.79086100067678 422.99999999999994 199.99999999999997 422.99999999999994 C 202.20913899932316 422.99999999999994 203.99999999999997 424.7908610006768 203.99999999999997 426.99999999999994 Z" stroke-opacity="1" stroke-linecap="round" stroke-linejoin="round" stroke-miterlimit="10"/><path fill="rgb(68,68,68)" stroke="none" paint-order="stroke fill markers" d=" M 203.99999999999997 426.99999999999994 C 203.99999999999997 429.2091389993231 202.20913899932316 430.99999999999994 199.99999999999997 430.99999999999994 C 197.79086100067678 430.99999999999994 195.99999999999997 429.2091389993231 195.99999999999997 426.99999999999994 C 195.99999999999997 424.7908610006768 197.79086100067678 422.99999999999994 199.99999999999997 422.99999999999994 C 202.20913899932316 422.99999999999994 203.99999999999997 424.7908610006768 203.99999999999997 426.99999999999994 Z" fill-opacity="1"/><path fill="none" stroke="rgb(0,0,0)" paint-order="fill stroke markers" d=" M 203.99999999999997 426.99999999999994 C 203.99999999999997 429.2091389993231 202.20913899932316 430.99999999999994 199.99999999999997 430.99999999999994 C 197.79086100067678 430.99999999999994 195.99999999999997 429.2091389993231 195.99999999999997 426.99999999999994 C 195.99999999999997 424.7908610006768 197.79086100067678 422.99999999999994 199.99999999999997 422.99999999999994 C 202.20913899932316 422.99999999999994 203.99999999999997 424.7908610006768 203.99999999999997 426.99999999999994 Z" stroke-opacity="1" stroke-linecap="round" stroke-linejoin="round" stroke-miterlimit="10"/><path fill="rgb(68,68,68)" stroke="none" paint-order="stroke fill markers" d=" M 203.99999999999997 426.99999999999994 C 203.99999999999997 429.2091389993231 202.20913899932316 430.99999999999994 199.99999999999997 430.99999999999994 C 197.79086100067678 430.99999999999994 195.99999999999997 429.2091389993231 195.99999999999997 426.99999999999994 C 195.99999999999997 424.7908610006768 197.79086100067678 422.99999999999994 199.99999999999997 422.99999999999994 C 202.20913899932316 422.99999999999994 203.99999999999997 424.7908610006768 203.99999999999997 426.99999999999994 Z" fill-opacity="1"/><path fill="none" stroke="rgb(0,0,0)" paint-order="fill stroke markers" d=" M 203.99999999999997 426.99999999999994 C 203.99999999999997 429.2091389993231 202.20913899932316 430.99999999999994 199.99999999999997 430.99999999999994 C 197.79086100067678 430.99999999999994 195.99999999999997 429.2091389993231 195.99999999999997 426.99999999999994 C 195.99999999999997 424.7908610006768 197.79086100067678 422.99999999999994 199.99999999999997 422.99999999999994 C 202.20913899932316 422.99999999999994 203.99999999999997 424.7908610006768 203.99999999999997 426.99999999999994 Z" stroke-opacity="1" stroke-linecap="round" stroke-linejoin="round" stroke-miterlimit="10"/><path fill="rgb(68,68,68)" stroke="none" paint-order="stroke fill markers" d=" M 203.99999999999997 426.99999999999994 C 203.99999999999997 429.2091389993231 202.20913899932316 430.99999999999994 199.99999999999997 430.99999999999994 C 197.79086100067678 430.99999999999994 195.99999999999997 429.2091389993231 195.99999999999997 426.99999999999994 C 195.99999999999997 424.7908610006768 197.79086100067678 422.99999999999994 199.99999999999997 422.99999999999994 C 202.20913899932316 422.99999999999994 203.99999999999997 424.7908610006768 203.99999999999997 426.99999999999994 Z" fill-opacity="1"/><path fill="none" stroke="rgb(0,0,0)" paint-order="fill stroke markers" d=" M 203.99999999999997 426.99999999999994 C 203.99999999999997 429.2091389993231 202.20913899932316 430.99999999999994 199.99999999999997 430.99999999999994 C 197.79086100067678 430.99999999999994 195.99999999999997 429.2091389993231 195.99999999999997 426.99999999999994 C 195.99999999999997 424.7908610006768 197.79086100067678 422.99999999999994 199.99999999999997 422.99999999999994 C 202.20913899932316 422.99999999999994 203.99999999999997 424.7908610006768 203.99999999999997 426.99999999999994 Z" stroke-opacity="1" stroke-linecap="round" stroke-linejoin="round" stroke-miterlimit="10"/><path fill="rgb(68,68,68)" stroke="none" paint-order="stroke fill markers" d=" M 203.99999999999997 426.99999999999994 C 203.99999999999997 429.2091389993231 202.20913899932316 430.99999999999994 199.99999999999997 430.99999999999994 C 197.79086100067678 430.99999999999994 195.99999999999997 429.2091389993231 195.99999999999997 426.99999999999994 C 195.99999999999997 424.7908610006768 197.79086100067678 422.99999999999994 199.99999999999997 422.99999999999994 C 202.20913899932316 422.99999999999994 203.99999999999997 424.7908610006768 203.99999999999997 426.99999999999994 Z" fill-opacity="1"/><path fill="none" stroke="rgb(0,0,0)" paint-order="fill stroke markers" d=" M 203.99999999999997 426.99999999999994 C 203.99999999999997 429.2091389993231 202.20913899932316 430.99999999999994 199.99999999999997 430.99999999999994 C 197.79086100067678 430.99999999999994 195.99999999999997 429.2091389993231 195.99999999999997 426.99999999999994 C 195.99999999999997 424.7908610006768 197.79086100067678 422.99999999999994 199.99999999999997 422.99999999999994 C 202.20913899932316 422.99999999999994 203.99999999999997 424.7908610006768 203.99999999999997 426.99999999999994 Z" stroke-opacity="1" stroke-linecap="round" stroke-linejoin="round" stroke-miterlimit="10"/><path fill="rgb(68,68,68)" stroke="none" paint-order="stroke fill markers" d=" M 203.99999999999997 426.99999999999994 C 203.99999999999997 429.2091389993231 202.20913899932316 430.99999999999994 199.99999999999997 430.99999999999994 C 197.79086100067678 430.99999999999994 195.99999999999997 429.2091389993231 195.99999999999997 426.99999999999994 C 195.99999999999997 424.7908610006768 197.79086100067678 422.99999999999994 199.99999999999997 422.99999999999994 C 202.20913899932316 422.99999999999994 203.99999999999997 424.7908610006768 203.99999999999997 426.99999999999994 Z" fill-opacity="1"/><path fill="none" stroke="rgb(0,0,0)" paint-order="fill stroke markers" d=" M 203.99999999999997 426.99999999999994 C 203.99999999999997 429.2091389993231 202.20913899932316 430.99999999999994 199.99999999999997 430.99999999999994 C 197.79086100067678 430.99999999999994 195.99999999999997 429.2091389993231 195.99999999999997 426.99999999999994 C 195.99999999999997 424.7908610006768 197.79086100067678 422.99999999999994 199.99999999999997 422.99999999999994 C 202.20913899932316 422.99999999999994 203.99999999999997 424.7908610006768 203.99999999999997 426.99999999999994 Z" stroke-opacity="1" stroke-linecap="round" stroke-linejoin="round" stroke-miterlimit="10"/><path fill="rgb(68,68,68)" stroke="none" paint-order="stroke fill markers" d=" M 656.4105660335988 188.29527390529472 C 656.4105660335988 190.50441290461788 654.619705032922 192.29527390529472 652.4105660335988 192.29527390529472 C 650.2014270342756 192.29527390529472 648.4105660335988 190.50441290461788 648.4105660335988 188.29527390529472 C 648.4105660335988 186.08613490597153 650.2014270342756 184.29527390529472 652.4105660335988 184.29527390529472 C 654.619705032922 184.29527390529472 656.4105660335988 186.08613490597153 656.4105660335988 188.29527390529472 Z" fill-opacity="1"/><path fill="none" stroke="rgb(0,0,0)" paint-order="fill stroke markers" d=" M 656.4105660335988 188.29527390529472 C 656.4105660335988 190.50441290461788 654.619705032922 192.29527390529472 652.4105660335988 192.29527390529472 C 650.2014270342756 192.29527390529472 648.4105660335988 190.50441290461788 648.4105660335988 188.29527390529472 C 648.4105660335988 186.08613490597153 650.2014270342756 184.29527390529472 652.4105660335988 184.29527390529472 C 654.619705032922 184.29527390529472 656.4105660335988 186.08613490597153 656.4105660335988 188.29527390529472 Z" stroke-opacity="1" stroke-linecap="round" stroke-linejoin="round" stroke-miterlimit="10"/><path fill="rgb(68,68,68)" stroke="none" paint-order="stroke fill markers" d=" M 396.92470300909747 325.20742076729283 C 396.92470300909747 327.416559766616 395.13384200842063 329.20742076729283 392.92470300909747 329.20742076729283 C 390.7155640097743 329.20742076729283 388.92470300909747 327.416559766616 388.92470300909747 325.20742076729283 C 388.92470300909747 322.9982817679697 390.7155640097743 321.20742076729283 392.92470300909747 321.20742076729283 C 395.13384200842063 321.20742076729283 396.92470300909747 322.9982817679697 396.92470300909747 325.20742076729283 Z" fill-opacity="1"/><path fill="none" stroke="rgb(0,0,0)" paint-order="fill stroke markers" d=" M 396.92470300909747 325.20742076729283 C 396.92470300909747 327.416559766616 395.13384200842063 329.20742076729283 392.92470300909747 329.20742076729283 C 390.7155640097743 329.20742076729283 388.92470300909747 327.416559766616 388.92470300909747 325.20742076729283 C 388.92470300909747 322.9982817679697 390.7155640097743 321.20742076729283 392.92470300909747 321.20742076729283 C 395.13384200842063 321.20742076729283 396.92470300909747 322.9982817679697 396.92470300909747 325.20742076729283 Z" stroke-opacity="1" stroke-linecap="round" stroke-linejoin="round" stroke-miterlimit="10"/></g></g></svg>