<svg version="1.1" xmlns="http://www.w3.org/2000/svg" xmlns:xlink="http://www.w3.org/1999/xlink" width="884" height="562"><defs><clipPath id="GTRLKxbVKnak"><path fill="none" stroke="none" d=" M 0 0 L 884 0 L 884 562 L 0 562 L 0 0 Z"/></clipPath></defs><g transform="scale(1,1)" clip-path="url(#GTRLKxbVKnak)"><g><rect fill="rgb(255,255,255)" stroke="none" x="0" y="0" width="884" height="562" fill-opacity="1"/><path fill="none" stroke="rgb(0,51,153)" paint-order="fill stroke markers" d=" M 227.99999999999994 190.50000000000045 L 507.99999999999994 251.50000000000045" stroke-opacity="0.6980392156862745" stroke-linecap="round" stroke-linejoin="round" stroke-miterlimit="10" stroke-width="2.5"/><path fill="none" stroke="rgb(0,51,153)" paint-order="fill stroke markers" d=" M 507.99999999999994 251.50000000000045 L 433.99999999999994 77.50000000000034" stroke-opacity="0.6980392156862745" stroke-linecap="round" stroke-linejoin="round" stroke-miterlimit="10" stroke-width="2.5"/><path fill="none" stroke="rgb(0,51,153)" paint-order="fill stroke markers" d=" M 433.99999999999994 77.50000000000034 L 227.99999999999994 190.50000000000045" stroke-opacity="0.6980392156862745" stroke-linecap="round" stroke-linejoin="round" stroke-miterlimit="10" stroke-width="2.5"/><path fill="rgb(77,77,255)" stroke="none" paint-order="stroke fill markers" d=" M 232.99999999999994 190.50000000000045 C 232.99999999999994 193.26142374915443 230.76142374915392 195.50000000000045 227.99999999999994 195.50000000000045 C 225.23857625084597 195.50000000000045 222.99999999999994 193.26142374915443 222.99999999999994 190.50000000000045 C 222.99999999999994 187.73857625084648 225.23857625084597 185.50000000000045 227.99999999999994 185.50000000000045 C 230.76142374915392 185.50000000000045 232.99999999999994 187.73857625084648 232.99999999999994 190.50000000000045 Z" fill-opacity="1"/><path fill="none" stroke="rgb(0,0,0)" paint-order="fill stroke markers" d=" M 232.99999999999994 190.50000000000045 C 232.99999999999994 193.26142374915443 230.76142374915392 195.50000000000045 227.99999999999994 195.50000000000045 C 225.23857625084597 195.50000000000045 222.99999999999994 193.26142374915443 222.99999999999994 190.50000000000045 C 222.99999999999994 187.73857625084648 225.23857625084597 185.50000000000045 227.99999999999994 185.50000000000045 C 230.76142374915392 185.50000000000045 232.99999999999994 187.73857625084648 232.99999999999994 190.50000000000045 Z" stroke-opacity="1" stroke-linecap="round" stroke-linejoin="round" stroke-miterlimit="10"/><path fill="rgb(77,77,255)" stroke="none" paint-order="stroke fill markers" d=" M 513 251.50000000000045 C 513 254.26142374915443 510.7614237491539 256.50000000000045 507.99999999999994 256.50000000000045 C 505.238576250846 256.50000000000045 502.99999999999994 254.26142374915443 502.99999999999994 251.50000000000045 C 502.99999999999994 248.73857625084648 505.238576250846 246.50000000000045 507.99999999999994 246.50000000000045 C 510.7614237491539 246.50000000000045 513 248.73857625084648 513 251.50000000000045 Z" fill-opacity="1"/><path fill="none" stroke="rgb(0,0,0)" paint-order="fill stroke markers" d=" M 513 251.50000000000045 C 513 254.26142374915443 510.7614237491539 256.50000000000045 507.99999999999994 256.50000000000045 C 505.238576250846 256.50000000000045 502.99999999999994 254.26142374915443 502.99999999999994 251.50000000000045 C 502.99999999999994 248.73857625084648 505.238576250846 246.50000000000045 507.99999999999994 246.50000000000045 C 510.7614237491539 246.50000000000045 513 248.73857625084648 513 251.50000000000045 Z" stroke-opacity="1" stroke-linecap="round" stroke-linejoin="round" stroke-miterlimit="10"/><path fill="rgb(77,77,255)" stroke="none" paint-order="stroke fill markers" d=" M 438.99999999999994 77.50000000000034 C 438.99999999999994 80.2614237491543 436.7614237491539 82.50000000000034 433.99999999999994 82.50000000000034 C 431.238576250846 82.50000000000034 428.99999999999994 80.2614237491543 428.99999999999994 77.50000000000034 C 428.99999999999994 74.73857625084638 431.238576250846 72.50000000000034 433.99999999999994 72.50000000000034 C 436.7614237491539 72.50000000000034 438.99999999999994 74.73857625084638 438.99999999999994 77.50000000000034 Z" fill-opacity="1"/><path fill="none" stroke="rgb(0,0,0)" paint-order="fill stroke markers" d=" M 438.99999999999994 77.50000000000034 C 438.99999999999994 80.2614237491543 436.7614237491539 82.50000000000034 433.99999999999994 82.50000000000034 C 431.238576250846 82.50000000000034 428.99999999999994 80.2614237491543 428.99999999999994 77.50000000000034 C 428.99999999999994 74.73857625084638 431.238576250846 72.50000000000034 433.99999999999994 72.50000000000034 C 436.7614237491539 72.50000000000034 438.99999999999994 74.73857625084638 438.99999999999994 77.50000000000034 Z" stroke-opacity="1" stroke-linecap="round" stroke-linejoin="round" stroke-miterlimit="10"/><path fill="rgb(77,77,255)" stroke="none" paint-order="stroke fill markers" d=" M 442.99999999999994 186.50000000000057 C 442.99999999999994 189.26142374915455 440.7614237491539 191.50000000000057 437.99999999999994 191.50000000000057 C 435.238576250846 191.50000000000057 432.99999999999994 189.26142374915455 432.99999999999994 186.50000000000057 C 432.99999999999994 183.7385762508466 435.238576250846 181.50000000000057 437.99999999999994 181.50000000000057 C 440.7614237491539 181.50000000000057 442.99999999999994 183.7385762508466 442.99999999999994 186.50000000000057 Z" fill-opacity="1"/><path fill="none" stroke="rgb(0,0,0)" paint-order="fill stroke markers" d=" M 442.99999999999994 186.50000000000057 C 442.99999999999994 189.26142374915455 440.7614237491539 191.50000000000057 437.99999999999994 191.50000000000057 C 435.238576250846 191.50000000000057 432.99999999999994 189.26142374915455 432.99999999999994 186.50000000000057 C 432.99999999999994 183.7385762508466 435.238576250846 181.50000000000057 437.99999999999994 181.50000000000057 C 440.7614237491539 181.50000000000057 442.99999999999994 183.7385762508466 442.99999999999994 186.50000000000057 Z" stroke-opacity="1" stroke-linecap="round" stroke-linejoin="round" stroke-miterlimit="10"/><g transform="scale(27,27)"><g transform="translate(15.11111111111111,7.133598518518518)"><path fill="rgb(77,77,255)" stroke="none" paint-order="stroke fill markers" d=" M 0.20600000000000002 -0.4 L 0.132 -0.105 Q 0.126 -0.08 0.126 -0.057 Q 0.126 -0.011 0.157 -0.011 Q 0.223 -0.011 0.273 -0.108 L 0.28700000000000003 -0.139 Q 0.293 -0.152 0.302 -0.153 Q 0.314 -0.153 0.314 -0.14300000000000002 Q 0.314 -0.13 0.28800000000000003 -0.08600000000000001 Q 0.23 0.011 0.155 0.011 Q 0.097 0.011 0.073 -0.037 Q 0.063 -0.057 0.063 -0.081 Q 0.063 -0.1 0.124 -0.34 L 0.139 -0.4 L 0.051000000000000004 -0.4 Q 0.026000000000000002 -0.4 0.024 -0.40800000000000003 L 0.023 -0.40800000000000003 L 0.023 -0.41200000000000003 Q 0.023 -0.429 0.039 -0.431 L 0.053 -0.431 L 0.147 -0.431 L 0.186 -0.59 Q 0.195 -0.625 0.226 -0.626 Q 0.252 -0.626 0.255 -0.599 Q 0.255 -0.593 0.214 -0.431 L 0.302 -0.431 Q 0.328 -0.431 0.33 -0.42 Q 0.33 -0.402 0.314 -0.4 L 0.313 -0.4 L 0.3 -0.4 L 0.20600000000000002 -0.4 Z"/></g></g></g></g></svg>